<?xml version="1.0" encoding="UTF-8"?>
<svg xmlns="http://www.w3.org/2000/svg" width="754" height="710" viewBox="0 0 754 710" font-family="'PingFang SC','Heiti SC','Noto Sans CJK SC',sans-serif" style="background:#FDFCF8">
<defs>
  <pattern id="floorwood" width="20" height="6" patternUnits="userSpaceOnUse">
    <rect width="20" height="6" fill="#E8D2A8"/>
    <line x1="0" y1="3" x2="20" y2="3" stroke="#D4B888" stroke-width="0.4"/>
  </pattern>
  <pattern id="rug" width="8" height="8" patternUnits="userSpaceOnUse">
    <rect width="8" height="8" fill="#AFD4C0"/>
    <circle cx="4" cy="4" r="0.8" fill="#8BBFA7" opacity="0.5"/>
  </pattern>
</defs>
<text x="377.0" y="38" text-anchor="middle" font-size="22" font-weight="bold" fill="#2C3539">极简书房改造 v1 · 平面图</text>
<text x="377.0" y="60" text-anchor="middle" font-size="13" fill="#6B6B6B">20.0 m² · 5.0 m × 4.0 m</text>
<g transform="translate(630,112)">
  <circle cx="0" cy="0" r="24" fill="none" stroke="#2C3539" stroke-width="1"/>
  <polygon points="0,-20 5,0 0,-4 -5,0" fill="#F4B89A"/>
  <polygon points="0,20 5,0 0,4 -5,0" fill="#2C3539"/>
  <text x="0" y="-28" text-anchor="middle" font-size="11" font-weight="bold">N</text>
  <text x="0" y="37" text-anchor="middle" font-size="11" fill="#6B6B6B">S</text>
</g>
<rect x="150" y="110" width="400" height="320" fill="url(#floorwood)" stroke="none"/>
<rect x="138" y="98" width="424" height="344" fill="none" stroke="#2C3539" stroke-width="3"/>
<rect x="150" y="110" width="400" height="320" fill="none" stroke="#2C3539" stroke-width="1.5"/>
<line x1="150" y1="86" x2="550" y2="86" stroke="#2C3539" stroke-width="0.5"/>
<line x1="150" y1="82" x2="150" y2="90" stroke="#2C3539" stroke-width="0.5"/>
<line x1="550" y1="82" x2="550" y2="90" stroke="#2C3539" stroke-width="0.5"/>
<text x="350.0" y="80" text-anchor="middle" font-size="11" font-weight="bold" fill="#2C3539">5000 mm</text>
<line x1="582" y1="110" x2="582" y2="430" stroke="#2C3539" stroke-width="0.5"/>
<line x1="578" y1="110" x2="586" y2="110" stroke="#2C3539" stroke-width="0.5"/>
<line x1="578" y1="430" x2="586" y2="430" stroke="#2C3539" stroke-width="0.5"/>
<text x="598" y="270.0" text-anchor="middle" font-size="11" font-weight="bold" fill="#2C3539" transform="rotate(90 598 270.0)">4000 mm</text>
<rect x="382.0" y="286.0" width="144.0" height="128.0" fill="url(#rug)" fill-opacity="0.55" stroke="#7CA390" stroke-width="0.8" stroke-dasharray="3 2"/>
<rect x="174.0" y="112.4" width="352.0" height="28.000000000000007" fill="#D4B888" stroke="#8B6F47" stroke-width="0.9"/>
<rect x="178.0" y="240.08339139304843" width="344.0" height="40.0" fill="#D4B888" stroke="#8B6F47" stroke-width="0.9"/>
<rect x="178.0" y="133.8670422676467" width="344.0" height="40.0" fill="#D4B888" stroke="#8B6F47" stroke-width="0.9"/>
<rect x="178.0" y="203.52599549841784" width="344.0" height="40.0" fill="#D4B888" stroke="#8B6F47" stroke-width="0.9"/>
<rect x="158.0" y="279.53261272497815" width="160.0" height="56.0" fill="#A87858" stroke="#6B4A2A" stroke-width="0.9"/>
<rect x="218.0" y="335.53261272497815" width="40.0" height="40.0" fill="#5B3A29" stroke="#3A2818" stroke-width="0.9"/>
<rect x="434.0" y="330.0" width="72.0" height="64.00000000000001" fill="#5B3A29" stroke="#3A2818" stroke-width="0.9"/>
<rect x="434.0" y="394.0" width="72.0" height="8.000000000000007" fill="#E0D4BC" stroke="#8B6F47" stroke-width="0.9"/>
<rect x="518.8000000000001" y="375.6" width="28.800000000000026" height="28.79999999999999" fill="#E0D4BC" stroke="#8B6F47" stroke-width="0.9"/>
<rect x="482.0" y="171.52599549841784" width="56.000000000000014" height="31.999999999999993" fill="#D4B888" stroke="#8B6F47" stroke-width="0.9"/>
<text x="350.0" y="262.08339139304843" text-anchor="middle" font-size="10" font-weight="bold" fill="#2C3539">书架</text>
<text x="350.0" y="155.8670422676467" text-anchor="middle" font-size="10" font-weight="bold" fill="#2C3539">书架</text>
<text x="350.0" y="225.52599549841784" text-anchor="middle" font-size="10" font-weight="bold" fill="#2C3539">书架</text>
<text x="350.0" y="131.4" text-anchor="middle" font-size="8" fill="#2C3539">书架</text>
<text x="238.0" y="309.53261272497815" text-anchor="middle" font-size="10" font-weight="bold" fill="#2C3539">书桌</text>
<g transform="translate(150,470)">
  <text x="0" y="-6" font-size="10" fill="#6B6B6B">比例尺 Scale 1:50</text>
  <rect x="0" y="0" width="80" height="8" fill="#2C3539"/>
  <rect x="80" y="0" width="80" height="8" fill="#FAFAFA" stroke="#2C3539"/>
  <text x="0" y="22" font-size="10">0</text>
  <text x="80" y="22" font-size="10" text-anchor="middle">1m</text>
  <text x="160" y="22" font-size="10" text-anchor="end">2m</text>
</g>
<g transform="translate(150,510)" font-size="11">
  <text x="0" y="0" font-weight="bold" fill="#2C3539">图例 Legend</text>
  <rect x="0" y="12" width="14" height="14" fill="#E0D4BC" stroke="#8B6F47"/>
  <text x="20" y="23" fill="#2C3539">储物家具（衣柜/书架/柜体）</text>
  <rect x="0" y="32" width="14" height="14" fill="url(#floorwood)" stroke="#8B6F47"/>
  <text x="20" y="43" fill="#2C3539">木地板</text>
  <rect x="0" y="52" width="14" height="14" fill="#F0E4D0" stroke="#8B6F47"/>
  <text x="20" y="63" fill="#2C3539">床具 · 软垫</text>
  <rect x="0" y="72" width="14" height="14" fill="#F4B89A" stroke="#C88770"/>
  <text x="20" y="83" fill="#2C3539">软装 · 单椅 · 抱枕</text>
  <rect x="0" y="92" width="14" height="14" fill="#AFD4C0" stroke="#7CA390"/>
  <text x="20" y="103" fill="#2C3539">椅类 · 绿植 · 装饰</text>
  <rect x="0" y="112" width="14" height="14" fill="#D9493A" stroke="#8B2E22"/>
  <text x="20" y="123" fill="#2C3539">桌案（餐桌/茶几/书桌）</text>
</g>
<g transform="translate(377.0,670)" font-size="10" fill="#6B6B6B" text-anchor="middle">
  <text x="0" y="0">Arctura Labs · Studio Copilot · 2026-04-27</text>
  <text x="0" y="16">📐 制图：基于 brief.json · 坐标比例 1m = 80px · 墙厚 150mm</text>
</g>
</svg>