ISO-10303-21;
HEADER;
FILE_DESCRIPTION(('ViewDefinition[DesignTransferView]'),'2;1');
FILE_NAME('/dev/null','2026-04-15T00:00:59+08:00',(''),(''),'IfcOpenShell 0.8.5','IfcOpenShell 0.8.5','Nobody');
FILE_SCHEMA(('IFC4'));
ENDSEC;
DATA;
#1=IFCPROJECT('3x_$BgZGnBL8zglBCROBLE',$,'CoffeeLab80',$,$,$,$,(#10),#5);
#2=IFCSIUNIT(*,.LENGTHUNIT.,$,.METRE.);
#3=IFCSIUNIT(*,.AREAUNIT.,$,.SQUARE_METRE.);
#4=IFCSIUNIT(*,.VOLUMEUNIT.,$,.CUBIC_METRE.);
#5=IFCUNITASSIGNMENT((#2,#3,#4));
#6=IFCCARTESIANPOINT((0.,0.,0.));
#7=IFCDIRECTION((0.,0.,1.));
#8=IFCDIRECTION((1.,0.,0.));
#9=IFCAXIS2PLACEMENT3D(#6,#7,#8);
#10=IFCGEOMETRICREPRESENTATIONCONTEXT($,'Model',3,1.0000000000000001E-05,#9,$);
#11=IFCGEOMETRICREPRESENTATIONSUBCONTEXT('Body','Model',*,*,*,*,#10,$,.MODEL_VIEW.,$);
#12=IFCSITE('2oxG281xH0xQuYlC6pRbCK',$,'Site',$,$,$,$,$,$,$,$,$,$,$);
#13=IFCBUILDING('1gwkmujHL8JAIi1FUehBDk',$,'Building',$,$,$,$,$,$,$,$,$);
#14=IFCBUILDINGSTOREY('0edDx_He9EpvPcvAYxewox',$,'Ground Floor',$,$,$,$,$,$,$);
#15=IFCRELAGGREGATES('2IX9AuGWLAfuY64gHiPcq_',$,$,$,#1,(#12));
#16=IFCRELAGGREGATES('0CCQrdY6n3Tu2XtEjmPPP1',$,$,$,#12,(#13));
#17=IFCRELAGGREGATES('2TFZTRhq17TPEsmWD1h$bF',$,$,$,#13,(#14));
#18=IFCSLAB('3XPUNTW5H99ffBEA3Yz69v',$,'Floor',$,$,#38,#32,$,.FLOOR.);
#24=IFCCARTESIANPOINT((0.,0.));
#25=IFCAXIS2PLACEMENT2D(#24,$);
#26=IFCRECTANGLEPROFILEDEF(.AREA.,$,#25,10.,8.);
#27=IFCCARTESIANPOINT((0.,0.,-0.0050000000000000001));
#28=IFCAXIS2PLACEMENT3D(#27,$,$);
#29=IFCDIRECTION((0.,0.,1.));
#30=IFCEXTRUDEDAREASOLID(#26,#28,#29,0.01);
#31=IFCSHAPEREPRESENTATION(#11,'Body','SweptSolid',(#30));
#32=IFCPRODUCTDEFINITIONSHAPE($,$,(#31));
#33=IFCRELCONTAINEDINSPATIALSTRUCTURE('3uqtEbwSr8Texsow_R4$Av',$,$,$,(#1439,#1199,#59,#959,#259,#719,#1159,#479,#219,#1399,#1139,#459,#899,#1339,#1359,#659,#1099,#1559,#419,#619,#639,#1539,#839,#1299,#159,#599,#1059,#799,#119,#1039,#1239,#99,#999,#299,#759,#1219,#539,#1419,#279,#1179,#739,#499,#1379,#239,#939,#699,#919,#679,#1119,#879,#439,#199,#399,#859,#1319,#179,#1079,#1519,#18,#379,#1279,#139,#579,#1479,#339,#1499,#359,#819,#1259,#559,#1019,#1459,#319,#779,#79,#519,#979,#39),#14);
#34=IFCCARTESIANPOINT((0.,0.,0.));
#35=IFCDIRECTION((0.,0.,1.));
#36=IFCDIRECTION((1.,0.,0.));
#37=IFCAXIS2PLACEMENT3D(#34,#35,#36);
#38=IFCLOCALPLACEMENT($,#37);
#39=IFCWALL('00L99FiU94bufB2YRQtj8p',$,'WallBack',$,$,#58,#53,$,$);
#45=IFCCARTESIANPOINT((0.,0.));
#46=IFCAXIS2PLACEMENT2D(#45,$);
#47=IFCRECTANGLEPROFILEDEF(.AREA.,$,#46,10.,0.10000000000000001);
#48=IFCCARTESIANPOINT((0.,0.,-1.75));
#49=IFCAXIS2PLACEMENT3D(#48,$,$);
#50=IFCDIRECTION((0.,0.,1.));
#51=IFCEXTRUDEDAREASOLID(#47,#49,#50,3.5);
#52=IFCSHAPEREPRESENTATION(#11,'Body','SweptSolid',(#51));
#53=IFCPRODUCTDEFINITIONSHAPE($,$,(#52));
#54=IFCCARTESIANPOINT((0.,4.,1.75));
#55=IFCDIRECTION((0.,0.,1.));
#56=IFCDIRECTION((1.,0.,0.));
#57=IFCAXIS2PLACEMENT3D(#54,#55,#56);
#58=IFCLOCALPLACEMENT($,#57);
#59=IFCWALL('2I8Cyj5iLAHOly5nRwVDkm',$,'WallFront',$,$,#78,#73,$,$);
#65=IFCCARTESIANPOINT((0.,0.));
#66=IFCAXIS2PLACEMENT2D(#65,$);
#67=IFCRECTANGLEPROFILEDEF(.AREA.,$,#66,10.,0.10000000000000001);
#68=IFCCARTESIANPOINT((0.,0.,-1.75));
#69=IFCAXIS2PLACEMENT3D(#68,$,$);
#70=IFCDIRECTION((0.,0.,1.));
#71=IFCEXTRUDEDAREASOLID(#67,#69,#70,3.5);
#72=IFCSHAPEREPRESENTATION(#11,'Body','SweptSolid',(#71));
#73=IFCPRODUCTDEFINITIONSHAPE($,$,(#72));
#74=IFCCARTESIANPOINT((0.,-4.,1.75));
#75=IFCDIRECTION((0.,0.,1.));
#76=IFCDIRECTION((1.,0.,0.));
#77=IFCAXIS2PLACEMENT3D(#74,#75,#76);
#78=IFCLOCALPLACEMENT($,#77);
#79=IFCWALL('2UVKov9aX2BgRpL1pl8rU5',$,'WallLeft',$,$,#98,#93,$,$);
#85=IFCCARTESIANPOINT((0.,0.));
#86=IFCAXIS2PLACEMENT2D(#85,$);
#87=IFCRECTANGLEPROFILEDEF(.AREA.,$,#86,0.10000000000000001,8.);
#88=IFCCARTESIANPOINT((0.,0.,-1.75));
#89=IFCAXIS2PLACEMENT3D(#88,$,$);
#90=IFCDIRECTION((0.,0.,1.));
#91=IFCEXTRUDEDAREASOLID(#87,#89,#90,3.5);
#92=IFCSHAPEREPRESENTATION(#11,'Body','SweptSolid',(#91));
#93=IFCPRODUCTDEFINITIONSHAPE($,$,(#92));
#94=IFCCARTESIANPOINT((-5.,0.,1.75));
#95=IFCDIRECTION((0.,0.,1.));
#96=IFCDIRECTION((1.,0.,0.));
#97=IFCAXIS2PLACEMENT3D(#94,#95,#96);
#98=IFCLOCALPLACEMENT($,#97);
#99=IFCWALL('2jfvAa96X07xFON9Y6nSrL',$,'WallRight',$,$,#118,#113,$,$);
#105=IFCCARTESIANPOINT((0.,0.));
#106=IFCAXIS2PLACEMENT2D(#105,$);
#107=IFCRECTANGLEPROFILEDEF(.AREA.,$,#106,0.10000000000000001,8.);
#108=IFCCARTESIANPOINT((0.,0.,-1.75));
#109=IFCAXIS2PLACEMENT3D(#108,$,$);
#110=IFCDIRECTION((0.,0.,1.));
#111=IFCEXTRUDEDAREASOLID(#107,#109,#110,3.5);
#112=IFCSHAPEREPRESENTATION(#11,'Body','SweptSolid',(#111));
#113=IFCPRODUCTDEFINITIONSHAPE($,$,(#112));
#114=IFCCARTESIANPOINT((5.,0.,1.75));
#115=IFCDIRECTION((0.,0.,1.));
#116=IFCDIRECTION((1.,0.,0.));
#117=IFCAXIS2PLACEMENT3D(#114,#115,#116);
#118=IFCLOCALPLACEMENT($,#117);
#119=IFCWALL('3b3TXEycjFHgnE7GTkjBex',$,'WallKitchen',$,$,#138,#133,$,$);
#125=IFCCARTESIANPOINT((0.,0.));
#126=IFCAXIS2PLACEMENT2D(#125,$);
#127=IFCRECTANGLEPROFILEDEF(.AREA.,$,#126,0.10000000000000001,4.);
#128=IFCCARTESIANPOINT((0.,0.,-1.3));
#129=IFCAXIS2PLACEMENT3D(#128,$,$);
#130=IFCDIRECTION((0.,0.,1.));
#131=IFCEXTRUDEDAREASOLID(#127,#129,#130,2.6000000000000001);
#132=IFCSHAPEREPRESENTATION(#11,'Body','SweptSolid',(#131));
#133=IFCPRODUCTDEFINITIONSHAPE($,$,(#132));
#134=IFCCARTESIANPOINT((2.5,2.,1.3));
#135=IFCDIRECTION((0.,0.,1.));
#136=IFCDIRECTION((1.,0.,0.));
#137=IFCAXIS2PLACEMENT3D(#134,#135,#136);
#138=IFCLOCALPLACEMENT($,#137);
#139=IFCBUILDINGELEMENTPROXY('2YC1Trpnj9IPVMh0ZOdpKm',$,'BarH',$,$,#158,#153,$,$);
#145=IFCCARTESIANPOINT((0.,0.));
#146=IFCAXIS2PLACEMENT2D(#145,$);
#147=IFCRECTANGLEPROFILEDEF(.AREA.,$,#146,4.4000000000000004,1.);
#148=IFCCARTESIANPOINT((0.,0.,-0.55000000000000004));
#149=IFCAXIS2PLACEMENT3D(#148,$,$);
#150=IFCDIRECTION((0.,0.,1.));
#151=IFCEXTRUDEDAREASOLID(#147,#149,#150,1.1000000000000001);
#152=IFCSHAPEREPRESENTATION(#11,'Body','SweptSolid',(#151));
#153=IFCPRODUCTDEFINITIONSHAPE($,$,(#152));
#154=IFCCARTESIANPOINT((-2.,2.5,0.55000000000000004));
#155=IFCDIRECTION((0.,0.,1.));
#156=IFCDIRECTION((1.,0.,0.));
#157=IFCAXIS2PLACEMENT3D(#154,#155,#156);
#158=IFCLOCALPLACEMENT($,#157);
#159=IFCBUILDINGELEMENTPROXY('3inAI0hkH5ORdgc3gcO9EI',$,'BarV',$,$,#178,#173,$,$);
#165=IFCCARTESIANPOINT((0.,0.));
#166=IFCAXIS2PLACEMENT2D(#165,$);
#167=IFCRECTANGLEPROFILEDEF(.AREA.,$,#166,1.,2.2000000000000002);
#168=IFCCARTESIANPOINT((0.,0.,-0.55000000000000004));
#169=IFCAXIS2PLACEMENT3D(#168,$,$);
#170=IFCDIRECTION((0.,0.,1.));
#171=IFCEXTRUDEDAREASOLID(#167,#169,#170,1.1000000000000001);
#172=IFCSHAPEREPRESENTATION(#11,'Body','SweptSolid',(#171));
#173=IFCPRODUCTDEFINITIONSHAPE($,$,(#172));
#174=IFCCARTESIANPOINT((-0.20000000000000001,1.5,0.55000000000000004));
#175=IFCDIRECTION((0.,0.,1.));
#176=IFCDIRECTION((1.,0.,0.));
#177=IFCAXIS2PLACEMENT3D(#174,#175,#176);
#178=IFCLOCALPLACEMENT($,#177);
#179=IFCBUILDINGELEMENTPROXY('2NNp0vdf13oxhIzAEVt$ff',$,'BackBar',$,$,#198,#193,$,$);
#185=IFCCARTESIANPOINT((0.,0.));
#186=IFCAXIS2PLACEMENT2D(#185,$);
#187=IFCRECTANGLEPROFILEDEF(.AREA.,$,#186,4.4000000000000004,0.20000000000000001);
#188=IFCCARTESIANPOINT((0.,0.,-1.6000000000000001));
#189=IFCAXIS2PLACEMENT3D(#188,$,$);
#190=IFCDIRECTION((0.,0.,1.));
#191=IFCEXTRUDEDAREASOLID(#187,#189,#190,3.2000000000000002);
#192=IFCSHAPEREPRESENTATION(#11,'Body','SweptSolid',(#191));
#193=IFCPRODUCTDEFINITIONSHAPE($,$,(#192));
#194=IFCCARTESIANPOINT((-2.,3.8500000000000001,1.75));
#195=IFCDIRECTION((0.,0.,1.));
#196=IFCDIRECTION((1.,0.,0.));
#197=IFCAXIS2PLACEMENT3D(#194,#195,#196);
#198=IFCLOCALPLACEMENT($,#197);
#199=IFCBUILDINGELEMENTPROXY('1xai3eQQf6Eu54$IINswA0',$,'Shelf0',$,$,#218,#213,$,$);
#205=IFCCARTESIANPOINT((0.,0.));
#206=IFCAXIS2PLACEMENT2D(#205,$);
#207=IFCRECTANGLEPROFILEDEF(.AREA.,$,#206,4.2999999999999998,0.35999999999999999);
#208=IFCCARTESIANPOINT((0.,0.,-0.02));
#209=IFCAXIS2PLACEMENT3D(#208,$,$);
#210=IFCDIRECTION((0.,0.,1.));
#211=IFCEXTRUDEDAREASOLID(#207,#209,#210,0.040000000000000001);
#212=IFCSHAPEREPRESENTATION(#11,'Body','SweptSolid',(#211));
#213=IFCPRODUCTDEFINITIONSHAPE($,$,(#212));
#214=IFCCARTESIANPOINT((-2.,3.75,0.69999999999999996));
#215=IFCDIRECTION((0.,0.,1.));
#216=IFCDIRECTION((1.,0.,0.));
#217=IFCAXIS2PLACEMENT3D(#214,#215,#216);
#218=IFCLOCALPLACEMENT($,#217);
#219=IFCBUILDINGELEMENTPROXY('3UVjD_Grz7mwtYsq7pVz_2',$,'Shelf1',$,$,#238,#233,$,$);
#225=IFCCARTESIANPOINT((0.,0.));
#226=IFCAXIS2PLACEMENT2D(#225,$);
#227=IFCRECTANGLEPROFILEDEF(.AREA.,$,#226,4.2999999999999998,0.35999999999999999);
#228=IFCCARTESIANPOINT((0.,0.,-0.02));
#229=IFCAXIS2PLACEMENT3D(#228,$,$);
#230=IFCDIRECTION((0.,0.,1.));
#231=IFCEXTRUDEDAREASOLID(#227,#229,#230,0.040000000000000001);
#232=IFCSHAPEREPRESENTATION(#11,'Body','SweptSolid',(#231));
#233=IFCPRODUCTDEFINITIONSHAPE($,$,(#232));
#234=IFCCARTESIANPOINT((-2.,3.75,1.25));
#235=IFCDIRECTION((0.,0.,1.));
#236=IFCDIRECTION((1.,0.,0.));
#237=IFCAXIS2PLACEMENT3D(#234,#235,#236);
#238=IFCLOCALPLACEMENT($,#237);
#239=IFCBUILDINGELEMENTPROXY('3Tyel7gY58PPjTls4ogZW5',$,'Shelf2',$,$,#258,#253,$,$);
#245=IFCCARTESIANPOINT((0.,0.));
#246=IFCAXIS2PLACEMENT2D(#245,$);
#247=IFCRECTANGLEPROFILEDEF(.AREA.,$,#246,4.2999999999999998,0.35999999999999999);
#248=IFCCARTESIANPOINT((0.,0.,-0.02));
#249=IFCAXIS2PLACEMENT3D(#248,$,$);
#250=IFCDIRECTION((0.,0.,1.));
#251=IFCEXTRUDEDAREASOLID(#247,#249,#250,0.040000000000000001);
#252=IFCSHAPEREPRESENTATION(#11,'Body','SweptSolid',(#251));
#253=IFCPRODUCTDEFINITIONSHAPE($,$,(#252));
#254=IFCCARTESIANPOINT((-2.,3.75,1.8));
#255=IFCDIRECTION((0.,0.,1.));
#256=IFCDIRECTION((1.,0.,0.));
#257=IFCAXIS2PLACEMENT3D(#254,#255,#256);
#258=IFCLOCALPLACEMENT($,#257);
#259=IFCBUILDINGELEMENTPROXY('0zLVFPg2HDxe9S$Ph600Ql',$,'EspressoMachine',$,$,#278,#273,$,$);
#265=IFCCARTESIANPOINT((0.,0.));
#266=IFCAXIS2PLACEMENT2D(#265,$);
#267=IFCRECTANGLEPROFILEDEF(.AREA.,$,#266,0.80000000000000004,0.59999999999999998);
#268=IFCCARTESIANPOINT((0.,0.,-0.25));
#269=IFCAXIS2PLACEMENT3D(#268,$,$);
#270=IFCDIRECTION((0.,0.,1.));
#271=IFCEXTRUDEDAREASOLID(#267,#269,#270,0.5);
#272=IFCSHAPEREPRESENTATION(#11,'Body','SweptSolid',(#271));
#273=IFCPRODUCTDEFINITIONSHAPE($,$,(#272));
#274=IFCCARTESIANPOINT((-1.5,2.3999999999999999,1.3500000000000001));
#275=IFCDIRECTION((0.,0.,1.));
#276=IFCDIRECTION((1.,0.,0.));
#277=IFCAXIS2PLACEMENT3D(#274,#275,#276);
#278=IFCLOCALPLACEMENT($,#277);
#279=IFCBUILDINGELEMENTPROXY('048KNOa$L3Zvvrm8FZqJF_',$,'DisplayCase',$,$,#298,#293,$,$);
#285=IFCCARTESIANPOINT((0.,0.));
#286=IFCAXIS2PLACEMENT2D(#285,$);
#287=IFCRECTANGLEPROFILEDEF(.AREA.,$,#286,1.,0.5);
#288=IFCCARTESIANPOINT((0.,0.,-0.20000000000000001));
#289=IFCAXIS2PLACEMENT3D(#288,$,$);
#290=IFCDIRECTION((0.,0.,1.));
#291=IFCEXTRUDEDAREASOLID(#287,#289,#290,0.40000000000000002);
#292=IFCSHAPEREPRESENTATION(#11,'Body','SweptSolid',(#291));
#293=IFCPRODUCTDEFINITIONSHAPE($,$,(#292));
#294=IFCCARTESIANPOINT((-2.7999999999999998,2.3999999999999999,1.3));
#295=IFCDIRECTION((0.,0.,1.));
#296=IFCDIRECTION((1.,0.,0.));
#297=IFCAXIS2PLACEMENT3D(#294,#295,#296);
#298=IFCLOCALPLACEMENT($,#297);
#299=IFCFURNITURE('21F55um5v8M9DAhbx5yVb7',$,'SmallTable0',$,$,#318,#313,$,$);
#305=IFCCARTESIANPOINT((0.,0.));
#306=IFCAXIS2PLACEMENT2D(#305,$);
#307=IFCRECTANGLEPROFILEDEF(.AREA.,$,#306,0.80000000000000004,0.80000000000000004);
#308=IFCCARTESIANPOINT((0.,0.,-0.025000000000000001));
#309=IFCAXIS2PLACEMENT3D(#308,$,$);
#310=IFCDIRECTION((0.,0.,1.));
#311=IFCEXTRUDEDAREASOLID(#307,#309,#310,0.050000000000000003);
#312=IFCSHAPEREPRESENTATION(#11,'Body','SweptSolid',(#311));
#313=IFCPRODUCTDEFINITIONSHAPE($,$,(#312));
#314=IFCCARTESIANPOINT((-3.2000000000000002,-2.5,0.75));
#315=IFCDIRECTION((0.,0.,1.));
#316=IFCDIRECTION((1.,0.,0.));
#317=IFCAXIS2PLACEMENT3D(#314,#315,#316);
#318=IFCLOCALPLACEMENT($,#317);
#319=IFCFURNITURE('0MV3pRMrjC1ObZvaB6BRBu',$,'TableStem0',$,$,#338,#333,$,$);
#325=IFCCARTESIANPOINT((0.,0.));
#326=IFCAXIS2PLACEMENT2D(#325,$);
#327=IFCRECTANGLEPROFILEDEF(.AREA.,$,#326,0.14000000000000001,0.14000000000000001);
#328=IFCCARTESIANPOINT((0.,0.,-0.375));
#329=IFCAXIS2PLACEMENT3D(#328,$,$);
#330=IFCDIRECTION((0.,0.,1.));
#331=IFCEXTRUDEDAREASOLID(#327,#329,#330,0.75);
#332=IFCSHAPEREPRESENTATION(#11,'Body','SweptSolid',(#331));
#333=IFCPRODUCTDEFINITIONSHAPE($,$,(#332));
#334=IFCCARTESIANPOINT((-3.2000000000000002,-2.5,0.375));
#335=IFCDIRECTION((0.,0.,1.));
#336=IFCDIRECTION((1.,0.,0.));
#337=IFCAXIS2PLACEMENT3D(#334,#335,#336);
#338=IFCLOCALPLACEMENT($,#337);
#339=IFCFURNITURE('1czvs2_PP6Yx_t0fnd3gk2',$,'ChairA0',$,$,#358,#353,$,$);
#345=IFCCARTESIANPOINT((0.,0.));
#346=IFCAXIS2PLACEMENT2D(#345,$);
#347=IFCRECTANGLEPROFILEDEF(.AREA.,$,#346,0.40000000000000002,0.40000000000000002);
#348=IFCCARTESIANPOINT((0.,0.,-0.02));
#349=IFCAXIS2PLACEMENT3D(#348,$,$);
#350=IFCDIRECTION((0.,0.,1.));
#351=IFCEXTRUDEDAREASOLID(#347,#349,#350,0.040000000000000001);
#352=IFCSHAPEREPRESENTATION(#11,'Body','SweptSolid',(#351));
#353=IFCPRODUCTDEFINITIONSHAPE($,$,(#352));
#354=IFCCARTESIANPOINT((-3.75,-2.5,0.45000000000000001));
#355=IFCDIRECTION((0.,0.,1.));
#356=IFCDIRECTION((1.,0.,0.));
#357=IFCAXIS2PLACEMENT3D(#354,#355,#356);
#358=IFCLOCALPLACEMENT($,#357);
#359=IFCFURNITURE('1_gejyxm5FiB_vALM5LVZZ',$,'ChairAB0',$,$,#378,#373,$,$);
#365=IFCCARTESIANPOINT((0.,0.));
#366=IFCAXIS2PLACEMENT2D(#365,$);
#367=IFCRECTANGLEPROFILEDEF(.AREA.,$,#366,0.40000000000000002,0.080000000000000002);
#368=IFCCARTESIANPOINT((0.,0.,-0.29999999999999999));
#369=IFCAXIS2PLACEMENT3D(#368,$,$);
#370=IFCDIRECTION((0.,0.,1.));
#371=IFCEXTRUDEDAREASOLID(#367,#369,#370,0.59999999999999998);
#372=IFCSHAPEREPRESENTATION(#11,'Body','SweptSolid',(#371));
#373=IFCPRODUCTDEFINITIONSHAPE($,$,(#372));
#374=IFCCARTESIANPOINT((-3.75,-2.5,0.75));
#375=IFCDIRECTION((0.,0.,1.));
#376=IFCDIRECTION((1.,0.,0.));
#377=IFCAXIS2PLACEMENT3D(#374,#375,#376);
#378=IFCLOCALPLACEMENT($,#377);
#379=IFCFURNITURE('0CzfItHP5AkO6HpowMsvpY',$,'ChairB0',$,$,#398,#393,$,$);
#385=IFCCARTESIANPOINT((0.,0.));
#386=IFCAXIS2PLACEMENT2D(#385,$);
#387=IFCRECTANGLEPROFILEDEF(.AREA.,$,#386,0.40000000000000002,0.40000000000000002);
#388=IFCCARTESIANPOINT((0.,0.,-0.02));
#389=IFCAXIS2PLACEMENT3D(#388,$,$);
#390=IFCDIRECTION((0.,0.,1.));
#391=IFCEXTRUDEDAREASOLID(#387,#389,#390,0.040000000000000001);
#392=IFCSHAPEREPRESENTATION(#11,'Body','SweptSolid',(#391));
#393=IFCPRODUCTDEFINITIONSHAPE($,$,(#392));
#394=IFCCARTESIANPOINT((-2.6499999999999999,-2.5,0.45000000000000001));
#395=IFCDIRECTION((0.,0.,1.));
#396=IFCDIRECTION((1.,0.,0.));
#397=IFCAXIS2PLACEMENT3D(#394,#395,#396);
#398=IFCLOCALPLACEMENT($,#397);
#399=IFCFURNITURE('0zXkynOZnEhR37T6Z2qJ8g',$,'ChairBB0',$,$,#418,#413,$,$);
#405=IFCCARTESIANPOINT((0.,0.));
#406=IFCAXIS2PLACEMENT2D(#405,$);
#407=IFCRECTANGLEPROFILEDEF(.AREA.,$,#406,0.40000000000000002,0.080000000000000002);
#408=IFCCARTESIANPOINT((0.,0.,-0.29999999999999999));
#409=IFCAXIS2PLACEMENT3D(#408,$,$);
#410=IFCDIRECTION((0.,0.,1.));
#411=IFCEXTRUDEDAREASOLID(#407,#409,#410,0.59999999999999998);
#412=IFCSHAPEREPRESENTATION(#11,'Body','SweptSolid',(#411));
#413=IFCPRODUCTDEFINITIONSHAPE($,$,(#412));
#414=IFCCARTESIANPOINT((-2.6499999999999999,-2.5,0.75));
#415=IFCDIRECTION((0.,0.,1.));
#416=IFCDIRECTION((1.,0.,0.));
#417=IFCAXIS2PLACEMENT3D(#414,#415,#416);
#418=IFCLOCALPLACEMENT($,#417);
#419=IFCFURNITURE('1EtjhdRvn9bPvysP1uvrQ7',$,'SmallTable1',$,$,#438,#433,$,$);
#425=IFCCARTESIANPOINT((0.,0.));
#426=IFCAXIS2PLACEMENT2D(#425,$);
#427=IFCRECTANGLEPROFILEDEF(.AREA.,$,#426,0.80000000000000004,0.80000000000000004);
#428=IFCCARTESIANPOINT((0.,0.,-0.025000000000000001));
#429=IFCAXIS2PLACEMENT3D(#428,$,$);
#430=IFCDIRECTION((0.,0.,1.));
#431=IFCEXTRUDEDAREASOLID(#427,#429,#430,0.050000000000000003);
#432=IFCSHAPEREPRESENTATION(#11,'Body','SweptSolid',(#431));
#433=IFCPRODUCTDEFINITIONSHAPE($,$,(#432));
#434=IFCCARTESIANPOINT((-1.5,-2.5,0.75));
#435=IFCDIRECTION((0.,0.,1.));
#436=IFCDIRECTION((1.,0.,0.));
#437=IFCAXIS2PLACEMENT3D(#434,#435,#436);
#438=IFCLOCALPLACEMENT($,#437);
#439=IFCFURNITURE('3eOJMdAEb2FPsKhcGRAfNv',$,'TableStem1',$,$,#458,#453,$,$);
#445=IFCCARTESIANPOINT((0.,0.));
#446=IFCAXIS2PLACEMENT2D(#445,$);
#447=IFCRECTANGLEPROFILEDEF(.AREA.,$,#446,0.14000000000000001,0.14000000000000001);
#448=IFCCARTESIANPOINT((0.,0.,-0.375));
#449=IFCAXIS2PLACEMENT3D(#448,$,$);
#450=IFCDIRECTION((0.,0.,1.));
#451=IFCEXTRUDEDAREASOLID(#447,#449,#450,0.75);
#452=IFCSHAPEREPRESENTATION(#11,'Body','SweptSolid',(#451));
#453=IFCPRODUCTDEFINITIONSHAPE($,$,(#452));
#454=IFCCARTESIANPOINT((-1.5,-2.5,0.375));
#455=IFCDIRECTION((0.,0.,1.));
#456=IFCDIRECTION((1.,0.,0.));
#457=IFCAXIS2PLACEMENT3D(#454,#455,#456);
#458=IFCLOCALPLACEMENT($,#457);
#459=IFCFURNITURE('3lf11W0KH5KP957SiF9nEk',$,'ChairA1',$,$,#478,#473,$,$);
#465=IFCCARTESIANPOINT((0.,0.));
#466=IFCAXIS2PLACEMENT2D(#465,$);
#467=IFCRECTANGLEPROFILEDEF(.AREA.,$,#466,0.40000000000000002,0.40000000000000002);
#468=IFCCARTESIANPOINT((0.,0.,-0.02));
#469=IFCAXIS2PLACEMENT3D(#468,$,$);
#470=IFCDIRECTION((0.,0.,1.));
#471=IFCEXTRUDEDAREASOLID(#467,#469,#470,0.040000000000000001);
#472=IFCSHAPEREPRESENTATION(#11,'Body','SweptSolid',(#471));
#473=IFCPRODUCTDEFINITIONSHAPE($,$,(#472));
#474=IFCCARTESIANPOINT((-2.0499999999999998,-2.5,0.45000000000000001));
#475=IFCDIRECTION((0.,0.,1.));
#476=IFCDIRECTION((1.,0.,0.));
#477=IFCAXIS2PLACEMENT3D(#474,#475,#476);
#478=IFCLOCALPLACEMENT($,#477);
#479=IFCFURNITURE('3B5SOPoOf5MuP6njZAyTD5',$,'ChairAB1',$,$,#498,#493,$,$);
#485=IFCCARTESIANPOINT((0.,0.));
#486=IFCAXIS2PLACEMENT2D(#485,$);
#487=IFCRECTANGLEPROFILEDEF(.AREA.,$,#486,0.40000000000000002,0.080000000000000002);
#488=IFCCARTESIANPOINT((0.,0.,-0.29999999999999999));
#489=IFCAXIS2PLACEMENT3D(#488,$,$);
#490=IFCDIRECTION((0.,0.,1.));
#491=IFCEXTRUDEDAREASOLID(#487,#489,#490,0.59999999999999998);
#492=IFCSHAPEREPRESENTATION(#11,'Body','SweptSolid',(#491));
#493=IFCPRODUCTDEFINITIONSHAPE($,$,(#492));
#494=IFCCARTESIANPOINT((-2.0499999999999998,-2.5,0.75));
#495=IFCDIRECTION((0.,0.,1.));
#496=IFCDIRECTION((1.,0.,0.));
#497=IFCAXIS2PLACEMENT3D(#494,#495,#496);
#498=IFCLOCALPLACEMENT($,#497);
#499=IFCFURNITURE('3tU4JOHjH6yuRJPq6JISWD',$,'ChairB1',$,$,#518,#513,$,$);
#505=IFCCARTESIANPOINT((0.,0.));
#506=IFCAXIS2PLACEMENT2D(#505,$);
#507=IFCRECTANGLEPROFILEDEF(.AREA.,$,#506,0.40000000000000002,0.40000000000000002);
#508=IFCCARTESIANPOINT((0.,0.,-0.02));
#509=IFCAXIS2PLACEMENT3D(#508,$,$);
#510=IFCDIRECTION((0.,0.,1.));
#511=IFCEXTRUDEDAREASOLID(#507,#509,#510,0.040000000000000001);
#512=IFCSHAPEREPRESENTATION(#11,'Body','SweptSolid',(#511));
#513=IFCPRODUCTDEFINITIONSHAPE($,$,(#512));
#514=IFCCARTESIANPOINT((-0.94999999999999996,-2.5,0.45000000000000001));
#515=IFCDIRECTION((0.,0.,1.));
#516=IFCDIRECTION((1.,0.,0.));
#517=IFCAXIS2PLACEMENT3D(#514,#515,#516);
#518=IFCLOCALPLACEMENT($,#517);
#519=IFCFURNITURE('2h52bD5KPCtQL1nc9BcGx7',$,'ChairBB1',$,$,#538,#533,$,$);
#525=IFCCARTESIANPOINT((0.,0.));
#526=IFCAXIS2PLACEMENT2D(#525,$);
#527=IFCRECTANGLEPROFILEDEF(.AREA.,$,#526,0.40000000000000002,0.080000000000000002);
#528=IFCCARTESIANPOINT((0.,0.,-0.29999999999999999));
#529=IFCAXIS2PLACEMENT3D(#528,$,$);
#530=IFCDIRECTION((0.,0.,1.));
#531=IFCEXTRUDEDAREASOLID(#527,#529,#530,0.59999999999999998);
#532=IFCSHAPEREPRESENTATION(#11,'Body','SweptSolid',(#531));
#533=IFCPRODUCTDEFINITIONSHAPE($,$,(#532));
#534=IFCCARTESIANPOINT((-0.94999999999999996,-2.5,0.75));
#535=IFCDIRECTION((0.,0.,1.));
#536=IFCDIRECTION((1.,0.,0.));
#537=IFCAXIS2PLACEMENT3D(#534,#535,#536);
#538=IFCLOCALPLACEMENT($,#537);
#539=IFCFURNITURE('3vo2sfso53NeuboRjzHLVK',$,'SmallTable2',$,$,#558,#553,$,$);
#545=IFCCARTESIANPOINT((0.,0.));
#546=IFCAXIS2PLACEMENT2D(#545,$);
#547=IFCRECTANGLEPROFILEDEF(.AREA.,$,#546,0.80000000000000004,0.80000000000000004);
#548=IFCCARTESIANPOINT((0.,0.,-0.025000000000000001));
#549=IFCAXIS2PLACEMENT3D(#548,$,$);
#550=IFCDIRECTION((0.,0.,1.));
#551=IFCEXTRUDEDAREASOLID(#547,#549,#550,0.050000000000000003);
#552=IFCSHAPEREPRESENTATION(#11,'Body','SweptSolid',(#551));
#553=IFCPRODUCTDEFINITIONSHAPE($,$,(#552));
#554=IFCCARTESIANPOINT((-3.2000000000000002,-1.,0.75));
#555=IFCDIRECTION((0.,0.,1.));
#556=IFCDIRECTION((1.,0.,0.));
#557=IFCAXIS2PLACEMENT3D(#554,#555,#556);
#558=IFCLOCALPLACEMENT($,#557);
#559=IFCFURNITURE('0Pzm_uYin3gP$LEZ7aDX93',$,'TableStem2',$,$,#578,#573,$,$);
#565=IFCCARTESIANPOINT((0.,0.));
#566=IFCAXIS2PLACEMENT2D(#565,$);
#567=IFCRECTANGLEPROFILEDEF(.AREA.,$,#566,0.14000000000000001,0.14000000000000001);
#568=IFCCARTESIANPOINT((0.,0.,-0.375));
#569=IFCAXIS2PLACEMENT3D(#568,$,$);
#570=IFCDIRECTION((0.,0.,1.));
#571=IFCEXTRUDEDAREASOLID(#567,#569,#570,0.75);
#572=IFCSHAPEREPRESENTATION(#11,'Body','SweptSolid',(#571));
#573=IFCPRODUCTDEFINITIONSHAPE($,$,(#572));
#574=IFCCARTESIANPOINT((-3.2000000000000002,-1.,0.375));
#575=IFCDIRECTION((0.,0.,1.));
#576=IFCDIRECTION((1.,0.,0.));
#577=IFCAXIS2PLACEMENT3D(#574,#575,#576);
#578=IFCLOCALPLACEMENT($,#577);
#579=IFCFURNITURE('2StphuSfr6Yw6ZLtbEGUNM',$,'ChairA2',$,$,#598,#593,$,$);
#585=IFCCARTESIANPOINT((0.,0.));
#586=IFCAXIS2PLACEMENT2D(#585,$);
#587=IFCRECTANGLEPROFILEDEF(.AREA.,$,#586,0.40000000000000002,0.40000000000000002);
#588=IFCCARTESIANPOINT((0.,0.,-0.02));
#589=IFCAXIS2PLACEMENT3D(#588,$,$);
#590=IFCDIRECTION((0.,0.,1.));
#591=IFCEXTRUDEDAREASOLID(#587,#589,#590,0.040000000000000001);
#592=IFCSHAPEREPRESENTATION(#11,'Body','SweptSolid',(#591));
#593=IFCPRODUCTDEFINITIONSHAPE($,$,(#592));
#594=IFCCARTESIANPOINT((-3.75,-1.,0.45000000000000001));
#595=IFCDIRECTION((0.,0.,1.));
#596=IFCDIRECTION((1.,0.,0.));
#597=IFCAXIS2PLACEMENT3D(#594,#595,#596);
#598=IFCLOCALPLACEMENT($,#597);
#599=IFCFURNITURE('0buv01WvXDhxfY$nZUFWxf',$,'ChairAB2',$,$,#618,#613,$,$);
#605=IFCCARTESIANPOINT((0.,0.));
#606=IFCAXIS2PLACEMENT2D(#605,$);
#607=IFCRECTANGLEPROFILEDEF(.AREA.,$,#606,0.40000000000000002,0.080000000000000002);
#608=IFCCARTESIANPOINT((0.,0.,-0.29999999999999999));
#609=IFCAXIS2PLACEMENT3D(#608,$,$);
#610=IFCDIRECTION((0.,0.,1.));
#611=IFCEXTRUDEDAREASOLID(#607,#609,#610,0.59999999999999998);
#612=IFCSHAPEREPRESENTATION(#11,'Body','SweptSolid',(#611));
#613=IFCPRODUCTDEFINITIONSHAPE($,$,(#612));
#614=IFCCARTESIANPOINT((-3.75,-1.,0.75));
#615=IFCDIRECTION((0.,0.,1.));
#616=IFCDIRECTION((1.,0.,0.));
#617=IFCAXIS2PLACEMENT3D(#614,#615,#616);
#618=IFCLOCALPLACEMENT($,#617);
#619=IFCFURNITURE('28582qnIv0dwEDTU4n1SJk',$,'ChairB2',$,$,#638,#633,$,$);
#625=IFCCARTESIANPOINT((0.,0.));
#626=IFCAXIS2PLACEMENT2D(#625,$);
#627=IFCRECTANGLEPROFILEDEF(.AREA.,$,#626,0.40000000000000002,0.40000000000000002);
#628=IFCCARTESIANPOINT((0.,0.,-0.02));
#629=IFCAXIS2PLACEMENT3D(#628,$,$);
#630=IFCDIRECTION((0.,0.,1.));
#631=IFCEXTRUDEDAREASOLID(#627,#629,#630,0.040000000000000001);
#632=IFCSHAPEREPRESENTATION(#11,'Body','SweptSolid',(#631));
#633=IFCPRODUCTDEFINITIONSHAPE($,$,(#632));
#634=IFCCARTESIANPOINT((-2.6499999999999999,-1.,0.45000000000000001));
#635=IFCDIRECTION((0.,0.,1.));
#636=IFCDIRECTION((1.,0.,0.));
#637=IFCAXIS2PLACEMENT3D(#634,#635,#636);
#638=IFCLOCALPLACEMENT($,#637);
#639=IFCFURNITURE('3eirFLQ71BmhTdTqy_D3bB',$,'ChairBB2',$,$,#658,#653,$,$);
#645=IFCCARTESIANPOINT((0.,0.));
#646=IFCAXIS2PLACEMENT2D(#645,$);
#647=IFCRECTANGLEPROFILEDEF(.AREA.,$,#646,0.40000000000000002,0.080000000000000002);
#648=IFCCARTESIANPOINT((0.,0.,-0.29999999999999999));
#649=IFCAXIS2PLACEMENT3D(#648,$,$);
#650=IFCDIRECTION((0.,0.,1.));
#651=IFCEXTRUDEDAREASOLID(#647,#649,#650,0.59999999999999998);
#652=IFCSHAPEREPRESENTATION(#11,'Body','SweptSolid',(#651));
#653=IFCPRODUCTDEFINITIONSHAPE($,$,(#652));
#654=IFCCARTESIANPOINT((-2.6499999999999999,-1.,0.75));
#655=IFCDIRECTION((0.,0.,1.));
#656=IFCDIRECTION((1.,0.,0.));
#657=IFCAXIS2PLACEMENT3D(#654,#655,#656);
#658=IFCLOCALPLACEMENT($,#657);
#659=IFCFURNITURE('03TQNp74LBmxpMiifxOTHH',$,'SmallTable3',$,$,#678,#673,$,$);
#665=IFCCARTESIANPOINT((0.,0.));
#666=IFCAXIS2PLACEMENT2D(#665,$);
#667=IFCRECTANGLEPROFILEDEF(.AREA.,$,#666,0.80000000000000004,0.80000000000000004);
#668=IFCCARTESIANPOINT((0.,0.,-0.025000000000000001));
#669=IFCAXIS2PLACEMENT3D(#668,$,$);
#670=IFCDIRECTION((0.,0.,1.));
#671=IFCEXTRUDEDAREASOLID(#667,#669,#670,0.050000000000000003);
#672=IFCSHAPEREPRESENTATION(#11,'Body','SweptSolid',(#671));
#673=IFCPRODUCTDEFINITIONSHAPE($,$,(#672));
#674=IFCCARTESIANPOINT((-1.5,-1.,0.75));
#675=IFCDIRECTION((0.,0.,1.));
#676=IFCDIRECTION((1.,0.,0.));
#677=IFCAXIS2PLACEMENT3D(#674,#675,#676);
#678=IFCLOCALPLACEMENT($,#677);
#679=IFCFURNITURE('3CLzRggUP11A9mvMZLq$jh',$,'TableStem3',$,$,#698,#693,$,$);
#685=IFCCARTESIANPOINT((0.,0.));
#686=IFCAXIS2PLACEMENT2D(#685,$);
#687=IFCRECTANGLEPROFILEDEF(.AREA.,$,#686,0.14000000000000001,0.14000000000000001);
#688=IFCCARTESIANPOINT((0.,0.,-0.375));
#689=IFCAXIS2PLACEMENT3D(#688,$,$);
#690=IFCDIRECTION((0.,0.,1.));
#691=IFCEXTRUDEDAREASOLID(#687,#689,#690,0.75);
#692=IFCSHAPEREPRESENTATION(#11,'Body','SweptSolid',(#691));
#693=IFCPRODUCTDEFINITIONSHAPE($,$,(#692));
#694=IFCCARTESIANPOINT((-1.5,-1.,0.375));
#695=IFCDIRECTION((0.,0.,1.));
#696=IFCDIRECTION((1.,0.,0.));
#697=IFCAXIS2PLACEMENT3D(#694,#695,#696);
#698=IFCLOCALPLACEMENT($,#697);
#699=IFCFURNITURE('1GwlD4IIj40BNL1ERrb3xj',$,'ChairA3',$,$,#718,#713,$,$);
#705=IFCCARTESIANPOINT((0.,0.));
#706=IFCAXIS2PLACEMENT2D(#705,$);
#707=IFCRECTANGLEPROFILEDEF(.AREA.,$,#706,0.40000000000000002,0.40000000000000002);
#708=IFCCARTESIANPOINT((0.,0.,-0.02));
#709=IFCAXIS2PLACEMENT3D(#708,$,$);
#710=IFCDIRECTION((0.,0.,1.));
#711=IFCEXTRUDEDAREASOLID(#707,#709,#710,0.040000000000000001);
#712=IFCSHAPEREPRESENTATION(#11,'Body','SweptSolid',(#711));
#713=IFCPRODUCTDEFINITIONSHAPE($,$,(#712));
#714=IFCCARTESIANPOINT((-2.0499999999999998,-1.,0.45000000000000001));
#715=IFCDIRECTION((0.,0.,1.));
#716=IFCDIRECTION((1.,0.,0.));
#717=IFCAXIS2PLACEMENT3D(#714,#715,#716);
#718=IFCLOCALPLACEMENT($,#717);
#719=IFCFURNITURE('2hGMeCTX5EOOXLMuWdLAJw',$,'ChairAB3',$,$,#738,#733,$,$);
#725=IFCCARTESIANPOINT((0.,0.));
#726=IFCAXIS2PLACEMENT2D(#725,$);
#727=IFCRECTANGLEPROFILEDEF(.AREA.,$,#726,0.40000000000000002,0.080000000000000002);
#728=IFCCARTESIANPOINT((0.,0.,-0.29999999999999999));
#729=IFCAXIS2PLACEMENT3D(#728,$,$);
#730=IFCDIRECTION((0.,0.,1.));
#731=IFCEXTRUDEDAREASOLID(#727,#729,#730,0.59999999999999998);
#732=IFCSHAPEREPRESENTATION(#11,'Body','SweptSolid',(#731));
#733=IFCPRODUCTDEFINITIONSHAPE($,$,(#732));
#734=IFCCARTESIANPOINT((-2.0499999999999998,-1.,0.75));
#735=IFCDIRECTION((0.,0.,1.));
#736=IFCDIRECTION((1.,0.,0.));
#737=IFCAXIS2PLACEMENT3D(#734,#735,#736);
#738=IFCLOCALPLACEMENT($,#737);
#739=IFCFURNITURE('345iC_pTL229G9LFJDYu5q',$,'ChairB3',$,$,#758,#753,$,$);
#745=IFCCARTESIANPOINT((0.,0.));
#746=IFCAXIS2PLACEMENT2D(#745,$);
#747=IFCRECTANGLEPROFILEDEF(.AREA.,$,#746,0.40000000000000002,0.40000000000000002);
#748=IFCCARTESIANPOINT((0.,0.,-0.02));
#749=IFCAXIS2PLACEMENT3D(#748,$,$);
#750=IFCDIRECTION((0.,0.,1.));
#751=IFCEXTRUDEDAREASOLID(#747,#749,#750,0.040000000000000001);
#752=IFCSHAPEREPRESENTATION(#11,'Body','SweptSolid',(#751));
#753=IFCPRODUCTDEFINITIONSHAPE($,$,(#752));
#754=IFCCARTESIANPOINT((-0.94999999999999996,-1.,0.45000000000000001));
#755=IFCDIRECTION((0.,0.,1.));
#756=IFCDIRECTION((1.,0.,0.));
#757=IFCAXIS2PLACEMENT3D(#754,#755,#756);
#758=IFCLOCALPLACEMENT($,#757);
#759=IFCFURNITURE('0hvRKZhpv1Gx1YnIj153uk',$,'ChairBB3',$,$,#778,#773,$,$);
#765=IFCCARTESIANPOINT((0.,0.));
#766=IFCAXIS2PLACEMENT2D(#765,$);
#767=IFCRECTANGLEPROFILEDEF(.AREA.,$,#766,0.40000000000000002,0.080000000000000002);
#768=IFCCARTESIANPOINT((0.,0.,-0.29999999999999999));
#769=IFCAXIS2PLACEMENT3D(#768,$,$);
#770=IFCDIRECTION((0.,0.,1.));
#771=IFCEXTRUDEDAREASOLID(#767,#769,#770,0.59999999999999998);
#772=IFCSHAPEREPRESENTATION(#11,'Body','SweptSolid',(#771));
#773=IFCPRODUCTDEFINITIONSHAPE($,$,(#772));
#774=IFCCARTESIANPOINT((-0.94999999999999996,-1.,0.75));
#775=IFCDIRECTION((0.,0.,1.));
#776=IFCDIRECTION((1.,0.,0.));
#777=IFCAXIS2PLACEMENT3D(#774,#775,#776);
#778=IFCLOCALPLACEMENT($,#777);
#779=IFCFURNITURE('1ObJCjbYfEifap5z1JmwFY',$,'LongTable',$,$,#798,#793,$,$);
#785=IFCCARTESIANPOINT((0.,0.));
#786=IFCAXIS2PLACEMENT2D(#785,$);
#787=IFCRECTANGLEPROFILEDEF(.AREA.,$,#786,3.2000000000000002,0.90000000000000002);
#788=IFCCARTESIANPOINT((0.,0.,-0.025000000000000001));
#789=IFCAXIS2PLACEMENT3D(#788,$,$);
#790=IFCDIRECTION((0.,0.,1.));
#791=IFCEXTRUDEDAREASOLID(#787,#789,#790,0.050000000000000003);
#792=IFCSHAPEREPRESENTATION(#11,'Body','SweptSolid',(#791));
#793=IFCPRODUCTDEFINITIONSHAPE($,$,(#792));
#794=IFCCARTESIANPOINT((2.,-1.5,0.75));
#795=IFCDIRECTION((0.,0.,1.));
#796=IFCDIRECTION((1.,0.,0.));
#797=IFCAXIS2PLACEMENT3D(#794,#795,#796);
#798=IFCLOCALPLACEMENT($,#797);
#799=IFCBUILDINGELEMENTPROXY('1e9HkY_wHEjR9Dxx93Iqay',$,'LongLegA',$,$,#818,#813,$,$);
#805=IFCCARTESIANPOINT((0.,0.));
#806=IFCAXIS2PLACEMENT2D(#805,$);
#807=IFCRECTANGLEPROFILEDEF(.AREA.,$,#806,0.080000000000000002,0.080000000000000002);
#808=IFCCARTESIANPOINT((0.,0.,-0.375));
#809=IFCAXIS2PLACEMENT3D(#808,$,$);
#810=IFCDIRECTION((0.,0.,1.));
#811=IFCEXTRUDEDAREASOLID(#807,#809,#810,0.75);
#812=IFCSHAPEREPRESENTATION(#11,'Body','SweptSolid',(#811));
#813=IFCPRODUCTDEFINITIONSHAPE($,$,(#812));
#814=IFCCARTESIANPOINT((0.45000000000000001,-1.5,0.375));
#815=IFCDIRECTION((0.,0.,1.));
#816=IFCDIRECTION((1.,0.,0.));
#817=IFCAXIS2PLACEMENT3D(#814,#815,#816);
#818=IFCLOCALPLACEMENT($,#817);
#819=IFCBUILDINGELEMENTPROXY('2mJ3fZR5n1b9vWwCTjwvXR',$,'LongLegB',$,$,#838,#833,$,$);
#825=IFCCARTESIANPOINT((0.,0.));
#826=IFCAXIS2PLACEMENT2D(#825,$);
#827=IFCRECTANGLEPROFILEDEF(.AREA.,$,#826,0.080000000000000002,0.080000000000000002);
#828=IFCCARTESIANPOINT((0.,0.,-0.375));
#829=IFCAXIS2PLACEMENT3D(#828,$,$);
#830=IFCDIRECTION((0.,0.,1.));
#831=IFCEXTRUDEDAREASOLID(#827,#829,#830,0.75);
#832=IFCSHAPEREPRESENTATION(#11,'Body','SweptSolid',(#831));
#833=IFCPRODUCTDEFINITIONSHAPE($,$,(#832));
#834=IFCCARTESIANPOINT((3.5499999999999998,-1.5,0.375));
#835=IFCDIRECTION((0.,0.,1.));
#836=IFCDIRECTION((1.,0.,0.));
#837=IFCAXIS2PLACEMENT3D(#834,#835,#836);
#838=IFCLOCALPLACEMENT($,#837);
#839=IFCBUILDINGELEMENTPROXY('0QwIT$NGrFcgEO_YDHsfGO',$,'StoolN0',$,$,#858,#853,$,$);
#845=IFCCARTESIANPOINT((0.,0.));
#846=IFCAXIS2PLACEMENT2D(#845,$);
#847=IFCRECTANGLEPROFILEDEF(.AREA.,$,#846,0.35999999999999999,0.35999999999999999);
#848=IFCCARTESIANPOINT((0.,0.,-0.025000000000000001));
#849=IFCAXIS2PLACEMENT3D(#848,$,$);
#850=IFCDIRECTION((0.,0.,1.));
#851=IFCEXTRUDEDAREASOLID(#847,#849,#850,0.050000000000000003);
#852=IFCSHAPEREPRESENTATION(#11,'Body','SweptSolid',(#851));
#853=IFCPRODUCTDEFINITIONSHAPE($,$,(#852));
#854=IFCCARTESIANPOINT((0.75,-0.94999999999999996,0.45000000000000001));
#855=IFCDIRECTION((0.,0.,1.));
#856=IFCDIRECTION((1.,0.,0.));
#857=IFCAXIS2PLACEMENT3D(#854,#855,#856);
#858=IFCLOCALPLACEMENT($,#857);
#859=IFCBUILDINGELEMENTPROXY('1o0$UiPfjE59jtrngOU9hr',$,'StoolS0',$,$,#878,#873,$,$);
#865=IFCCARTESIANPOINT((0.,0.));
#866=IFCAXIS2PLACEMENT2D(#865,$);
#867=IFCRECTANGLEPROFILEDEF(.AREA.,$,#866,0.35999999999999999,0.35999999999999999);
#868=IFCCARTESIANPOINT((0.,0.,-0.025000000000000001));
#869=IFCAXIS2PLACEMENT3D(#868,$,$);
#870=IFCDIRECTION((0.,0.,1.));
#871=IFCEXTRUDEDAREASOLID(#867,#869,#870,0.050000000000000003);
#872=IFCSHAPEREPRESENTATION(#11,'Body','SweptSolid',(#871));
#873=IFCPRODUCTDEFINITIONSHAPE($,$,(#872));
#874=IFCCARTESIANPOINT((0.75,-2.0499999999999998,0.45000000000000001));
#875=IFCDIRECTION((0.,0.,1.));
#876=IFCDIRECTION((1.,0.,0.));
#877=IFCAXIS2PLACEMENT3D(#874,#875,#876);
#878=IFCLOCALPLACEMENT($,#877);
#879=IFCBUILDINGELEMENTPROXY('3HoZANqrz4jOV3OXP_NRk6',$,'StoolN1',$,$,#898,#893,$,$);
#885=IFCCARTESIANPOINT((0.,0.));
#886=IFCAXIS2PLACEMENT2D(#885,$);
#887=IFCRECTANGLEPROFILEDEF(.AREA.,$,#886,0.35999999999999999,0.35999999999999999);
#888=IFCCARTESIANPOINT((0.,0.,-0.025000000000000001));
#889=IFCAXIS2PLACEMENT3D(#888,$,$);
#890=IFCDIRECTION((0.,0.,1.));
#891=IFCEXTRUDEDAREASOLID(#887,#889,#890,0.050000000000000003);
#892=IFCSHAPEREPRESENTATION(#11,'Body','SweptSolid',(#891));
#893=IFCPRODUCTDEFINITIONSHAPE($,$,(#892));
#894=IFCCARTESIANPOINT((1.45,-0.94999999999999996,0.45000000000000001));
#895=IFCDIRECTION((0.,0.,1.));
#896=IFCDIRECTION((1.,0.,0.));
#897=IFCAXIS2PLACEMENT3D(#894,#895,#896);
#898=IFCLOCALPLACEMENT($,#897);
#899=IFCBUILDINGELEMENTPROXY('0yUGD0$0b0HBwF3jpeS6M1',$,'StoolS1',$,$,#918,#913,$,$);
#905=IFCCARTESIANPOINT((0.,0.));
#906=IFCAXIS2PLACEMENT2D(#905,$);
#907=IFCRECTANGLEPROFILEDEF(.AREA.,$,#906,0.35999999999999999,0.35999999999999999);
#908=IFCCARTESIANPOINT((0.,0.,-0.025000000000000001));
#909=IFCAXIS2PLACEMENT3D(#908,$,$);
#910=IFCDIRECTION((0.,0.,1.));
#911=IFCEXTRUDEDAREASOLID(#907,#909,#910,0.050000000000000003);
#912=IFCSHAPEREPRESENTATION(#11,'Body','SweptSolid',(#911));
#913=IFCPRODUCTDEFINITIONSHAPE($,$,(#912));
#914=IFCCARTESIANPOINT((1.45,-2.0499999999999998,0.45000000000000001));
#915=IFCDIRECTION((0.,0.,1.));
#916=IFCDIRECTION((1.,0.,0.));
#917=IFCAXIS2PLACEMENT3D(#914,#915,#916);
#918=IFCLOCALPLACEMENT($,#917);
#919=IFCBUILDINGELEMENTPROXY('3xsvWTbUzDNPZScAqKD8Qt',$,'StoolN2',$,$,#938,#933,$,$);
#925=IFCCARTESIANPOINT((0.,0.));
#926=IFCAXIS2PLACEMENT2D(#925,$);
#927=IFCRECTANGLEPROFILEDEF(.AREA.,$,#926,0.35999999999999999,0.35999999999999999);
#928=IFCCARTESIANPOINT((0.,0.,-0.025000000000000001));
#929=IFCAXIS2PLACEMENT3D(#928,$,$);
#930=IFCDIRECTION((0.,0.,1.));
#931=IFCEXTRUDEDAREASOLID(#927,#929,#930,0.050000000000000003);
#932=IFCSHAPEREPRESENTATION(#11,'Body','SweptSolid',(#931));
#933=IFCPRODUCTDEFINITIONSHAPE($,$,(#932));
#934=IFCCARTESIANPOINT((2.1499999999999999,-0.94999999999999996,0.45000000000000001));
#935=IFCDIRECTION((0.,0.,1.));
#936=IFCDIRECTION((1.,0.,0.));
#937=IFCAXIS2PLACEMENT3D(#934,#935,#936);
#938=IFCLOCALPLACEMENT($,#937);
#939=IFCBUILDINGELEMENTPROXY('0ZjiWPYN90j9DaX2SpGMfo',$,'StoolS2',$,$,#958,#953,$,$);
#945=IFCCARTESIANPOINT((0.,0.));
#946=IFCAXIS2PLACEMENT2D(#945,$);
#947=IFCRECTANGLEPROFILEDEF(.AREA.,$,#946,0.35999999999999999,0.35999999999999999);
#948=IFCCARTESIANPOINT((0.,0.,-0.025000000000000001));
#949=IFCAXIS2PLACEMENT3D(#948,$,$);
#950=IFCDIRECTION((0.,0.,1.));
#951=IFCEXTRUDEDAREASOLID(#947,#949,#950,0.050000000000000003);
#952=IFCSHAPEREPRESENTATION(#11,'Body','SweptSolid',(#951));
#953=IFCPRODUCTDEFINITIONSHAPE($,$,(#952));
#954=IFCCARTESIANPOINT((2.1499999999999999,-2.0499999999999998,0.45000000000000001));
#955=IFCDIRECTION((0.,0.,1.));
#956=IFCDIRECTION((1.,0.,0.));
#957=IFCAXIS2PLACEMENT3D(#954,#955,#956);
#958=IFCLOCALPLACEMENT($,#957);
#959=IFCBUILDINGELEMENTPROXY('2jM6YsX0DFTBA5luDPxVL6',$,'StoolN3',$,$,#978,#973,$,$);
#965=IFCCARTESIANPOINT((0.,0.));
#966=IFCAXIS2PLACEMENT2D(#965,$);
#967=IFCRECTANGLEPROFILEDEF(.AREA.,$,#966,0.35999999999999999,0.35999999999999999);
#968=IFCCARTESIANPOINT((0.,0.,-0.025000000000000001));
#969=IFCAXIS2PLACEMENT3D(#968,$,$);
#970=IFCDIRECTION((0.,0.,1.));
#971=IFCEXTRUDEDAREASOLID(#967,#969,#970,0.050000000000000003);
#972=IFCSHAPEREPRESENTATION(#11,'Body','SweptSolid',(#971));
#973=IFCPRODUCTDEFINITIONSHAPE($,$,(#972));
#974=IFCCARTESIANPOINT((2.8500000000000001,-0.94999999999999996,0.45000000000000001));
#975=IFCDIRECTION((0.,0.,1.));
#976=IFCDIRECTION((1.,0.,0.));
#977=IFCAXIS2PLACEMENT3D(#974,#975,#976);
#978=IFCLOCALPLACEMENT($,#977);
#979=IFCBUILDINGELEMENTPROXY('2LmrbkD950EhI85qrzseJh',$,'StoolS3',$,$,#998,#993,$,$);
#985=IFCCARTESIANPOINT((0.,0.));
#986=IFCAXIS2PLACEMENT2D(#985,$);
#987=IFCRECTANGLEPROFILEDEF(.AREA.,$,#986,0.35999999999999999,0.35999999999999999);
#988=IFCCARTESIANPOINT((0.,0.,-0.025000000000000001));
#989=IFCAXIS2PLACEMENT3D(#988,$,$);
#990=IFCDIRECTION((0.,0.,1.));
#991=IFCEXTRUDEDAREASOLID(#987,#989,#990,0.050000000000000003);
#992=IFCSHAPEREPRESENTATION(#11,'Body','SweptSolid',(#991));
#993=IFCPRODUCTDEFINITIONSHAPE($,$,(#992));
#994=IFCCARTESIANPOINT((2.8500000000000001,-2.0499999999999998,0.45000000000000001));
#995=IFCDIRECTION((0.,0.,1.));
#996=IFCDIRECTION((1.,0.,0.));
#997=IFCAXIS2PLACEMENT3D(#994,#995,#996);
#998=IFCLOCALPLACEMENT($,#997);
#999=IFCWALL('37vsxEEQHBLxz_RfwxeKP8',$,'BookWall',$,$,#1018,#1013,$,$);
#1005=IFCCARTESIANPOINT((0.,0.));
#1006=IFCAXIS2PLACEMENT2D(#1005,$);
#1007=IFCRECTANGLEPROFILEDEF(.AREA.,$,#1006,0.23999999999999999,5.);
#1008=IFCCARTESIANPOINT((0.,0.,-1.75));
#1009=IFCAXIS2PLACEMENT3D(#1008,$,$);
#1010=IFCDIRECTION((0.,0.,1.));
#1011=IFCEXTRUDEDAREASOLID(#1007,#1009,#1010,3.5);
#1012=IFCSHAPEREPRESENTATION(#11,'Body','SweptSolid',(#1011));
#1013=IFCPRODUCTDEFINITIONSHAPE($,$,(#1012));
#1014=IFCCARTESIANPOINT((-4.8499999999999996,-1.,1.75));
#1015=IFCDIRECTION((0.,0.,1.));
#1016=IFCDIRECTION((1.,0.,0.));
#1017=IFCAXIS2PLACEMENT3D(#1014,#1015,#1016);
#1018=IFCLOCALPLACEMENT($,#1017);
#1019=IFCBUILDINGELEMENTPROXY('0OR5ZZiurAzRBmyQNx_ddV',$,'BookShelf0',$,$,#1038,#1033,$,$);
#1025=IFCCARTESIANPOINT((0.,0.));
#1026=IFCAXIS2PLACEMENT2D(#1025,$);
#1027=IFCRECTANGLEPROFILEDEF(.AREA.,$,#1026,0.29999999999999999,5.);
#1028=IFCCARTESIANPOINT((0.,0.,-0.02));
#1029=IFCAXIS2PLACEMENT3D(#1028,$,$);
#1030=IFCDIRECTION((0.,0.,1.));
#1031=IFCEXTRUDEDAREASOLID(#1027,#1029,#1030,0.040000000000000001);
#1032=IFCSHAPEREPRESENTATION(#11,'Body','SweptSolid',(#1031));
#1033=IFCPRODUCTDEFINITIONSHAPE($,$,(#1032));
#1034=IFCCARTESIANPOINT((-4.7000000000000002,-1.,0.40000000000000002));
#1035=IFCDIRECTION((0.,0.,1.));
#1036=IFCDIRECTION((1.,0.,0.));
#1037=IFCAXIS2PLACEMENT3D(#1034,#1035,#1036);
#1038=IFCLOCALPLACEMENT($,#1037);
#1039=IFCBUILDINGELEMENTPROXY('2Hr$j5puHF$OCu29Tm4xlg',$,'BookShelf1',$,$,#1058,#1053,$,$);
#1045=IFCCARTESIANPOINT((0.,0.));
#1046=IFCAXIS2PLACEMENT2D(#1045,$);
#1047=IFCRECTANGLEPROFILEDEF(.AREA.,$,#1046,0.29999999999999999,5.);
#1048=IFCCARTESIANPOINT((0.,0.,-0.02));
#1049=IFCAXIS2PLACEMENT3D(#1048,$,$);
#1050=IFCDIRECTION((0.,0.,1.));
#1051=IFCEXTRUDEDAREASOLID(#1047,#1049,#1050,0.040000000000000001);
#1052=IFCSHAPEREPRESENTATION(#11,'Body','SweptSolid',(#1051));
#1053=IFCPRODUCTDEFINITIONSHAPE($,$,(#1052));
#1054=IFCCARTESIANPOINT((-4.7000000000000002,-1.,0.94999999999999996));
#1055=IFCDIRECTION((0.,0.,1.));
#1056=IFCDIRECTION((1.,0.,0.));
#1057=IFCAXIS2PLACEMENT3D(#1054,#1055,#1056);
#1058=IFCLOCALPLACEMENT($,#1057);
#1059=IFCBUILDINGELEMENTPROXY('20aFLGIqf9YgUeUeue6fm5',$,'BookShelf2',$,$,#1078,#1073,$,$);
#1065=IFCCARTESIANPOINT((0.,0.));
#1066=IFCAXIS2PLACEMENT2D(#1065,$);
#1067=IFCRECTANGLEPROFILEDEF(.AREA.,$,#1066,0.29999999999999999,5.);
#1068=IFCCARTESIANPOINT((0.,0.,-0.02));
#1069=IFCAXIS2PLACEMENT3D(#1068,$,$);
#1070=IFCDIRECTION((0.,0.,1.));
#1071=IFCEXTRUDEDAREASOLID(#1067,#1069,#1070,0.040000000000000001);
#1072=IFCSHAPEREPRESENTATION(#11,'Body','SweptSolid',(#1071));
#1073=IFCPRODUCTDEFINITIONSHAPE($,$,(#1072));
#1074=IFCCARTESIANPOINT((-4.7000000000000002,-1.,1.5));
#1075=IFCDIRECTION((0.,0.,1.));
#1076=IFCDIRECTION((1.,0.,0.));
#1077=IFCAXIS2PLACEMENT3D(#1074,#1075,#1076);
#1078=IFCLOCALPLACEMENT($,#1077);
#1079=IFCBUILDINGELEMENTPROXY('39XK50V7X6MQc69QTDND44',$,'BookShelf3',$,$,#1098,#1093,$,$);
#1085=IFCCARTESIANPOINT((0.,0.));
#1086=IFCAXIS2PLACEMENT2D(#1085,$);
#1087=IFCRECTANGLEPROFILEDEF(.AREA.,$,#1086,0.29999999999999999,5.);
#1088=IFCCARTESIANPOINT((0.,0.,-0.02));
#1089=IFCAXIS2PLACEMENT3D(#1088,$,$);
#1090=IFCDIRECTION((0.,0.,1.));
#1091=IFCEXTRUDEDAREASOLID(#1087,#1089,#1090,0.040000000000000001);
#1092=IFCSHAPEREPRESENTATION(#11,'Body','SweptSolid',(#1091));
#1093=IFCPRODUCTDEFINITIONSHAPE($,$,(#1092));
#1094=IFCCARTESIANPOINT((-4.7000000000000002,-1.,2.0499999999999998));
#1095=IFCDIRECTION((0.,0.,1.));
#1096=IFCDIRECTION((1.,0.,0.));
#1097=IFCAXIS2PLACEMENT3D(#1094,#1095,#1096);
#1098=IFCLOCALPLACEMENT($,#1097);
#1099=IFCBUILDINGELEMENTPROXY('2pEJNZUPz6dhfm5w692FOL',$,'BookShelf4',$,$,#1118,#1113,$,$);
#1105=IFCCARTESIANPOINT((0.,0.));
#1106=IFCAXIS2PLACEMENT2D(#1105,$);
#1107=IFCRECTANGLEPROFILEDEF(.AREA.,$,#1106,0.29999999999999999,5.);
#1108=IFCCARTESIANPOINT((0.,0.,-0.02));
#1109=IFCAXIS2PLACEMENT3D(#1108,$,$);
#1110=IFCDIRECTION((0.,0.,1.));
#1111=IFCEXTRUDEDAREASOLID(#1107,#1109,#1110,0.040000000000000001);
#1112=IFCSHAPEREPRESENTATION(#11,'Body','SweptSolid',(#1111));
#1113=IFCPRODUCTDEFINITIONSHAPE($,$,(#1112));
#1114=IFCCARTESIANPOINT((-4.7000000000000002,-1.,2.6000000000000001));
#1115=IFCDIRECTION((0.,0.,1.));
#1116=IFCDIRECTION((1.,0.,0.));
#1117=IFCAXIS2PLACEMENT3D(#1114,#1115,#1116);
#1118=IFCLOCALPLACEMENT($,#1117);
#1119=IFCBUILDINGELEMENTPROXY('2jvy19OWjC5Qn2PiKZaMNa',$,'Bench',$,$,#1138,#1133,$,$);
#1125=IFCCARTESIANPOINT((0.,0.));
#1126=IFCAXIS2PLACEMENT2D(#1125,$);
#1127=IFCRECTANGLEPROFILEDEF(.AREA.,$,#1126,1.2,0.69999999999999996);
#1128=IFCCARTESIANPOINT((0.,0.,-0.040000000000000001));
#1129=IFCAXIS2PLACEMENT3D(#1128,$,$);
#1130=IFCDIRECTION((0.,0.,1.));
#1131=IFCEXTRUDEDAREASOLID(#1127,#1129,#1130,0.080000000000000002);
#1132=IFCSHAPEREPRESENTATION(#11,'Body','SweptSolid',(#1131));
#1133=IFCPRODUCTDEFINITIONSHAPE($,$,(#1132));
#1134=IFCCARTESIANPOINT((-4.2000000000000002,-3.5,0.34999999999999998));
#1135=IFCDIRECTION((0.,0.,1.));
#1136=IFCDIRECTION((1.,0.,0.));
#1137=IFCAXIS2PLACEMENT3D(#1134,#1135,#1136);
#1138=IFCLOCALPLACEMENT($,#1137);
#1139=IFCBUILDINGELEMENTPROXY('0IgxYk_z15wQecmRV_cH$O',$,'BenchBack',$,$,#1158,#1153,$,$);
#1145=IFCCARTESIANPOINT((0.,0.));
#1146=IFCAXIS2PLACEMENT2D(#1145,$);
#1147=IFCRECTANGLEPROFILEDEF(.AREA.,$,#1146,0.10000000000000001,0.69999999999999996);
#1148=IFCCARTESIANPOINT((0.,0.,-0.40000000000000002));
#1149=IFCAXIS2PLACEMENT3D(#1148,$,$);
#1150=IFCDIRECTION((0.,0.,1.));
#1151=IFCEXTRUDEDAREASOLID(#1147,#1149,#1150,0.80000000000000004);
#1152=IFCSHAPEREPRESENTATION(#11,'Body','SweptSolid',(#1151));
#1153=IFCPRODUCTDEFINITIONSHAPE($,$,(#1152));
#1154=IFCCARTESIANPOINT((-4.4500000000000002,-3.5,0.75));
#1155=IFCDIRECTION((0.,0.,1.));
#1156=IFCDIRECTION((1.,0.,0.));
#1157=IFCAXIS2PLACEMENT3D(#1154,#1155,#1156);
#1158=IFCLOCALPLACEMENT($,#1157);
#1159=IFCBUILDINGELEMENTPROXY('2dMjBz5UvFBg5$QsmVLYPO',$,'KitchenCounter',$,$,#1178,#1173,$,$);
#1165=IFCCARTESIANPOINT((0.,0.));
#1166=IFCAXIS2PLACEMENT2D(#1165,$);
#1167=IFCRECTANGLEPROFILEDEF(.AREA.,$,#1166,2.7999999999999998,0.80000000000000004);
#1168=IFCCARTESIANPOINT((0.,0.,-0.45000000000000001));
#1169=IFCAXIS2PLACEMENT3D(#1168,$,$);
#1170=IFCDIRECTION((0.,0.,1.));
#1171=IFCEXTRUDEDAREASOLID(#1167,#1169,#1170,0.90000000000000002);
#1172=IFCSHAPEREPRESENTATION(#11,'Body','SweptSolid',(#1171));
#1173=IFCPRODUCTDEFINITIONSHAPE($,$,(#1172));
#1174=IFCCARTESIANPOINT((3.5,3.,0.45000000000000001));
#1175=IFCDIRECTION((0.,0.,1.));
#1176=IFCDIRECTION((1.,0.,0.));
#1177=IFCAXIS2PLACEMENT3D(#1174,#1175,#1176);
#1178=IFCLOCALPLACEMENT($,#1177);
#1179=IFCBUILDINGELEMENTPROXY('3U5GsPLZv8ihLUg75yFXcU',$,'Stove',$,$,#1198,#1193,$,$);
#1185=IFCCARTESIANPOINT((0.,0.));
#1186=IFCAXIS2PLACEMENT2D(#1185,$);
#1187=IFCRECTANGLEPROFILEDEF(.AREA.,$,#1186,0.80000000000000004,0.59999999999999998);
#1188=IFCCARTESIANPOINT((0.,0.,-0.040000000000000001));
#1189=IFCAXIS2PLACEMENT3D(#1188,$,$);
#1190=IFCDIRECTION((0.,0.,1.));
#1191=IFCEXTRUDEDAREASOLID(#1187,#1189,#1190,0.080000000000000002);
#1192=IFCSHAPEREPRESENTATION(#11,'Body','SweptSolid',(#1191));
#1193=IFCPRODUCTDEFINITIONSHAPE($,$,(#1192));
#1194=IFCCARTESIANPOINT((4.2000000000000002,3.2999999999999998,0.90000000000000002));
#1195=IFCDIRECTION((0.,0.,1.));
#1196=IFCDIRECTION((1.,0.,0.));
#1197=IFCAXIS2PLACEMENT3D(#1194,#1195,#1196);
#1198=IFCLOCALPLACEMENT($,#1197);
#1199=IFCBUILDINGELEMENTPROXY('3suogfZcb1ex$Ocwo5ELda',$,'Fridge',$,$,#1218,#1213,$,$);
#1205=IFCCARTESIANPOINT((0.,0.));
#1206=IFCAXIS2PLACEMENT2D(#1205,$);
#1207=IFCRECTANGLEPROFILEDEF(.AREA.,$,#1206,0.80000000000000004,0.69999999999999996);
#1208=IFCCARTESIANPOINT((0.,0.,-1.));
#1209=IFCAXIS2PLACEMENT3D(#1208,$,$);
#1210=IFCDIRECTION((0.,0.,1.));
#1211=IFCEXTRUDEDAREASOLID(#1207,#1209,#1210,2.);
#1212=IFCSHAPEREPRESENTATION(#11,'Body','SweptSolid',(#1211));
#1213=IFCPRODUCTDEFINITIONSHAPE($,$,(#1212));
#1214=IFCCARTESIANPOINT((2.7999999999999998,3.6000000000000001,1.));
#1215=IFCDIRECTION((0.,0.,1.));
#1216=IFCDIRECTION((1.,0.,0.));
#1217=IFCAXIS2PLACEMENT3D(#1214,#1215,#1216);
#1218=IFCLOCALPLACEMENT($,#1217);
#1219=IFCBUILDINGELEMENTPROXY('2B1QtP8dDBaQ$srd5Ap3v5',$,'Cord0',$,$,#1238,#1233,$,$);
#1225=IFCCARTESIANPOINT((0.,0.));
#1226=IFCAXIS2PLACEMENT2D(#1225,$);
#1227=IFCRECTANGLEPROFILEDEF(.AREA.,$,#1226,0.016,0.016);
#1228=IFCCARTESIANPOINT((0.,0.,-0.65000000000000002));
#1229=IFCAXIS2PLACEMENT3D(#1228,$,$);
#1230=IFCDIRECTION((0.,0.,1.));
#1231=IFCEXTRUDEDAREASOLID(#1227,#1229,#1230,1.3);
#1232=IFCSHAPEREPRESENTATION(#11,'Body','SweptSolid',(#1231));
#1233=IFCPRODUCTDEFINITIONSHAPE($,$,(#1232));
#1234=IFCCARTESIANPOINT((-3.2000000000000002,-2.5,2.8500000000000001));
#1235=IFCDIRECTION((0.,0.,1.));
#1236=IFCDIRECTION((1.,0.,0.));
#1237=IFCAXIS2PLACEMENT3D(#1234,#1235,#1236);
#1238=IFCLOCALPLACEMENT($,#1237);
#1239=IFCBUILDINGELEMENTPROXY('0uZQMAFbb49wfKaINYIF$J',$,'Pendant0',$,$,#1258,#1253,$,$);
#1245=IFCCARTESIANPOINT((0.,0.));
#1246=IFCAXIS2PLACEMENT2D(#1245,$);
#1247=IFCRECTANGLEPROFILEDEF(.AREA.,$,#1246,0.29999999999999999,0.29999999999999999);
#1248=IFCCARTESIANPOINT((0.,0.,-0.14999999999999999));
#1249=IFCAXIS2PLACEMENT3D(#1248,$,$);
#1250=IFCDIRECTION((0.,0.,1.));
#1251=IFCEXTRUDEDAREASOLID(#1247,#1249,#1250,0.29999999999999999);
#1252=IFCSHAPEREPRESENTATION(#11,'Body','SweptSolid',(#1251));
#1253=IFCPRODUCTDEFINITIONSHAPE($,$,(#1252));
#1254=IFCCARTESIANPOINT((-3.2000000000000002,-2.5,2.1000000000000001));
#1255=IFCDIRECTION((0.,0.,1.));
#1256=IFCDIRECTION((1.,0.,0.));
#1257=IFCAXIS2PLACEMENT3D(#1254,#1255,#1256);
#1258=IFCLOCALPLACEMENT($,#1257);
#1259=IFCBUILDINGELEMENTPROXY('0ZwTgSt_z9mgeSicLk8jxn',$,'Cord1',$,$,#1278,#1273,$,$);
#1265=IFCCARTESIANPOINT((0.,0.));
#1266=IFCAXIS2PLACEMENT2D(#1265,$);
#1267=IFCRECTANGLEPROFILEDEF(.AREA.,$,#1266,0.016,0.016);
#1268=IFCCARTESIANPOINT((0.,0.,-0.65000000000000002));
#1269=IFCAXIS2PLACEMENT3D(#1268,$,$);
#1270=IFCDIRECTION((0.,0.,1.));
#1271=IFCEXTRUDEDAREASOLID(#1267,#1269,#1270,1.3);
#1272=IFCSHAPEREPRESENTATION(#11,'Body','SweptSolid',(#1271));
#1273=IFCPRODUCTDEFINITIONSHAPE($,$,(#1272));
#1274=IFCCARTESIANPOINT((-1.5,-2.5,2.8500000000000001));
#1275=IFCDIRECTION((0.,0.,1.));
#1276=IFCDIRECTION((1.,0.,0.));
#1277=IFCAXIS2PLACEMENT3D(#1274,#1275,#1276);
#1278=IFCLOCALPLACEMENT($,#1277);
#1279=IFCBUILDINGELEMENTPROXY('0xd8OAxFX9yQq7w2ANCOA0',$,'Pendant1',$,$,#1298,#1293,$,$);
#1285=IFCCARTESIANPOINT((0.,0.));
#1286=IFCAXIS2PLACEMENT2D(#1285,$);
#1287=IFCRECTANGLEPROFILEDEF(.AREA.,$,#1286,0.29999999999999999,0.29999999999999999);
#1288=IFCCARTESIANPOINT((0.,0.,-0.14999999999999999));
#1289=IFCAXIS2PLACEMENT3D(#1288,$,$);
#1290=IFCDIRECTION((0.,0.,1.));
#1291=IFCEXTRUDEDAREASOLID(#1287,#1289,#1290,0.29999999999999999);
#1292=IFCSHAPEREPRESENTATION(#11,'Body','SweptSolid',(#1291));
#1293=IFCPRODUCTDEFINITIONSHAPE($,$,(#1292));
#1294=IFCCARTESIANPOINT((-1.5,-2.5,2.1000000000000001));
#1295=IFCDIRECTION((0.,0.,1.));
#1296=IFCDIRECTION((1.,0.,0.));
#1297=IFCAXIS2PLACEMENT3D(#1294,#1295,#1296);
#1298=IFCLOCALPLACEMENT($,#1297);
#1299=IFCBUILDINGELEMENTPROXY('3pfci_otL8CPY2ZDbsj4uS',$,'Cord2',$,$,#1318,#1313,$,$);
#1305=IFCCARTESIANPOINT((0.,0.));
#1306=IFCAXIS2PLACEMENT2D(#1305,$);
#1307=IFCRECTANGLEPROFILEDEF(.AREA.,$,#1306,0.016,0.016);
#1308=IFCCARTESIANPOINT((0.,0.,-0.65000000000000002));
#1309=IFCAXIS2PLACEMENT3D(#1308,$,$);
#1310=IFCDIRECTION((0.,0.,1.));
#1311=IFCEXTRUDEDAREASOLID(#1307,#1309,#1310,1.3);
#1312=IFCSHAPEREPRESENTATION(#11,'Body','SweptSolid',(#1311));
#1313=IFCPRODUCTDEFINITIONSHAPE($,$,(#1312));
#1314=IFCCARTESIANPOINT((-3.2000000000000002,-1.,2.8500000000000001));
#1315=IFCDIRECTION((0.,0.,1.));
#1316=IFCDIRECTION((1.,0.,0.));
#1317=IFCAXIS2PLACEMENT3D(#1314,#1315,#1316);
#1318=IFCLOCALPLACEMENT($,#1317);
#1319=IFCBUILDINGELEMENTPROXY('11Kru7jvfAn8XPiKALLiRk',$,'Pendant2',$,$,#1338,#1333,$,$);
#1325=IFCCARTESIANPOINT((0.,0.));
#1326=IFCAXIS2PLACEMENT2D(#1325,$);
#1327=IFCRECTANGLEPROFILEDEF(.AREA.,$,#1326,0.29999999999999999,0.29999999999999999);
#1328=IFCCARTESIANPOINT((0.,0.,-0.14999999999999999));
#1329=IFCAXIS2PLACEMENT3D(#1328,$,$);
#1330=IFCDIRECTION((0.,0.,1.));
#1331=IFCEXTRUDEDAREASOLID(#1327,#1329,#1330,0.29999999999999999);
#1332=IFCSHAPEREPRESENTATION(#11,'Body','SweptSolid',(#1331));
#1333=IFCPRODUCTDEFINITIONSHAPE($,$,(#1332));
#1334=IFCCARTESIANPOINT((-3.2000000000000002,-1.,2.1000000000000001));
#1335=IFCDIRECTION((0.,0.,1.));
#1336=IFCDIRECTION((1.,0.,0.));
#1337=IFCAXIS2PLACEMENT3D(#1334,#1335,#1336);
#1338=IFCLOCALPLACEMENT($,#1337);
#1339=IFCBUILDINGELEMENTPROXY('1kxU$722X1axBh2csyQYCp',$,'Cord3',$,$,#1358,#1353,$,$);
#1345=IFCCARTESIANPOINT((0.,0.));
#1346=IFCAXIS2PLACEMENT2D(#1345,$);
#1347=IFCRECTANGLEPROFILEDEF(.AREA.,$,#1346,0.016,0.016);
#1348=IFCCARTESIANPOINT((0.,0.,-0.65000000000000002));
#1349=IFCAXIS2PLACEMENT3D(#1348,$,$);
#1350=IFCDIRECTION((0.,0.,1.));
#1351=IFCEXTRUDEDAREASOLID(#1347,#1349,#1350,1.3);
#1352=IFCSHAPEREPRESENTATION(#11,'Body','SweptSolid',(#1351));
#1353=IFCPRODUCTDEFINITIONSHAPE($,$,(#1352));
#1354=IFCCARTESIANPOINT((-1.5,-1.,2.8500000000000001));
#1355=IFCDIRECTION((0.,0.,1.));
#1356=IFCDIRECTION((1.,0.,0.));
#1357=IFCAXIS2PLACEMENT3D(#1354,#1355,#1356);
#1358=IFCLOCALPLACEMENT($,#1357);
#1359=IFCBUILDINGELEMENTPROXY('2o0Vm6fYP6uem0ZLeRvrpb',$,'Pendant3',$,$,#1378,#1373,$,$);
#1365=IFCCARTESIANPOINT((0.,0.));
#1366=IFCAXIS2PLACEMENT2D(#1365,$);
#1367=IFCRECTANGLEPROFILEDEF(.AREA.,$,#1366,0.29999999999999999,0.29999999999999999);
#1368=IFCCARTESIANPOINT((0.,0.,-0.14999999999999999));
#1369=IFCAXIS2PLACEMENT3D(#1368,$,$);
#1370=IFCDIRECTION((0.,0.,1.));
#1371=IFCEXTRUDEDAREASOLID(#1367,#1369,#1370,0.29999999999999999);
#1372=IFCSHAPEREPRESENTATION(#11,'Body','SweptSolid',(#1371));
#1373=IFCPRODUCTDEFINITIONSHAPE($,$,(#1372));
#1374=IFCCARTESIANPOINT((-1.5,-1.,2.1000000000000001));
#1375=IFCDIRECTION((0.,0.,1.));
#1376=IFCDIRECTION((1.,0.,0.));
#1377=IFCAXIS2PLACEMENT3D(#1374,#1375,#1376);
#1378=IFCLOCALPLACEMENT($,#1377);
#1379=IFCBUILDINGELEMENTPROXY('1oTGj5FzT6h8lV$KLIcBHH',$,'Cord4',$,$,#1398,#1393,$,$);
#1385=IFCCARTESIANPOINT((0.,0.));
#1386=IFCAXIS2PLACEMENT2D(#1385,$);
#1387=IFCRECTANGLEPROFILEDEF(.AREA.,$,#1386,0.016,0.016);
#1388=IFCCARTESIANPOINT((0.,0.,-0.65000000000000002));
#1389=IFCAXIS2PLACEMENT3D(#1388,$,$);
#1390=IFCDIRECTION((0.,0.,1.));
#1391=IFCEXTRUDEDAREASOLID(#1387,#1389,#1390,1.3);
#1392=IFCSHAPEREPRESENTATION(#11,'Body','SweptSolid',(#1391));
#1393=IFCPRODUCTDEFINITIONSHAPE($,$,(#1392));
#1394=IFCCARTESIANPOINT((1.25,-1.5,2.8500000000000001));
#1395=IFCDIRECTION((0.,0.,1.));
#1396=IFCDIRECTION((1.,0.,0.));
#1397=IFCAXIS2PLACEMENT3D(#1394,#1395,#1396);
#1398=IFCLOCALPLACEMENT($,#1397);
#1399=IFCBUILDINGELEMENTPROXY('1gT6SXO_98qeDPTDP4rNdG',$,'Pendant4',$,$,#1418,#1413,$,$);
#1405=IFCCARTESIANPOINT((0.,0.));
#1406=IFCAXIS2PLACEMENT2D(#1405,$);
#1407=IFCRECTANGLEPROFILEDEF(.AREA.,$,#1406,0.35999999999999999,0.35999999999999999);
#1408=IFCCARTESIANPOINT((0.,0.,-0.17999999999999999));
#1409=IFCAXIS2PLACEMENT3D(#1408,$,$);
#1410=IFCDIRECTION((0.,0.,1.));
#1411=IFCEXTRUDEDAREASOLID(#1407,#1409,#1410,0.35999999999999999);
#1412=IFCSHAPEREPRESENTATION(#11,'Body','SweptSolid',(#1411));
#1413=IFCPRODUCTDEFINITIONSHAPE($,$,(#1412));
#1414=IFCCARTESIANPOINT((1.25,-1.5,2.1000000000000001));
#1415=IFCDIRECTION((0.,0.,1.));
#1416=IFCDIRECTION((1.,0.,0.));
#1417=IFCAXIS2PLACEMENT3D(#1414,#1415,#1416);
#1418=IFCLOCALPLACEMENT($,#1417);
#1419=IFCBUILDINGELEMENTPROXY('3L$TyS37XCGOZ5MEHhitvW',$,'Cord5',$,$,#1438,#1433,$,$);
#1425=IFCCARTESIANPOINT((0.,0.));
#1426=IFCAXIS2PLACEMENT2D(#1425,$);
#1427=IFCRECTANGLEPROFILEDEF(.AREA.,$,#1426,0.016,0.016);
#1428=IFCCARTESIANPOINT((0.,0.,-0.65000000000000002));
#1429=IFCAXIS2PLACEMENT3D(#1428,$,$);
#1430=IFCDIRECTION((0.,0.,1.));
#1431=IFCEXTRUDEDAREASOLID(#1427,#1429,#1430,1.3);
#1432=IFCSHAPEREPRESENTATION(#11,'Body','SweptSolid',(#1431));
#1433=IFCPRODUCTDEFINITIONSHAPE($,$,(#1432));
#1434=IFCCARTESIANPOINT((2.75,-1.5,2.8500000000000001));
#1435=IFCDIRECTION((0.,0.,1.));
#1436=IFCDIRECTION((1.,0.,0.));
#1437=IFCAXIS2PLACEMENT3D(#1434,#1435,#1436);
#1438=IFCLOCALPLACEMENT($,#1437);
#1439=IFCBUILDINGELEMENTPROXY('3AqpeIkXz4swOinJDXSVn8',$,'Pendant5',$,$,#1458,#1453,$,$);
#1445=IFCCARTESIANPOINT((0.,0.));
#1446=IFCAXIS2PLACEMENT2D(#1445,$);
#1447=IFCRECTANGLEPROFILEDEF(.AREA.,$,#1446,0.35999999999999999,0.35999999999999999);
#1448=IFCCARTESIANPOINT((0.,0.,-0.17999999999999999));
#1449=IFCAXIS2PLACEMENT3D(#1448,$,$);
#1450=IFCDIRECTION((0.,0.,1.));
#1451=IFCEXTRUDEDAREASOLID(#1447,#1449,#1450,0.35999999999999999);
#1452=IFCSHAPEREPRESENTATION(#11,'Body','SweptSolid',(#1451));
#1453=IFCPRODUCTDEFINITIONSHAPE($,$,(#1452));
#1454=IFCCARTESIANPOINT((2.75,-1.5,2.1000000000000001));
#1455=IFCDIRECTION((0.,0.,1.));
#1456=IFCDIRECTION((1.,0.,0.));
#1457=IFCAXIS2PLACEMENT3D(#1454,#1455,#1456);
#1458=IFCLOCALPLACEMENT($,#1457);
#1459=IFCFURNITURE('19dqn2mgTAZOK4ALEb6heZ',$,'Pot0',$,$,#1478,#1473,$,$);
#1465=IFCCARTESIANPOINT((0.,0.));
#1466=IFCAXIS2PLACEMENT2D(#1465,$);
#1467=IFCRECTANGLEPROFILEDEF(.AREA.,$,#1466,0.35999999999999999,0.35999999999999999);
#1468=IFCCARTESIANPOINT((0.,0.,-0.20000000000000001));
#1469=IFCAXIS2PLACEMENT3D(#1468,$,$);
#1470=IFCDIRECTION((0.,0.,1.));
#1471=IFCEXTRUDEDAREASOLID(#1467,#1469,#1470,0.40000000000000002);
#1472=IFCSHAPEREPRESENTATION(#11,'Body','SweptSolid',(#1471));
#1473=IFCPRODUCTDEFINITIONSHAPE($,$,(#1472));
#1474=IFCCARTESIANPOINT((-4.,-3.7000000000000002,0.20000000000000001));
#1475=IFCDIRECTION((0.,0.,1.));
#1476=IFCDIRECTION((1.,0.,0.));
#1477=IFCAXIS2PLACEMENT3D(#1474,#1475,#1476);
#1478=IFCLOCALPLACEMENT($,#1477);
#1479=IFCFURNITURE('0is17WVaf4vQ20qMe2YZd7',$,'Plant0',$,$,#1498,#1493,$,$);
#1485=IFCCARTESIANPOINT((0.,0.));
#1486=IFCAXIS2PLACEMENT2D(#1485,$);
#1487=IFCRECTANGLEPROFILEDEF(.AREA.,$,#1486,0.69999999999999996,0.69999999999999996);
#1488=IFCCARTESIANPOINT((0.,0.,-0.40000000000000002));
#1489=IFCAXIS2PLACEMENT3D(#1488,$,$);
#1490=IFCDIRECTION((0.,0.,1.));
#1491=IFCEXTRUDEDAREASOLID(#1487,#1489,#1490,0.80000000000000004);
#1492=IFCSHAPEREPRESENTATION(#11,'Body','SweptSolid',(#1491));
#1493=IFCPRODUCTDEFINITIONSHAPE($,$,(#1492));
#1494=IFCCARTESIANPOINT((-4.,-3.7000000000000002,0.69999999999999996));
#1495=IFCDIRECTION((0.,0.,1.));
#1496=IFCDIRECTION((1.,0.,0.));
#1497=IFCAXIS2PLACEMENT3D(#1494,#1495,#1496);
#1498=IFCLOCALPLACEMENT($,#1497);
#1499=IFCFURNITURE('2dWnDytBL1RPhKMJKQy7y5',$,'Pot1',$,$,#1518,#1513,$,$);
#1505=IFCCARTESIANPOINT((0.,0.));
#1506=IFCAXIS2PLACEMENT2D(#1505,$);
#1507=IFCRECTANGLEPROFILEDEF(.AREA.,$,#1506,0.32000000000000001,0.32000000000000001);
#1508=IFCCARTESIANPOINT((0.,0.,-0.20000000000000001));
#1509=IFCAXIS2PLACEMENT3D(#1508,$,$);
#1510=IFCDIRECTION((0.,0.,1.));
#1511=IFCEXTRUDEDAREASOLID(#1507,#1509,#1510,0.40000000000000002);
#1512=IFCSHAPEREPRESENTATION(#11,'Body','SweptSolid',(#1511));
#1513=IFCPRODUCTDEFINITIONSHAPE($,$,(#1512));
#1514=IFCCARTESIANPOINT((0.29999999999999999,0.,0.20000000000000001));
#1515=IFCDIRECTION((0.,0.,1.));
#1516=IFCDIRECTION((1.,0.,0.));
#1517=IFCAXIS2PLACEMENT3D(#1514,#1515,#1516);
#1518=IFCLOCALPLACEMENT($,#1517);
#1519=IFCFURNITURE('0w79M95C53wOgONtIS8P7S',$,'Plant1',$,$,#1538,#1533,$,$);
#1525=IFCCARTESIANPOINT((0.,0.));
#1526=IFCAXIS2PLACEMENT2D(#1525,$);
#1527=IFCRECTANGLEPROFILEDEF(.AREA.,$,#1526,0.59999999999999998,0.59999999999999998);
#1528=IFCCARTESIANPOINT((0.,0.,-0.34999999999999998));
#1529=IFCAXIS2PLACEMENT3D(#1528,$,$);
#1530=IFCDIRECTION((0.,0.,1.));
#1531=IFCEXTRUDEDAREASOLID(#1527,#1529,#1530,0.69999999999999996);
#1532=IFCSHAPEREPRESENTATION(#11,'Body','SweptSolid',(#1531));
#1533=IFCPRODUCTDEFINITIONSHAPE($,$,(#1532));
#1534=IFCCARTESIANPOINT((0.29999999999999999,0.,0.65000000000000002));
#1535=IFCDIRECTION((0.,0.,1.));
#1536=IFCDIRECTION((1.,0.,0.));
#1537=IFCAXIS2PLACEMENT3D(#1534,#1535,#1536);
#1538=IFCLOCALPLACEMENT($,#1537);
#1539=IFCFURNITURE('12u3IJpJ9B5R76aQh2cgoV',$,'Pot2',$,$,#1558,#1553,$,$);
#1545=IFCCARTESIANPOINT((0.,0.));
#1546=IFCAXIS2PLACEMENT2D(#1545,$);
#1547=IFCRECTANGLEPROFILEDEF(.AREA.,$,#1546,0.40000000000000002,0.40000000000000002);
#1548=IFCCARTESIANPOINT((0.,0.,-0.20000000000000001));
#1549=IFCAXIS2PLACEMENT3D(#1548,$,$);
#1550=IFCDIRECTION((0.,0.,1.));
#1551=IFCEXTRUDEDAREASOLID(#1547,#1549,#1550,0.40000000000000002);
#1552=IFCSHAPEREPRESENTATION(#11,'Body','SweptSolid',(#1551));
#1553=IFCPRODUCTDEFINITIONSHAPE($,$,(#1552));
#1554=IFCCARTESIANPOINT((-4.2000000000000002,2.,0.20000000000000001));
#1555=IFCDIRECTION((0.,0.,1.));
#1556=IFCDIRECTION((1.,0.,0.));
#1557=IFCAXIS2PLACEMENT3D(#1554,#1555,#1556);
#1558=IFCLOCALPLACEMENT($,#1557);
#1559=IFCFURNITURE('1Rbb8LbjDD1u1D$kYNGrib',$,'Plant2',$,$,#1578,#1573,$,$);
#1565=IFCCARTESIANPOINT((0.,0.));
#1566=IFCAXIS2PLACEMENT2D(#1565,$);
#1567=IFCRECTANGLEPROFILEDEF(.AREA.,$,#1566,0.80000000000000004,0.80000000000000004);
#1568=IFCCARTESIANPOINT((0.,0.,-0.45000000000000001));
#1569=IFCAXIS2PLACEMENT3D(#1568,$,$);
#1570=IFCDIRECTION((0.,0.,1.));
#1571=IFCEXTRUDEDAREASOLID(#1567,#1569,#1570,0.90000000000000002);
#1572=IFCSHAPEREPRESENTATION(#11,'Body','SweptSolid',(#1571));
#1573=IFCPRODUCTDEFINITIONSHAPE($,$,(#1572));
#1574=IFCCARTESIANPOINT((-4.2000000000000002,2.,0.75));
#1575=IFCDIRECTION((0.,0.,1.));
#1576=IFCDIRECTION((1.,0.,0.));
#1577=IFCAXIS2PLACEMENT3D(#1574,#1575,#1576);
#1578=IFCLOCALPLACEMENT($,#1577);
#1579=IFCPROPERTYSINGLEVALUE('IsExternal',$,IFCBOOLEAN(.T.),$);
#1580=IFCPROPERTYSINGLEVALUE('LoadBearing',$,IFCBOOLEAN(.F.),$);
#1581=IFCPROPERTYSINGLEVALUE('ThermalTransmittance',$,IFCREAL(1.8),$);
#1582=IFCPROPERTYSINGLEVALUE('FireRating',$,IFCLABEL('60min'),$);
#1583=IFCPROPERTYSET('1Z$UvtAPbExR4EvoD7C4bY',$,'Pset_WallCommon',$,(#1579,#1580,#1581,#1582));
#1584=IFCRELDEFINESBYPROPERTIES('0XV4OZCFv9lAitQIExBTSe',$,$,$,(#39),#1583);
#1585=IFCMATERIAL('Brick_Common',$,$);
#1586=IFCPROPERTYSINGLEVALUE('ThermalConductivity',$,IFCREAL(0.71999999999999997),$);
#1587=IFCPROPERTYSINGLEVALUE('SpecificHeatCapacity',$,IFCREAL(840.),$);
#1588=IFCPROPERTYSINGLEVALUE('MassDensity',$,IFCREAL(1920.),$);
#1589=IFCMATERIALPROPERTIES('Pset_MaterialThermal',$,(#1586,#1587,#1588),#1585);
#1590=IFCRELASSOCIATESMATERIAL('0cVT22PPv8tuFIfqyAKD0W',$,$,$,(#39),#1585);
#1591=IFCQUANTITYLENGTH('Length',$,$,10.,$);
#1592=IFCQUANTITYLENGTH('Height',$,$,3.5,$);
#1593=IFCQUANTITYAREA('GrossArea',$,$,35.,$);
#1594=IFCQUANTITYAREA('NetArea',$,$,31.5,$);
#1595=IFCQUANTITYVOLUME('GrossVolume',$,$,3.5,$);
#1596=IFCELEMENTQUANTITY('1crE0hsDn5DxJ1qfKZKtib',$,'Qto_WallBaseQuantities',$,$,(#1591,#1592,#1593,#1594,#1595));
#1597=IFCRELDEFINESBYPROPERTIES('3TA44Lo5z8DhesqOh2mJXg',$,$,$,(#39),#1596);
#1598=IFCPROPERTYSINGLEVALUE('IsExternal',$,IFCBOOLEAN(.T.),$);
#1599=IFCPROPERTYSINGLEVALUE('LoadBearing',$,IFCBOOLEAN(.F.),$);
#1600=IFCPROPERTYSINGLEVALUE('ThermalTransmittance',$,IFCREAL(1.8),$);
#1601=IFCPROPERTYSINGLEVALUE('FireRating',$,IFCLABEL('60min'),$);
#1602=IFCPROPERTYSET('2azlEQgKz8OQ$UPMQtei5U',$,'Pset_WallCommon',$,(#1598,#1599,#1600,#1601));
#1603=IFCRELDEFINESBYPROPERTIES('0agmof5Lf8bxjzrVCGJyZG',$,$,$,(#59),#1602);
#1604=IFCRELASSOCIATESMATERIAL('3w6m9JMjf01w8bn$sGMmZ0',$,$,$,(#59),#1585);
#1605=IFCQUANTITYLENGTH('Length',$,$,10.,$);
#1606=IFCQUANTITYLENGTH('Height',$,$,3.5,$);
#1607=IFCQUANTITYAREA('GrossArea',$,$,35.,$);
#1608=IFCQUANTITYAREA('NetArea',$,$,31.5,$);
#1609=IFCQUANTITYVOLUME('GrossVolume',$,$,3.5,$);
#1610=IFCELEMENTQUANTITY('2uSXIdyXnEhPZvRyjx_ps5',$,'Qto_WallBaseQuantities',$,$,(#1605,#1606,#1607,#1608,#1609));
#1611=IFCRELDEFINESBYPROPERTIES('27hFaLnV15_xoorMZMOVng',$,$,$,(#59),#1610);
#1612=IFCPROPERTYSINGLEVALUE('IsExternal',$,IFCBOOLEAN(.T.),$);
#1613=IFCPROPERTYSINGLEVALUE('LoadBearing',$,IFCBOOLEAN(.F.),$);
#1614=IFCPROPERTYSINGLEVALUE('ThermalTransmittance',$,IFCREAL(1.8),$);
#1615=IFCPROPERTYSINGLEVALUE('FireRating',$,IFCLABEL('60min'),$);
#1616=IFCPROPERTYSET('0qIrKml5XE6OQYJt2$8Pbc',$,'Pset_WallCommon',$,(#1612,#1613,#1614,#1615));
#1617=IFCRELDEFINESBYPROPERTIES('16zxettmj6uu3qjWI_Wfb8',$,$,$,(#79),#1616);
#1618=IFCRELASSOCIATESMATERIAL('3iNJN5WnnECuNUfGr3cYFB',$,$,$,(#79),#1585);
#1619=IFCQUANTITYLENGTH('Length',$,$,8.,$);
#1620=IFCQUANTITYLENGTH('Height',$,$,3.5,$);
#1621=IFCQUANTITYAREA('GrossArea',$,$,0.34999999999999998,$);
#1622=IFCQUANTITYAREA('NetArea',$,$,0.315,$);
#1623=IFCQUANTITYVOLUME('GrossVolume',$,$,0.035000000000000003,$);
#1624=IFCELEMENTQUANTITY('1apBInbvvCzue2a7xa3m$m',$,'Qto_WallBaseQuantities',$,$,(#1619,#1620,#1621,#1622,#1623));
#1625=IFCRELDEFINESBYPROPERTIES('330HVw4894_vbCqo4GRj_T',$,$,$,(#79),#1624);
#1626=IFCPROPERTYSINGLEVALUE('IsExternal',$,IFCBOOLEAN(.T.),$);
#1627=IFCPROPERTYSINGLEVALUE('LoadBearing',$,IFCBOOLEAN(.F.),$);
#1628=IFCPROPERTYSINGLEVALUE('ThermalTransmittance',$,IFCREAL(1.8),$);
#1629=IFCPROPERTYSINGLEVALUE('FireRating',$,IFCLABEL('60min'),$);
#1630=IFCPROPERTYSET('1KtuF$efTA_xPjEQ7GtERr',$,'Pset_WallCommon',$,(#1626,#1627,#1628,#1629));
#1631=IFCRELDEFINESBYPROPERTIES('2lEsVS5J9AhgoMbR0PmWIJ',$,$,$,(#99),#1630);
#1632=IFCRELASSOCIATESMATERIAL('2PoK7ErpL1AgccIBLTeKyQ',$,$,$,(#99),#1585);
#1633=IFCQUANTITYLENGTH('Length',$,$,8.,$);
#1634=IFCQUANTITYLENGTH('Height',$,$,3.5,$);
#1635=IFCQUANTITYAREA('GrossArea',$,$,0.34999999999999998,$);
#1636=IFCQUANTITYAREA('NetArea',$,$,0.315,$);
#1637=IFCQUANTITYVOLUME('GrossVolume',$,$,0.035000000000000003,$);
#1638=IFCELEMENTQUANTITY('3G$bea9YT3FQj2txtTkG9U',$,'Qto_WallBaseQuantities',$,$,(#1633,#1634,#1635,#1636,#1637));
#1639=IFCRELDEFINESBYPROPERTIES('1kJ$RpGn5AEvE12TTIm3q7',$,$,$,(#99),#1638);
#1640=IFCPROPERTYSINGLEVALUE('IsExternal',$,IFCBOOLEAN(.F.),$);
#1641=IFCPROPERTYSINGLEVALUE('LoadBearing',$,IFCBOOLEAN(.F.),$);
#1642=IFCPROPERTYSINGLEVALUE('ThermalTransmittance',$,IFCREAL(2.5),$);
#1643=IFCPROPERTYSINGLEVALUE('FireRating',$,IFCLABEL('30min'),$);
#1644=IFCPROPERTYSET('3lPdoEbivA6uP7LObC2xad',$,'Pset_WallCommon',$,(#1640,#1641,#1642,#1643));
#1645=IFCRELDEFINESBYPROPERTIES('10AolwRnrEPBC5bctRLVyv',$,$,$,(#119),#1644);
#1646=IFCRELASSOCIATESMATERIAL('1lM5iLQWf5ewHUUsMTHSzX',$,$,$,(#119),#1585);
#1647=IFCQUANTITYLENGTH('Length',$,$,4.,$);
#1648=IFCQUANTITYLENGTH('Height',$,$,2.6000000000000001,$);
#1649=IFCQUANTITYAREA('GrossArea',$,$,0.26000000000000001,$);
#1650=IFCQUANTITYAREA('NetArea',$,$,0.23400000000000001,$);
#1651=IFCQUANTITYVOLUME('GrossVolume',$,$,0.025999999999999999,$);
#1652=IFCELEMENTQUANTITY('3MXl5rkjL9yh35KQ4P3UJK',$,'Qto_WallBaseQuantities',$,$,(#1647,#1648,#1649,#1650,#1651));
#1653=IFCRELDEFINESBYPROPERTIES('3cmbufPXfEMf$xhcOgwa9j',$,$,$,(#119),#1652);
#1654=IFCPROPERTYSINGLEVALUE('IsExternal',$,IFCBOOLEAN(.T.),$);
#1655=IFCPROPERTYSINGLEVALUE('LoadBearing',$,IFCBOOLEAN(.F.),$);
#1656=IFCPROPERTYSINGLEVALUE('ThermalTransmittance',$,IFCREAL(1.8),$);
#1657=IFCPROPERTYSINGLEVALUE('FireRating',$,IFCLABEL('60min'),$);
#1658=IFCPROPERTYSET('3OyScg1Bf1$eypnST7rKEz',$,'Pset_WallCommon',$,(#1654,#1655,#1656,#1657));
#1659=IFCRELDEFINESBYPROPERTIES('3I3oQQAKnCxOlQIuFYgEvY',$,$,$,(#999),#1658);
#1660=IFCRELASSOCIATESMATERIAL('10GJ461yv3Jh5Eum2Gdw6w',$,$,$,(#999),#1585);
#1661=IFCQUANTITYLENGTH('Length',$,$,5.,$);
#1662=IFCQUANTITYLENGTH('Height',$,$,3.5,$);
#1663=IFCQUANTITYAREA('GrossArea',$,$,0.83999999999999997,$);
#1664=IFCQUANTITYAREA('NetArea',$,$,0.75600000000000001,$);
#1665=IFCQUANTITYVOLUME('GrossVolume',$,$,0.2016,$);
#1666=IFCELEMENTQUANTITY('1sN7DWwSH8nBpXbrIwB5Sz',$,'Qto_WallBaseQuantities',$,$,(#1661,#1662,#1663,#1664,#1665));
#1667=IFCRELDEFINESBYPROPERTIES('2smK_CorPFPwA0Z4Qri6EN',$,$,$,(#999),#1666);
#1668=IFCPROPERTYSINGLEVALUE('IsExternal',$,IFCBOOLEAN(.F.),$);
#1669=IFCPROPERTYSINGLEVALUE('LoadBearing',$,IFCBOOLEAN(.T.),$);
#1670=IFCPROPERTYSINGLEVALUE('ThermalTransmittance',$,IFCREAL(1.5),$);
#1671=IFCPROPERTYSET('2RM6QI1Tv7ogrJhLW2oSND',$,'Pset_SlabCommon',$,(#1668,#1669,#1670));
#1672=IFCRELDEFINESBYPROPERTIES('2QW9Ul8gD7aAW48qS6XiP$',$,$,$,(#18),#1671);
#1673=IFCMATERIAL('Concrete_C30',$,$);
#1674=IFCPROPERTYSINGLEVALUE('ThermalConductivity',$,IFCREAL(1.74),$);
#1675=IFCPROPERTYSINGLEVALUE('SpecificHeatCapacity',$,IFCREAL(920.),$);
#1676=IFCPROPERTYSINGLEVALUE('MassDensity',$,IFCREAL(2400.),$);
#1677=IFCMATERIALPROPERTIES('Pset_MaterialThermal',$,(#1674,#1675,#1676),#1673);
#1678=IFCRELASSOCIATESMATERIAL('2$Eu4N8IzDQemo3GLhKapq',$,$,$,(#18),#1673);
#1679=IFCQUANTITYAREA('GrossArea',$,$,80.,$);
#1680=IFCQUANTITYVOLUME('GrossVolume',$,$,12.,$);
#1681=IFCELEMENTQUANTITY('2Cyd8OnhP9Ve__2VCr62R6',$,'Qto_SlabBaseQuantities',$,$,(#1679,#1680));
#1682=IFCRELDEFINESBYPROPERTIES('1oBbjwhwT2LeJmznsyhl3b',$,$,$,(#18),#1681);
#1683=IFCSPACE('2MI2CeRe5BvBHU02GCVMAX',$,'Room_Ground Floor',$,$,$,$,'Main space \X2\2014\X0\ Ground Floor',$,$,$);
#1684=IFCRELCONTAINEDINSPATIALSTRUCTURE('1CVPXjXXL6cxkPxt6wOlkm',$,$,$,(#1683),#14);
#1685=IFCPROPERTYSINGLEVALUE('IsExternal',$,IFCBOOLEAN(.F.),$);
#1686=IFCPROPERTYSINGLEVALUE('GrossPlannedArea',$,IFCREAL(81.810000000000002),$);
#1687=IFCPROPERTYSINGLEVALUE('NetPlannedArea',$,IFCREAL(69.540000000000006),$);
#1688=IFCPROPERTYSET('1Uw$q_QBTBOQDIW98XVB$8',$,'Pset_SpaceCommon',$,(#1685,#1686,#1687));
#1689=IFCRELDEFINESBYPROPERTIES('3NLpOzblPBTAtDFRJqcfXs',$,$,$,(#1683),#1688);
ENDSEC;
END-ISO-10303-21;
