ISO-10303-21;
HEADER;
FILE_DESCRIPTION(('ViewDefinition[DesignTransferView]'),'2;1');
FILE_NAME('/dev/null','2026-04-15T10:19:27+08:00',(''),(''),'IfcOpenShell 0.8.5','IfcOpenShell 0.8.5','Nobody');
FILE_SCHEMA(('IFC4'));
ENDSEC;
DATA;
#1=IFCPROJECT('2F1QdD8c1CFOslRDvsFsEr',$,'StackLab',$,$,$,$,(#10),#5);
#2=IFCSIUNIT(*,.LENGTHUNIT.,$,.METRE.);
#3=IFCSIUNIT(*,.AREAUNIT.,$,.SQUARE_METRE.);
#4=IFCSIUNIT(*,.VOLUMEUNIT.,$,.CUBIC_METRE.);
#5=IFCUNITASSIGNMENT((#3,#4,#2));
#6=IFCCARTESIANPOINT((0.,0.,0.));
#7=IFCDIRECTION((0.,0.,1.));
#8=IFCDIRECTION((1.,0.,0.));
#9=IFCAXIS2PLACEMENT3D(#6,#7,#8);
#10=IFCGEOMETRICREPRESENTATIONCONTEXT($,'Model',3,1.0000000000000001E-05,#9,$);
#11=IFCGEOMETRICREPRESENTATIONSUBCONTEXT('Body','Model',*,*,*,*,#10,$,.MODEL_VIEW.,$);
#12=IFCSITE('19Lb6QROjAGB0lBn0VSoFy',$,'Site',$,$,$,$,$,$,$,$,$,$,$);
#13=IFCBUILDING('2gR8htZ898yAjVkPmT7QOv',$,'Building',$,$,$,$,$,$,$,$,$);
#14=IFCBUILDINGSTOREY('1ARFUwprDBRwaZ4p3FOm9b',$,'Ground Floor',$,$,$,$,$,$,$);
#15=IFCRELAGGREGATES('1ujqg4qsT3iBdN$H9keMPv',$,$,$,#1,(#12));
#16=IFCRELAGGREGATES('2IXEa2wk1FOwa0SxEMVUAR',$,$,$,#12,(#13));
#17=IFCRELAGGREGATES('1jFAfVJNf10efg$hI7$B4H',$,$,$,#13,(#14));
#18=IFCSLAB('18FZmHp8n0SR5bX2yBc7Tv',$,'Floor',$,$,#38,#32,$,.FLOOR.);
#24=IFCCARTESIANPOINT((0.,0.));
#25=IFCAXIS2PLACEMENT2D(#24,$);
#26=IFCRECTANGLEPROFILEDEF(.AREA.,$,#25,13.,10.);
#27=IFCCARTESIANPOINT((0.,0.,-0.0050000000000000001));
#28=IFCAXIS2PLACEMENT3D(#27,$,$);
#29=IFCDIRECTION((0.,0.,1.));
#30=IFCEXTRUDEDAREASOLID(#26,#28,#29,0.01);
#31=IFCSHAPEREPRESENTATION(#11,'Body','SweptSolid',(#30));
#32=IFCPRODUCTDEFINITIONSHAPE($,$,(#31));
#33=IFCRELCONTAINEDINSPATIALSTRUCTURE('36o5GixxHEZhvsWqInl1m2',$,$,$,(#399,#619,#2259,#459,#1579,#1319,#2219,#1079,#1779,#639,#1539,#1979,#1279,#839,#1739,#159,#599,#799,#1959,#819,#1719,#2159,#1019,#659,#1919,#779,#1239,#99,#979,#299,#1899,#2359,#1219,#2119,#1419,#279,#1859,#2319,#1179,#719,#479,#1379,#239,#939,#1399,#2299,#1599,#2059,#919,#1359,#1819,#679,#1119,#1559,#419,#2019,#879,#439,#1799,#2239,#1999,#859,#1299,#1759,#179,#2199,#1059,#1519,#379,#18,#119,#139,#579,#1479,#339,#2179,#1039,#1939,#1499,#359,#1259,#2139,#999,#1699,#559,#1459,#319,#759,#1659,#79,#519,#39,#1679,#539,#1439,#1879,#739,#2339,#1639,#499,#1199,#59,#2099,#1839,#699,#959,#259,#1159,#219,#1619,#2079,#2279,#1139,#2039,#899,#1339,#199,#1099),#14);
#34=IFCCARTESIANPOINT((0.,0.,0.));
#35=IFCDIRECTION((0.,0.,1.));
#36=IFCDIRECTION((1.,0.,0.));
#37=IFCAXIS2PLACEMENT3D(#34,#35,#36);
#38=IFCLOCALPLACEMENT($,#37);
#39=IFCWALL('07feRuRnf71eVzn9_F_giL',$,'WallN',$,$,#58,#53,$,$);
#45=IFCCARTESIANPOINT((0.,0.));
#46=IFCAXIS2PLACEMENT2D(#45,$);
#47=IFCRECTANGLEPROFILEDEF(.AREA.,$,#46,13.,0.10000000000000001);
#48=IFCCARTESIANPOINT((0.,0.,-1.5));
#49=IFCAXIS2PLACEMENT3D(#48,$,$);
#50=IFCDIRECTION((0.,0.,1.));
#51=IFCEXTRUDEDAREASOLID(#47,#49,#50,3.);
#52=IFCSHAPEREPRESENTATION(#11,'Body','SweptSolid',(#51));
#53=IFCPRODUCTDEFINITIONSHAPE($,$,(#52));
#54=IFCCARTESIANPOINT((0.,5.,1.5));
#55=IFCDIRECTION((0.,0.,1.));
#56=IFCDIRECTION((1.,0.,0.));
#57=IFCAXIS2PLACEMENT3D(#54,#55,#56);
#58=IFCLOCALPLACEMENT($,#57);
#59=IFCWALL('2WThaM9hv3ve5AIY$DynJ6',$,'WallS',$,$,#78,#73,$,$);
#65=IFCCARTESIANPOINT((0.,0.));
#66=IFCAXIS2PLACEMENT2D(#65,$);
#67=IFCRECTANGLEPROFILEDEF(.AREA.,$,#66,13.,0.10000000000000001);
#68=IFCCARTESIANPOINT((0.,0.,-1.5));
#69=IFCAXIS2PLACEMENT3D(#68,$,$);
#70=IFCDIRECTION((0.,0.,1.));
#71=IFCEXTRUDEDAREASOLID(#67,#69,#70,3.);
#72=IFCSHAPEREPRESENTATION(#11,'Body','SweptSolid',(#71));
#73=IFCPRODUCTDEFINITIONSHAPE($,$,(#72));
#74=IFCCARTESIANPOINT((0.,-5.,1.5));
#75=IFCDIRECTION((0.,0.,1.));
#76=IFCDIRECTION((1.,0.,0.));
#77=IFCAXIS2PLACEMENT3D(#74,#75,#76);
#78=IFCLOCALPLACEMENT($,#77);
#79=IFCWALL('0QRMZb2Z92jgSwXF8k3dLn',$,'WallW',$,$,#98,#93,$,$);
#85=IFCCARTESIANPOINT((0.,0.));
#86=IFCAXIS2PLACEMENT2D(#85,$);
#87=IFCRECTANGLEPROFILEDEF(.AREA.,$,#86,0.10000000000000001,10.);
#88=IFCCARTESIANPOINT((0.,0.,-1.5));
#89=IFCAXIS2PLACEMENT3D(#88,$,$);
#90=IFCDIRECTION((0.,0.,1.));
#91=IFCEXTRUDEDAREASOLID(#87,#89,#90,3.);
#92=IFCSHAPEREPRESENTATION(#11,'Body','SweptSolid',(#91));
#93=IFCPRODUCTDEFINITIONSHAPE($,$,(#92));
#94=IFCCARTESIANPOINT((-6.5,0.,1.5));
#95=IFCDIRECTION((0.,0.,1.));
#96=IFCDIRECTION((1.,0.,0.));
#97=IFCAXIS2PLACEMENT3D(#94,#95,#96);
#98=IFCLOCALPLACEMENT($,#97);
#99=IFCWALL('3QXNAX8sb0n9sOVKCsqHl_',$,'WallE',$,$,#118,#113,$,$);
#105=IFCCARTESIANPOINT((0.,0.));
#106=IFCAXIS2PLACEMENT2D(#105,$);
#107=IFCRECTANGLEPROFILEDEF(.AREA.,$,#106,0.10000000000000001,10.);
#108=IFCCARTESIANPOINT((0.,0.,-1.5));
#109=IFCAXIS2PLACEMENT3D(#108,$,$);
#110=IFCDIRECTION((0.,0.,1.));
#111=IFCEXTRUDEDAREASOLID(#107,#109,#110,3.);
#112=IFCSHAPEREPRESENTATION(#11,'Body','SweptSolid',(#111));
#113=IFCPRODUCTDEFINITIONSHAPE($,$,(#112));
#114=IFCCARTESIANPOINT((6.5,0.,1.5));
#115=IFCDIRECTION((0.,0.,1.));
#116=IFCDIRECTION((1.,0.,0.));
#117=IFCAXIS2PLACEMENT3D(#114,#115,#116);
#118=IFCLOCALPLACEMENT($,#117);
#119=IFCSLAB('1PrvGR3g1CIfMS0aCO8M$P',$,'Ceiling',$,$,#138,#133,$,.ROOF.);
#125=IFCCARTESIANPOINT((0.,0.));
#126=IFCAXIS2PLACEMENT2D(#125,$);
#127=IFCRECTANGLEPROFILEDEF(.AREA.,$,#126,13.,10.);
#128=IFCCARTESIANPOINT((0.,0.,-0.0050000000000000001));
#129=IFCAXIS2PLACEMENT3D(#128,$,$);
#130=IFCDIRECTION((0.,0.,1.));
#131=IFCEXTRUDEDAREASOLID(#127,#129,#130,0.01);
#132=IFCSHAPEREPRESENTATION(#11,'Body','SweptSolid',(#131));
#133=IFCPRODUCTDEFINITIONSHAPE($,$,(#132));
#134=IFCCARTESIANPOINT((0.,0.,3.));
#135=IFCDIRECTION((0.,0.,1.));
#136=IFCDIRECTION((1.,0.,0.));
#137=IFCAXIS2PLACEMENT3D(#134,#135,#136);
#138=IFCLOCALPLACEMENT($,#137);
#139=IFCBUILDINGELEMENTPROXY('1Rx7_o1_j5Xw9S8UQi_Up1',$,'LogoPanel',$,$,#158,#153,$,$);
#145=IFCCARTESIANPOINT((0.,0.));
#146=IFCAXIS2PLACEMENT2D(#145,$);
#147=IFCRECTANGLEPROFILEDEF(.AREA.,$,#146,3.,0.10000000000000001);
#148=IFCCARTESIANPOINT((0.,0.,-0.80000000000000004));
#149=IFCAXIS2PLACEMENT3D(#148,$,$);
#150=IFCDIRECTION((0.,0.,1.));
#151=IFCEXTRUDEDAREASOLID(#147,#149,#150,1.6000000000000001);
#152=IFCSHAPEREPRESENTATION(#11,'Body','SweptSolid',(#151));
#153=IFCPRODUCTDEFINITIONSHAPE($,$,(#152));
#154=IFCCARTESIANPOINT((-4.5,-4.9000000000000004,1.8));
#155=IFCDIRECTION((0.,0.,1.));
#156=IFCDIRECTION((1.,0.,0.));
#157=IFCAXIS2PLACEMENT3D(#154,#155,#156);
#158=IFCLOCALPLACEMENT($,#157);
#159=IFCBUILDINGELEMENTPROXY('1mj8Gc2WH7ZuhW$JdZVgL8',$,'LogoAccentBar',$,$,#178,#173,$,$);
#165=IFCCARTESIANPOINT((0.,0.));
#166=IFCAXIS2PLACEMENT2D(#165,$);
#167=IFCRECTANGLEPROFILEDEF(.AREA.,$,#166,2.6000000000000001,0.080000000000000002);
#168=IFCCARTESIANPOINT((0.,0.,-0.080000000000000002));
#169=IFCAXIS2PLACEMENT3D(#168,$,$);
#170=IFCDIRECTION((0.,0.,1.));
#171=IFCEXTRUDEDAREASOLID(#167,#169,#170,0.16);
#172=IFCSHAPEREPRESENTATION(#11,'Body','SweptSolid',(#171));
#173=IFCPRODUCTDEFINITIONSHAPE($,$,(#172));
#174=IFCCARTESIANPOINT((-4.5,-4.8499999999999996,1.8));
#175=IFCDIRECTION((0.,0.,1.));
#176=IFCDIRECTION((1.,0.,0.));
#177=IFCAXIS2PLACEMENT3D(#174,#175,#176);
#178=IFCLOCALPLACEMENT($,#177);
#179=IFCFURNITURE('2GHx1xGCD9JA_UMtTF4pXC',$,'ReceptionDesk',$,$,#198,#193,$,$);
#185=IFCCARTESIANPOINT((0.,0.));
#186=IFCAXIS2PLACEMENT2D(#185,$);
#187=IFCRECTANGLEPROFILEDEF(.AREA.,$,#186,2.,1.);
#188=IFCCARTESIANPOINT((0.,0.,-0.55000000000000004));
#189=IFCAXIS2PLACEMENT3D(#188,$,$);
#190=IFCDIRECTION((0.,0.,1.));
#191=IFCEXTRUDEDAREASOLID(#187,#189,#190,1.1000000000000001);
#192=IFCSHAPEREPRESENTATION(#11,'Body','SweptSolid',(#191));
#193=IFCPRODUCTDEFINITIONSHAPE($,$,(#192));
#194=IFCCARTESIANPOINT((-2.,-3.7000000000000002,0.55000000000000004));
#195=IFCDIRECTION((0.,0.,1.));
#196=IFCDIRECTION((1.,0.,0.));
#197=IFCAXIS2PLACEMENT3D(#194,#195,#196);
#198=IFCLOCALPLACEMENT($,#197);
#199=IFCBUILDINGELEMENTPROXY('3eYQjnQvXBCxcs0gu5SdYM',$,'WaitBench',$,$,#218,#213,$,$);
#205=IFCCARTESIANPOINT((0.,0.));
#206=IFCAXIS2PLACEMENT2D(#205,$);
#207=IFCRECTANGLEPROFILEDEF(.AREA.,$,#206,1.6000000000000001,0.59999999999999998);
#208=IFCCARTESIANPOINT((0.,0.,-0.25));
#209=IFCAXIS2PLACEMENT3D(#208,$,$);
#210=IFCDIRECTION((0.,0.,1.));
#211=IFCEXTRUDEDAREASOLID(#207,#209,#210,0.5);
#212=IFCSHAPEREPRESENTATION(#11,'Body','SweptSolid',(#211));
#213=IFCPRODUCTDEFINITIONSHAPE($,$,(#212));
#214=IFCCARTESIANPOINT((-5.5,-3.5,0.25));
#215=IFCDIRECTION((0.,0.,1.));
#216=IFCDIRECTION((1.,0.,0.));
#217=IFCAXIS2PLACEMENT3D(#214,#215,#216);
#218=IFCLOCALPLACEMENT($,#217);
#219=IFCBUILDINGELEMENTPROXY('0qs9ZnVyTDwQYlQIxCeNkK',$,'EntryMat',$,$,#238,#233,$,$);
#225=IFCCARTESIANPOINT((0.,0.));
#226=IFCAXIS2PLACEMENT2D(#225,$);
#227=IFCRECTANGLEPROFILEDEF(.AREA.,$,#226,1.3999999999999999,0.80000000000000004);
#228=IFCCARTESIANPOINT((0.,0.,-0.01));
#229=IFCAXIS2PLACEMENT3D(#228,$,$);
#230=IFCDIRECTION((0.,0.,1.));
#231=IFCEXTRUDEDAREASOLID(#227,#229,#230,0.02);
#232=IFCSHAPEREPRESENTATION(#11,'Body','SweptSolid',(#231));
#233=IFCPRODUCTDEFINITIONSHAPE($,$,(#232));
#234=IFCCARTESIANPOINT((-4.5,-4.2999999999999998,0.01));
#235=IFCDIRECTION((0.,0.,1.));
#236=IFCDIRECTION((1.,0.,0.));
#237=IFCAXIS2PLACEMENT3D(#234,#235,#236);
#238=IFCLOCALPLACEMENT($,#237);
#239=IFCFURNITURE('3a5EhkeGz3vvwe4xjZWHSC',$,'Desk_r-1.5_0',$,$,#258,#253,$,$);
#245=IFCCARTESIANPOINT((0.,0.));
#246=IFCAXIS2PLACEMENT2D(#245,$);
#247=IFCRECTANGLEPROFILEDEF(.AREA.,$,#246,1.2,0.69999999999999996);
#248=IFCCARTESIANPOINT((0.,0.,-0.02));
#249=IFCAXIS2PLACEMENT3D(#248,$,$);
#250=IFCDIRECTION((0.,0.,1.));
#251=IFCEXTRUDEDAREASOLID(#247,#249,#250,0.040000000000000001);
#252=IFCSHAPEREPRESENTATION(#11,'Body','SweptSolid',(#251));
#253=IFCPRODUCTDEFINITIONSHAPE($,$,(#252));
#254=IFCCARTESIANPOINT((-5.,-1.5,0.75));
#255=IFCDIRECTION((0.,0.,1.));
#256=IFCDIRECTION((1.,0.,0.));
#257=IFCAXIS2PLACEMENT3D(#254,#255,#256);
#258=IFCLOCALPLACEMENT($,#257);
#259=IFCFURNITURE('0SfXt0OFX1gfABh_aj9zVW',$,'Chair_r-1.5_0',$,$,#278,#273,$,$);
#265=IFCCARTESIANPOINT((0.,0.));
#266=IFCAXIS2PLACEMENT2D(#265,$);
#267=IFCRECTANGLEPROFILEDEF(.AREA.,$,#266,0.5,0.5);
#268=IFCCARTESIANPOINT((0.,0.,-0.029999999999999999));
#269=IFCAXIS2PLACEMENT3D(#268,$,$);
#270=IFCDIRECTION((0.,0.,1.));
#271=IFCEXTRUDEDAREASOLID(#267,#269,#270,0.059999999999999998);
#272=IFCSHAPEREPRESENTATION(#11,'Body','SweptSolid',(#271));
#273=IFCPRODUCTDEFINITIONSHAPE($,$,(#272));
#274=IFCCARTESIANPOINT((-5.,-2.1000000000000001,0.45000000000000001));
#275=IFCDIRECTION((0.,0.,1.));
#276=IFCDIRECTION((1.,0.,0.));
#277=IFCAXIS2PLACEMENT3D(#274,#275,#276);
#278=IFCLOCALPLACEMENT($,#277);
#279=IFCBUILDINGELEMENTPROXY('248z4vvg94T8oohA9mGN_D',$,'ScrL_r-1.5_0',$,$,#298,#293,$,$);
#285=IFCCARTESIANPOINT((0.,0.));
#286=IFCAXIS2PLACEMENT2D(#285,$);
#287=IFCRECTANGLEPROFILEDEF(.AREA.,$,#286,0.44,0.040000000000000001);
#288=IFCCARTESIANPOINT((0.,0.,-0.16));
#289=IFCAXIS2PLACEMENT3D(#288,$,$);
#290=IFCDIRECTION((0.,0.,1.));
#291=IFCEXTRUDEDAREASOLID(#287,#289,#290,0.32000000000000001);
#292=IFCSHAPEREPRESENTATION(#11,'Body','SweptSolid',(#291));
#293=IFCPRODUCTDEFINITIONSHAPE($,$,(#292));
#294=IFCCARTESIANPOINT((-5.2000000000000002,-1.5,1.1499999999999999));
#295=IFCDIRECTION((0.,0.,1.));
#296=IFCDIRECTION((1.,0.,0.));
#297=IFCAXIS2PLACEMENT3D(#294,#295,#296);
#298=IFCLOCALPLACEMENT($,#297);
#299=IFCBUILDINGELEMENTPROXY('31JyaXcPX1sQT4ycRny2Po',$,'ScrR_r-1.5_0',$,$,#318,#313,$,$);
#305=IFCCARTESIANPOINT((0.,0.));
#306=IFCAXIS2PLACEMENT2D(#305,$);
#307=IFCRECTANGLEPROFILEDEF(.AREA.,$,#306,0.44,0.040000000000000001);
#308=IFCCARTESIANPOINT((0.,0.,-0.16));
#309=IFCAXIS2PLACEMENT3D(#308,$,$);
#310=IFCDIRECTION((0.,0.,1.));
#311=IFCEXTRUDEDAREASOLID(#307,#309,#310,0.32000000000000001);
#312=IFCSHAPEREPRESENTATION(#11,'Body','SweptSolid',(#311));
#313=IFCPRODUCTDEFINITIONSHAPE($,$,(#312));
#314=IFCCARTESIANPOINT((-4.7999999999999998,-1.5,1.1499999999999999));
#315=IFCDIRECTION((0.,0.,1.));
#316=IFCDIRECTION((1.,0.,0.));
#317=IFCAXIS2PLACEMENT3D(#314,#315,#316);
#318=IFCLOCALPLACEMENT($,#317);
#319=IFCFURNITURE('3byvcgl61AZOHhEh_sw3ZE',$,'Desk_r-1.5_1',$,$,#338,#333,$,$);
#325=IFCCARTESIANPOINT((0.,0.));
#326=IFCAXIS2PLACEMENT2D(#325,$);
#327=IFCRECTANGLEPROFILEDEF(.AREA.,$,#326,1.2,0.69999999999999996);
#328=IFCCARTESIANPOINT((0.,0.,-0.02));
#329=IFCAXIS2PLACEMENT3D(#328,$,$);
#330=IFCDIRECTION((0.,0.,1.));
#331=IFCEXTRUDEDAREASOLID(#327,#329,#330,0.040000000000000001);
#332=IFCSHAPEREPRESENTATION(#11,'Body','SweptSolid',(#331));
#333=IFCPRODUCTDEFINITIONSHAPE($,$,(#332));
#334=IFCCARTESIANPOINT((-3.6000000000000001,-1.5,0.75));
#335=IFCDIRECTION((0.,0.,1.));
#336=IFCDIRECTION((1.,0.,0.));
#337=IFCAXIS2PLACEMENT3D(#334,#335,#336);
#338=IFCLOCALPLACEMENT($,#337);
#339=IFCFURNITURE('2hD_3I4Cr7lR5co8XDJotx',$,'Chair_r-1.5_1',$,$,#358,#353,$,$);
#345=IFCCARTESIANPOINT((0.,0.));
#346=IFCAXIS2PLACEMENT2D(#345,$);
#347=IFCRECTANGLEPROFILEDEF(.AREA.,$,#346,0.5,0.5);
#348=IFCCARTESIANPOINT((0.,0.,-0.029999999999999999));
#349=IFCAXIS2PLACEMENT3D(#348,$,$);
#350=IFCDIRECTION((0.,0.,1.));
#351=IFCEXTRUDEDAREASOLID(#347,#349,#350,0.059999999999999998);
#352=IFCSHAPEREPRESENTATION(#11,'Body','SweptSolid',(#351));
#353=IFCPRODUCTDEFINITIONSHAPE($,$,(#352));
#354=IFCCARTESIANPOINT((-3.6000000000000001,-2.1000000000000001,0.45000000000000001));
#355=IFCDIRECTION((0.,0.,1.));
#356=IFCDIRECTION((1.,0.,0.));
#357=IFCAXIS2PLACEMENT3D(#354,#355,#356);
#358=IFCLOCALPLACEMENT($,#357);
#359=IFCBUILDINGELEMENTPROXY('29ppAIrwPAVgQ0ZQZaz98q',$,'ScrL_r-1.5_1',$,$,#378,#373,$,$);
#365=IFCCARTESIANPOINT((0.,0.));
#366=IFCAXIS2PLACEMENT2D(#365,$);
#367=IFCRECTANGLEPROFILEDEF(.AREA.,$,#366,0.44,0.040000000000000001);
#368=IFCCARTESIANPOINT((0.,0.,-0.16));
#369=IFCAXIS2PLACEMENT3D(#368,$,$);
#370=IFCDIRECTION((0.,0.,1.));
#371=IFCEXTRUDEDAREASOLID(#367,#369,#370,0.32000000000000001);
#372=IFCSHAPEREPRESENTATION(#11,'Body','SweptSolid',(#371));
#373=IFCPRODUCTDEFINITIONSHAPE($,$,(#372));
#374=IFCCARTESIANPOINT((-3.8000000000000003,-1.5,1.1499999999999999));
#375=IFCDIRECTION((0.,0.,1.));
#376=IFCDIRECTION((1.,0.,0.));
#377=IFCAXIS2PLACEMENT3D(#374,#375,#376);
#378=IFCLOCALPLACEMENT($,#377);
#379=IFCBUILDINGELEMENTPROXY('3UKY_K1v53jvyklZY2al7s',$,'ScrR_r-1.5_1',$,$,#398,#393,$,$);
#385=IFCCARTESIANPOINT((0.,0.));
#386=IFCAXIS2PLACEMENT2D(#385,$);
#387=IFCRECTANGLEPROFILEDEF(.AREA.,$,#386,0.44,0.040000000000000001);
#388=IFCCARTESIANPOINT((0.,0.,-0.16));
#389=IFCAXIS2PLACEMENT3D(#388,$,$);
#390=IFCDIRECTION((0.,0.,1.));
#391=IFCEXTRUDEDAREASOLID(#387,#389,#390,0.32000000000000001);
#392=IFCSHAPEREPRESENTATION(#11,'Body','SweptSolid',(#391));
#393=IFCPRODUCTDEFINITIONSHAPE($,$,(#392));
#394=IFCCARTESIANPOINT((-3.3999999999999999,-1.5,1.1499999999999999));
#395=IFCDIRECTION((0.,0.,1.));
#396=IFCDIRECTION((1.,0.,0.));
#397=IFCAXIS2PLACEMENT3D(#394,#395,#396);
#398=IFCLOCALPLACEMENT($,#397);
#399=IFCFURNITURE('0cWmhhFz1BwA8kc3lF$J9a',$,'Desk_r-1.5_2',$,$,#418,#413,$,$);
#405=IFCCARTESIANPOINT((0.,0.));
#406=IFCAXIS2PLACEMENT2D(#405,$);
#407=IFCRECTANGLEPROFILEDEF(.AREA.,$,#406,1.2,0.69999999999999996);
#408=IFCCARTESIANPOINT((0.,0.,-0.02));
#409=IFCAXIS2PLACEMENT3D(#408,$,$);
#410=IFCDIRECTION((0.,0.,1.));
#411=IFCEXTRUDEDAREASOLID(#407,#409,#410,0.040000000000000001);
#412=IFCSHAPEREPRESENTATION(#11,'Body','SweptSolid',(#411));
#413=IFCPRODUCTDEFINITIONSHAPE($,$,(#412));
#414=IFCCARTESIANPOINT((-2.2000000000000002,-1.5,0.75));
#415=IFCDIRECTION((0.,0.,1.));
#416=IFCDIRECTION((1.,0.,0.));
#417=IFCAXIS2PLACEMENT3D(#414,#415,#416);
#418=IFCLOCALPLACEMENT($,#417);
#419=IFCFURNITURE('0m0D0mmoDDzOM5$FFFoiNP',$,'Chair_r-1.5_2',$,$,#438,#433,$,$);
#425=IFCCARTESIANPOINT((0.,0.));
#426=IFCAXIS2PLACEMENT2D(#425,$);
#427=IFCRECTANGLEPROFILEDEF(.AREA.,$,#426,0.5,0.5);
#428=IFCCARTESIANPOINT((0.,0.,-0.029999999999999999));
#429=IFCAXIS2PLACEMENT3D(#428,$,$);
#430=IFCDIRECTION((0.,0.,1.));
#431=IFCEXTRUDEDAREASOLID(#427,#429,#430,0.059999999999999998);
#432=IFCSHAPEREPRESENTATION(#11,'Body','SweptSolid',(#431));
#433=IFCPRODUCTDEFINITIONSHAPE($,$,(#432));
#434=IFCCARTESIANPOINT((-2.2000000000000002,-2.1000000000000001,0.45000000000000001));
#435=IFCDIRECTION((0.,0.,1.));
#436=IFCDIRECTION((1.,0.,0.));
#437=IFCAXIS2PLACEMENT3D(#434,#435,#436);
#438=IFCLOCALPLACEMENT($,#437);
#439=IFCBUILDINGELEMENTPROXY('3S2ez2jFL5zx26aZo1$WKR',$,'ScrL_r-1.5_2',$,$,#458,#453,$,$);
#445=IFCCARTESIANPOINT((0.,0.));
#446=IFCAXIS2PLACEMENT2D(#445,$);
#447=IFCRECTANGLEPROFILEDEF(.AREA.,$,#446,0.44,0.040000000000000001);
#448=IFCCARTESIANPOINT((0.,0.,-0.16));
#449=IFCAXIS2PLACEMENT3D(#448,$,$);
#450=IFCDIRECTION((0.,0.,1.));
#451=IFCEXTRUDEDAREASOLID(#447,#449,#450,0.32000000000000001);
#452=IFCSHAPEREPRESENTATION(#11,'Body','SweptSolid',(#451));
#453=IFCPRODUCTDEFINITIONSHAPE($,$,(#452));
#454=IFCCARTESIANPOINT((-2.4000000000000004,-1.5,1.1499999999999999));
#455=IFCDIRECTION((0.,0.,1.));
#456=IFCDIRECTION((1.,0.,0.));
#457=IFCAXIS2PLACEMENT3D(#454,#455,#456);
#458=IFCLOCALPLACEMENT($,#457);
#459=IFCBUILDINGELEMENTPROXY('1De8ItKIb2cRSqpT644xEW',$,'ScrR_r-1.5_2',$,$,#478,#473,$,$);
#465=IFCCARTESIANPOINT((0.,0.));
#466=IFCAXIS2PLACEMENT2D(#465,$);
#467=IFCRECTANGLEPROFILEDEF(.AREA.,$,#466,0.44,0.040000000000000001);
#468=IFCCARTESIANPOINT((0.,0.,-0.16));
#469=IFCAXIS2PLACEMENT3D(#468,$,$);
#470=IFCDIRECTION((0.,0.,1.));
#471=IFCEXTRUDEDAREASOLID(#467,#469,#470,0.32000000000000001);
#472=IFCSHAPEREPRESENTATION(#11,'Body','SweptSolid',(#471));
#473=IFCPRODUCTDEFINITIONSHAPE($,$,(#472));
#474=IFCCARTESIANPOINT((-2.,-1.5,1.1499999999999999));
#475=IFCDIRECTION((0.,0.,1.));
#476=IFCDIRECTION((1.,0.,0.));
#477=IFCAXIS2PLACEMENT3D(#474,#475,#476);
#478=IFCLOCALPLACEMENT($,#477);
#479=IFCFURNITURE('0YSDgr2fH3OBKTEAukeIBA',$,'Desk_r-1.5_3',$,$,#498,#493,$,$);
#485=IFCCARTESIANPOINT((0.,0.));
#486=IFCAXIS2PLACEMENT2D(#485,$);
#487=IFCRECTANGLEPROFILEDEF(.AREA.,$,#486,1.2,0.69999999999999996);
#488=IFCCARTESIANPOINT((0.,0.,-0.02));
#489=IFCAXIS2PLACEMENT3D(#488,$,$);
#490=IFCDIRECTION((0.,0.,1.));
#491=IFCEXTRUDEDAREASOLID(#487,#489,#490,0.040000000000000001);
#492=IFCSHAPEREPRESENTATION(#11,'Body','SweptSolid',(#491));
#493=IFCPRODUCTDEFINITIONSHAPE($,$,(#492));
#494=IFCCARTESIANPOINT((-0.80000000000000071,-1.5,0.75));
#495=IFCDIRECTION((0.,0.,1.));
#496=IFCDIRECTION((1.,0.,0.));
#497=IFCAXIS2PLACEMENT3D(#494,#495,#496);
#498=IFCLOCALPLACEMENT($,#497);
#499=IFCFURNITURE('3em_NKolzBVBZbVJ5qXdX3',$,'Chair_r-1.5_3',$,$,#518,#513,$,$);
#505=IFCCARTESIANPOINT((0.,0.));
#506=IFCAXIS2PLACEMENT2D(#505,$);
#507=IFCRECTANGLEPROFILEDEF(.AREA.,$,#506,0.5,0.5);
#508=IFCCARTESIANPOINT((0.,0.,-0.029999999999999999));
#509=IFCAXIS2PLACEMENT3D(#508,$,$);
#510=IFCDIRECTION((0.,0.,1.));
#511=IFCEXTRUDEDAREASOLID(#507,#509,#510,0.059999999999999998);
#512=IFCSHAPEREPRESENTATION(#11,'Body','SweptSolid',(#511));
#513=IFCPRODUCTDEFINITIONSHAPE($,$,(#512));
#514=IFCCARTESIANPOINT((-0.80000000000000071,-2.1000000000000001,0.45000000000000001));
#515=IFCDIRECTION((0.,0.,1.));
#516=IFCDIRECTION((1.,0.,0.));
#517=IFCAXIS2PLACEMENT3D(#514,#515,#516);
#518=IFCLOCALPLACEMENT($,#517);
#519=IFCBUILDINGELEMENTPROXY('0m2LOXL_fFLxQUJmaiiuTC',$,'ScrL_r-1.5_3',$,$,#538,#533,$,$);
#525=IFCCARTESIANPOINT((0.,0.));
#526=IFCAXIS2PLACEMENT2D(#525,$);
#527=IFCRECTANGLEPROFILEDEF(.AREA.,$,#526,0.44,0.040000000000000001);
#528=IFCCARTESIANPOINT((0.,0.,-0.16));
#529=IFCAXIS2PLACEMENT3D(#528,$,$);
#530=IFCDIRECTION((0.,0.,1.));
#531=IFCEXTRUDEDAREASOLID(#527,#529,#530,0.32000000000000001);
#532=IFCSHAPEREPRESENTATION(#11,'Body','SweptSolid',(#531));
#533=IFCPRODUCTDEFINITIONSHAPE($,$,(#532));
#534=IFCCARTESIANPOINT((-1.0000000000000007,-1.5,1.1499999999999999));
#535=IFCDIRECTION((0.,0.,1.));
#536=IFCDIRECTION((1.,0.,0.));
#537=IFCAXIS2PLACEMENT3D(#534,#535,#536);
#538=IFCLOCALPLACEMENT($,#537);
#539=IFCBUILDINGELEMENTPROXY('10emUKkA91veMFKlbGEfXj',$,'ScrR_r-1.5_3',$,$,#558,#553,$,$);
#545=IFCCARTESIANPOINT((0.,0.));
#546=IFCAXIS2PLACEMENT2D(#545,$);
#547=IFCRECTANGLEPROFILEDEF(.AREA.,$,#546,0.44,0.040000000000000001);
#548=IFCCARTESIANPOINT((0.,0.,-0.16));
#549=IFCAXIS2PLACEMENT3D(#548,$,$);
#550=IFCDIRECTION((0.,0.,1.));
#551=IFCEXTRUDEDAREASOLID(#547,#549,#550,0.32000000000000001);
#552=IFCSHAPEREPRESENTATION(#11,'Body','SweptSolid',(#551));
#553=IFCPRODUCTDEFINITIONSHAPE($,$,(#552));
#554=IFCCARTESIANPOINT((-0.60000000000000075,-1.5,1.1499999999999999));
#555=IFCDIRECTION((0.,0.,1.));
#556=IFCDIRECTION((1.,0.,0.));
#557=IFCAXIS2PLACEMENT3D(#554,#555,#556);
#558=IFCLOCALPLACEMENT($,#557);
#559=IFCFURNITURE('1L89RX8_H0rAeaVL0g3pB0',$,'Desk_r-1.5_4',$,$,#578,#573,$,$);
#565=IFCCARTESIANPOINT((0.,0.));
#566=IFCAXIS2PLACEMENT2D(#565,$);
#567=IFCRECTANGLEPROFILEDEF(.AREA.,$,#566,1.2,0.69999999999999996);
#568=IFCCARTESIANPOINT((0.,0.,-0.02));
#569=IFCAXIS2PLACEMENT3D(#568,$,$);
#570=IFCDIRECTION((0.,0.,1.));
#571=IFCEXTRUDEDAREASOLID(#567,#569,#570,0.040000000000000001);
#572=IFCSHAPEREPRESENTATION(#11,'Body','SweptSolid',(#571));
#573=IFCPRODUCTDEFINITIONSHAPE($,$,(#572));
#574=IFCCARTESIANPOINT((0.59999999999999964,-1.5,0.75));
#575=IFCDIRECTION((0.,0.,1.));
#576=IFCDIRECTION((1.,0.,0.));
#577=IFCAXIS2PLACEMENT3D(#574,#575,#576);
#578=IFCLOCALPLACEMENT($,#577);
#579=IFCFURNITURE('2vW_TMBwrFyB9FDPxCd3x3',$,'Chair_r-1.5_4',$,$,#598,#593,$,$);
#585=IFCCARTESIANPOINT((0.,0.));
#586=IFCAXIS2PLACEMENT2D(#585,$);
#587=IFCRECTANGLEPROFILEDEF(.AREA.,$,#586,0.5,0.5);
#588=IFCCARTESIANPOINT((0.,0.,-0.029999999999999999));
#589=IFCAXIS2PLACEMENT3D(#588,$,$);
#590=IFCDIRECTION((0.,0.,1.));
#591=IFCEXTRUDEDAREASOLID(#587,#589,#590,0.059999999999999998);
#592=IFCSHAPEREPRESENTATION(#11,'Body','SweptSolid',(#591));
#593=IFCPRODUCTDEFINITIONSHAPE($,$,(#592));
#594=IFCCARTESIANPOINT((0.59999999999999964,-2.1000000000000001,0.45000000000000001));
#595=IFCDIRECTION((0.,0.,1.));
#596=IFCDIRECTION((1.,0.,0.));
#597=IFCAXIS2PLACEMENT3D(#594,#595,#596);
#598=IFCLOCALPLACEMENT($,#597);
#599=IFCBUILDINGELEMENTPROXY('3qg7KT2H16QAEMZRBANQdq',$,'ScrL_r-1.5_4',$,$,#618,#613,$,$);
#605=IFCCARTESIANPOINT((0.,0.));
#606=IFCAXIS2PLACEMENT2D(#605,$);
#607=IFCRECTANGLEPROFILEDEF(.AREA.,$,#606,0.44,0.040000000000000001);
#608=IFCCARTESIANPOINT((0.,0.,-0.16));
#609=IFCAXIS2PLACEMENT3D(#608,$,$);
#610=IFCDIRECTION((0.,0.,1.));
#611=IFCEXTRUDEDAREASOLID(#607,#609,#610,0.32000000000000001);
#612=IFCSHAPEREPRESENTATION(#11,'Body','SweptSolid',(#611));
#613=IFCPRODUCTDEFINITIONSHAPE($,$,(#612));
#614=IFCCARTESIANPOINT((0.39999999999999963,-1.5,1.1499999999999999));
#615=IFCDIRECTION((0.,0.,1.));
#616=IFCDIRECTION((1.,0.,0.));
#617=IFCAXIS2PLACEMENT3D(#614,#615,#616);
#618=IFCLOCALPLACEMENT($,#617);
#619=IFCBUILDINGELEMENTPROXY('3Xt$tBhGP9H8dERa4_5YeV',$,'ScrR_r-1.5_4',$,$,#638,#633,$,$);
#625=IFCCARTESIANPOINT((0.,0.));
#626=IFCAXIS2PLACEMENT2D(#625,$);
#627=IFCRECTANGLEPROFILEDEF(.AREA.,$,#626,0.44,0.040000000000000001);
#628=IFCCARTESIANPOINT((0.,0.,-0.16));
#629=IFCAXIS2PLACEMENT3D(#628,$,$);
#630=IFCDIRECTION((0.,0.,1.));
#631=IFCEXTRUDEDAREASOLID(#627,#629,#630,0.32000000000000001);
#632=IFCSHAPEREPRESENTATION(#11,'Body','SweptSolid',(#631));
#633=IFCPRODUCTDEFINITIONSHAPE($,$,(#632));
#634=IFCCARTESIANPOINT((0.7999999999999996,-1.5,1.1499999999999999));
#635=IFCDIRECTION((0.,0.,1.));
#636=IFCDIRECTION((1.,0.,0.));
#637=IFCAXIS2PLACEMENT3D(#634,#635,#636);
#638=IFCLOCALPLACEMENT($,#637);
#639=IFCFURNITURE('134$6JYZHBr9sqjRaBJTuB',$,'Desk_r1.8_0',$,$,#658,#653,$,$);
#645=IFCCARTESIANPOINT((0.,0.));
#646=IFCAXIS2PLACEMENT2D(#645,$);
#647=IFCRECTANGLEPROFILEDEF(.AREA.,$,#646,1.2,0.69999999999999996);
#648=IFCCARTESIANPOINT((0.,0.,-0.02));
#649=IFCAXIS2PLACEMENT3D(#648,$,$);
#650=IFCDIRECTION((0.,0.,1.));
#651=IFCEXTRUDEDAREASOLID(#647,#649,#650,0.040000000000000001);
#652=IFCSHAPEREPRESENTATION(#11,'Body','SweptSolid',(#651));
#653=IFCPRODUCTDEFINITIONSHAPE($,$,(#652));
#654=IFCCARTESIANPOINT((-5.,1.8,0.75));
#655=IFCDIRECTION((0.,0.,1.));
#656=IFCDIRECTION((1.,0.,0.));
#657=IFCAXIS2PLACEMENT3D(#654,#655,#656);
#658=IFCLOCALPLACEMENT($,#657);
#659=IFCFURNITURE('0g0AmI_NfFWfpxssMVuntz',$,'Chair_r1.8_0',$,$,#678,#673,$,$);
#665=IFCCARTESIANPOINT((0.,0.));
#666=IFCAXIS2PLACEMENT2D(#665,$);
#667=IFCRECTANGLEPROFILEDEF(.AREA.,$,#666,0.5,0.5);
#668=IFCCARTESIANPOINT((0.,0.,-0.029999999999999999));
#669=IFCAXIS2PLACEMENT3D(#668,$,$);
#670=IFCDIRECTION((0.,0.,1.));
#671=IFCEXTRUDEDAREASOLID(#667,#669,#670,0.059999999999999998);
#672=IFCSHAPEREPRESENTATION(#11,'Body','SweptSolid',(#671));
#673=IFCPRODUCTDEFINITIONSHAPE($,$,(#672));
#674=IFCCARTESIANPOINT((-5.,2.3999999999999999,0.45000000000000001));
#675=IFCDIRECTION((0.,0.,1.));
#676=IFCDIRECTION((1.,0.,0.));
#677=IFCAXIS2PLACEMENT3D(#674,#675,#676);
#678=IFCLOCALPLACEMENT($,#677);
#679=IFCBUILDINGELEMENTPROXY('1ZKh9ikfbFJRZuGLp4QMi3',$,'ScrL_r1.8_0',$,$,#698,#693,$,$);
#685=IFCCARTESIANPOINT((0.,0.));
#686=IFCAXIS2PLACEMENT2D(#685,$);
#687=IFCRECTANGLEPROFILEDEF(.AREA.,$,#686,0.44,0.040000000000000001);
#688=IFCCARTESIANPOINT((0.,0.,-0.16));
#689=IFCAXIS2PLACEMENT3D(#688,$,$);
#690=IFCDIRECTION((0.,0.,1.));
#691=IFCEXTRUDEDAREASOLID(#687,#689,#690,0.32000000000000001);
#692=IFCSHAPEREPRESENTATION(#11,'Body','SweptSolid',(#691));
#693=IFCPRODUCTDEFINITIONSHAPE($,$,(#692));
#694=IFCCARTESIANPOINT((-5.2000000000000002,1.8,1.1499999999999999));
#695=IFCDIRECTION((0.,0.,1.));
#696=IFCDIRECTION((1.,0.,0.));
#697=IFCAXIS2PLACEMENT3D(#694,#695,#696);
#698=IFCLOCALPLACEMENT($,#697);
#699=IFCBUILDINGELEMENTPROXY('0gtmGctrr9$unSdWS4A2xn',$,'ScrR_r1.8_0',$,$,#718,#713,$,$);
#705=IFCCARTESIANPOINT((0.,0.));
#706=IFCAXIS2PLACEMENT2D(#705,$);
#707=IFCRECTANGLEPROFILEDEF(.AREA.,$,#706,0.44,0.040000000000000001);
#708=IFCCARTESIANPOINT((0.,0.,-0.16));
#709=IFCAXIS2PLACEMENT3D(#708,$,$);
#710=IFCDIRECTION((0.,0.,1.));
#711=IFCEXTRUDEDAREASOLID(#707,#709,#710,0.32000000000000001);
#712=IFCSHAPEREPRESENTATION(#11,'Body','SweptSolid',(#711));
#713=IFCPRODUCTDEFINITIONSHAPE($,$,(#712));
#714=IFCCARTESIANPOINT((-4.7999999999999998,1.8,1.1499999999999999));
#715=IFCDIRECTION((0.,0.,1.));
#716=IFCDIRECTION((1.,0.,0.));
#717=IFCAXIS2PLACEMENT3D(#714,#715,#716);
#718=IFCLOCALPLACEMENT($,#717);
#719=IFCFURNITURE('3yXja_ojn5ufjMYs3E4AcO',$,'Desk_r1.8_1',$,$,#738,#733,$,$);
#725=IFCCARTESIANPOINT((0.,0.));
#726=IFCAXIS2PLACEMENT2D(#725,$);
#727=IFCRECTANGLEPROFILEDEF(.AREA.,$,#726,1.2,0.69999999999999996);
#728=IFCCARTESIANPOINT((0.,0.,-0.02));
#729=IFCAXIS2PLACEMENT3D(#728,$,$);
#730=IFCDIRECTION((0.,0.,1.));
#731=IFCEXTRUDEDAREASOLID(#727,#729,#730,0.040000000000000001);
#732=IFCSHAPEREPRESENTATION(#11,'Body','SweptSolid',(#731));
#733=IFCPRODUCTDEFINITIONSHAPE($,$,(#732));
#734=IFCCARTESIANPOINT((-3.6000000000000001,1.8,0.75));
#735=IFCDIRECTION((0.,0.,1.));
#736=IFCDIRECTION((1.,0.,0.));
#737=IFCAXIS2PLACEMENT3D(#734,#735,#736);
#738=IFCLOCALPLACEMENT($,#737);
#739=IFCFURNITURE('2QqktAnBD2gOE_4$j4wE2h',$,'Chair_r1.8_1',$,$,#758,#753,$,$);
#745=IFCCARTESIANPOINT((0.,0.));
#746=IFCAXIS2PLACEMENT2D(#745,$);
#747=IFCRECTANGLEPROFILEDEF(.AREA.,$,#746,0.5,0.5);
#748=IFCCARTESIANPOINT((0.,0.,-0.029999999999999999));
#749=IFCAXIS2PLACEMENT3D(#748,$,$);
#750=IFCDIRECTION((0.,0.,1.));
#751=IFCEXTRUDEDAREASOLID(#747,#749,#750,0.059999999999999998);
#752=IFCSHAPEREPRESENTATION(#11,'Body','SweptSolid',(#751));
#753=IFCPRODUCTDEFINITIONSHAPE($,$,(#752));
#754=IFCCARTESIANPOINT((-3.6000000000000001,2.3999999999999999,0.45000000000000001));
#755=IFCDIRECTION((0.,0.,1.));
#756=IFCDIRECTION((1.,0.,0.));
#757=IFCAXIS2PLACEMENT3D(#754,#755,#756);
#758=IFCLOCALPLACEMENT($,#757);
#759=IFCBUILDINGELEMENTPROXY('1jXsuYHcv87B9k0Jnm5xUa',$,'ScrL_r1.8_1',$,$,#778,#773,$,$);
#765=IFCCARTESIANPOINT((0.,0.));
#766=IFCAXIS2PLACEMENT2D(#765,$);
#767=IFCRECTANGLEPROFILEDEF(.AREA.,$,#766,0.44,0.040000000000000001);
#768=IFCCARTESIANPOINT((0.,0.,-0.16));
#769=IFCAXIS2PLACEMENT3D(#768,$,$);
#770=IFCDIRECTION((0.,0.,1.));
#771=IFCEXTRUDEDAREASOLID(#767,#769,#770,0.32000000000000001);
#772=IFCSHAPEREPRESENTATION(#11,'Body','SweptSolid',(#771));
#773=IFCPRODUCTDEFINITIONSHAPE($,$,(#772));
#774=IFCCARTESIANPOINT((-3.8000000000000003,1.8,1.1499999999999999));
#775=IFCDIRECTION((0.,0.,1.));
#776=IFCDIRECTION((1.,0.,0.));
#777=IFCAXIS2PLACEMENT3D(#774,#775,#776);
#778=IFCLOCALPLACEMENT($,#777);
#779=IFCBUILDINGELEMENTPROXY('3FLcOS4Zv3UAQ$EB2XKNKw',$,'ScrR_r1.8_1',$,$,#798,#793,$,$);
#785=IFCCARTESIANPOINT((0.,0.));
#786=IFCAXIS2PLACEMENT2D(#785,$);
#787=IFCRECTANGLEPROFILEDEF(.AREA.,$,#786,0.44,0.040000000000000001);
#788=IFCCARTESIANPOINT((0.,0.,-0.16));
#789=IFCAXIS2PLACEMENT3D(#788,$,$);
#790=IFCDIRECTION((0.,0.,1.));
#791=IFCEXTRUDEDAREASOLID(#787,#789,#790,0.32000000000000001);
#792=IFCSHAPEREPRESENTATION(#11,'Body','SweptSolid',(#791));
#793=IFCPRODUCTDEFINITIONSHAPE($,$,(#792));
#794=IFCCARTESIANPOINT((-3.3999999999999999,1.8,1.1499999999999999));
#795=IFCDIRECTION((0.,0.,1.));
#796=IFCDIRECTION((1.,0.,0.));
#797=IFCAXIS2PLACEMENT3D(#794,#795,#796);
#798=IFCLOCALPLACEMENT($,#797);
#799=IFCFURNITURE('0YMYTBvAH0hvxL0vhL2CWy',$,'Desk_r1.8_2',$,$,#818,#813,$,$);
#805=IFCCARTESIANPOINT((0.,0.));
#806=IFCAXIS2PLACEMENT2D(#805,$);
#807=IFCRECTANGLEPROFILEDEF(.AREA.,$,#806,1.2,0.69999999999999996);
#808=IFCCARTESIANPOINT((0.,0.,-0.02));
#809=IFCAXIS2PLACEMENT3D(#808,$,$);
#810=IFCDIRECTION((0.,0.,1.));
#811=IFCEXTRUDEDAREASOLID(#807,#809,#810,0.040000000000000001);
#812=IFCSHAPEREPRESENTATION(#11,'Body','SweptSolid',(#811));
#813=IFCPRODUCTDEFINITIONSHAPE($,$,(#812));
#814=IFCCARTESIANPOINT((-2.2000000000000002,1.8,0.75));
#815=IFCDIRECTION((0.,0.,1.));
#816=IFCDIRECTION((1.,0.,0.));
#817=IFCAXIS2PLACEMENT3D(#814,#815,#816);
#818=IFCLOCALPLACEMENT($,#817);
#819=IFCFURNITURE('2gCcebdoHDhh5_A1P1wfG_',$,'Chair_r1.8_2',$,$,#838,#833,$,$);
#825=IFCCARTESIANPOINT((0.,0.));
#826=IFCAXIS2PLACEMENT2D(#825,$);
#827=IFCRECTANGLEPROFILEDEF(.AREA.,$,#826,0.5,0.5);
#828=IFCCARTESIANPOINT((0.,0.,-0.029999999999999999));
#829=IFCAXIS2PLACEMENT3D(#828,$,$);
#830=IFCDIRECTION((0.,0.,1.));
#831=IFCEXTRUDEDAREASOLID(#827,#829,#830,0.059999999999999998);
#832=IFCSHAPEREPRESENTATION(#11,'Body','SweptSolid',(#831));
#833=IFCPRODUCTDEFINITIONSHAPE($,$,(#832));
#834=IFCCARTESIANPOINT((-2.2000000000000002,2.3999999999999999,0.45000000000000001));
#835=IFCDIRECTION((0.,0.,1.));
#836=IFCDIRECTION((1.,0.,0.));
#837=IFCAXIS2PLACEMENT3D(#834,#835,#836);
#838=IFCLOCALPLACEMENT($,#837);
#839=IFCBUILDINGELEMENTPROXY('0aKp835GH9ivU1jH9iGXUB',$,'ScrL_r1.8_2',$,$,#858,#853,$,$);
#845=IFCCARTESIANPOINT((0.,0.));
#846=IFCAXIS2PLACEMENT2D(#845,$);
#847=IFCRECTANGLEPROFILEDEF(.AREA.,$,#846,0.44,0.040000000000000001);
#848=IFCCARTESIANPOINT((0.,0.,-0.16));
#849=IFCAXIS2PLACEMENT3D(#848,$,$);
#850=IFCDIRECTION((0.,0.,1.));
#851=IFCEXTRUDEDAREASOLID(#847,#849,#850,0.32000000000000001);
#852=IFCSHAPEREPRESENTATION(#11,'Body','SweptSolid',(#851));
#853=IFCPRODUCTDEFINITIONSHAPE($,$,(#852));
#854=IFCCARTESIANPOINT((-2.4000000000000004,1.8,1.1499999999999999));
#855=IFCDIRECTION((0.,0.,1.));
#856=IFCDIRECTION((1.,0.,0.));
#857=IFCAXIS2PLACEMENT3D(#854,#855,#856);
#858=IFCLOCALPLACEMENT($,#857);
#859=IFCBUILDINGELEMENTPROXY('3B$JtEM2bDivYhTnC2rhTs',$,'ScrR_r1.8_2',$,$,#878,#873,$,$);
#865=IFCCARTESIANPOINT((0.,0.));
#866=IFCAXIS2PLACEMENT2D(#865,$);
#867=IFCRECTANGLEPROFILEDEF(.AREA.,$,#866,0.44,0.040000000000000001);
#868=IFCCARTESIANPOINT((0.,0.,-0.16));
#869=IFCAXIS2PLACEMENT3D(#868,$,$);
#870=IFCDIRECTION((0.,0.,1.));
#871=IFCEXTRUDEDAREASOLID(#867,#869,#870,0.32000000000000001);
#872=IFCSHAPEREPRESENTATION(#11,'Body','SweptSolid',(#871));
#873=IFCPRODUCTDEFINITIONSHAPE($,$,(#872));
#874=IFCCARTESIANPOINT((-2.,1.8,1.1499999999999999));
#875=IFCDIRECTION((0.,0.,1.));
#876=IFCDIRECTION((1.,0.,0.));
#877=IFCAXIS2PLACEMENT3D(#874,#875,#876);
#878=IFCLOCALPLACEMENT($,#877);
#879=IFCFURNITURE('18i3GiPP98NQONGyT_gb$3',$,'Desk_r1.8_3',$,$,#898,#893,$,$);
#885=IFCCARTESIANPOINT((0.,0.));
#886=IFCAXIS2PLACEMENT2D(#885,$);
#887=IFCRECTANGLEPROFILEDEF(.AREA.,$,#886,1.2,0.69999999999999996);
#888=IFCCARTESIANPOINT((0.,0.,-0.02));
#889=IFCAXIS2PLACEMENT3D(#888,$,$);
#890=IFCDIRECTION((0.,0.,1.));
#891=IFCEXTRUDEDAREASOLID(#887,#889,#890,0.040000000000000001);
#892=IFCSHAPEREPRESENTATION(#11,'Body','SweptSolid',(#891));
#893=IFCPRODUCTDEFINITIONSHAPE($,$,(#892));
#894=IFCCARTESIANPOINT((-0.80000000000000071,1.8,0.75));
#895=IFCDIRECTION((0.,0.,1.));
#896=IFCDIRECTION((1.,0.,0.));
#897=IFCAXIS2PLACEMENT3D(#894,#895,#896);
#898=IFCLOCALPLACEMENT($,#897);
#899=IFCFURNITURE('1jO_AfDrD3EBm4kegDkq$B',$,'Chair_r1.8_3',$,$,#918,#913,$,$);
#905=IFCCARTESIANPOINT((0.,0.));
#906=IFCAXIS2PLACEMENT2D(#905,$);
#907=IFCRECTANGLEPROFILEDEF(.AREA.,$,#906,0.5,0.5);
#908=IFCCARTESIANPOINT((0.,0.,-0.029999999999999999));
#909=IFCAXIS2PLACEMENT3D(#908,$,$);
#910=IFCDIRECTION((0.,0.,1.));
#911=IFCEXTRUDEDAREASOLID(#907,#909,#910,0.059999999999999998);
#912=IFCSHAPEREPRESENTATION(#11,'Body','SweptSolid',(#911));
#913=IFCPRODUCTDEFINITIONSHAPE($,$,(#912));
#914=IFCCARTESIANPOINT((-0.80000000000000071,2.3999999999999999,0.45000000000000001));
#915=IFCDIRECTION((0.,0.,1.));
#916=IFCDIRECTION((1.,0.,0.));
#917=IFCAXIS2PLACEMENT3D(#914,#915,#916);
#918=IFCLOCALPLACEMENT($,#917);
#919=IFCBUILDINGELEMENTPROXY('0FIhlNENLDC9hCFgMdgQ1z',$,'ScrL_r1.8_3',$,$,#938,#933,$,$);
#925=IFCCARTESIANPOINT((0.,0.));
#926=IFCAXIS2PLACEMENT2D(#925,$);
#927=IFCRECTANGLEPROFILEDEF(.AREA.,$,#926,0.44,0.040000000000000001);
#928=IFCCARTESIANPOINT((0.,0.,-0.16));
#929=IFCAXIS2PLACEMENT3D(#928,$,$);
#930=IFCDIRECTION((0.,0.,1.));
#931=IFCEXTRUDEDAREASOLID(#927,#929,#930,0.32000000000000001);
#932=IFCSHAPEREPRESENTATION(#11,'Body','SweptSolid',(#931));
#933=IFCPRODUCTDEFINITIONSHAPE($,$,(#932));
#934=IFCCARTESIANPOINT((-1.0000000000000007,1.8,1.1499999999999999));
#935=IFCDIRECTION((0.,0.,1.));
#936=IFCDIRECTION((1.,0.,0.));
#937=IFCAXIS2PLACEMENT3D(#934,#935,#936);
#938=IFCLOCALPLACEMENT($,#937);
#939=IFCBUILDINGELEMENTPROXY('2GFpRHAKj4u9D5Gkpl3exf',$,'ScrR_r1.8_3',$,$,#958,#953,$,$);
#945=IFCCARTESIANPOINT((0.,0.));
#946=IFCAXIS2PLACEMENT2D(#945,$);
#947=IFCRECTANGLEPROFILEDEF(.AREA.,$,#946,0.44,0.040000000000000001);
#948=IFCCARTESIANPOINT((0.,0.,-0.16));
#949=IFCAXIS2PLACEMENT3D(#948,$,$);
#950=IFCDIRECTION((0.,0.,1.));
#951=IFCEXTRUDEDAREASOLID(#947,#949,#950,0.32000000000000001);
#952=IFCSHAPEREPRESENTATION(#11,'Body','SweptSolid',(#951));
#953=IFCPRODUCTDEFINITIONSHAPE($,$,(#952));
#954=IFCCARTESIANPOINT((-0.60000000000000075,1.8,1.1499999999999999));
#955=IFCDIRECTION((0.,0.,1.));
#956=IFCDIRECTION((1.,0.,0.));
#957=IFCAXIS2PLACEMENT3D(#954,#955,#956);
#958=IFCLOCALPLACEMENT($,#957);
#959=IFCFURNITURE('3D_emrUp13HhAH7CC1kRb2',$,'Desk_r1.8_4',$,$,#978,#973,$,$);
#965=IFCCARTESIANPOINT((0.,0.));
#966=IFCAXIS2PLACEMENT2D(#965,$);
#967=IFCRECTANGLEPROFILEDEF(.AREA.,$,#966,1.2,0.69999999999999996);
#968=IFCCARTESIANPOINT((0.,0.,-0.02));
#969=IFCAXIS2PLACEMENT3D(#968,$,$);
#970=IFCDIRECTION((0.,0.,1.));
#971=IFCEXTRUDEDAREASOLID(#967,#969,#970,0.040000000000000001);
#972=IFCSHAPEREPRESENTATION(#11,'Body','SweptSolid',(#971));
#973=IFCPRODUCTDEFINITIONSHAPE($,$,(#972));
#974=IFCCARTESIANPOINT((0.59999999999999964,1.8,0.75));
#975=IFCDIRECTION((0.,0.,1.));
#976=IFCDIRECTION((1.,0.,0.));
#977=IFCAXIS2PLACEMENT3D(#974,#975,#976);
#978=IFCLOCALPLACEMENT($,#977);
#979=IFCFURNITURE('0wkNSUcaD4gQrADXqtCSwJ',$,'Chair_r1.8_4',$,$,#998,#993,$,$);
#985=IFCCARTESIANPOINT((0.,0.));
#986=IFCAXIS2PLACEMENT2D(#985,$);
#987=IFCRECTANGLEPROFILEDEF(.AREA.,$,#986,0.5,0.5);
#988=IFCCARTESIANPOINT((0.,0.,-0.029999999999999999));
#989=IFCAXIS2PLACEMENT3D(#988,$,$);
#990=IFCDIRECTION((0.,0.,1.));
#991=IFCEXTRUDEDAREASOLID(#987,#989,#990,0.059999999999999998);
#992=IFCSHAPEREPRESENTATION(#11,'Body','SweptSolid',(#991));
#993=IFCPRODUCTDEFINITIONSHAPE($,$,(#992));
#994=IFCCARTESIANPOINT((0.59999999999999964,2.3999999999999999,0.45000000000000001));
#995=IFCDIRECTION((0.,0.,1.));
#996=IFCDIRECTION((1.,0.,0.));
#997=IFCAXIS2PLACEMENT3D(#994,#995,#996);
#998=IFCLOCALPLACEMENT($,#997);
#999=IFCBUILDINGELEMENTPROXY('1Y4bf1y_X5UeyP9axl8iHl',$,'ScrL_r1.8_4',$,$,#1018,#1013,$,$);
#1005=IFCCARTESIANPOINT((0.,0.));
#1006=IFCAXIS2PLACEMENT2D(#1005,$);
#1007=IFCRECTANGLEPROFILEDEF(.AREA.,$,#1006,0.44,0.040000000000000001);
#1008=IFCCARTESIANPOINT((0.,0.,-0.16));
#1009=IFCAXIS2PLACEMENT3D(#1008,$,$);
#1010=IFCDIRECTION((0.,0.,1.));
#1011=IFCEXTRUDEDAREASOLID(#1007,#1009,#1010,0.32000000000000001);
#1012=IFCSHAPEREPRESENTATION(#11,'Body','SweptSolid',(#1011));
#1013=IFCPRODUCTDEFINITIONSHAPE($,$,(#1012));
#1014=IFCCARTESIANPOINT((0.39999999999999963,1.8,1.1499999999999999));
#1015=IFCDIRECTION((0.,0.,1.));
#1016=IFCDIRECTION((1.,0.,0.));
#1017=IFCAXIS2PLACEMENT3D(#1014,#1015,#1016);
#1018=IFCLOCALPLACEMENT($,#1017);
#1019=IFCBUILDINGELEMENTPROXY('3Jw8aqKM50PR3OkOFT2XFM',$,'ScrR_r1.8_4',$,$,#1038,#1033,$,$);
#1025=IFCCARTESIANPOINT((0.,0.));
#1026=IFCAXIS2PLACEMENT2D(#1025,$);
#1027=IFCRECTANGLEPROFILEDEF(.AREA.,$,#1026,0.44,0.040000000000000001);
#1028=IFCCARTESIANPOINT((0.,0.,-0.16));
#1029=IFCAXIS2PLACEMENT3D(#1028,$,$);
#1030=IFCDIRECTION((0.,0.,1.));
#1031=IFCEXTRUDEDAREASOLID(#1027,#1029,#1030,0.32000000000000001);
#1032=IFCSHAPEREPRESENTATION(#11,'Body','SweptSolid',(#1031));
#1033=IFCPRODUCTDEFINITIONSHAPE($,$,(#1032));
#1034=IFCCARTESIANPOINT((0.7999999999999996,1.8,1.1499999999999999));
#1035=IFCDIRECTION((0.,0.,1.));
#1036=IFCDIRECTION((1.,0.,0.));
#1037=IFCAXIS2PLACEMENT3D(#1034,#1035,#1036);
#1038=IFCLOCALPLACEMENT($,#1037);
#1039=IFCFURNITURE('2WaROy47nEMPfqv6NeqFWI',$,'DeskDivider',$,$,#1058,#1053,$,$);
#1045=IFCCARTESIANPOINT((0.,0.));
#1046=IFCAXIS2PLACEMENT2D(#1045,$);
#1047=IFCRECTANGLEPROFILEDEF(.AREA.,$,#1046,8.5999999999999996,0.040000000000000001);
#1048=IFCCARTESIANPOINT((0.,0.,-0.34999999999999998));
#1049=IFCAXIS2PLACEMENT3D(#1048,$,$);
#1050=IFCDIRECTION((0.,0.,1.));
#1051=IFCEXTRUDEDAREASOLID(#1047,#1049,#1050,0.69999999999999996);
#1052=IFCSHAPEREPRESENTATION(#11,'Body','SweptSolid',(#1051));
#1053=IFCPRODUCTDEFINITIONSHAPE($,$,(#1052));
#1054=IFCCARTESIANPOINT((-2.,0.14999999999999999,1.1000000000000001));
#1055=IFCDIRECTION((0.,0.,1.));
#1056=IFCDIRECTION((1.,0.,0.));
#1057=IFCAXIS2PLACEMENT3D(#1054,#1055,#1056);
#1058=IFCLOCALPLACEMENT($,#1057);
#1059=IFCBUILDINGELEMENTPROXY('2_TCqKiNn3y9m8FovlX4Jz',$,'GPU_GlassW',$,$,#1078,#1073,$,$);
#1065=IFCCARTESIANPOINT((0.,0.));
#1066=IFCAXIS2PLACEMENT2D(#1065,$);
#1067=IFCRECTANGLEPROFILEDEF(.AREA.,$,#1066,0.059999999999999998,3.);
#1068=IFCCARTESIANPOINT((0.,0.,-1.5));
#1069=IFCAXIS2PLACEMENT3D(#1068,$,$);
#1070=IFCDIRECTION((0.,0.,1.));
#1071=IFCEXTRUDEDAREASOLID(#1067,#1069,#1070,3.);
#1072=IFCSHAPEREPRESENTATION(#11,'Body','SweptSolid',(#1071));
#1073=IFCPRODUCTDEFINITIONSHAPE($,$,(#1072));
#1074=IFCCARTESIANPOINT((3.,3.5,1.5));
#1075=IFCDIRECTION((0.,0.,1.));
#1076=IFCDIRECTION((1.,0.,0.));
#1077=IFCAXIS2PLACEMENT3D(#1074,#1075,#1076);
#1078=IFCLOCALPLACEMENT($,#1077);
#1079=IFCBUILDINGELEMENTPROXY('1aIx_KU0D86uUIrQTpPtn6',$,'GPU_GlassS',$,$,#1098,#1093,$,$);
#1085=IFCCARTESIANPOINT((0.,0.));
#1086=IFCAXIS2PLACEMENT2D(#1085,$);
#1087=IFCRECTANGLEPROFILEDEF(.AREA.,$,#1086,3.5,0.059999999999999998);
#1088=IFCCARTESIANPOINT((0.,0.,-1.5));
#1089=IFCAXIS2PLACEMENT3D(#1088,$,$);
#1090=IFCDIRECTION((0.,0.,1.));
#1091=IFCEXTRUDEDAREASOLID(#1087,#1089,#1090,3.);
#1092=IFCSHAPEREPRESENTATION(#11,'Body','SweptSolid',(#1091));
#1093=IFCPRODUCTDEFINITIONSHAPE($,$,(#1092));
#1094=IFCCARTESIANPOINT((4.75,2.,1.5));
#1095=IFCDIRECTION((0.,0.,1.));
#1096=IFCDIRECTION((1.,0.,0.));
#1097=IFCAXIS2PLACEMENT3D(#1094,#1095,#1096);
#1098=IFCLOCALPLACEMENT($,#1097);
#1099=IFCDOOR('3d93L3T_P2UunCP$_MB0mK',$,'GPU_Door',$,$,#1118,#1113,$,$,$,$,$,$);
#1105=IFCCARTESIANPOINT((0.,0.));
#1106=IFCAXIS2PLACEMENT2D(#1105,$);
#1107=IFCRECTANGLEPROFILEDEF(.AREA.,$,#1106,0.040000000000000001,0.69999999999999996);
#1108=IFCCARTESIANPOINT((0.,0.,-1.05));
#1109=IFCAXIS2PLACEMENT3D(#1108,$,$);
#1110=IFCDIRECTION((0.,0.,1.));
#1111=IFCEXTRUDEDAREASOLID(#1107,#1109,#1110,2.1000000000000001);
#1112=IFCSHAPEREPRESENTATION(#11,'Body','SweptSolid',(#1111));
#1113=IFCPRODUCTDEFINITIONSHAPE($,$,(#1112));
#1114=IFCCARTESIANPOINT((3.0299999999999998,2.,1.05));
#1115=IFCDIRECTION((0.,0.,1.));
#1116=IFCDIRECTION((1.,0.,0.));
#1117=IFCAXIS2PLACEMENT3D(#1114,#1115,#1116);
#1118=IFCLOCALPLACEMENT($,#1117);
#1119=IFCBUILDINGELEMENTPROXY('14wBCRSkb11BYSz4UTw$gq',$,'Rack1',$,$,#1138,#1133,$,$);
#1125=IFCCARTESIANPOINT((0.,0.));
#1126=IFCAXIS2PLACEMENT2D(#1125,$);
#1127=IFCRECTANGLEPROFILEDEF(.AREA.,$,#1126,0.59999999999999998,1.);
#1128=IFCCARTESIANPOINT((0.,0.,-1.));
#1129=IFCAXIS2PLACEMENT3D(#1128,$,$);
#1130=IFCDIRECTION((0.,0.,1.));
#1131=IFCEXTRUDEDAREASOLID(#1127,#1129,#1130,2.);
#1132=IFCSHAPEREPRESENTATION(#11,'Body','SweptSolid',(#1131));
#1133=IFCPRODUCTDEFINITIONSHAPE($,$,(#1132));
#1134=IFCCARTESIANPOINT((3.7999999999999998,3.7999999999999998,1.));
#1135=IFCDIRECTION((0.,0.,1.));
#1136=IFCDIRECTION((1.,0.,0.));
#1137=IFCAXIS2PLACEMENT3D(#1134,#1135,#1136);
#1138=IFCLOCALPLACEMENT($,#1137);
#1139=IFCBUILDINGELEMENTPROXY('2HxXENBebEUBplGRf_SgGs',$,'Rack2',$,$,#1158,#1153,$,$);
#1145=IFCCARTESIANPOINT((0.,0.));
#1146=IFCAXIS2PLACEMENT2D(#1145,$);
#1147=IFCRECTANGLEPROFILEDEF(.AREA.,$,#1146,0.59999999999999998,1.);
#1148=IFCCARTESIANPOINT((0.,0.,-1.));
#1149=IFCAXIS2PLACEMENT3D(#1148,$,$);
#1150=IFCDIRECTION((0.,0.,1.));
#1151=IFCEXTRUDEDAREASOLID(#1147,#1149,#1150,2.);
#1152=IFCSHAPEREPRESENTATION(#11,'Body','SweptSolid',(#1151));
#1153=IFCPRODUCTDEFINITIONSHAPE($,$,(#1152));
#1154=IFCCARTESIANPOINT((4.7999999999999998,3.7999999999999998,1.));
#1155=IFCDIRECTION((0.,0.,1.));
#1156=IFCDIRECTION((1.,0.,0.));
#1157=IFCAXIS2PLACEMENT3D(#1154,#1155,#1156);
#1158=IFCLOCALPLACEMENT($,#1157);
#1159=IFCBUILDINGELEMENTPROXY('2IGTSjEjz5k8_l7trJHk1U',$,'Rack3',$,$,#1178,#1173,$,$);
#1165=IFCCARTESIANPOINT((0.,0.));
#1166=IFCAXIS2PLACEMENT2D(#1165,$);
#1167=IFCRECTANGLEPROFILEDEF(.AREA.,$,#1166,0.59999999999999998,1.);
#1168=IFCCARTESIANPOINT((0.,0.,-1.));
#1169=IFCAXIS2PLACEMENT3D(#1168,$,$);
#1170=IFCDIRECTION((0.,0.,1.));
#1171=IFCEXTRUDEDAREASOLID(#1167,#1169,#1170,2.);
#1172=IFCSHAPEREPRESENTATION(#11,'Body','SweptSolid',(#1171));
#1173=IFCPRODUCTDEFINITIONSHAPE($,$,(#1172));
#1174=IFCCARTESIANPOINT((5.7999999999999998,3.7999999999999998,1.));
#1175=IFCDIRECTION((0.,0.,1.));
#1176=IFCDIRECTION((1.,0.,0.));
#1177=IFCAXIS2PLACEMENT3D(#1174,#1175,#1176);
#1178=IFCLOCALPLACEMENT($,#1177);
#1179=IFCBUILDINGELEMENTPROXY('05_0SKVP184RlUFjgIUYif',$,'LED1',$,$,#1198,#1193,$,$);
#1185=IFCCARTESIANPOINT((0.,0.));
#1186=IFCAXIS2PLACEMENT2D(#1185,$);
#1187=IFCRECTANGLEPROFILEDEF(.AREA.,$,#1186,0.56000000000000005,0.95999999999999996);
#1188=IFCCARTESIANPOINT((0.,0.,-0.02));
#1189=IFCAXIS2PLACEMENT3D(#1188,$,$);
#1190=IFCDIRECTION((0.,0.,1.));
#1191=IFCEXTRUDEDAREASOLID(#1187,#1189,#1190,0.040000000000000001);
#1192=IFCSHAPEREPRESENTATION(#11,'Body','SweptSolid',(#1191));
#1193=IFCPRODUCTDEFINITIONSHAPE($,$,(#1192));
#1194=IFCCARTESIANPOINT((3.7999999999999998,3.7999999999999998,2.02));
#1195=IFCDIRECTION((0.,0.,1.));
#1196=IFCDIRECTION((1.,0.,0.));
#1197=IFCAXIS2PLACEMENT3D(#1194,#1195,#1196);
#1198=IFCLOCALPLACEMENT($,#1197);
#1199=IFCBUILDINGELEMENTPROXY('2KqdnLd2rAdffXhCNJD1N6',$,'LED2',$,$,#1218,#1213,$,$);
#1205=IFCCARTESIANPOINT((0.,0.));
#1206=IFCAXIS2PLACEMENT2D(#1205,$);
#1207=IFCRECTANGLEPROFILEDEF(.AREA.,$,#1206,0.56000000000000005,0.95999999999999996);
#1208=IFCCARTESIANPOINT((0.,0.,-0.02));
#1209=IFCAXIS2PLACEMENT3D(#1208,$,$);
#1210=IFCDIRECTION((0.,0.,1.));
#1211=IFCEXTRUDEDAREASOLID(#1207,#1209,#1210,0.040000000000000001);
#1212=IFCSHAPEREPRESENTATION(#11,'Body','SweptSolid',(#1211));
#1213=IFCPRODUCTDEFINITIONSHAPE($,$,(#1212));
#1214=IFCCARTESIANPOINT((4.7999999999999998,3.7999999999999998,2.02));
#1215=IFCDIRECTION((0.,0.,1.));
#1216=IFCDIRECTION((1.,0.,0.));
#1217=IFCAXIS2PLACEMENT3D(#1214,#1215,#1216);
#1218=IFCLOCALPLACEMENT($,#1217);
#1219=IFCBUILDINGELEMENTPROXY('0t8pWs5Fj7jePxTQgRzaf8',$,'LED3',$,$,#1238,#1233,$,$);
#1225=IFCCARTESIANPOINT((0.,0.));
#1226=IFCAXIS2PLACEMENT2D(#1225,$);
#1227=IFCRECTANGLEPROFILEDEF(.AREA.,$,#1226,0.56000000000000005,0.95999999999999996);
#1228=IFCCARTESIANPOINT((0.,0.,-0.02));
#1229=IFCAXIS2PLACEMENT3D(#1228,$,$);
#1230=IFCDIRECTION((0.,0.,1.));
#1231=IFCEXTRUDEDAREASOLID(#1227,#1229,#1230,0.040000000000000001);
#1232=IFCSHAPEREPRESENTATION(#11,'Body','SweptSolid',(#1231));
#1233=IFCPRODUCTDEFINITIONSHAPE($,$,(#1232));
#1234=IFCCARTESIANPOINT((5.7999999999999998,3.7999999999999998,2.02));
#1235=IFCDIRECTION((0.,0.,1.));
#1236=IFCDIRECTION((1.,0.,0.));
#1237=IFCAXIS2PLACEMENT3D(#1234,#1235,#1236);
#1238=IFCLOCALPLACEMENT($,#1237);
#1239=IFCBUILDINGELEMENTPROXY('25meh6Vur0zvJlRvZNqH9x',$,'LEDstrip',$,$,#1258,#1253,$,$);
#1245=IFCCARTESIANPOINT((0.,0.));
#1246=IFCAXIS2PLACEMENT2D(#1245,$);
#1247=IFCRECTANGLEPROFILEDEF(.AREA.,$,#1246,0.040000000000000001,0.040000000000000001);
#1248=IFCCARTESIANPOINT((0.,0.,-1.3));
#1249=IFCAXIS2PLACEMENT3D(#1248,$,$);
#1250=IFCDIRECTION((0.,0.,1.));
#1251=IFCEXTRUDEDAREASOLID(#1247,#1249,#1250,2.6000000000000001);
#1252=IFCSHAPEREPRESENTATION(#11,'Body','SweptSolid',(#1251));
#1253=IFCPRODUCTDEFINITIONSHAPE($,$,(#1252));
#1254=IFCCARTESIANPOINT((3.0499999999999998,2.5,1.5));
#1255=IFCDIRECTION((0.,0.,1.));
#1256=IFCDIRECTION((1.,0.,0.));
#1257=IFCAXIS2PLACEMENT3D(#1254,#1255,#1256);
#1258=IFCLOCALPLACEMENT($,#1257);
#1259=IFCBUILDINGELEMENTPROXY('0$ApmrcM148fUf6_gd6W_L',$,'MR_GlassW',$,$,#1278,#1273,$,$);
#1265=IFCCARTESIANPOINT((0.,0.));
#1266=IFCAXIS2PLACEMENT2D(#1265,$);
#1267=IFCRECTANGLEPROFILEDEF(.AREA.,$,#1266,0.059999999999999998,4.);
#1268=IFCCARTESIANPOINT((0.,0.,-1.5));
#1269=IFCAXIS2PLACEMENT3D(#1268,$,$);
#1270=IFCDIRECTION((0.,0.,1.));
#1271=IFCEXTRUDEDAREASOLID(#1267,#1269,#1270,3.);
#1272=IFCSHAPEREPRESENTATION(#11,'Body','SweptSolid',(#1271));
#1273=IFCPRODUCTDEFINITIONSHAPE($,$,(#1272));
#1274=IFCCARTESIANPOINT((2.,-3.,1.5));
#1275=IFCDIRECTION((0.,0.,1.));
#1276=IFCDIRECTION((1.,0.,0.));
#1277=IFCAXIS2PLACEMENT3D(#1274,#1275,#1276);
#1278=IFCLOCALPLACEMENT($,#1277);
#1279=IFCBUILDINGELEMENTPROXY('0hfTPvsbX2AervJb9KeX$m',$,'MR_GlassN',$,$,#1298,#1293,$,$);
#1285=IFCCARTESIANPOINT((0.,0.));
#1286=IFCAXIS2PLACEMENT2D(#1285,$);
#1287=IFCRECTANGLEPROFILEDEF(.AREA.,$,#1286,4.5,0.059999999999999998);
#1288=IFCCARTESIANPOINT((0.,0.,-1.5));
#1289=IFCAXIS2PLACEMENT3D(#1288,$,$);
#1290=IFCDIRECTION((0.,0.,1.));
#1291=IFCEXTRUDEDAREASOLID(#1287,#1289,#1290,3.);
#1292=IFCSHAPEREPRESENTATION(#11,'Body','SweptSolid',(#1291));
#1293=IFCPRODUCTDEFINITIONSHAPE($,$,(#1292));
#1294=IFCCARTESIANPOINT((4.25,-1.,1.5));
#1295=IFCDIRECTION((0.,0.,1.));
#1296=IFCDIRECTION((1.,0.,0.));
#1297=IFCAXIS2PLACEMENT3D(#1294,#1295,#1296);
#1298=IFCLOCALPLACEMENT($,#1297);
#1299=IFCBUILDINGELEMENTPROXY('07VEhzeWj95RiIE_c2ZWjF',$,'MR_FrameE',$,$,#1318,#1313,$,$);
#1305=IFCCARTESIANPOINT((0.,0.));
#1306=IFCAXIS2PLACEMENT2D(#1305,$);
#1307=IFCRECTANGLEPROFILEDEF(.AREA.,$,#1306,0.040000000000000001,4.);
#1308=IFCCARTESIANPOINT((0.,0.,-1.5));
#1309=IFCAXIS2PLACEMENT3D(#1308,$,$);
#1310=IFCDIRECTION((0.,0.,1.));
#1311=IFCEXTRUDEDAREASOLID(#1307,#1309,#1310,3.);
#1312=IFCSHAPEREPRESENTATION(#11,'Body','SweptSolid',(#1311));
#1313=IFCPRODUCTDEFINITIONSHAPE($,$,(#1312));
#1314=IFCCARTESIANPOINT((6.4699999999999998,-3.,1.5));
#1315=IFCDIRECTION((0.,0.,1.));
#1316=IFCDIRECTION((1.,0.,0.));
#1317=IFCAXIS2PLACEMENT3D(#1314,#1315,#1316);
#1318=IFCLOCALPLACEMENT($,#1317);
#1319=IFCBUILDINGELEMENTPROXY('2pOdOhD9jC7wpliZKR_9$D',$,'MR_FrameS',$,$,#1338,#1333,$,$);
#1325=IFCCARTESIANPOINT((0.,0.));
#1326=IFCAXIS2PLACEMENT2D(#1325,$);
#1327=IFCRECTANGLEPROFILEDEF(.AREA.,$,#1326,4.5,0.040000000000000001);
#1328=IFCCARTESIANPOINT((0.,0.,-1.5));
#1329=IFCAXIS2PLACEMENT3D(#1328,$,$);
#1330=IFCDIRECTION((0.,0.,1.));
#1331=IFCEXTRUDEDAREASOLID(#1327,#1329,#1330,3.);
#1332=IFCSHAPEREPRESENTATION(#11,'Body','SweptSolid',(#1331));
#1333=IFCPRODUCTDEFINITIONSHAPE($,$,(#1332));
#1334=IFCCARTESIANPOINT((4.25,-4.9699999999999998,1.5));
#1335=IFCDIRECTION((0.,0.,1.));
#1336=IFCDIRECTION((1.,0.,0.));
#1337=IFCAXIS2PLACEMENT3D(#1334,#1335,#1336);
#1338=IFCLOCALPLACEMENT($,#1337);
#1339=IFCDOOR('34zqKAALvBjBX4T53o705H',$,'MR_Door',$,$,#1358,#1353,$,$,$,$,$,$);
#1345=IFCCARTESIANPOINT((0.,0.));
#1346=IFCAXIS2PLACEMENT2D(#1345,$);
#1347=IFCRECTANGLEPROFILEDEF(.AREA.,$,#1346,0.040000000000000001,0.90000000000000002);
#1348=IFCCARTESIANPOINT((0.,0.,-1.05));
#1349=IFCAXIS2PLACEMENT3D(#1348,$,$);
#1350=IFCDIRECTION((0.,0.,1.));
#1351=IFCEXTRUDEDAREASOLID(#1347,#1349,#1350,2.1000000000000001);
#1352=IFCSHAPEREPRESENTATION(#11,'Body','SweptSolid',(#1351));
#1353=IFCPRODUCTDEFINITIONSHAPE($,$,(#1352));
#1354=IFCCARTESIANPOINT((2.0299999999999998,-1.5,1.05));
#1355=IFCDIRECTION((0.,0.,1.));
#1356=IFCDIRECTION((1.,0.,0.));
#1357=IFCAXIS2PLACEMENT3D(#1354,#1355,#1356);
#1358=IFCLOCALPLACEMENT($,#1357);
#1359=IFCFURNITURE('2fdVhcRpLEb8yLFD$xkvi4',$,'MR_Table',$,$,#1378,#1373,$,$);
#1365=IFCCARTESIANPOINT((0.,0.));
#1366=IFCAXIS2PLACEMENT2D(#1365,$);
#1367=IFCRECTANGLEPROFILEDEF(.AREA.,$,#1366,2.3999999999999999,1.);
#1368=IFCCARTESIANPOINT((0.,0.,-0.029999999999999999));
#1369=IFCAXIS2PLACEMENT3D(#1368,$,$);
#1370=IFCDIRECTION((0.,0.,1.));
#1371=IFCEXTRUDEDAREASOLID(#1367,#1369,#1370,0.059999999999999998);
#1372=IFCSHAPEREPRESENTATION(#11,'Body','SweptSolid',(#1371));
#1373=IFCPRODUCTDEFINITIONSHAPE($,$,(#1372));
#1374=IFCCARTESIANPOINT((4.25,-3.,0.72999999999999998));
#1375=IFCDIRECTION((0.,0.,1.));
#1376=IFCDIRECTION((1.,0.,0.));
#1377=IFCAXIS2PLACEMENT3D(#1374,#1375,#1376);
#1378=IFCLOCALPLACEMENT($,#1377);
#1379=IFCFURNITURE('1Udz4skEPB_8lpVY$nKXk5',$,'MR_ChairN_0',$,$,#1398,#1393,$,$);
#1385=IFCCARTESIANPOINT((0.,0.));
#1386=IFCAXIS2PLACEMENT2D(#1385,$);
#1387=IFCRECTANGLEPROFILEDEF(.AREA.,$,#1386,0.44,0.44);
#1388=IFCCARTESIANPOINT((0.,0.,-0.029999999999999999));
#1389=IFCAXIS2PLACEMENT3D(#1388,$,$);
#1390=IFCDIRECTION((0.,0.,1.));
#1391=IFCEXTRUDEDAREASOLID(#1387,#1389,#1390,0.059999999999999998);
#1392=IFCSHAPEREPRESENTATION(#11,'Body','SweptSolid',(#1391));
#1393=IFCPRODUCTDEFINITIONSHAPE($,$,(#1392));
#1394=IFCCARTESIANPOINT((3.2000000000000002,-4.2000000000000002,0.42999999999999999));
#1395=IFCDIRECTION((0.,0.,1.));
#1396=IFCDIRECTION((1.,0.,0.));
#1397=IFCAXIS2PLACEMENT3D(#1394,#1395,#1396);
#1398=IFCLOCALPLACEMENT($,#1397);
#1399=IFCFURNITURE('3kc9IRHqvBEQap4Tv8T9$1',$,'MR_ChairS_0',$,$,#1418,#1413,$,$);
#1405=IFCCARTESIANPOINT((0.,0.));
#1406=IFCAXIS2PLACEMENT2D(#1405,$);
#1407=IFCRECTANGLEPROFILEDEF(.AREA.,$,#1406,0.44,0.44);
#1408=IFCCARTESIANPOINT((0.,0.,-0.029999999999999999));
#1409=IFCAXIS2PLACEMENT3D(#1408,$,$);
#1410=IFCDIRECTION((0.,0.,1.));
#1411=IFCEXTRUDEDAREASOLID(#1407,#1409,#1410,0.059999999999999998);
#1412=IFCSHAPEREPRESENTATION(#11,'Body','SweptSolid',(#1411));
#1413=IFCPRODUCTDEFINITIONSHAPE($,$,(#1412));
#1414=IFCCARTESIANPOINT((5.2999999999999998,-4.2000000000000002,0.42999999999999999));
#1415=IFCDIRECTION((0.,0.,1.));
#1416=IFCDIRECTION((1.,0.,0.));
#1417=IFCAXIS2PLACEMENT3D(#1414,#1415,#1416);
#1418=IFCLOCALPLACEMENT($,#1417);
#1419=IFCFURNITURE('0FnB0vmk93EuboMEQ_e9Jw',$,'MR_ChairN_1',$,$,#1438,#1433,$,$);
#1425=IFCCARTESIANPOINT((0.,0.));
#1426=IFCAXIS2PLACEMENT2D(#1425,$);
#1427=IFCRECTANGLEPROFILEDEF(.AREA.,$,#1426,0.44,0.44);
#1428=IFCCARTESIANPOINT((0.,0.,-0.029999999999999999));
#1429=IFCAXIS2PLACEMENT3D(#1428,$,$);
#1430=IFCDIRECTION((0.,0.,1.));
#1431=IFCEXTRUDEDAREASOLID(#1427,#1429,#1430,0.059999999999999998);
#1432=IFCSHAPEREPRESENTATION(#11,'Body','SweptSolid',(#1431));
#1433=IFCPRODUCTDEFINITIONSHAPE($,$,(#1432));
#1434=IFCCARTESIANPOINT((3.2000000000000002,-3.6000000000000001,0.42999999999999999));
#1435=IFCDIRECTION((0.,0.,1.));
#1436=IFCDIRECTION((1.,0.,0.));
#1437=IFCAXIS2PLACEMENT3D(#1434,#1435,#1436);
#1438=IFCLOCALPLACEMENT($,#1437);
#1439=IFCFURNITURE('1pBLcsZ8n3DP$RTypMSN$B',$,'MR_ChairS_1',$,$,#1458,#1453,$,$);
#1445=IFCCARTESIANPOINT((0.,0.));
#1446=IFCAXIS2PLACEMENT2D(#1445,$);
#1447=IFCRECTANGLEPROFILEDEF(.AREA.,$,#1446,0.44,0.44);
#1448=IFCCARTESIANPOINT((0.,0.,-0.029999999999999999));
#1449=IFCAXIS2PLACEMENT3D(#1448,$,$);
#1450=IFCDIRECTION((0.,0.,1.));
#1451=IFCEXTRUDEDAREASOLID(#1447,#1449,#1450,0.059999999999999998);
#1452=IFCSHAPEREPRESENTATION(#11,'Body','SweptSolid',(#1451));
#1453=IFCPRODUCTDEFINITIONSHAPE($,$,(#1452));
#1454=IFCCARTESIANPOINT((5.2999999999999998,-3.6000000000000001,0.42999999999999999));
#1455=IFCDIRECTION((0.,0.,1.));
#1456=IFCDIRECTION((1.,0.,0.));
#1457=IFCAXIS2PLACEMENT3D(#1454,#1455,#1456);
#1458=IFCLOCALPLACEMENT($,#1457);
#1459=IFCFURNITURE('1QTiCxBGbA69GEW69KaWAR',$,'MR_ChairN_2',$,$,#1478,#1473,$,$);
#1465=IFCCARTESIANPOINT((0.,0.));
#1466=IFCAXIS2PLACEMENT2D(#1465,$);
#1467=IFCRECTANGLEPROFILEDEF(.AREA.,$,#1466,0.44,0.44);
#1468=IFCCARTESIANPOINT((0.,0.,-0.029999999999999999));
#1469=IFCAXIS2PLACEMENT3D(#1468,$,$);
#1470=IFCDIRECTION((0.,0.,1.));
#1471=IFCEXTRUDEDAREASOLID(#1467,#1469,#1470,0.059999999999999998);
#1472=IFCSHAPEREPRESENTATION(#11,'Body','SweptSolid',(#1471));
#1473=IFCPRODUCTDEFINITIONSHAPE($,$,(#1472));
#1474=IFCCARTESIANPOINT((3.2000000000000002,-3.,0.42999999999999999));
#1475=IFCDIRECTION((0.,0.,1.));
#1476=IFCDIRECTION((1.,0.,0.));
#1477=IFCAXIS2PLACEMENT3D(#1474,#1475,#1476);
#1478=IFCLOCALPLACEMENT($,#1477);
#1479=IFCFURNITURE('2Lrb_KlRD6qee1ggOQW$9h',$,'MR_ChairS_2',$,$,#1498,#1493,$,$);
#1485=IFCCARTESIANPOINT((0.,0.));
#1486=IFCAXIS2PLACEMENT2D(#1485,$);
#1487=IFCRECTANGLEPROFILEDEF(.AREA.,$,#1486,0.44,0.44);
#1488=IFCCARTESIANPOINT((0.,0.,-0.029999999999999999));
#1489=IFCAXIS2PLACEMENT3D(#1488,$,$);
#1490=IFCDIRECTION((0.,0.,1.));
#1491=IFCEXTRUDEDAREASOLID(#1487,#1489,#1490,0.059999999999999998);
#1492=IFCSHAPEREPRESENTATION(#11,'Body','SweptSolid',(#1491));
#1493=IFCPRODUCTDEFINITIONSHAPE($,$,(#1492));
#1494=IFCCARTESIANPOINT((5.2999999999999998,-3.,0.42999999999999999));
#1495=IFCDIRECTION((0.,0.,1.));
#1496=IFCDIRECTION((1.,0.,0.));
#1497=IFCAXIS2PLACEMENT3D(#1494,#1495,#1496);
#1498=IFCLOCALPLACEMENT($,#1497);
#1499=IFCFURNITURE('25iLueUQ999P1LUdpI4$ZQ',$,'MR_ChairN_3',$,$,#1518,#1513,$,$);
#1505=IFCCARTESIANPOINT((0.,0.));
#1506=IFCAXIS2PLACEMENT2D(#1505,$);
#1507=IFCRECTANGLEPROFILEDEF(.AREA.,$,#1506,0.44,0.44);
#1508=IFCCARTESIANPOINT((0.,0.,-0.029999999999999999));
#1509=IFCAXIS2PLACEMENT3D(#1508,$,$);
#1510=IFCDIRECTION((0.,0.,1.));
#1511=IFCEXTRUDEDAREASOLID(#1507,#1509,#1510,0.059999999999999998);
#1512=IFCSHAPEREPRESENTATION(#11,'Body','SweptSolid',(#1511));
#1513=IFCPRODUCTDEFINITIONSHAPE($,$,(#1512));
#1514=IFCCARTESIANPOINT((3.2000000000000002,-2.4000000000000004,0.42999999999999999));
#1515=IFCDIRECTION((0.,0.,1.));
#1516=IFCDIRECTION((1.,0.,0.));
#1517=IFCAXIS2PLACEMENT3D(#1514,#1515,#1516);
#1518=IFCLOCALPLACEMENT($,#1517);
#1519=IFCFURNITURE('1m3tz2U_1CJglddckbqdSI',$,'MR_ChairS_3',$,$,#1538,#1533,$,$);
#1525=IFCCARTESIANPOINT((0.,0.));
#1526=IFCAXIS2PLACEMENT2D(#1525,$);
#1527=IFCRECTANGLEPROFILEDEF(.AREA.,$,#1526,0.44,0.44);
#1528=IFCCARTESIANPOINT((0.,0.,-0.029999999999999999));
#1529=IFCAXIS2PLACEMENT3D(#1528,$,$);
#1530=IFCDIRECTION((0.,0.,1.));
#1531=IFCEXTRUDEDAREASOLID(#1527,#1529,#1530,0.059999999999999998);
#1532=IFCSHAPEREPRESENTATION(#11,'Body','SweptSolid',(#1531));
#1533=IFCPRODUCTDEFINITIONSHAPE($,$,(#1532));
#1534=IFCCARTESIANPOINT((5.2999999999999998,-2.4000000000000004,0.42999999999999999));
#1535=IFCDIRECTION((0.,0.,1.));
#1536=IFCDIRECTION((1.,0.,0.));
#1537=IFCAXIS2PLACEMENT3D(#1534,#1535,#1536);
#1538=IFCLOCALPLACEMENT($,#1537);
#1539=IFCFURNITURE('2fRhNEHP1C1BCS085U9V0O',$,'MR_ChairN_4',$,$,#1558,#1553,$,$);
#1545=IFCCARTESIANPOINT((0.,0.));
#1546=IFCAXIS2PLACEMENT2D(#1545,$);
#1547=IFCRECTANGLEPROFILEDEF(.AREA.,$,#1546,0.44,0.44);
#1548=IFCCARTESIANPOINT((0.,0.,-0.029999999999999999));
#1549=IFCAXIS2PLACEMENT3D(#1548,$,$);
#1550=IFCDIRECTION((0.,0.,1.));
#1551=IFCEXTRUDEDAREASOLID(#1547,#1549,#1550,0.059999999999999998);
#1552=IFCSHAPEREPRESENTATION(#11,'Body','SweptSolid',(#1551));
#1553=IFCPRODUCTDEFINITIONSHAPE($,$,(#1552));
#1554=IFCCARTESIANPOINT((3.2000000000000002,-1.8000000000000003,0.42999999999999999));
#1555=IFCDIRECTION((0.,0.,1.));
#1556=IFCDIRECTION((1.,0.,0.));
#1557=IFCAXIS2PLACEMENT3D(#1554,#1555,#1556);
#1558=IFCLOCALPLACEMENT($,#1557);
#1559=IFCFURNITURE('3eneFSnFv2ThTfEvG0NDAA',$,'MR_ChairS_4',$,$,#1578,#1573,$,$);
#1565=IFCCARTESIANPOINT((0.,0.));
#1566=IFCAXIS2PLACEMENT2D(#1565,$);
#1567=IFCRECTANGLEPROFILEDEF(.AREA.,$,#1566,0.44,0.44);
#1568=IFCCARTESIANPOINT((0.,0.,-0.029999999999999999));
#1569=IFCAXIS2PLACEMENT3D(#1568,$,$);
#1570=IFCDIRECTION((0.,0.,1.));
#1571=IFCEXTRUDEDAREASOLID(#1567,#1569,#1570,0.059999999999999998);
#1572=IFCSHAPEREPRESENTATION(#11,'Body','SweptSolid',(#1571));
#1573=IFCPRODUCTDEFINITIONSHAPE($,$,(#1572));
#1574=IFCCARTESIANPOINT((5.2999999999999998,-1.8000000000000003,0.42999999999999999));
#1575=IFCDIRECTION((0.,0.,1.));
#1576=IFCDIRECTION((1.,0.,0.));
#1577=IFCAXIS2PLACEMENT3D(#1574,#1575,#1576);
#1578=IFCLOCALPLACEMENT($,#1577);
#1579=IFCFURNITURE('3LMY9pFcD729Ygt8VAAG50',$,'MR_BigScreen',$,$,#1598,#1593,$,$);
#1585=IFCCARTESIANPOINT((0.,0.));
#1586=IFCAXIS2PLACEMENT2D(#1585,$);
#1587=IFCRECTANGLEPROFILEDEF(.AREA.,$,#1586,0.040000000000000001,1.3999999999999999);
#1588=IFCCARTESIANPOINT((0.,0.,-0.45000000000000001));
#1589=IFCAXIS2PLACEMENT3D(#1588,$,$);
#1590=IFCDIRECTION((0.,0.,1.));
#1591=IFCEXTRUDEDAREASOLID(#1587,#1589,#1590,0.90000000000000002);
#1592=IFCSHAPEREPRESENTATION(#11,'Body','SweptSolid',(#1591));
#1593=IFCPRODUCTDEFINITIONSHAPE($,$,(#1592));
#1594=IFCCARTESIANPOINT((6.4000000000000004,-3.,1.5));
#1595=IFCDIRECTION((0.,0.,1.));
#1596=IFCDIRECTION((1.,0.,0.));
#1597=IFCAXIS2PLACEMENT3D(#1594,#1595,#1596);
#1598=IFCLOCALPLACEMENT($,#1597);
#1599=IFCBUILDINGELEMENTPROXY('2sKapbWazB$ugDRS21YJco',$,'MR_Whiteboard',$,$,#1618,#1613,$,$);
#1605=IFCCARTESIANPOINT((0.,0.));
#1606=IFCAXIS2PLACEMENT2D(#1605,$);
#1607=IFCRECTANGLEPROFILEDEF(.AREA.,$,#1606,3.7999999999999998,0.029999999999999999);
#1608=IFCCARTESIANPOINT((0.,0.,-0.80000000000000004));
#1609=IFCAXIS2PLACEMENT3D(#1608,$,$);
#1610=IFCDIRECTION((0.,0.,1.));
#1611=IFCEXTRUDEDAREASOLID(#1607,#1609,#1610,1.6000000000000001);
#1612=IFCSHAPEREPRESENTATION(#11,'Body','SweptSolid',(#1611));
#1613=IFCPRODUCTDEFINITIONSHAPE($,$,(#1612));
#1614=IFCCARTESIANPOINT((4.25,-4.9299999999999997,1.5));
#1615=IFCDIRECTION((0.,0.,1.));
#1616=IFCDIRECTION((1.,0.,0.));
#1617=IFCAXIS2PLACEMENT3D(#1614,#1615,#1616);
#1618=IFCLOCALPLACEMENT($,#1617);
#1619=IFCBUILDINGELEMENTPROXY('0CfjIFcQT4jRaXYw7frAo6',$,'PhoneBooth1',$,$,#1638,#1633,$,$);
#1625=IFCCARTESIANPOINT((0.,0.));
#1626=IFCAXIS2PLACEMENT2D(#1625,$);
#1627=IFCRECTANGLEPROFILEDEF(.AREA.,$,#1626,1.2,1.2);
#1628=IFCCARTESIANPOINT((0.,0.,-1.25));
#1629=IFCAXIS2PLACEMENT3D(#1628,$,$);
#1630=IFCDIRECTION((0.,0.,1.));
#1631=IFCEXTRUDEDAREASOLID(#1627,#1629,#1630,2.5);
#1632=IFCSHAPEREPRESENTATION(#11,'Body','SweptSolid',(#1631));
#1633=IFCPRODUCTDEFINITIONSHAPE($,$,(#1632));
#1634=IFCCARTESIANPOINT((5.5,0.,1.25));
#1635=IFCDIRECTION((0.,0.,1.));
#1636=IFCDIRECTION((1.,0.,0.));
#1637=IFCAXIS2PLACEMENT3D(#1634,#1635,#1636);
#1638=IFCLOCALPLACEMENT($,#1637);
#1639=IFCDOOR('24Z6gM0OX9puUt1bbQ6WgP',$,'Booth1_Door',$,$,#1658,#1653,$,$,$,$,$,$);
#1645=IFCCARTESIANPOINT((0.,0.));
#1646=IFCAXIS2PLACEMENT2D(#1645,$);
#1647=IFCRECTANGLEPROFILEDEF(.AREA.,$,#1646,0.040000000000000001,0.69999999999999996);
#1648=IFCCARTESIANPOINT((0.,0.,-1.1000000000000001));
#1649=IFCAXIS2PLACEMENT3D(#1648,$,$);
#1650=IFCDIRECTION((0.,0.,1.));
#1651=IFCEXTRUDEDAREASOLID(#1647,#1649,#1650,2.2000000000000002);
#1652=IFCSHAPEREPRESENTATION(#11,'Body','SweptSolid',(#1651));
#1653=IFCPRODUCTDEFINITIONSHAPE($,$,(#1652));
#1654=IFCCARTESIANPOINT((4.8899999999999997,0.,1.1000000000000001));
#1655=IFCDIRECTION((0.,0.,1.));
#1656=IFCDIRECTION((1.,0.,0.));
#1657=IFCAXIS2PLACEMENT3D(#1654,#1655,#1656);
#1658=IFCLOCALPLACEMENT($,#1657);
#1659=IFCFURNITURE('1_P0DWDTb3sBXoCPsSujkl',$,'Booth1_Desk',$,$,#1678,#1673,$,$);
#1665=IFCCARTESIANPOINT((0.,0.));
#1666=IFCAXIS2PLACEMENT2D(#1665,$);
#1667=IFCRECTANGLEPROFILEDEF(.AREA.,$,#1666,1.,0.40000000000000002);
#1668=IFCCARTESIANPOINT((0.,0.,-0.02));
#1669=IFCAXIS2PLACEMENT3D(#1668,$,$);
#1670=IFCDIRECTION((0.,0.,1.));
#1671=IFCEXTRUDEDAREASOLID(#1667,#1669,#1670,0.040000000000000001);
#1672=IFCSHAPEREPRESENTATION(#11,'Body','SweptSolid',(#1671));
#1673=IFCPRODUCTDEFINITIONSHAPE($,$,(#1672));
#1674=IFCCARTESIANPOINT((5.5,0.29999999999999999,0.75));
#1675=IFCDIRECTION((0.,0.,1.));
#1676=IFCDIRECTION((1.,0.,0.));
#1677=IFCAXIS2PLACEMENT3D(#1674,#1675,#1676);
#1678=IFCLOCALPLACEMENT($,#1677);
#1679=IFCBUILDINGELEMENTPROXY('28LlZZNl55MfVHQaeb5X9g',$,'PhoneBooth2',$,$,#1698,#1693,$,$);
#1685=IFCCARTESIANPOINT((0.,0.));
#1686=IFCAXIS2PLACEMENT2D(#1685,$);
#1687=IFCRECTANGLEPROFILEDEF(.AREA.,$,#1686,1.2,1.2);
#1688=IFCCARTESIANPOINT((0.,0.,-1.25));
#1689=IFCAXIS2PLACEMENT3D(#1688,$,$);
#1690=IFCDIRECTION((0.,0.,1.));
#1691=IFCEXTRUDEDAREASOLID(#1687,#1689,#1690,2.5);
#1692=IFCSHAPEREPRESENTATION(#11,'Body','SweptSolid',(#1691));
#1693=IFCPRODUCTDEFINITIONSHAPE($,$,(#1692));
#1694=IFCCARTESIANPOINT((5.5,1.5,1.25));
#1695=IFCDIRECTION((0.,0.,1.));
#1696=IFCDIRECTION((1.,0.,0.));
#1697=IFCAXIS2PLACEMENT3D(#1694,#1695,#1696);
#1698=IFCLOCALPLACEMENT($,#1697);
#1699=IFCDOOR('3rqh0$pnP2rgHKeSpVDBl0',$,'Booth2_Door',$,$,#1718,#1713,$,$,$,$,$,$);
#1705=IFCCARTESIANPOINT((0.,0.));
#1706=IFCAXIS2PLACEMENT2D(#1705,$);
#1707=IFCRECTANGLEPROFILEDEF(.AREA.,$,#1706,0.040000000000000001,0.69999999999999996);
#1708=IFCCARTESIANPOINT((0.,0.,-1.1000000000000001));
#1709=IFCAXIS2PLACEMENT3D(#1708,$,$);
#1710=IFCDIRECTION((0.,0.,1.));
#1711=IFCEXTRUDEDAREASOLID(#1707,#1709,#1710,2.2000000000000002);
#1712=IFCSHAPEREPRESENTATION(#11,'Body','SweptSolid',(#1711));
#1713=IFCPRODUCTDEFINITIONSHAPE($,$,(#1712));
#1714=IFCCARTESIANPOINT((4.8899999999999997,1.5,1.1000000000000001));
#1715=IFCDIRECTION((0.,0.,1.));
#1716=IFCDIRECTION((1.,0.,0.));
#1717=IFCAXIS2PLACEMENT3D(#1714,#1715,#1716);
#1718=IFCLOCALPLACEMENT($,#1717);
#1719=IFCFURNITURE('1FSmFHmH9378MAFlPa1Xka',$,'Booth2_Desk',$,$,#1738,#1733,$,$);
#1725=IFCCARTESIANPOINT((0.,0.));
#1726=IFCAXIS2PLACEMENT2D(#1725,$);
#1727=IFCRECTANGLEPROFILEDEF(.AREA.,$,#1726,1.,0.40000000000000002);
#1728=IFCCARTESIANPOINT((0.,0.,-0.02));
#1729=IFCAXIS2PLACEMENT3D(#1728,$,$);
#1730=IFCDIRECTION((0.,0.,1.));
#1731=IFCEXTRUDEDAREASOLID(#1727,#1729,#1730,0.040000000000000001);
#1732=IFCSHAPEREPRESENTATION(#11,'Body','SweptSolid',(#1731));
#1733=IFCPRODUCTDEFINITIONSHAPE($,$,(#1732));
#1734=IFCCARTESIANPOINT((5.5,1.2,0.75));
#1735=IFCDIRECTION((0.,0.,1.));
#1736=IFCDIRECTION((1.,0.,0.));
#1737=IFCAXIS2PLACEMENT3D(#1734,#1735,#1736);
#1738=IFCLOCALPLACEMENT($,#1737);
#1739=IFCBUILDINGELEMENTPROXY('16wzC1VV5EDAEoasaZ4Kl4',$,'KitCounter',$,$,#1758,#1753,$,$);
#1745=IFCCARTESIANPOINT((0.,0.));
#1746=IFCAXIS2PLACEMENT2D(#1745,$);
#1747=IFCRECTANGLEPROFILEDEF(.AREA.,$,#1746,2.,0.69999999999999996);
#1748=IFCCARTESIANPOINT((0.,0.,-0.45000000000000001));
#1749=IFCAXIS2PLACEMENT3D(#1748,$,$);
#1750=IFCDIRECTION((0.,0.,1.));
#1751=IFCEXTRUDEDAREASOLID(#1747,#1749,#1750,0.90000000000000002);
#1752=IFCSHAPEREPRESENTATION(#11,'Body','SweptSolid',(#1751));
#1753=IFCPRODUCTDEFINITIONSHAPE($,$,(#1752));
#1754=IFCCARTESIANPOINT((-5.5,4.5,0.45000000000000001));
#1755=IFCDIRECTION((0.,0.,1.));
#1756=IFCDIRECTION((1.,0.,0.));
#1757=IFCAXIS2PLACEMENT3D(#1754,#1755,#1756);
#1758=IFCLOCALPLACEMENT($,#1757);
#1759=IFCBUILDINGELEMENTPROXY('34n0MX0CjFE9385LCOB9Qq',$,'KitSink',$,$,#1778,#1773,$,$);
#1765=IFCCARTESIANPOINT((0.,0.));
#1766=IFCAXIS2PLACEMENT2D(#1765,$);
#1767=IFCRECTANGLEPROFILEDEF(.AREA.,$,#1766,0.40000000000000002,0.29999999999999999);
#1768=IFCCARTESIANPOINT((0.,0.,-0.02));
#1769=IFCAXIS2PLACEMENT3D(#1768,$,$);
#1770=IFCDIRECTION((0.,0.,1.));
#1771=IFCEXTRUDEDAREASOLID(#1767,#1769,#1770,0.040000000000000001);
#1772=IFCSHAPEREPRESENTATION(#11,'Body','SweptSolid',(#1771));
#1773=IFCPRODUCTDEFINITIONSHAPE($,$,(#1772));
#1774=IFCCARTESIANPOINT((-5.9000000000000004,4.5,0.92000000000000004));
#1775=IFCDIRECTION((0.,0.,1.));
#1776=IFCDIRECTION((1.,0.,0.));
#1777=IFCAXIS2PLACEMENT3D(#1774,#1775,#1776);
#1778=IFCLOCALPLACEMENT($,#1777);
#1779=IFCBUILDINGELEMENTPROXY('0FdaxsVp94ww1Ksf6Mnm0O',$,'KitFridge',$,$,#1798,#1793,$,$);
#1785=IFCCARTESIANPOINT((0.,0.));
#1786=IFCAXIS2PLACEMENT2D(#1785,$);
#1787=IFCRECTANGLEPROFILEDEF(.AREA.,$,#1786,0.59999999999999998,0.59999999999999998);
#1788=IFCCARTESIANPOINT((0.,0.,-0.84999999999999998));
#1789=IFCAXIS2PLACEMENT3D(#1788,$,$);
#1790=IFCDIRECTION((0.,0.,1.));
#1791=IFCEXTRUDEDAREASOLID(#1787,#1789,#1790,1.7);
#1792=IFCSHAPEREPRESENTATION(#11,'Body','SweptSolid',(#1791));
#1793=IFCPRODUCTDEFINITIONSHAPE($,$,(#1792));
#1794=IFCCARTESIANPOINT((-6.2000000000000002,4.5,0.84999999999999998));
#1795=IFCDIRECTION((0.,0.,1.));
#1796=IFCDIRECTION((1.,0.,0.));
#1797=IFCAXIS2PLACEMENT3D(#1794,#1795,#1796);
#1798=IFCLOCALPLACEMENT($,#1797);
#1799=IFCBUILDINGELEMENTPROXY('13CMCJnM9Fofvf6MHLDpEn',$,'KitCoffee',$,$,#1818,#1813,$,$);
#1805=IFCCARTESIANPOINT((0.,0.));
#1806=IFCAXIS2PLACEMENT2D(#1805,$);
#1807=IFCRECTANGLEPROFILEDEF(.AREA.,$,#1806,0.29999999999999999,0.29999999999999999);
#1808=IFCCARTESIANPOINT((0.,0.,-0.14999999999999999));
#1809=IFCAXIS2PLACEMENT3D(#1808,$,$);
#1810=IFCDIRECTION((0.,0.,1.));
#1811=IFCEXTRUDEDAREASOLID(#1807,#1809,#1810,0.29999999999999999);
#1812=IFCSHAPEREPRESENTATION(#11,'Body','SweptSolid',(#1811));
#1813=IFCPRODUCTDEFINITIONSHAPE($,$,(#1812));
#1814=IFCCARTESIANPOINT((-5.2999999999999998,4.5,1.05));
#1815=IFCDIRECTION((0.,0.,1.));
#1816=IFCDIRECTION((1.,0.,0.));
#1817=IFCAXIS2PLACEMENT3D(#1814,#1815,#1816);
#1818=IFCLOCALPLACEMENT($,#1817);
#1819=IFCBUILDINGELEMENTPROXY('317noo$HX5P8vPqflC41fL',$,'KitMicro',$,$,#1838,#1833,$,$);
#1825=IFCCARTESIANPOINT((0.,0.));
#1826=IFCAXIS2PLACEMENT2D(#1825,$);
#1827=IFCRECTANGLEPROFILEDEF(.AREA.,$,#1826,0.40000000000000002,0.35999999999999999);
#1828=IFCCARTESIANPOINT((0.,0.,-0.12));
#1829=IFCAXIS2PLACEMENT3D(#1828,$,$);
#1830=IFCDIRECTION((0.,0.,1.));
#1831=IFCEXTRUDEDAREASOLID(#1827,#1829,#1830,0.23999999999999999);
#1832=IFCSHAPEREPRESENTATION(#11,'Body','SweptSolid',(#1831));
#1833=IFCPRODUCTDEFINITIONSHAPE($,$,(#1832));
#1834=IFCCARTESIANPOINT((-4.7999999999999998,4.5,1.));
#1835=IFCDIRECTION((0.,0.,1.));
#1836=IFCDIRECTION((1.,0.,0.));
#1837=IFCAXIS2PLACEMENT3D(#1834,#1835,#1836);
#1838=IFCLOCALPLACEMENT($,#1837);
#1839=IFCBUILDINGELEMENTPROXY('2w16OdFU57ZAi60smgBsBP',$,'KitUpCab',$,$,#1858,#1853,$,$);
#1845=IFCCARTESIANPOINT((0.,0.));
#1846=IFCAXIS2PLACEMENT2D(#1845,$);
#1847=IFCRECTANGLEPROFILEDEF(.AREA.,$,#1846,2.,0.23999999999999999);
#1848=IFCCARTESIANPOINT((0.,0.,-0.34999999999999998));
#1849=IFCAXIS2PLACEMENT3D(#1848,$,$);
#1850=IFCDIRECTION((0.,0.,1.));
#1851=IFCEXTRUDEDAREASOLID(#1847,#1849,#1850,0.69999999999999996);
#1852=IFCSHAPEREPRESENTATION(#11,'Body','SweptSolid',(#1851));
#1853=IFCPRODUCTDEFINITIONSHAPE($,$,(#1852));
#1854=IFCCARTESIANPOINT((-5.5,4.9000000000000004,2.2999999999999998));
#1855=IFCDIRECTION((0.,0.,1.));
#1856=IFCDIRECTION((1.,0.,0.));
#1857=IFCAXIS2PLACEMENT3D(#1854,#1855,#1856);
#1858=IFCLOCALPLACEMENT($,#1857);
#1859=IFCBUILDINGELEMENTPROXY('1D1GcpujL3FeyJMps7s2ox',$,'Sofa1',$,$,#1878,#1873,$,$);
#1865=IFCCARTESIANPOINT((0.,0.));
#1866=IFCAXIS2PLACEMENT2D(#1865,$);
#1867=IFCRECTANGLEPROFILEDEF(.AREA.,$,#1866,1.6000000000000001,0.69999999999999996);
#1868=IFCCARTESIANPOINT((0.,0.,-0.34999999999999998));
#1869=IFCAXIS2PLACEMENT3D(#1868,$,$);
#1870=IFCDIRECTION((0.,0.,1.));
#1871=IFCEXTRUDEDAREASOLID(#1867,#1869,#1870,0.69999999999999996);
#1872=IFCSHAPEREPRESENTATION(#11,'Body','SweptSolid',(#1871));
#1873=IFCPRODUCTDEFINITIONSHAPE($,$,(#1872));
#1874=IFCCARTESIANPOINT((0.5,-2.,0.34999999999999998));
#1875=IFCDIRECTION((0.,0.,1.));
#1876=IFCDIRECTION((1.,0.,0.));
#1877=IFCAXIS2PLACEMENT3D(#1874,#1875,#1876);
#1878=IFCLOCALPLACEMENT($,#1877);
#1879=IFCBUILDINGELEMENTPROXY('0cQDL2oNHAQPUHItfiho3H',$,'Sofa2',$,$,#1898,#1893,$,$);
#1885=IFCCARTESIANPOINT((0.,0.));
#1886=IFCAXIS2PLACEMENT2D(#1885,$);
#1887=IFCRECTANGLEPROFILEDEF(.AREA.,$,#1886,1.6000000000000001,0.69999999999999996);
#1888=IFCCARTESIANPOINT((0.,0.,-0.34999999999999998));
#1889=IFCAXIS2PLACEMENT3D(#1888,$,$);
#1890=IFCDIRECTION((0.,0.,1.));
#1891=IFCEXTRUDEDAREASOLID(#1887,#1889,#1890,0.69999999999999996);
#1892=IFCSHAPEREPRESENTATION(#11,'Body','SweptSolid',(#1891));
#1893=IFCPRODUCTDEFINITIONSHAPE($,$,(#1892));
#1894=IFCCARTESIANPOINT((2.2999999999999998,-2.,0.34999999999999998));
#1895=IFCDIRECTION((0.,0.,1.));
#1896=IFCDIRECTION((1.,0.,0.));
#1897=IFCAXIS2PLACEMENT3D(#1894,#1895,#1896);
#1898=IFCLOCALPLACEMENT($,#1897);
#1899=IFCFURNITURE('04g3$EWfbBBurzV59YE5wT',$,'CoffeeTable',$,$,#1918,#1913,$,$);
#1905=IFCCARTESIANPOINT((0.,0.));
#1906=IFCAXIS2PLACEMENT2D(#1905,$);
#1907=IFCRECTANGLEPROFILEDEF(.AREA.,$,#1906,0.80000000000000004,0.5);
#1908=IFCCARTESIANPOINT((0.,0.,-0.029999999999999999));
#1909=IFCAXIS2PLACEMENT3D(#1908,$,$);
#1910=IFCDIRECTION((0.,0.,1.));
#1911=IFCEXTRUDEDAREASOLID(#1907,#1909,#1910,0.059999999999999998);
#1912=IFCSHAPEREPRESENTATION(#11,'Body','SweptSolid',(#1911));
#1913=IFCPRODUCTDEFINITIONSHAPE($,$,(#1912));
#1914=IFCCARTESIANPOINT((1.3999999999999999,-2.7999999999999998,0.25));
#1915=IFCDIRECTION((0.,0.,1.));
#1916=IFCDIRECTION((1.,0.,0.));
#1917=IFCAXIS2PLACEMENT3D(#1914,#1915,#1916);
#1918=IFCLOCALPLACEMENT($,#1917);
#1919=IFCBUILDINGELEMENTPROXY('1X7qMQoZf2BhNKRFBDsBvo',$,'Foosball',$,$,#1938,#1933,$,$);
#1925=IFCCARTESIANPOINT((0.,0.));
#1926=IFCAXIS2PLACEMENT2D(#1925,$);
#1927=IFCRECTANGLEPROFILEDEF(.AREA.,$,#1926,1.3999999999999999,0.69999999999999996);
#1928=IFCCARTESIANPOINT((0.,0.,-0.10000000000000001));
#1929=IFCAXIS2PLACEMENT3D(#1928,$,$);
#1930=IFCDIRECTION((0.,0.,1.));
#1931=IFCEXTRUDEDAREASOLID(#1927,#1929,#1930,0.20000000000000001);
#1932=IFCSHAPEREPRESENTATION(#11,'Body','SweptSolid',(#1931));
#1933=IFCPRODUCTDEFINITIONSHAPE($,$,(#1932));
#1934=IFCCARTESIANPOINT((1.3999999999999999,-0.80000000000000004,0.55000000000000004));
#1935=IFCDIRECTION((0.,0.,1.));
#1936=IFCDIRECTION((1.,0.,0.));
#1937=IFCAXIS2PLACEMENT3D(#1934,#1935,#1936);
#1938=IFCLOCALPLACEMENT($,#1937);
#1939=IFCBUILDINGELEMENTPROXY('0DTQIz_J923BrrdZ_Y7b3x',$,'Foosball_leg1',$,$,#1958,#1953,$,$);
#1945=IFCCARTESIANPOINT((0.,0.));
#1946=IFCAXIS2PLACEMENT2D(#1945,$);
#1947=IFCRECTANGLEPROFILEDEF(.AREA.,$,#1946,0.080000000000000002,0.080000000000000002);
#1948=IFCCARTESIANPOINT((0.,0.,-0.22500000000000001));
#1949=IFCAXIS2PLACEMENT3D(#1948,$,$);
#1950=IFCDIRECTION((0.,0.,1.));
#1951=IFCEXTRUDEDAREASOLID(#1947,#1949,#1950,0.45000000000000001);
#1952=IFCSHAPEREPRESENTATION(#11,'Body','SweptSolid',(#1951));
#1953=IFCPRODUCTDEFINITIONSHAPE($,$,(#1952));
#1954=IFCCARTESIANPOINT((0.80000000000000004,-0.80000000000000004,0.22500000000000001));
#1955=IFCDIRECTION((0.,0.,1.));
#1956=IFCDIRECTION((1.,0.,0.));
#1957=IFCAXIS2PLACEMENT3D(#1954,#1955,#1956);
#1958=IFCLOCALPLACEMENT($,#1957);
#1959=IFCBUILDINGELEMENTPROXY('1T82eDUtX7zOtUQ7gAYsO9',$,'Foosball_leg2',$,$,#1978,#1973,$,$);
#1965=IFCCARTESIANPOINT((0.,0.));
#1966=IFCAXIS2PLACEMENT2D(#1965,$);
#1967=IFCRECTANGLEPROFILEDEF(.AREA.,$,#1966,0.080000000000000002,0.080000000000000002);
#1968=IFCCARTESIANPOINT((0.,0.,-0.22500000000000001));
#1969=IFCAXIS2PLACEMENT3D(#1968,$,$);
#1970=IFCDIRECTION((0.,0.,1.));
#1971=IFCEXTRUDEDAREASOLID(#1967,#1969,#1970,0.45000000000000001);
#1972=IFCSHAPEREPRESENTATION(#11,'Body','SweptSolid',(#1971));
#1973=IFCPRODUCTDEFINITIONSHAPE($,$,(#1972));
#1974=IFCCARTESIANPOINT((2.,-0.80000000000000004,0.22500000000000001));
#1975=IFCDIRECTION((0.,0.,1.));
#1976=IFCDIRECTION((1.,0.,0.));
#1977=IFCAXIS2PLACEMENT3D(#1974,#1975,#1976);
#1978=IFCLOCALPLACEMENT($,#1977);
#1979=IFCBUILDINGELEMENTPROXY('1RjpfUqoz76fGIrWTkJcNu',$,'BeanBag1',$,$,#1998,#1993,$,$);
#1985=IFCCARTESIANPOINT((0.,0.));
#1986=IFCAXIS2PLACEMENT2D(#1985,$);
#1987=IFCRECTANGLEPROFILEDEF(.AREA.,$,#1986,0.59999999999999998,0.59999999999999998);
#1988=IFCCARTESIANPOINT((0.,0.,-0.29999999999999999));
#1989=IFCAXIS2PLACEMENT3D(#1988,$,$);
#1990=IFCDIRECTION((0.,0.,1.));
#1991=IFCEXTRUDEDAREASOLID(#1987,#1989,#1990,0.59999999999999998);
#1992=IFCSHAPEREPRESENTATION(#11,'Body','SweptSolid',(#1991));
#1993=IFCPRODUCTDEFINITIONSHAPE($,$,(#1992));
#1994=IFCCARTESIANPOINT((-0.29999999999999999,-2.7999999999999998,0.29999999999999999));
#1995=IFCDIRECTION((0.,0.,1.));
#1996=IFCDIRECTION((1.,0.,0.));
#1997=IFCAXIS2PLACEMENT3D(#1994,#1995,#1996);
#1998=IFCLOCALPLACEMENT($,#1997);
#1999=IFCBUILDINGELEMENTPROXY('0cl1Zo529BoAWeXZOoon6e',$,'BeanBag2',$,$,#2018,#2013,$,$);
#2005=IFCCARTESIANPOINT((0.,0.));
#2006=IFCAXIS2PLACEMENT2D(#2005,$);
#2007=IFCRECTANGLEPROFILEDEF(.AREA.,$,#2006,0.59999999999999998,0.59999999999999998);
#2008=IFCCARTESIANPOINT((0.,0.,-0.29999999999999999));
#2009=IFCAXIS2PLACEMENT3D(#2008,$,$);
#2010=IFCDIRECTION((0.,0.,1.));
#2011=IFCEXTRUDEDAREASOLID(#2007,#2009,#2010,0.59999999999999998);
#2012=IFCSHAPEREPRESENTATION(#11,'Body','SweptSolid',(#2011));
#2013=IFCPRODUCTDEFINITIONSHAPE($,$,(#2012));
#2014=IFCCARTESIANPOINT((2.8999999999999999,-2.5,0.29999999999999999));
#2015=IFCDIRECTION((0.,0.,1.));
#2016=IFCDIRECTION((1.,0.,0.));
#2017=IFCAXIS2PLACEMENT3D(#2014,#2015,#2016);
#2018=IFCLOCALPLACEMENT($,#2017);
#2019=IFCWALL('26$QUY7tzCWeaJARX3cyVy',$,'BathWall1',$,$,#2038,#2033,$,$);
#2025=IFCCARTESIANPOINT((0.,0.));
#2026=IFCAXIS2PLACEMENT2D(#2025,$);
#2027=IFCRECTANGLEPROFILEDEF(.AREA.,$,#2026,0.040000000000000001,1.6000000000000001);
#2028=IFCCARTESIANPOINT((0.,0.,-1.2));
#2029=IFCAXIS2PLACEMENT3D(#2028,$,$);
#2030=IFCDIRECTION((0.,0.,1.));
#2031=IFCEXTRUDEDAREASOLID(#2027,#2029,#2030,2.3999999999999999);
#2032=IFCSHAPEREPRESENTATION(#11,'Body','SweptSolid',(#2031));
#2033=IFCPRODUCTDEFINITIONSHAPE($,$,(#2032));
#2034=IFCCARTESIANPOINT((-5.,-0.5,1.2));
#2035=IFCDIRECTION((0.,0.,1.));
#2036=IFCDIRECTION((1.,0.,0.));
#2037=IFCAXIS2PLACEMENT3D(#2034,#2035,#2036);
#2038=IFCLOCALPLACEMENT($,#2037);
#2039=IFCWALL('1UDfr3e1D2Uh2CMBS9v2tb',$,'BathWall2',$,$,#2058,#2053,$,$);
#2045=IFCCARTESIANPOINT((0.,0.));
#2046=IFCAXIS2PLACEMENT2D(#2045,$);
#2047=IFCRECTANGLEPROFILEDEF(.AREA.,$,#2046,1.5,0.040000000000000001);
#2048=IFCCARTESIANPOINT((0.,0.,-1.2));
#2049=IFCAXIS2PLACEMENT3D(#2048,$,$);
#2050=IFCDIRECTION((0.,0.,1.));
#2051=IFCEXTRUDEDAREASOLID(#2047,#2049,#2050,2.3999999999999999);
#2052=IFCSHAPEREPRESENTATION(#11,'Body','SweptSolid',(#2051));
#2053=IFCPRODUCTDEFINITIONSHAPE($,$,(#2052));
#2054=IFCCARTESIANPOINT((-5.75,0.29999999999999999,1.2));
#2055=IFCDIRECTION((0.,0.,1.));
#2056=IFCDIRECTION((1.,0.,0.));
#2057=IFCAXIS2PLACEMENT3D(#2054,#2055,#2056);
#2058=IFCLOCALPLACEMENT($,#2057);
#2059=IFCBUILDINGELEMENTPROXY('1oamku44f3Sw6z6J2NPSDG',$,'Toilet',$,$,#2078,#2073,$,$);
#2065=IFCCARTESIANPOINT((0.,0.));
#2066=IFCAXIS2PLACEMENT2D(#2065,$);
#2067=IFCRECTANGLEPROFILEDEF(.AREA.,$,#2066,0.40000000000000002,0.40000000000000002);
#2068=IFCCARTESIANPOINT((0.,0.,-0.25));
#2069=IFCAXIS2PLACEMENT3D(#2068,$,$);
#2070=IFCDIRECTION((0.,0.,1.));
#2071=IFCEXTRUDEDAREASOLID(#2067,#2069,#2070,0.5);
#2072=IFCSHAPEREPRESENTATION(#11,'Body','SweptSolid',(#2071));
#2073=IFCPRODUCTDEFINITIONSHAPE($,$,(#2072));
#2074=IFCCARTESIANPOINT((-6.2000000000000002,-0.29999999999999999,0.25));
#2075=IFCDIRECTION((0.,0.,1.));
#2076=IFCDIRECTION((1.,0.,0.));
#2077=IFCAXIS2PLACEMENT3D(#2074,#2075,#2076);
#2078=IFCLOCALPLACEMENT($,#2077);
#2079=IFCBUILDINGELEMENTPROXY('3rPHTQQK5CcBG2EJRVqN6P',$,'BathSink',$,$,#2098,#2093,$,$);
#2085=IFCCARTESIANPOINT((0.,0.));
#2086=IFCAXIS2PLACEMENT2D(#2085,$);
#2087=IFCRECTANGLEPROFILEDEF(.AREA.,$,#2086,0.40000000000000002,0.29999999999999999);
#2088=IFCCARTESIANPOINT((0.,0.,-0.050000000000000003));
#2089=IFCAXIS2PLACEMENT3D(#2088,$,$);
#2090=IFCDIRECTION((0.,0.,1.));
#2091=IFCEXTRUDEDAREASOLID(#2087,#2089,#2090,0.10000000000000001);
#2092=IFCSHAPEREPRESENTATION(#11,'Body','SweptSolid',(#2091));
#2093=IFCPRODUCTDEFINITIONSHAPE($,$,(#2092));
#2094=IFCCARTESIANPOINT((-6.2000000000000002,0.10000000000000001,0.5));
#2095=IFCDIRECTION((0.,0.,1.));
#2096=IFCDIRECTION((1.,0.,0.));
#2097=IFCAXIS2PLACEMENT3D(#2094,#2095,#2096);
#2098=IFCLOCALPLACEMENT($,#2097);
#2099=IFCFURNITURE('3wxRYBC6nA588CmRnWoTX4',$,'PlantPot_0',$,$,#2118,#2113,$,$);
#2105=IFCCARTESIANPOINT((0.,0.));
#2106=IFCAXIS2PLACEMENT2D(#2105,$);
#2107=IFCRECTANGLEPROFILEDEF(.AREA.,$,#2106,0.5,0.5);
#2108=IFCCARTESIANPOINT((0.,0.,-0.29999999999999999));
#2109=IFCAXIS2PLACEMENT3D(#2108,$,$);
#2110=IFCDIRECTION((0.,0.,1.));
#2111=IFCEXTRUDEDAREASOLID(#2107,#2109,#2110,0.59999999999999998);
#2112=IFCSHAPEREPRESENTATION(#11,'Body','SweptSolid',(#2111));
#2113=IFCPRODUCTDEFINITIONSHAPE($,$,(#2112));
#2114=IFCCARTESIANPOINT((-6.,-2.5,0.29999999999999999));
#2115=IFCDIRECTION((0.,0.,1.));
#2116=IFCDIRECTION((1.,0.,0.));
#2117=IFCAXIS2PLACEMENT3D(#2114,#2115,#2116);
#2118=IFCLOCALPLACEMENT($,#2117);
#2119=IFCFURNITURE('1XAc9dcgr3$Ac0v06UiEns',$,'PlantFoliage_0',$,$,#2138,#2133,$,$);
#2125=IFCCARTESIANPOINT((0.,0.));
#2126=IFCAXIS2PLACEMENT2D(#2125,$);
#2127=IFCRECTANGLEPROFILEDEF(.AREA.,$,#2126,1.,1.);
#2128=IFCCARTESIANPOINT((0.,0.,-0.5));
#2129=IFCAXIS2PLACEMENT3D(#2128,$,$);
#2130=IFCDIRECTION((0.,0.,1.));
#2131=IFCEXTRUDEDAREASOLID(#2127,#2129,#2130,1.);
#2132=IFCSHAPEREPRESENTATION(#11,'Body','SweptSolid',(#2131));
#2133=IFCPRODUCTDEFINITIONSHAPE($,$,(#2132));
#2134=IFCCARTESIANPOINT((-6.,-2.5,1.));
#2135=IFCDIRECTION((0.,0.,1.));
#2136=IFCDIRECTION((1.,0.,0.));
#2137=IFCAXIS2PLACEMENT3D(#2134,#2135,#2136);
#2138=IFCLOCALPLACEMENT($,#2137);
#2139=IFCFURNITURE('3j0IXKeDP7oROoB$yeq2t6',$,'PlantPot_1',$,$,#2158,#2153,$,$);
#2145=IFCCARTESIANPOINT((0.,0.));
#2146=IFCAXIS2PLACEMENT2D(#2145,$);
#2147=IFCRECTANGLEPROFILEDEF(.AREA.,$,#2146,0.5,0.5);
#2148=IFCCARTESIANPOINT((0.,0.,-0.29999999999999999));
#2149=IFCAXIS2PLACEMENT3D(#2148,$,$);
#2150=IFCDIRECTION((0.,0.,1.));
#2151=IFCEXTRUDEDAREASOLID(#2147,#2149,#2150,0.59999999999999998);
#2152=IFCSHAPEREPRESENTATION(#11,'Body','SweptSolid',(#2151));
#2153=IFCPRODUCTDEFINITIONSHAPE($,$,(#2152));
#2154=IFCCARTESIANPOINT((-6.,2.5,0.29999999999999999));
#2155=IFCDIRECTION((0.,0.,1.));
#2156=IFCDIRECTION((1.,0.,0.));
#2157=IFCAXIS2PLACEMENT3D(#2154,#2155,#2156);
#2158=IFCLOCALPLACEMENT($,#2157);
#2159=IFCFURNITURE('0bTYtz9Tj0tADwY1NgO2yf',$,'PlantFoliage_1',$,$,#2178,#2173,$,$);
#2165=IFCCARTESIANPOINT((0.,0.));
#2166=IFCAXIS2PLACEMENT2D(#2165,$);
#2167=IFCRECTANGLEPROFILEDEF(.AREA.,$,#2166,1.,1.);
#2168=IFCCARTESIANPOINT((0.,0.,-0.5));
#2169=IFCAXIS2PLACEMENT3D(#2168,$,$);
#2170=IFCDIRECTION((0.,0.,1.));
#2171=IFCEXTRUDEDAREASOLID(#2167,#2169,#2170,1.);
#2172=IFCSHAPEREPRESENTATION(#11,'Body','SweptSolid',(#2171));
#2173=IFCPRODUCTDEFINITIONSHAPE($,$,(#2172));
#2174=IFCCARTESIANPOINT((-6.,2.5,1.));
#2175=IFCDIRECTION((0.,0.,1.));
#2176=IFCDIRECTION((1.,0.,0.));
#2177=IFCAXIS2PLACEMENT3D(#2174,#2175,#2176);
#2178=IFCLOCALPLACEMENT($,#2177);
#2179=IFCFURNITURE('1ijqe3YN19M8gLq9BHj_x2',$,'PlantPot_2',$,$,#2198,#2193,$,$);
#2185=IFCCARTESIANPOINT((0.,0.));
#2186=IFCAXIS2PLACEMENT2D(#2185,$);
#2187=IFCRECTANGLEPROFILEDEF(.AREA.,$,#2186,0.5,0.5);
#2188=IFCCARTESIANPOINT((0.,0.,-0.29999999999999999));
#2189=IFCAXIS2PLACEMENT3D(#2188,$,$);
#2190=IFCDIRECTION((0.,0.,1.));
#2191=IFCEXTRUDEDAREASOLID(#2187,#2189,#2190,0.59999999999999998);
#2192=IFCSHAPEREPRESENTATION(#11,'Body','SweptSolid',(#2191));
#2193=IFCPRODUCTDEFINITIONSHAPE($,$,(#2192));
#2194=IFCCARTESIANPOINT((6.,-2.5,0.29999999999999999));
#2195=IFCDIRECTION((0.,0.,1.));
#2196=IFCDIRECTION((1.,0.,0.));
#2197=IFCAXIS2PLACEMENT3D(#2194,#2195,#2196);
#2198=IFCLOCALPLACEMENT($,#2197);
#2199=IFCFURNITURE('3lf_UGNtLB_8vCHPRcG_Rf',$,'PlantFoliage_2',$,$,#2218,#2213,$,$);
#2205=IFCCARTESIANPOINT((0.,0.));
#2206=IFCAXIS2PLACEMENT2D(#2205,$);
#2207=IFCRECTANGLEPROFILEDEF(.AREA.,$,#2206,1.,1.);
#2208=IFCCARTESIANPOINT((0.,0.,-0.5));
#2209=IFCAXIS2PLACEMENT3D(#2208,$,$);
#2210=IFCDIRECTION((0.,0.,1.));
#2211=IFCEXTRUDEDAREASOLID(#2207,#2209,#2210,1.);
#2212=IFCSHAPEREPRESENTATION(#11,'Body','SweptSolid',(#2211));
#2213=IFCPRODUCTDEFINITIONSHAPE($,$,(#2212));
#2214=IFCCARTESIANPOINT((6.,-2.5,1.));
#2215=IFCDIRECTION((0.,0.,1.));
#2216=IFCDIRECTION((1.,0.,0.));
#2217=IFCAXIS2PLACEMENT3D(#2214,#2215,#2216);
#2218=IFCLOCALPLACEMENT($,#2217);
#2219=IFCFURNITURE('1eVWSK$3L1ZhzwYdhWe61B',$,'PlantPot_3',$,$,#2238,#2233,$,$);
#2225=IFCCARTESIANPOINT((0.,0.));
#2226=IFCAXIS2PLACEMENT2D(#2225,$);
#2227=IFCRECTANGLEPROFILEDEF(.AREA.,$,#2226,0.5,0.5);
#2228=IFCCARTESIANPOINT((0.,0.,-0.29999999999999999));
#2229=IFCAXIS2PLACEMENT3D(#2228,$,$);
#2230=IFCDIRECTION((0.,0.,1.));
#2231=IFCEXTRUDEDAREASOLID(#2227,#2229,#2230,0.59999999999999998);
#2232=IFCSHAPEREPRESENTATION(#11,'Body','SweptSolid',(#2231));
#2233=IFCPRODUCTDEFINITIONSHAPE($,$,(#2232));
#2234=IFCCARTESIANPOINT((0.,4.5,0.29999999999999999));
#2235=IFCDIRECTION((0.,0.,1.));
#2236=IFCDIRECTION((1.,0.,0.));
#2237=IFCAXIS2PLACEMENT3D(#2234,#2235,#2236);
#2238=IFCLOCALPLACEMENT($,#2237);
#2239=IFCFURNITURE('3R5HwqH5P5LghpHBlgjTUh',$,'PlantFoliage_3',$,$,#2258,#2253,$,$);
#2245=IFCCARTESIANPOINT((0.,0.));
#2246=IFCAXIS2PLACEMENT2D(#2245,$);
#2247=IFCRECTANGLEPROFILEDEF(.AREA.,$,#2246,1.,1.);
#2248=IFCCARTESIANPOINT((0.,0.,-0.5));
#2249=IFCAXIS2PLACEMENT3D(#2248,$,$);
#2250=IFCDIRECTION((0.,0.,1.));
#2251=IFCEXTRUDEDAREASOLID(#2247,#2249,#2250,1.);
#2252=IFCSHAPEREPRESENTATION(#11,'Body','SweptSolid',(#2251));
#2253=IFCPRODUCTDEFINITIONSHAPE($,$,(#2252));
#2254=IFCCARTESIANPOINT((0.,4.5,1.));
#2255=IFCDIRECTION((0.,0.,1.));
#2256=IFCDIRECTION((1.,0.,0.));
#2257=IFCAXIS2PLACEMENT3D(#2254,#2255,#2256);
#2258=IFCLOCALPLACEMENT($,#2257);
#2259=IFCFURNITURE('2xAtjxsnn5sOAE6ZinIGH$',$,'PlantPot_4',$,$,#2278,#2273,$,$);
#2265=IFCCARTESIANPOINT((0.,0.));
#2266=IFCAXIS2PLACEMENT2D(#2265,$);
#2267=IFCRECTANGLEPROFILEDEF(.AREA.,$,#2266,0.5,0.5);
#2268=IFCCARTESIANPOINT((0.,0.,-0.29999999999999999));
#2269=IFCAXIS2PLACEMENT3D(#2268,$,$);
#2270=IFCDIRECTION((0.,0.,1.));
#2271=IFCEXTRUDEDAREASOLID(#2267,#2269,#2270,0.59999999999999998);
#2272=IFCSHAPEREPRESENTATION(#11,'Body','SweptSolid',(#2271));
#2273=IFCPRODUCTDEFINITIONSHAPE($,$,(#2272));
#2274=IFCCARTESIANPOINT((-0.5,-4.,0.29999999999999999));
#2275=IFCDIRECTION((0.,0.,1.));
#2276=IFCDIRECTION((1.,0.,0.));
#2277=IFCAXIS2PLACEMENT3D(#2274,#2275,#2276);
#2278=IFCLOCALPLACEMENT($,#2277);
#2279=IFCFURNITURE('0C5DrU_7f8dOZRquHSrUJC',$,'PlantFoliage_4',$,$,#2298,#2293,$,$);
#2285=IFCCARTESIANPOINT((0.,0.));
#2286=IFCAXIS2PLACEMENT2D(#2285,$);
#2287=IFCRECTANGLEPROFILEDEF(.AREA.,$,#2286,1.,1.);
#2288=IFCCARTESIANPOINT((0.,0.,-0.5));
#2289=IFCAXIS2PLACEMENT3D(#2288,$,$);
#2290=IFCDIRECTION((0.,0.,1.));
#2291=IFCEXTRUDEDAREASOLID(#2287,#2289,#2290,1.);
#2292=IFCSHAPEREPRESENTATION(#11,'Body','SweptSolid',(#2291));
#2293=IFCPRODUCTDEFINITIONSHAPE($,$,(#2292));
#2294=IFCCARTESIANPOINT((-0.5,-4.,1.));
#2295=IFCDIRECTION((0.,0.,1.));
#2296=IFCDIRECTION((1.,0.,0.));
#2297=IFCAXIS2PLACEMENT3D(#2294,#2295,#2296);
#2298=IFCLOCALPLACEMENT($,#2297);
#2299=IFCBUILDINGELEMENTPROXY('2La$2YoVr0WBnepdfK4pcr',$,'CeilTrack1',$,$,#2318,#2313,$,$);
#2305=IFCCARTESIANPOINT((0.,0.));
#2306=IFCAXIS2PLACEMENT2D(#2305,$);
#2307=IFCRECTANGLEPROFILEDEF(.AREA.,$,#2306,6.,0.10000000000000001);
#2308=IFCCARTESIANPOINT((0.,0.,-0.02));
#2309=IFCAXIS2PLACEMENT3D(#2308,$,$);
#2310=IFCDIRECTION((0.,0.,1.));
#2311=IFCEXTRUDEDAREASOLID(#2307,#2309,#2310,0.040000000000000001);
#2312=IFCSHAPEREPRESENTATION(#11,'Body','SweptSolid',(#2311));
#2313=IFCPRODUCTDEFINITIONSHAPE($,$,(#2312));
#2314=IFCCARTESIANPOINT((-3.,0.20000000000000001,2.9500000000000002));
#2315=IFCDIRECTION((0.,0.,1.));
#2316=IFCDIRECTION((1.,0.,0.));
#2317=IFCAXIS2PLACEMENT3D(#2314,#2315,#2316);
#2318=IFCLOCALPLACEMENT($,#2317);
#2319=IFCBUILDINGELEMENTPROXY('3pzvVCUn9CM8dSNBlZISXn',$,'CeilTrack2',$,$,#2338,#2333,$,$);
#2325=IFCCARTESIANPOINT((0.,0.));
#2326=IFCAXIS2PLACEMENT2D(#2325,$);
#2327=IFCRECTANGLEPROFILEDEF(.AREA.,$,#2326,6.,0.10000000000000001);
#2328=IFCCARTESIANPOINT((0.,0.,-0.02));
#2329=IFCAXIS2PLACEMENT3D(#2328,$,$);
#2330=IFCDIRECTION((0.,0.,1.));
#2331=IFCEXTRUDEDAREASOLID(#2327,#2329,#2330,0.040000000000000001);
#2332=IFCSHAPEREPRESENTATION(#11,'Body','SweptSolid',(#2331));
#2333=IFCPRODUCTDEFINITIONSHAPE($,$,(#2332));
#2334=IFCCARTESIANPOINT((3.,0.20000000000000001,2.9500000000000002));
#2335=IFCDIRECTION((0.,0.,1.));
#2336=IFCDIRECTION((1.,0.,0.));
#2337=IFCAXIS2PLACEMENT3D(#2334,#2335,#2336);
#2338=IFCLOCALPLACEMENT($,#2337);
#2339=IFCBUILDINGELEMENTPROXY('1PyvrwlK98HQxiU$wyDnqc',$,'Pendant1',$,$,#2358,#2353,$,$);
#2345=IFCCARTESIANPOINT((0.,0.));
#2346=IFCAXIS2PLACEMENT2D(#2345,$);
#2347=IFCRECTANGLEPROFILEDEF(.AREA.,$,#2346,0.16,0.16);
#2348=IFCCARTESIANPOINT((0.,0.,-0.14999999999999999));
#2349=IFCAXIS2PLACEMENT3D(#2348,$,$);
#2350=IFCDIRECTION((0.,0.,1.));
#2351=IFCEXTRUDEDAREASOLID(#2347,#2349,#2350,0.29999999999999999);
#2352=IFCSHAPEREPRESENTATION(#11,'Body','SweptSolid',(#2351));
#2353=IFCPRODUCTDEFINITIONSHAPE($,$,(#2352));
#2354=IFCCARTESIANPOINT((1.3999999999999999,-2.,2.5));
#2355=IFCDIRECTION((0.,0.,1.));
#2356=IFCDIRECTION((1.,0.,0.));
#2357=IFCAXIS2PLACEMENT3D(#2354,#2355,#2356);
#2358=IFCLOCALPLACEMENT($,#2357);
#2359=IFCBUILDINGELEMENTPROXY('0i0pb12PTAnRjDEIvtnHLx',$,'Pendant2',$,$,#2378,#2373,$,$);
#2365=IFCCARTESIANPOINT((0.,0.));
#2366=IFCAXIS2PLACEMENT2D(#2365,$);
#2367=IFCRECTANGLEPROFILEDEF(.AREA.,$,#2366,0.20000000000000001,0.20000000000000001);
#2368=IFCCARTESIANPOINT((0.,0.,-0.14999999999999999));
#2369=IFCAXIS2PLACEMENT3D(#2368,$,$);
#2370=IFCDIRECTION((0.,0.,1.));
#2371=IFCEXTRUDEDAREASOLID(#2367,#2369,#2370,0.29999999999999999);
#2372=IFCSHAPEREPRESENTATION(#11,'Body','SweptSolid',(#2371));
#2373=IFCPRODUCTDEFINITIONSHAPE($,$,(#2372));
#2374=IFCCARTESIANPOINT((4.25,-3.,2.3999999999999999));
#2375=IFCDIRECTION((0.,0.,1.));
#2376=IFCDIRECTION((1.,0.,0.));
#2377=IFCAXIS2PLACEMENT3D(#2374,#2375,#2376);
#2378=IFCLOCALPLACEMENT($,#2377);
#2379=IFCPROPERTYSINGLEVALUE('IsExternal',$,IFCBOOLEAN(.T.),$);
#2380=IFCPROPERTYSINGLEVALUE('LoadBearing',$,IFCBOOLEAN(.F.),$);
#2381=IFCPROPERTYSINGLEVALUE('ThermalTransmittance',$,IFCREAL(1.8),$);
#2382=IFCPROPERTYSINGLEVALUE('FireRating',$,IFCLABEL('60min'),$);
#2383=IFCPROPERTYSET('2DOdKxypDFkA20HHZ842q_',$,'Pset_WallCommon',$,(#2379,#2380,#2381,#2382));
#2384=IFCRELDEFINESBYPROPERTIES('0iFDvIwyj4eQvn2iNyMcOQ',$,$,$,(#39),#2383);
#2385=IFCMATERIAL('Brick_Common',$,$);
#2386=IFCPROPERTYSINGLEVALUE('ThermalConductivity',$,IFCREAL(0.71999999999999997),$);
#2387=IFCPROPERTYSINGLEVALUE('SpecificHeatCapacity',$,IFCREAL(840.),$);
#2388=IFCPROPERTYSINGLEVALUE('MassDensity',$,IFCREAL(1920.),$);
#2389=IFCMATERIALPROPERTIES('Pset_MaterialThermal',$,(#2386,#2387,#2388),#2385);
#2390=IFCRELASSOCIATESMATERIAL('3qc8vE3BrE2hA5cTOPDYmg',$,$,$,(#39),#2385);
#2391=IFCQUANTITYLENGTH('Length',$,$,13.,$);
#2392=IFCQUANTITYLENGTH('Height',$,$,3.,$);
#2393=IFCQUANTITYAREA('GrossArea',$,$,39.,$);
#2394=IFCQUANTITYAREA('NetArea',$,$,35.100000000000001,$);
#2395=IFCQUANTITYVOLUME('GrossVolume',$,$,3.8999999999999999,$);
#2396=IFCELEMENTQUANTITY('28hRdz9wnDsuUZ$9nQK9ml',$,'Qto_WallBaseQuantities',$,$,(#2391,#2392,#2393,#2394,#2395));
#2397=IFCRELDEFINESBYPROPERTIES('1OjrBGKVT56BRGAllQNiia',$,$,$,(#39),#2396);
#2398=IFCPROPERTYSINGLEVALUE('IsExternal',$,IFCBOOLEAN(.T.),$);
#2399=IFCPROPERTYSINGLEVALUE('LoadBearing',$,IFCBOOLEAN(.F.),$);
#2400=IFCPROPERTYSINGLEVALUE('ThermalTransmittance',$,IFCREAL(1.8),$);
#2401=IFCPROPERTYSINGLEVALUE('FireRating',$,IFCLABEL('60min'),$);
#2402=IFCPROPERTYSET('0D_QDEyOrE$hISqgUvT5qs',$,'Pset_WallCommon',$,(#2398,#2399,#2400,#2401));
#2403=IFCRELDEFINESBYPROPERTIES('0BxBZy00r4ag84b0pkLirn',$,$,$,(#59),#2402);
#2404=IFCRELASSOCIATESMATERIAL('1zGUKsaXv1rwv1vBFTampL',$,$,$,(#59),#2385);
#2405=IFCQUANTITYLENGTH('Length',$,$,13.,$);
#2406=IFCQUANTITYLENGTH('Height',$,$,3.,$);
#2407=IFCQUANTITYAREA('GrossArea',$,$,39.,$);
#2408=IFCQUANTITYAREA('NetArea',$,$,35.100000000000001,$);
#2409=IFCQUANTITYVOLUME('GrossVolume',$,$,3.8999999999999999,$);
#2410=IFCELEMENTQUANTITY('2QNya2RZ1DQgiWv1KavqVc',$,'Qto_WallBaseQuantities',$,$,(#2405,#2406,#2407,#2408,#2409));
#2411=IFCRELDEFINESBYPROPERTIES('1QWX2m_Lz6exg$U58zEgup',$,$,$,(#59),#2410);
#2412=IFCPROPERTYSINGLEVALUE('IsExternal',$,IFCBOOLEAN(.T.),$);
#2413=IFCPROPERTYSINGLEVALUE('LoadBearing',$,IFCBOOLEAN(.F.),$);
#2414=IFCPROPERTYSINGLEVALUE('ThermalTransmittance',$,IFCREAL(1.8),$);
#2415=IFCPROPERTYSINGLEVALUE('FireRating',$,IFCLABEL('60min'),$);
#2416=IFCPROPERTYSET('1ORI5JC99A7uB5S2NYnoNq',$,'Pset_WallCommon',$,(#2412,#2413,#2414,#2415));
#2417=IFCRELDEFINESBYPROPERTIES('2CXifLX8f5DPOo0XmfY5Y0',$,$,$,(#79),#2416);
#2418=IFCRELASSOCIATESMATERIAL('2C2J1ePrL08QHJCpkG1ays',$,$,$,(#79),#2385);
#2419=IFCQUANTITYLENGTH('Length',$,$,10.,$);
#2420=IFCQUANTITYLENGTH('Height',$,$,3.,$);
#2421=IFCQUANTITYAREA('GrossArea',$,$,0.29999999999999999,$);
#2422=IFCQUANTITYAREA('NetArea',$,$,0.27000000000000002,$);
#2423=IFCQUANTITYVOLUME('GrossVolume',$,$,0.029999999999999999,$);
#2424=IFCELEMENTQUANTITY('3LtjVwwp9FI8vkO0ivgx9I',$,'Qto_WallBaseQuantities',$,$,(#2419,#2420,#2421,#2422,#2423));
#2425=IFCRELDEFINESBYPROPERTIES('1j3j9UsojEtOwWI4JYXUZv',$,$,$,(#79),#2424);
#2426=IFCPROPERTYSINGLEVALUE('IsExternal',$,IFCBOOLEAN(.T.),$);
#2427=IFCPROPERTYSINGLEVALUE('LoadBearing',$,IFCBOOLEAN(.F.),$);
#2428=IFCPROPERTYSINGLEVALUE('ThermalTransmittance',$,IFCREAL(1.8),$);
#2429=IFCPROPERTYSINGLEVALUE('FireRating',$,IFCLABEL('60min'),$);
#2430=IFCPROPERTYSET('2AaIyqarD6peuqJvpbNT8o',$,'Pset_WallCommon',$,(#2426,#2427,#2428,#2429));
#2431=IFCRELDEFINESBYPROPERTIES('3vUT1Dnar5qxUy0NPkGJvb',$,$,$,(#99),#2430);
#2432=IFCRELASSOCIATESMATERIAL('0oZI5DR3v4lgjBq_9xi7eG',$,$,$,(#99),#2385);
#2433=IFCQUANTITYLENGTH('Length',$,$,10.,$);
#2434=IFCQUANTITYLENGTH('Height',$,$,3.,$);
#2435=IFCQUANTITYAREA('GrossArea',$,$,0.29999999999999999,$);
#2436=IFCQUANTITYAREA('NetArea',$,$,0.27000000000000002,$);
#2437=IFCQUANTITYVOLUME('GrossVolume',$,$,0.029999999999999999,$);
#2438=IFCELEMENTQUANTITY('2VJ47ZahH4CPZR4NCmoT$C',$,'Qto_WallBaseQuantities',$,$,(#2433,#2434,#2435,#2436,#2437));
#2439=IFCRELDEFINESBYPROPERTIES('1kMaOfTaLDB8YCvEitwOgx',$,$,$,(#99),#2438);
#2440=IFCPROPERTYSINGLEVALUE('IsExternal',$,IFCBOOLEAN(.T.),$);
#2441=IFCPROPERTYSINGLEVALUE('LoadBearing',$,IFCBOOLEAN(.F.),$);
#2442=IFCPROPERTYSINGLEVALUE('ThermalTransmittance',$,IFCREAL(1.8),$);
#2443=IFCPROPERTYSINGLEVALUE('FireRating',$,IFCLABEL('60min'),$);
#2444=IFCPROPERTYSET('2MwJ484$HAIBvzV7Oj21jy',$,'Pset_WallCommon',$,(#2440,#2441,#2442,#2443));
#2445=IFCRELDEFINESBYPROPERTIES('3YFAs9gd1048W$J7N5yk_q',$,$,$,(#2019),#2444);
#2446=IFCRELASSOCIATESMATERIAL('094LxcsQjDHP_8kDPXaQRk',$,$,$,(#2019),#2385);
#2447=IFCQUANTITYLENGTH('Length',$,$,1.6000000000000001,$);
#2448=IFCQUANTITYLENGTH('Height',$,$,2.3999999999999999,$);
#2449=IFCQUANTITYAREA('GrossArea',$,$,0.096000000000000002,$);
#2450=IFCQUANTITYAREA('NetArea',$,$,0.085999999999999993,$);
#2451=IFCQUANTITYVOLUME('GrossVolume',$,$,0.0038,$);
#2452=IFCELEMENTQUANTITY('2Wbv13p751R9DG9nxsEumK',$,'Qto_WallBaseQuantities',$,$,(#2447,#2448,#2449,#2450,#2451));
#2453=IFCRELDEFINESBYPROPERTIES('1Qjk54INX9jBfOZb1eCJaf',$,$,$,(#2019),#2452);
#2454=IFCPROPERTYSINGLEVALUE('IsExternal',$,IFCBOOLEAN(.T.),$);
#2455=IFCPROPERTYSINGLEVALUE('LoadBearing',$,IFCBOOLEAN(.F.),$);
#2456=IFCPROPERTYSINGLEVALUE('ThermalTransmittance',$,IFCREAL(1.8),$);
#2457=IFCPROPERTYSINGLEVALUE('FireRating',$,IFCLABEL('60min'),$);
#2458=IFCPROPERTYSET('0up_BcllH1bxSlodz4x_UT',$,'Pset_WallCommon',$,(#2454,#2455,#2456,#2457));
#2459=IFCRELDEFINESBYPROPERTIES('02rOcA8bP9PfilOdOCjfIk',$,$,$,(#2039),#2458);
#2460=IFCRELASSOCIATESMATERIAL('3m7VecyGzETutWPmtJn_QD',$,$,$,(#2039),#2385);
#2461=IFCQUANTITYLENGTH('Length',$,$,1.5,$);
#2462=IFCQUANTITYLENGTH('Height',$,$,2.3999999999999999,$);
#2463=IFCQUANTITYAREA('GrossArea',$,$,3.6000000000000001,$);
#2464=IFCQUANTITYAREA('NetArea',$,$,3.2400000000000002,$);
#2465=IFCQUANTITYVOLUME('GrossVolume',$,$,0.14399999999999999,$);
#2466=IFCELEMENTQUANTITY('10d2qIJ3zDifPo2kAWOXV_',$,'Qto_WallBaseQuantities',$,$,(#2461,#2462,#2463,#2464,#2465));
#2467=IFCRELDEFINESBYPROPERTIES('3ZFc5BIvD4_gq84RbwV17_',$,$,$,(#2039),#2466);
#2468=IFCPROPERTYSINGLEVALUE('IsExternal',$,IFCBOOLEAN(.F.),$);
#2469=IFCPROPERTYSINGLEVALUE('LoadBearing',$,IFCBOOLEAN(.T.),$);
#2470=IFCPROPERTYSINGLEVALUE('ThermalTransmittance',$,IFCREAL(1.5),$);
#2471=IFCPROPERTYSET('1RIo9WUAX178121KrTzNS9',$,'Pset_SlabCommon',$,(#2468,#2469,#2470));
#2472=IFCRELDEFINESBYPROPERTIES('1mjLHMzdb1aACLJUplD5VH',$,$,$,(#18),#2471);
#2473=IFCMATERIAL('Concrete_C30',$,$);
#2474=IFCPROPERTYSINGLEVALUE('ThermalConductivity',$,IFCREAL(1.74),$);
#2475=IFCPROPERTYSINGLEVALUE('SpecificHeatCapacity',$,IFCREAL(920.),$);
#2476=IFCPROPERTYSINGLEVALUE('MassDensity',$,IFCREAL(2400.),$);
#2477=IFCMATERIALPROPERTIES('Pset_MaterialThermal',$,(#2474,#2475,#2476),#2473);
#2478=IFCRELASSOCIATESMATERIAL('2Dm8MFLnz2vxGuzI6FBSOo',$,$,$,(#18),#2473);
#2479=IFCQUANTITYAREA('GrossArea',$,$,130.,$);
#2480=IFCQUANTITYVOLUME('GrossVolume',$,$,19.5,$);
#2481=IFCELEMENTQUANTITY('24Rg$V_uHBmgWeijGWrssJ',$,'Qto_SlabBaseQuantities',$,$,(#2479,#2480));
#2482=IFCRELDEFINESBYPROPERTIES('0Zu$538ELDOv362Bpu0ZdZ',$,$,$,(#18),#2481);
#2483=IFCPROPERTYSINGLEVALUE('IsExternal',$,IFCBOOLEAN(.T.),$);
#2484=IFCPROPERTYSINGLEVALUE('LoadBearing',$,IFCBOOLEAN(.T.),$);
#2485=IFCPROPERTYSINGLEVALUE('ThermalTransmittance',$,IFCREAL(0.80000000000000004),$);
#2486=IFCPROPERTYSET('2EfNrYhYjCePcRnsFfzYVJ',$,'Pset_SlabCommon',$,(#2483,#2484,#2485));
#2487=IFCRELDEFINESBYPROPERTIES('201PijeGL6lQz3sOGC7pL3',$,$,$,(#119),#2486);
#2488=IFCRELASSOCIATESMATERIAL('3jAxGFkt1DOfA6zoTzQ0eE',$,$,$,(#119),#2473);
#2489=IFCQUANTITYAREA('GrossArea',$,$,130.,$);
#2490=IFCQUANTITYVOLUME('GrossVolume',$,$,19.5,$);
#2491=IFCELEMENTQUANTITY('0dVaER7MXFyxQyiVk6GnZB',$,'Qto_SlabBaseQuantities',$,$,(#2489,#2490));
#2492=IFCRELDEFINESBYPROPERTIES('2TgzdHi6fDPBQrQ2I2uFCd',$,$,$,(#119),#2491);
#2493=IFCPROPERTYSINGLEVALUE('IsExternal',$,IFCBOOLEAN(.F.),$);
#2494=IFCPROPERTYSINGLEVALUE('FireRating',$,IFCLABEL('30min'),$);
#2495=IFCPROPERTYSINGLEVALUE('ThermalTransmittance',$,IFCREAL(3.5),$);
#2496=IFCPROPERTYSET('1P0WqVaBz4yPZ_Vz4spCaA',$,'Pset_DoorCommon',$,(#2493,#2494,#2495));
#2497=IFCRELDEFINESBYPROPERTIES('2DjJsmTTv9rRcQw6A0A2WG',$,$,$,(#1099),#2496);
#2498=IFCMATERIAL('Wood_Door',$,$);
#2499=IFCPROPERTYSINGLEVALUE('ThermalConductivity',$,IFCREAL(0.14000000000000001),$);
#2500=IFCPROPERTYSINGLEVALUE('SpecificHeatCapacity',$,IFCREAL(1600.),$);
#2501=IFCPROPERTYSINGLEVALUE('MassDensity',$,IFCREAL(550.),$);
#2502=IFCMATERIALPROPERTIES('Pset_MaterialThermal',$,(#2499,#2500,#2501),#2498);
#2503=IFCRELASSOCIATESMATERIAL('1hO26xrD9279DPyhcIAYSs',$,$,$,(#1099),#2498);
#2504=IFCPROPERTYSINGLEVALUE('IsExternal',$,IFCBOOLEAN(.F.),$);
#2505=IFCPROPERTYSINGLEVALUE('FireRating',$,IFCLABEL('30min'),$);
#2506=IFCPROPERTYSINGLEVALUE('ThermalTransmittance',$,IFCREAL(3.5),$);
#2507=IFCPROPERTYSET('0DjaF0rU5FteFcEwnv6Tkb',$,'Pset_DoorCommon',$,(#2504,#2505,#2506));
#2508=IFCRELDEFINESBYPROPERTIES('0OI5GixmDAputBYfYl65dL',$,$,$,(#1339),#2507);
#2509=IFCRELASSOCIATESMATERIAL('0xsJ64tj5AkxK7hwWWq5K9',$,$,$,(#1339),#2498);
#2510=IFCPROPERTYSINGLEVALUE('IsExternal',$,IFCBOOLEAN(.F.),$);
#2511=IFCPROPERTYSINGLEVALUE('FireRating',$,IFCLABEL('30min'),$);
#2512=IFCPROPERTYSINGLEVALUE('ThermalTransmittance',$,IFCREAL(3.5),$);
#2513=IFCPROPERTYSET('2qCshWQXv8Rek_006SMhmt',$,'Pset_DoorCommon',$,(#2510,#2511,#2512));
#2514=IFCRELDEFINESBYPROPERTIES('2fW8LCOVn2ePMCLHC9LxnQ',$,$,$,(#1639),#2513);
#2515=IFCRELASSOCIATESMATERIAL('265SqtnRTD78ogJQNc9rrC',$,$,$,(#1639),#2498);
#2516=IFCPROPERTYSINGLEVALUE('IsExternal',$,IFCBOOLEAN(.F.),$);
#2517=IFCPROPERTYSINGLEVALUE('FireRating',$,IFCLABEL('30min'),$);
#2518=IFCPROPERTYSINGLEVALUE('ThermalTransmittance',$,IFCREAL(3.5),$);
#2519=IFCPROPERTYSET('1QAq8qc5bCDRXicZ6erHpO',$,'Pset_DoorCommon',$,(#2516,#2517,#2518));
#2520=IFCRELDEFINESBYPROPERTIES('3CMQW7WN1AJRgUdV5052kO',$,$,$,(#1699),#2519);
#2521=IFCRELASSOCIATESMATERIAL('39$n8QHhzEpRSEaI3mVp$U',$,$,$,(#1699),#2498);
#2522=IFCSPACE('2Bh6Py_m57v9BIZA9wmXVN',$,'Room_Ground Floor',$,$,$,$,'Main space \X2\2014\X0\ Ground Floor',$,$,$);
#2523=IFCRELCONTAINEDINSPATIALSTRUCTURE('3ycTiHSo9218F7EqFB_FG7',$,$,$,(#2522),#14);
#2524=IFCPROPERTYSINGLEVALUE('IsExternal',$,IFCBOOLEAN(.F.),$);
#2525=IFCPROPERTYSINGLEVALUE('GrossPlannedArea',$,IFCREAL(132.31),$);
#2526=IFCPROPERTYSINGLEVALUE('NetPlannedArea',$,IFCREAL(112.45999999999999),$);
#2527=IFCPROPERTYSET('3rI_I$ixzFjfjEEPfGtZf1',$,'Pset_SpaceCommon',$,(#2524,#2525,#2526));
#2528=IFCRELDEFINESBYPROPERTIES('0i_00jID909AL9DvH$JUmQ',$,$,$,(#2522),#2527);
ENDSEC;
END-ISO-10303-21;
