<svg xmlns="http://www.w3.org/2000/svg" width="560" height="540" viewBox="0 0 560 540" font-family="Noto Sans SC, sans-serif"><rect width="560" height="540" fill="#F5F1E8"/><rect x="40" y="40" width="480.0" height="400.0" fill="#FAF6ED" stroke="#5D4037" stroke-width="3"/><rect x="72.0" y="104.0" width="256.0" height="144.0" fill="#D7C4A8" opacity="0.35" stroke="#8A7A5C" stroke-dasharray="4,3"/><text x="200.0" y="176.0" fill="#3E2C26" font-size="14" text-anchor="middle">办公区 · 8㎡</text><rect x="272.0" y="256.0" width="208.0" height="160.0" fill="#D7C4A8" opacity="0.35" stroke="#8A7A5C" stroke-dasharray="4,3"/><text x="376.0" y="336.0" fill="#3E2C26" font-size="14" text-anchor="middle">接待区 · 6㎡</text><rect x="56.0" y="104.0" width="32.0" height="240.0" fill="#D7C4A8" opacity="0.35" stroke="#8A7A5C" stroke-dasharray="4,3"/><text x="72.0" y="224.0" fill="#3E2C26" font-size="14" text-anchor="middle">书柜墙 · 3㎡</text><rect x="152.0" y="96.0" width="176.0" height="80.0" fill="#8A7A5C" opacity="0.7" stroke="#3E2C26"/><text x="240.0" y="140.0" fill="#F5F1E8" font-size="10" text-anchor="middle">大班办公桌</text><rect x="216.0" y="60.0" width="48.0" height="48.0" fill="#8A7A5C" opacity="0.7" stroke="#3E2C26"/><text x="240.0" y="88.0" fill="#F5F1E8" font-size="10" text-anchor="middle">校长椅</text><rect x="164.8" y="180.8" width="38.4" height="38.4" fill="#8A7A5C" opacity="0.7" stroke="#3E2C26"/><text x="184.0" y="204.0" fill="#F5F1E8" font-size="10" text-anchor="middle">客椅 · 左</text><rect x="276.8" y="180.8" width="38.4" height="38.4" fill="#8A7A5C" opacity="0.7" stroke="#3E2C26"/><text x="296.0" y="204.0" fill="#F5F1E8" font-size="10" text-anchor="middle">客椅 · 右</text><rect x="48.0" y="60.0" width="24.0" height="280.0" fill="#8A7A5C" opacity="0.7" stroke="#3E2C26"/><text x="60.0" y="204.0" fill="#F5F1E8" font-size="10" text-anchor="middle">整面浅木格架</text><rect x="476.0" y="48.0" width="40.0" height="96.0" fill="#8A7A5C" opacity="0.7" stroke="#3E2C26"/><text x="496.0" y="100.0" fill="#F5F1E8" font-size="10" text-anchor="middle">矮立柜</text><rect x="312.0" y="335.2" width="176.0" height="73.60000000000001" fill="#8A7A5C" opacity="0.7" stroke="#3E2C26"/><text x="400.0" y="376.0" fill="#F5F1E8" font-size="10" text-anchor="middle">三人沙发</text><rect x="354.0" y="258.0" width="92.0" height="52.0" fill="#8A7A5C" opacity="0.7" stroke="#3E2C26"/><text x="400.0" y="288.0" fill="#F5F1E8" font-size="10" text-anchor="middle">原木茶几</text><rect x="469.6" y="377.6" width="28.799999999999997" height="28.799999999999997" fill="#8A7A5C" opacity="0.7" stroke="#3E2C26"/><text x="484.0" y="396.0" fill="#F5F1E8" font-size="10" text-anchor="middle">和纸落地灯</text><rect x="224.0" y="128.0" width="32.0" height="32.0" fill="#8A7A5C" opacity="0.7" stroke="#3E2C26"/><text x="240.0" y="148.0" fill="#F5F1E8" font-size="10" text-anchor="middle">哑光黑铁吊灯</text><rect x="304.0" y="248.0" width="192.0" height="160.0" fill="#8A7A5C" opacity="0.7" stroke="#3E2C26"/><text x="400.0" y="332.0" fill="#F5F1E8" font-size="10" text-anchor="middle">榻榻米地毯</text><text x="40" y="30" fill="#3E2C26" font-size="16" font-weight="700">校长办公室 · 日式禅风 · 平面图</text><text x="520" y="30" fill="#3E2C26" font-size="12" text-anchor="end">比例 1:50 · 6.0m × 5.0m · 30㎡</text><line x1="40" y1="510" x2="120" y2="510" stroke="#3E2C26" stroke-width="2"/><text x="80.0" y="504" fill="#3E2C26" font-size="10" text-anchor="middle">1m</text></svg>