ISO-10303-21;
HEADER;
FILE_DESCRIPTION(('ViewDefinition[DesignTransferView]'),'2;1');
FILE_NAME('/dev/null','2026-04-15T09:48:20+08:00',(''),(''),'IfcOpenShell 0.8.5','IfcOpenShell 0.8.5','Nobody');
FILE_SCHEMA(('IFC4'));
ENDSEC;
DATA;
#1=IFCPROJECT('0lcTUVj5H36uCNpheKp310',$,'LiftStudio',$,$,$,$,(#10),#5);
#2=IFCSIUNIT(*,.LENGTHUNIT.,$,.METRE.);
#3=IFCSIUNIT(*,.AREAUNIT.,$,.SQUARE_METRE.);
#4=IFCSIUNIT(*,.VOLUMEUNIT.,$,.CUBIC_METRE.);
#5=IFCUNITASSIGNMENT((#3,#4,#2));
#6=IFCCARTESIANPOINT((0.,0.,0.));
#7=IFCDIRECTION((0.,0.,1.));
#8=IFCDIRECTION((1.,0.,0.));
#9=IFCAXIS2PLACEMENT3D(#6,#7,#8);
#10=IFCGEOMETRICREPRESENTATIONCONTEXT($,'Model',3,1.0000000000000001E-05,#9,$);
#11=IFCGEOMETRICREPRESENTATIONSUBCONTEXT('Body','Model',*,*,*,*,#10,$,.MODEL_VIEW.,$);
#12=IFCSITE('2TYPLHQQf5fRa8MMff9yU7',$,'Site',$,$,$,$,$,$,$,$,$,$,$);
#13=IFCBUILDING('2k$VB5J_15VOPesCqKpLsI',$,'Building',$,$,$,$,$,$,$,$,$);
#14=IFCBUILDINGSTOREY('2wtad$9pDB1f0Z3KdptbfD',$,'Ground Floor',$,$,$,$,$,$,$);
#15=IFCRELAGGREGATES('27RY57jSr2U8TJiDpVO7Ws',$,$,$,#1,(#12));
#16=IFCRELAGGREGATES('1hjnaUdzPE1Qql4fgO5OM3',$,$,$,#12,(#13));
#17=IFCRELAGGREGATES('04dWi84pD6oP6Smn8D0XoA',$,$,$,#13,(#14));
#18=IFCSLAB('1rcekS8QbBNvEjwgPXLcXp',$,'FloorMain',$,$,#38,#32,$,.FLOOR.);
#24=IFCCARTESIANPOINT((0.,0.));
#25=IFCAXIS2PLACEMENT2D(#24,$);
#26=IFCRECTANGLEPROFILEDEF(.AREA.,$,#25,20.,20.);
#27=IFCCARTESIANPOINT((0.,0.,-0.10000000000000001));
#28=IFCAXIS2PLACEMENT3D(#27,$,$);
#29=IFCDIRECTION((0.,0.,1.));
#30=IFCEXTRUDEDAREASOLID(#26,#28,#29,0.20000000000000001);
#31=IFCSHAPEREPRESENTATION(#11,'Body','SweptSolid',(#30));
#32=IFCPRODUCTDEFINITIONSHAPE($,$,(#31));
#33=IFCRELCONTAINEDINSPATIALSTRUCTURE('1eUt8Kf6r2DBeF9LuOyyGX',$,$,$,(#399,#619,#1579,#1319,#179,#1779,#1079,#639,#1539,#1279,#139,#839,#1739,#599,#799,#819,#1719,#1019,#779,#1239,#99,#979,#299,#1219,#1419,#279,#719,#1179,#479,#1379,#239,#939,#1399,#1599,#459,#919,#1359,#679,#1119,#1559,#419,#879,#1799,#859,#1299,#159,#1759,#1059,#1519,#379,#18,#119,#579,#1479,#339,#659,#1039,#1499,#359,#1259,#1699,#999,#559,#1459,#319,#759,#1659,#79,#519,#39,#1679,#539,#1439,#739,#1639,#499,#1199,#59,#959,#699,#259,#1159,#219,#1619,#1139,#439,#899,#1339,#199,#1099),#14);
#34=IFCCARTESIANPOINT((0.,0.,0.));
#35=IFCDIRECTION((0.,0.,1.));
#36=IFCDIRECTION((1.,0.,0.));
#37=IFCAXIS2PLACEMENT3D(#34,#35,#36);
#38=IFCLOCALPLACEMENT($,#37);
#39=IFCSLAB('3nUTXA__DBrhuygomuDN8Z',$,'FloorYoga',$,$,#58,#53,$,.FLOOR.);
#45=IFCCARTESIANPOINT((0.,0.));
#46=IFCAXIS2PLACEMENT2D(#45,$);
#47=IFCRECTANGLEPROFILEDEF(.AREA.,$,#46,10.,10.);
#48=IFCCARTESIANPOINT((0.,0.,-0.050000000000000003));
#49=IFCAXIS2PLACEMENT3D(#48,$,$);
#50=IFCDIRECTION((0.,0.,1.));
#51=IFCEXTRUDEDAREASOLID(#47,#49,#50,0.10000000000000001);
#52=IFCSHAPEREPRESENTATION(#11,'Body','SweptSolid',(#51));
#53=IFCPRODUCTDEFINITIONSHAPE($,$,(#52));
#54=IFCCARTESIANPOINT((-2.5,-2.5,0.050000000000000003));
#55=IFCDIRECTION((0.,0.,1.));
#56=IFCDIRECTION((1.,0.,0.));
#57=IFCAXIS2PLACEMENT3D(#54,#55,#56);
#58=IFCLOCALPLACEMENT($,#57);
#59=IFCSLAB('33LvdjSATAdv$1dHoopaSn',$,'Ceiling',$,$,#78,#73,$,.ROOF.);
#65=IFCCARTESIANPOINT((0.,0.));
#66=IFCAXIS2PLACEMENT2D(#65,$);
#67=IFCRECTANGLEPROFILEDEF(.AREA.,$,#66,20.,20.);
#68=IFCCARTESIANPOINT((0.,0.,-0.10000000000000001));
#69=IFCAXIS2PLACEMENT3D(#68,$,$);
#70=IFCDIRECTION((0.,0.,1.));
#71=IFCEXTRUDEDAREASOLID(#67,#69,#70,0.20000000000000001);
#72=IFCSHAPEREPRESENTATION(#11,'Body','SweptSolid',(#71));
#73=IFCPRODUCTDEFINITIONSHAPE($,$,(#72));
#74=IFCCARTESIANPOINT((0.,0.,3.5));
#75=IFCDIRECTION((0.,0.,1.));
#76=IFCDIRECTION((1.,0.,0.));
#77=IFCAXIS2PLACEMENT3D(#74,#75,#76);
#78=IFCLOCALPLACEMENT($,#77);
#79=IFCWALL('0kG_rucs5FZO3z9mM3JQIe',$,'WallNorth',$,$,#98,#93,$,$);
#85=IFCCARTESIANPOINT((0.,0.));
#86=IFCAXIS2PLACEMENT2D(#85,$);
#87=IFCRECTANGLEPROFILEDEF(.AREA.,$,#86,20.,0.29999999999999999);
#88=IFCCARTESIANPOINT((0.,0.,-3.5));
#89=IFCAXIS2PLACEMENT3D(#88,$,$);
#90=IFCDIRECTION((0.,0.,1.));
#91=IFCEXTRUDEDAREASOLID(#87,#89,#90,7.);
#92=IFCSHAPEREPRESENTATION(#11,'Body','SweptSolid',(#91));
#93=IFCPRODUCTDEFINITIONSHAPE($,$,(#92));
#94=IFCCARTESIANPOINT((0.,5.,1.75));
#95=IFCDIRECTION((0.,0.,1.));
#96=IFCDIRECTION((1.,0.,0.));
#97=IFCAXIS2PLACEMENT3D(#94,#95,#96);
#98=IFCLOCALPLACEMENT($,#97);
#99=IFCWALL('2o1d1Bdvb6VfjIUPlZeeyv',$,'WallSouth',$,$,#118,#113,$,$);
#105=IFCCARTESIANPOINT((0.,0.));
#106=IFCAXIS2PLACEMENT2D(#105,$);
#107=IFCRECTANGLEPROFILEDEF(.AREA.,$,#106,20.,0.29999999999999999);
#108=IFCCARTESIANPOINT((0.,0.,-3.5));
#109=IFCAXIS2PLACEMENT3D(#108,$,$);
#110=IFCDIRECTION((0.,0.,1.));
#111=IFCEXTRUDEDAREASOLID(#107,#109,#110,7.);
#112=IFCSHAPEREPRESENTATION(#11,'Body','SweptSolid',(#111));
#113=IFCPRODUCTDEFINITIONSHAPE($,$,(#112));
#114=IFCCARTESIANPOINT((0.,-5.,1.75));
#115=IFCDIRECTION((0.,0.,1.));
#116=IFCDIRECTION((1.,0.,0.));
#117=IFCAXIS2PLACEMENT3D(#114,#115,#116);
#118=IFCLOCALPLACEMENT($,#117);
#119=IFCWALL('0KSDf722fB$vbM2FOB6rmO',$,'WallEastMirror',$,$,#138,#133,$,$);
#125=IFCCARTESIANPOINT((0.,0.));
#126=IFCAXIS2PLACEMENT2D(#125,$);
#127=IFCRECTANGLEPROFILEDEF(.AREA.,$,#126,0.20000000000000001,20.);
#128=IFCCARTESIANPOINT((0.,0.,-3.5));
#129=IFCAXIS2PLACEMENT3D(#128,$,$);
#130=IFCDIRECTION((0.,0.,1.));
#131=IFCEXTRUDEDAREASOLID(#127,#129,#130,7.);
#132=IFCSHAPEREPRESENTATION(#11,'Body','SweptSolid',(#131));
#133=IFCPRODUCTDEFINITIONSHAPE($,$,(#132));
#134=IFCCARTESIANPOINT((5.,0.,1.75));
#135=IFCDIRECTION((0.,0.,1.));
#136=IFCDIRECTION((1.,0.,0.));
#137=IFCAXIS2PLACEMENT3D(#134,#135,#136);
#138=IFCLOCALPLACEMENT($,#137);
#139=IFCWALL('0tQVcy4wv4zgCA9qSLSxm5',$,'WallWest',$,$,#158,#153,$,$);
#145=IFCCARTESIANPOINT((0.,0.));
#146=IFCAXIS2PLACEMENT2D(#145,$);
#147=IFCRECTANGLEPROFILEDEF(.AREA.,$,#146,0.29999999999999999,20.);
#148=IFCCARTESIANPOINT((0.,0.,-3.5));
#149=IFCAXIS2PLACEMENT3D(#148,$,$);
#150=IFCDIRECTION((0.,0.,1.));
#151=IFCEXTRUDEDAREASOLID(#147,#149,#150,7.);
#152=IFCSHAPEREPRESENTATION(#11,'Body','SweptSolid',(#151));
#153=IFCPRODUCTDEFINITIONSHAPE($,$,(#152));
#154=IFCCARTESIANPOINT((-5.,0.,1.75));
#155=IFCDIRECTION((0.,0.,1.));
#156=IFCDIRECTION((1.,0.,0.));
#157=IFCAXIS2PLACEMENT3D(#154,#155,#156);
#158=IFCLOCALPLACEMENT($,#157);
#159=IFCBUILDINGELEMENTPROXY('3z_Axhzwf4Px_yTyTmCapQ',$,'MirrorPanel',$,$,#178,#173,$,$);
#165=IFCCARTESIANPOINT((0.,0.));
#166=IFCAXIS2PLACEMENT2D(#165,$);
#167=IFCRECTANGLEPROFILEDEF(.AREA.,$,#166,0.080000000000000002,19.199999999999999);
#168=IFCCARTESIANPOINT((0.,0.,-3.2000000000000002));
#169=IFCAXIS2PLACEMENT3D(#168,$,$);
#170=IFCDIRECTION((0.,0.,1.));
#171=IFCEXTRUDEDAREASOLID(#167,#169,#170,6.4000000000000004);
#172=IFCSHAPEREPRESENTATION(#11,'Body','SweptSolid',(#171));
#173=IFCPRODUCTDEFINITIONSHAPE($,$,(#172));
#174=IFCCARTESIANPOINT((4.9199999999999999,0.,1.75));
#175=IFCDIRECTION((0.,0.,1.));
#176=IFCDIRECTION((1.,0.,0.));
#177=IFCAXIS2PLACEMENT3D(#174,#175,#176);
#178=IFCLOCALPLACEMENT($,#177);
#179=IFCFURNITURE('1jwJObbyb6HuKHAoqSVNMW',$,'ReceptionDesk',$,$,#198,#193,$,$);
#185=IFCCARTESIANPOINT((0.,0.));
#186=IFCAXIS2PLACEMENT2D(#185,$);
#187=IFCRECTANGLEPROFILEDEF(.AREA.,$,#186,3.6000000000000001,1.3999999999999999);
#188=IFCCARTESIANPOINT((0.,0.,-1.1000000000000001));
#189=IFCAXIS2PLACEMENT3D(#188,$,$);
#190=IFCDIRECTION((0.,0.,1.));
#191=IFCEXTRUDEDAREASOLID(#187,#189,#190,2.2000000000000002);
#192=IFCSHAPEREPRESENTATION(#11,'Body','SweptSolid',(#191));
#193=IFCPRODUCTDEFINITIONSHAPE($,$,(#192));
#194=IFCCARTESIANPOINT((-3.5,-4.2000000000000002,0.55000000000000004));
#195=IFCDIRECTION((0.,0.,1.));
#196=IFCDIRECTION((1.,0.,0.));
#197=IFCAXIS2PLACEMENT3D(#194,#195,#196);
#198=IFCLOCALPLACEMENT($,#197);
#199=IFCBUILDINGELEMENTPROXY('3I2MkEPRj5SfWxMAaYdapR',$,'ReceptionStool',$,$,#218,#213,$,$);
#205=IFCCARTESIANPOINT((0.,0.));
#206=IFCAXIS2PLACEMENT2D(#205,$);
#207=IFCRECTANGLEPROFILEDEF(.AREA.,$,#206,0.59999999999999998,0.59999999999999998);
#208=IFCCARTESIANPOINT((0.,0.,-0.90000000000000002));
#209=IFCAXIS2PLACEMENT3D(#208,$,$);
#210=IFCDIRECTION((0.,0.,1.));
#211=IFCEXTRUDEDAREASOLID(#207,#209,#210,1.8);
#212=IFCSHAPEREPRESENTATION(#11,'Body','SweptSolid',(#211));
#213=IFCPRODUCTDEFINITIONSHAPE($,$,(#212));
#214=IFCCARTESIANPOINT((-3.5,-3.7000000000000002,0.45000000000000001));
#215=IFCDIRECTION((0.,0.,1.));
#216=IFCDIRECTION((1.,0.,0.));
#217=IFCAXIS2PLACEMENT3D(#214,#215,#216);
#218=IFCLOCALPLACEMENT($,#217);
#219=IFCFURNITURE('1Yo6UQk_z7HxY8dFNZXaRM',$,'WaitChair1',$,$,#238,#233,$,$);
#225=IFCCARTESIANPOINT((0.,0.));
#226=IFCAXIS2PLACEMENT2D(#225,$);
#227=IFCRECTANGLEPROFILEDEF(.AREA.,$,#226,1.1000000000000001,1.1000000000000001);
#228=IFCCARTESIANPOINT((0.,0.,-0.90000000000000002));
#229=IFCAXIS2PLACEMENT3D(#228,$,$);
#230=IFCDIRECTION((0.,0.,1.));
#231=IFCEXTRUDEDAREASOLID(#227,#229,#230,1.8);
#232=IFCSHAPEREPRESENTATION(#11,'Body','SweptSolid',(#231));
#233=IFCPRODUCTDEFINITIONSHAPE($,$,(#232));
#234=IFCCARTESIANPOINT((-2.,-4.5,0.45000000000000001));
#235=IFCDIRECTION((0.,0.,1.));
#236=IFCDIRECTION((1.,0.,0.));
#237=IFCAXIS2PLACEMENT3D(#234,#235,#236);
#238=IFCLOCALPLACEMENT($,#237);
#239=IFCFURNITURE('1xk_KQKV9Dk8rXpOCUyBbV',$,'WaitChair2',$,$,#258,#253,$,$);
#245=IFCCARTESIANPOINT((0.,0.));
#246=IFCAXIS2PLACEMENT2D(#245,$);
#247=IFCRECTANGLEPROFILEDEF(.AREA.,$,#246,1.1000000000000001,1.1000000000000001);
#248=IFCCARTESIANPOINT((0.,0.,-0.90000000000000002));
#249=IFCAXIS2PLACEMENT3D(#248,$,$);
#250=IFCDIRECTION((0.,0.,1.));
#251=IFCEXTRUDEDAREASOLID(#247,#249,#250,1.8);
#252=IFCSHAPEREPRESENTATION(#11,'Body','SweptSolid',(#251));
#253=IFCPRODUCTDEFINITIONSHAPE($,$,(#252));
#254=IFCCARTESIANPOINT((-1.2,-4.5,0.45000000000000001));
#255=IFCDIRECTION((0.,0.,1.));
#256=IFCDIRECTION((1.,0.,0.));
#257=IFCAXIS2PLACEMENT3D(#254,#255,#256);
#258=IFCLOCALPLACEMENT($,#257);
#259=IFCBUILDINGELEMENTPROXY('10J56GvPn4mvS4atx1_Ckh',$,'LogoPanel',$,$,#278,#273,$,$);
#265=IFCCARTESIANPOINT((0.,0.));
#266=IFCAXIS2PLACEMENT2D(#265,$);
#267=IFCRECTANGLEPROFILEDEF(.AREA.,$,#266,4.4000000000000004,0.10000000000000001);
#268=IFCCARTESIANPOINT((0.,0.,-1.2));
#269=IFCAXIS2PLACEMENT3D(#268,$,$);
#270=IFCDIRECTION((0.,0.,1.));
#271=IFCEXTRUDEDAREASOLID(#267,#269,#270,2.3999999999999999);
#272=IFCSHAPEREPRESENTATION(#11,'Body','SweptSolid',(#271));
#273=IFCPRODUCTDEFINITIONSHAPE($,$,(#272));
#274=IFCCARTESIANPOINT((-3.5,-4.9199999999999999,2.));
#275=IFCDIRECTION((0.,0.,1.));
#276=IFCDIRECTION((1.,0.,0.));
#277=IFCAXIS2PLACEMENT3D(#274,#275,#276);
#278=IFCLOCALPLACEMENT($,#277);
#279=IFCBUILDINGELEMENTPROXY('22YAgMC_v59BaHlQ4efyeo',$,'Locker0',$,$,#298,#293,$,$);
#285=IFCCARTESIANPOINT((0.,0.));
#286=IFCAXIS2PLACEMENT2D(#285,$);
#287=IFCRECTANGLEPROFILEDEF(.AREA.,$,#286,0.90000000000000002,0.80000000000000004);
#288=IFCCARTESIANPOINT((0.,0.,-2.));
#289=IFCAXIS2PLACEMENT3D(#288,$,$);
#290=IFCDIRECTION((0.,0.,1.));
#291=IFCEXTRUDEDAREASOLID(#287,#289,#290,4.);
#292=IFCSHAPEREPRESENTATION(#11,'Body','SweptSolid',(#291));
#293=IFCPRODUCTDEFINITIONSHAPE($,$,(#292));
#294=IFCCARTESIANPOINT((-4.5999999999999996,-2.25,1.));
#295=IFCDIRECTION((0.,0.,1.));
#296=IFCDIRECTION((1.,0.,0.));
#297=IFCAXIS2PLACEMENT3D(#294,#295,#296);
#298=IFCLOCALPLACEMENT($,#297);
#299=IFCBUILDINGELEMENTPROXY('2wZzIkvyjF$w1IAMxOhN7b',$,'Locker1',$,$,#318,#313,$,$);
#305=IFCCARTESIANPOINT((0.,0.));
#306=IFCAXIS2PLACEMENT2D(#305,$);
#307=IFCRECTANGLEPROFILEDEF(.AREA.,$,#306,0.90000000000000002,0.80000000000000004);
#308=IFCCARTESIANPOINT((0.,0.,-2.));
#309=IFCAXIS2PLACEMENT3D(#308,$,$);
#310=IFCDIRECTION((0.,0.,1.));
#311=IFCEXTRUDEDAREASOLID(#307,#309,#310,4.);
#312=IFCSHAPEREPRESENTATION(#11,'Body','SweptSolid',(#311));
#313=IFCPRODUCTDEFINITIONSHAPE($,$,(#312));
#314=IFCCARTESIANPOINT((-4.5999999999999996,-1.75,1.));
#315=IFCDIRECTION((0.,0.,1.));
#316=IFCDIRECTION((1.,0.,0.));
#317=IFCAXIS2PLACEMENT3D(#314,#315,#316);
#318=IFCLOCALPLACEMENT($,#317);
#319=IFCBUILDINGELEMENTPROXY('2Z0UvQNNzFSeZk9E_MZGKS',$,'Locker2',$,$,#338,#333,$,$);
#325=IFCCARTESIANPOINT((0.,0.));
#326=IFCAXIS2PLACEMENT2D(#325,$);
#327=IFCRECTANGLEPROFILEDEF(.AREA.,$,#326,0.90000000000000002,0.80000000000000004);
#328=IFCCARTESIANPOINT((0.,0.,-2.));
#329=IFCAXIS2PLACEMENT3D(#328,$,$);
#330=IFCDIRECTION((0.,0.,1.));
#331=IFCEXTRUDEDAREASOLID(#327,#329,#330,4.);
#332=IFCSHAPEREPRESENTATION(#11,'Body','SweptSolid',(#331));
#333=IFCPRODUCTDEFINITIONSHAPE($,$,(#332));
#334=IFCCARTESIANPOINT((-4.5999999999999996,-1.25,1.));
#335=IFCDIRECTION((0.,0.,1.));
#336=IFCDIRECTION((1.,0.,0.));
#337=IFCAXIS2PLACEMENT3D(#334,#335,#336);
#338=IFCLOCALPLACEMENT($,#337);
#339=IFCBUILDINGELEMENTPROXY('0nLcUYDj19$wgQ2qHWvHTO',$,'Locker3',$,$,#358,#353,$,$);
#345=IFCCARTESIANPOINT((0.,0.));
#346=IFCAXIS2PLACEMENT2D(#345,$);
#347=IFCRECTANGLEPROFILEDEF(.AREA.,$,#346,0.90000000000000002,0.80000000000000004);
#348=IFCCARTESIANPOINT((0.,0.,-2.));
#349=IFCAXIS2PLACEMENT3D(#348,$,$);
#350=IFCDIRECTION((0.,0.,1.));
#351=IFCEXTRUDEDAREASOLID(#347,#349,#350,4.);
#352=IFCSHAPEREPRESENTATION(#11,'Body','SweptSolid',(#351));
#353=IFCPRODUCTDEFINITIONSHAPE($,$,(#352));
#354=IFCCARTESIANPOINT((-4.5999999999999996,-0.75,1.));
#355=IFCDIRECTION((0.,0.,1.));
#356=IFCDIRECTION((1.,0.,0.));
#357=IFCAXIS2PLACEMENT3D(#354,#355,#356);
#358=IFCLOCALPLACEMENT($,#357);
#359=IFCBUILDINGELEMENTPROXY('0FWUUBqr96O8TbSBW6G$s5',$,'Locker4',$,$,#378,#373,$,$);
#365=IFCCARTESIANPOINT((0.,0.));
#366=IFCAXIS2PLACEMENT2D(#365,$);
#367=IFCRECTANGLEPROFILEDEF(.AREA.,$,#366,0.90000000000000002,0.80000000000000004);
#368=IFCCARTESIANPOINT((0.,0.,-2.));
#369=IFCAXIS2PLACEMENT3D(#368,$,$);
#370=IFCDIRECTION((0.,0.,1.));
#371=IFCEXTRUDEDAREASOLID(#367,#369,#370,4.);
#372=IFCSHAPEREPRESENTATION(#11,'Body','SweptSolid',(#371));
#373=IFCPRODUCTDEFINITIONSHAPE($,$,(#372));
#374=IFCCARTESIANPOINT((-4.5999999999999996,-0.25,1.));
#375=IFCDIRECTION((0.,0.,1.));
#376=IFCDIRECTION((1.,0.,0.));
#377=IFCAXIS2PLACEMENT3D(#374,#375,#376);
#378=IFCLOCALPLACEMENT($,#377);
#379=IFCBUILDINGELEMENTPROXY('1lJ_IblgXBTfLrvure$Bky',$,'Locker5',$,$,#398,#393,$,$);
#385=IFCCARTESIANPOINT((0.,0.));
#386=IFCAXIS2PLACEMENT2D(#385,$);
#387=IFCRECTANGLEPROFILEDEF(.AREA.,$,#386,0.90000000000000002,0.80000000000000004);
#388=IFCCARTESIANPOINT((0.,0.,-2.));
#389=IFCAXIS2PLACEMENT3D(#388,$,$);
#390=IFCDIRECTION((0.,0.,1.));
#391=IFCEXTRUDEDAREASOLID(#387,#389,#390,4.);
#392=IFCSHAPEREPRESENTATION(#11,'Body','SweptSolid',(#391));
#393=IFCPRODUCTDEFINITIONSHAPE($,$,(#392));
#394=IFCCARTESIANPOINT((-4.5999999999999996,0.25,1.));
#395=IFCDIRECTION((0.,0.,1.));
#396=IFCDIRECTION((1.,0.,0.));
#397=IFCAXIS2PLACEMENT3D(#394,#395,#396);
#398=IFCLOCALPLACEMENT($,#397);
#399=IFCBUILDINGELEMENTPROXY('3EMpVrA0rDIPJrTH2oyJaz',$,'Locker6',$,$,#418,#413,$,$);
#405=IFCCARTESIANPOINT((0.,0.));
#406=IFCAXIS2PLACEMENT2D(#405,$);
#407=IFCRECTANGLEPROFILEDEF(.AREA.,$,#406,0.90000000000000002,0.80000000000000004);
#408=IFCCARTESIANPOINT((0.,0.,-2.));
#409=IFCAXIS2PLACEMENT3D(#408,$,$);
#410=IFCDIRECTION((0.,0.,1.));
#411=IFCEXTRUDEDAREASOLID(#407,#409,#410,4.);
#412=IFCSHAPEREPRESENTATION(#11,'Body','SweptSolid',(#411));
#413=IFCPRODUCTDEFINITIONSHAPE($,$,(#412));
#414=IFCCARTESIANPOINT((-4.5999999999999996,0.75,1.));
#415=IFCDIRECTION((0.,0.,1.));
#416=IFCDIRECTION((1.,0.,0.));
#417=IFCAXIS2PLACEMENT3D(#414,#415,#416);
#418=IFCLOCALPLACEMENT($,#417);
#419=IFCBUILDINGELEMENTPROXY('0dz0qeSlTAmeX$Mc21BHwh',$,'Locker7',$,$,#438,#433,$,$);
#425=IFCCARTESIANPOINT((0.,0.));
#426=IFCAXIS2PLACEMENT2D(#425,$);
#427=IFCRECTANGLEPROFILEDEF(.AREA.,$,#426,0.90000000000000002,0.80000000000000004);
#428=IFCCARTESIANPOINT((0.,0.,-2.));
#429=IFCAXIS2PLACEMENT3D(#428,$,$);
#430=IFCDIRECTION((0.,0.,1.));
#431=IFCEXTRUDEDAREASOLID(#427,#429,#430,4.);
#432=IFCSHAPEREPRESENTATION(#11,'Body','SweptSolid',(#431));
#433=IFCPRODUCTDEFINITIONSHAPE($,$,(#432));
#434=IFCCARTESIANPOINT((-4.5999999999999996,1.25,1.));
#435=IFCDIRECTION((0.,0.,1.));
#436=IFCDIRECTION((1.,0.,0.));
#437=IFCAXIS2PLACEMENT3D(#434,#435,#436);
#438=IFCLOCALPLACEMENT($,#437);
#439=IFCBUILDINGELEMENTPROXY('0$Lo0JCafCVB5493uIUmiN',$,'Locker8',$,$,#458,#453,$,$);
#445=IFCCARTESIANPOINT((0.,0.));
#446=IFCAXIS2PLACEMENT2D(#445,$);
#447=IFCRECTANGLEPROFILEDEF(.AREA.,$,#446,0.90000000000000002,0.80000000000000004);
#448=IFCCARTESIANPOINT((0.,0.,-2.));
#449=IFCAXIS2PLACEMENT3D(#448,$,$);
#450=IFCDIRECTION((0.,0.,1.));
#451=IFCEXTRUDEDAREASOLID(#447,#449,#450,4.);
#452=IFCSHAPEREPRESENTATION(#11,'Body','SweptSolid',(#451));
#453=IFCPRODUCTDEFINITIONSHAPE($,$,(#452));
#454=IFCCARTESIANPOINT((-4.5999999999999996,1.75,1.));
#455=IFCDIRECTION((0.,0.,1.));
#456=IFCDIRECTION((1.,0.,0.));
#457=IFCAXIS2PLACEMENT3D(#454,#455,#456);
#458=IFCLOCALPLACEMENT($,#457);
#459=IFCBUILDINGELEMENTPROXY('2W9ojSR255hALTWo4ElBDq',$,'Locker9',$,$,#478,#473,$,$);
#465=IFCCARTESIANPOINT((0.,0.));
#466=IFCAXIS2PLACEMENT2D(#465,$);
#467=IFCRECTANGLEPROFILEDEF(.AREA.,$,#466,0.90000000000000002,0.80000000000000004);
#468=IFCCARTESIANPOINT((0.,0.,-2.));
#469=IFCAXIS2PLACEMENT3D(#468,$,$);
#470=IFCDIRECTION((0.,0.,1.));
#471=IFCEXTRUDEDAREASOLID(#467,#469,#470,4.);
#472=IFCSHAPEREPRESENTATION(#11,'Body','SweptSolid',(#471));
#473=IFCPRODUCTDEFINITIONSHAPE($,$,(#472));
#474=IFCCARTESIANPOINT((-4.5999999999999996,2.25,1.));
#475=IFCDIRECTION((0.,0.,1.));
#476=IFCDIRECTION((1.,0.,0.));
#477=IFCAXIS2PLACEMENT3D(#474,#475,#476);
#478=IFCLOCALPLACEMENT($,#477);
#479=IFCBUILDINGELEMENTPROXY('2btWN_T1P3N9dhMZWhpa3e',$,'LockerBench',$,$,#498,#493,$,$);
#485=IFCCARTESIANPOINT((0.,0.));
#486=IFCAXIS2PLACEMENT2D(#485,$);
#487=IFCRECTANGLEPROFILEDEF(.AREA.,$,#486,0.69999999999999996,4.7999999999999998);
#488=IFCCARTESIANPOINT((0.,0.,-0.45000000000000001));
#489=IFCAXIS2PLACEMENT3D(#488,$,$);
#490=IFCDIRECTION((0.,0.,1.));
#491=IFCEXTRUDEDAREASOLID(#487,#489,#490,0.90000000000000002);
#492=IFCSHAPEREPRESENTATION(#11,'Body','SweptSolid',(#491));
#493=IFCPRODUCTDEFINITIONSHAPE($,$,(#492));
#494=IFCCARTESIANPOINT((-3.7999999999999998,0.,0.22));
#495=IFCDIRECTION((0.,0.,1.));
#496=IFCDIRECTION((1.,0.,0.));
#497=IFCAXIS2PLACEMENT3D(#494,#495,#496);
#498=IFCLOCALPLACEMENT($,#497);
#499=IFCBUILDINGELEMENTPROXY('3tnXv_q$D6$w1dBMnghlI0',$,'LiftPlatform1',$,$,#518,#513,$,$);
#505=IFCCARTESIANPOINT((0.,0.));
#506=IFCAXIS2PLACEMENT2D(#505,$);
#507=IFCRECTANGLEPROFILEDEF(.AREA.,$,#506,4.,3.);
#508=IFCCARTESIANPOINT((0.,0.,-0.050000000000000003));
#509=IFCAXIS2PLACEMENT3D(#508,$,$);
#510=IFCDIRECTION((0.,0.,1.));
#511=IFCEXTRUDEDAREASOLID(#507,#509,#510,0.10000000000000001);
#512=IFCSHAPEREPRESENTATION(#11,'Body','SweptSolid',(#511));
#513=IFCPRODUCTDEFINITIONSHAPE($,$,(#512));
#514=IFCCARTESIANPOINT((2.5,-3.,0.12));
#515=IFCDIRECTION((0.,0.,1.));
#516=IFCDIRECTION((1.,0.,0.));
#517=IFCAXIS2PLACEMENT3D(#514,#515,#516);
#518=IFCLOCALPLACEMENT($,#517);
#519=IFCBUILDINGELEMENTPROXY('2nHIWvG4j0hwPKhc8kUHRt',$,'LiftPlatform2',$,$,#538,#533,$,$);
#525=IFCCARTESIANPOINT((0.,0.));
#526=IFCAXIS2PLACEMENT2D(#525,$);
#527=IFCRECTANGLEPROFILEDEF(.AREA.,$,#526,4.,3.);
#528=IFCCARTESIANPOINT((0.,0.,-0.050000000000000003));
#529=IFCAXIS2PLACEMENT3D(#528,$,$);
#530=IFCDIRECTION((0.,0.,1.));
#531=IFCEXTRUDEDAREASOLID(#527,#529,#530,0.10000000000000001);
#532=IFCSHAPEREPRESENTATION(#11,'Body','SweptSolid',(#531));
#533=IFCPRODUCTDEFINITIONSHAPE($,$,(#532));
#534=IFCCARTESIANPOINT((2.5,-1.,0.12));
#535=IFCDIRECTION((0.,0.,1.));
#536=IFCDIRECTION((1.,0.,0.));
#537=IFCAXIS2PLACEMENT3D(#534,#535,#536);
#538=IFCLOCALPLACEMENT($,#537);
#539=IFCBUILDINGELEMENTPROXY('1nu4hL6v5CdutNmDLMqo2v',$,'DumbbellRack',$,$,#558,#553,$,$);
#545=IFCCARTESIANPOINT((0.,0.));
#546=IFCAXIS2PLACEMENT2D(#545,$);
#547=IFCRECTANGLEPROFILEDEF(.AREA.,$,#546,0.80000000000000004,6.);
#548=IFCCARTESIANPOINT((0.,0.,-1.5));
#549=IFCAXIS2PLACEMENT3D(#548,$,$);
#550=IFCDIRECTION((0.,0.,1.));
#551=IFCEXTRUDEDAREASOLID(#547,#549,#550,3.);
#552=IFCSHAPEREPRESENTATION(#11,'Body','SweptSolid',(#551));
#553=IFCPRODUCTDEFINITIONSHAPE($,$,(#552));
#554=IFCCARTESIANPOINT((4.2999999999999998,0.5,0.90000000000000002));
#555=IFCDIRECTION((0.,0.,1.));
#556=IFCDIRECTION((1.,0.,0.));
#557=IFCAXIS2PLACEMENT3D(#554,#555,#556);
#558=IFCLOCALPLACEMENT($,#557);
#559=IFCBUILDINGELEMENTPROXY('1VWXOLU1z0Gv3xkNb9Ip33',$,'DmbShelf1',$,$,#578,#573,$,$);
#565=IFCCARTESIANPOINT((0.,0.));
#566=IFCAXIS2PLACEMENT2D(#565,$);
#567=IFCRECTANGLEPROFILEDEF(.AREA.,$,#566,0.69999999999999996,5.7999999999999998);
#568=IFCCARTESIANPOINT((0.,0.,-0.040000000000000001));
#569=IFCAXIS2PLACEMENT3D(#568,$,$);
#570=IFCDIRECTION((0.,0.,1.));
#571=IFCEXTRUDEDAREASOLID(#567,#569,#570,0.080000000000000002);
#572=IFCSHAPEREPRESENTATION(#11,'Body','SweptSolid',(#571));
#573=IFCPRODUCTDEFINITIONSHAPE($,$,(#572));
#574=IFCCARTESIANPOINT((4.2999999999999998,0.5,0.5));
#575=IFCDIRECTION((0.,0.,1.));
#576=IFCDIRECTION((1.,0.,0.));
#577=IFCAXIS2PLACEMENT3D(#574,#575,#576);
#578=IFCLOCALPLACEMENT($,#577);
#579=IFCBUILDINGELEMENTPROXY('39GqKyutP0zRF$QW$1BgMF',$,'DmbShelf2',$,$,#598,#593,$,$);
#585=IFCCARTESIANPOINT((0.,0.));
#586=IFCAXIS2PLACEMENT2D(#585,$);
#587=IFCRECTANGLEPROFILEDEF(.AREA.,$,#586,0.69999999999999996,5.7999999999999998);
#588=IFCCARTESIANPOINT((0.,0.,-0.040000000000000001));
#589=IFCAXIS2PLACEMENT3D(#588,$,$);
#590=IFCDIRECTION((0.,0.,1.));
#591=IFCEXTRUDEDAREASOLID(#587,#589,#590,0.080000000000000002);
#592=IFCSHAPEREPRESENTATION(#11,'Body','SweptSolid',(#591));
#593=IFCPRODUCTDEFINITIONSHAPE($,$,(#592));
#594=IFCCARTESIANPOINT((4.2999999999999998,0.5,0.94999999999999996));
#595=IFCDIRECTION((0.,0.,1.));
#596=IFCDIRECTION((1.,0.,0.));
#597=IFCAXIS2PLACEMENT3D(#594,#595,#596);
#598=IFCLOCALPLACEMENT($,#597);
#599=IFCBUILDINGELEMENTPROXY('1rO1$hy0b7N9lJ6y3bNxPM',$,'DmbShelf3',$,$,#618,#613,$,$);
#605=IFCCARTESIANPOINT((0.,0.));
#606=IFCAXIS2PLACEMENT2D(#605,$);
#607=IFCRECTANGLEPROFILEDEF(.AREA.,$,#606,0.69999999999999996,5.7999999999999998);
#608=IFCCARTESIANPOINT((0.,0.,-0.040000000000000001));
#609=IFCAXIS2PLACEMENT3D(#608,$,$);
#610=IFCDIRECTION((0.,0.,1.));
#611=IFCEXTRUDEDAREASOLID(#607,#609,#610,0.080000000000000002);
#612=IFCSHAPEREPRESENTATION(#11,'Body','SweptSolid',(#611));
#613=IFCPRODUCTDEFINITIONSHAPE($,$,(#612));
#614=IFCCARTESIANPOINT((4.2999999999999998,0.5,1.3999999999999999));
#615=IFCDIRECTION((0.,0.,1.));
#616=IFCDIRECTION((1.,0.,0.));
#617=IFCAXIS2PLACEMENT3D(#614,#615,#616);
#618=IFCLOCALPLACEMENT($,#617);
#619=IFCBUILDINGELEMENTPROXY('1G0vUuoHj23BNRMZU_BGMb',$,'Dmb_s1_k0',$,$,#638,#633,$,$);
#625=IFCCARTESIANPOINT((0.,0.));
#626=IFCAXIS2PLACEMENT2D(#625,$);
#627=IFCRECTANGLEPROFILEDEF(.AREA.,$,#626,0.22,0.22);
#628=IFCCARTESIANPOINT((0.,0.,-0.34999999999999998));
#629=IFCAXIS2PLACEMENT3D(#628,$,$);
#630=IFCDIRECTION((0.,0.,1.));
#631=IFCEXTRUDEDAREASOLID(#627,#629,#630,0.69999999999999996);
#632=IFCSHAPEREPRESENTATION(#11,'Body','SweptSolid',(#631));
#633=IFCPRODUCTDEFINITIONSHAPE($,$,(#632));
#634=IFCCARTESIANPOINT((4.2999999999999998,-0.69999999999999996,0.57999999999999996));
#635=IFCDIRECTION((0.,0.,1.));
#636=IFCDIRECTION((1.,0.,0.));
#637=IFCAXIS2PLACEMENT3D(#634,#635,#636);
#638=IFCLOCALPLACEMENT($,#637);
#639=IFCBUILDINGELEMENTPROXY('3tDXWD4_D22ePPaVVAqoGq',$,'Dmb_s1_k1',$,$,#658,#653,$,$);
#645=IFCCARTESIANPOINT((0.,0.));
#646=IFCAXIS2PLACEMENT2D(#645,$);
#647=IFCRECTANGLEPROFILEDEF(.AREA.,$,#646,0.22,0.22);
#648=IFCCARTESIANPOINT((0.,0.,-0.34999999999999998));
#649=IFCAXIS2PLACEMENT3D(#648,$,$);
#650=IFCDIRECTION((0.,0.,1.));
#651=IFCEXTRUDEDAREASOLID(#647,#649,#650,0.69999999999999996);
#652=IFCSHAPEREPRESENTATION(#11,'Body','SweptSolid',(#651));
#653=IFCPRODUCTDEFINITIONSHAPE($,$,(#652));
#654=IFCCARTESIANPOINT((4.2999999999999998,-0.099999999999999978,0.57999999999999996));
#655=IFCDIRECTION((0.,0.,1.));
#656=IFCDIRECTION((1.,0.,0.));
#657=IFCAXIS2PLACEMENT3D(#654,#655,#656);
#658=IFCLOCALPLACEMENT($,#657);
#659=IFCBUILDINGELEMENTPROXY('32ZL26p5LEUPP_T$3xeUSC',$,'Dmb_s1_k2',$,$,#678,#673,$,$);
#665=IFCCARTESIANPOINT((0.,0.));
#666=IFCAXIS2PLACEMENT2D(#665,$);
#667=IFCRECTANGLEPROFILEDEF(.AREA.,$,#666,0.22,0.22);
#668=IFCCARTESIANPOINT((0.,0.,-0.34999999999999998));
#669=IFCAXIS2PLACEMENT3D(#668,$,$);
#670=IFCDIRECTION((0.,0.,1.));
#671=IFCEXTRUDEDAREASOLID(#667,#669,#670,0.69999999999999996);
#672=IFCSHAPEREPRESENTATION(#11,'Body','SweptSolid',(#671));
#673=IFCPRODUCTDEFINITIONSHAPE($,$,(#672));
#674=IFCCARTESIANPOINT((4.2999999999999998,0.5,0.57999999999999996));
#675=IFCDIRECTION((0.,0.,1.));
#676=IFCDIRECTION((1.,0.,0.));
#677=IFCAXIS2PLACEMENT3D(#674,#675,#676);
#678=IFCLOCALPLACEMENT($,#677);
#679=IFCBUILDINGELEMENTPROXY('2WEY7PxgT1Ehk7YdTE$m2K',$,'Dmb_s1_k3',$,$,#698,#693,$,$);
#685=IFCCARTESIANPOINT((0.,0.));
#686=IFCAXIS2PLACEMENT2D(#685,$);
#687=IFCRECTANGLEPROFILEDEF(.AREA.,$,#686,0.22,0.22);
#688=IFCCARTESIANPOINT((0.,0.,-0.34999999999999998));
#689=IFCAXIS2PLACEMENT3D(#688,$,$);
#690=IFCDIRECTION((0.,0.,1.));
#691=IFCEXTRUDEDAREASOLID(#687,#689,#690,0.69999999999999996);
#692=IFCSHAPEREPRESENTATION(#11,'Body','SweptSolid',(#691));
#693=IFCPRODUCTDEFINITIONSHAPE($,$,(#692));
#694=IFCCARTESIANPOINT((4.2999999999999998,1.0999999999999999,0.57999999999999996));
#695=IFCDIRECTION((0.,0.,1.));
#696=IFCDIRECTION((1.,0.,0.));
#697=IFCAXIS2PLACEMENT3D(#694,#695,#696);
#698=IFCLOCALPLACEMENT($,#697);
#699=IFCBUILDINGELEMENTPROXY('1Q51VAqwD5HPWfbXrM6ggv',$,'Dmb_s2_k0',$,$,#718,#713,$,$);
#705=IFCCARTESIANPOINT((0.,0.));
#706=IFCAXIS2PLACEMENT2D(#705,$);
#707=IFCRECTANGLEPROFILEDEF(.AREA.,$,#706,0.22,0.22);
#708=IFCCARTESIANPOINT((0.,0.,-0.34999999999999998));
#709=IFCAXIS2PLACEMENT3D(#708,$,$);
#710=IFCDIRECTION((0.,0.,1.));
#711=IFCEXTRUDEDAREASOLID(#707,#709,#710,0.69999999999999996);
#712=IFCSHAPEREPRESENTATION(#11,'Body','SweptSolid',(#711));
#713=IFCPRODUCTDEFINITIONSHAPE($,$,(#712));
#714=IFCCARTESIANPOINT((4.2999999999999998,-0.69999999999999996,1.03));
#715=IFCDIRECTION((0.,0.,1.));
#716=IFCDIRECTION((1.,0.,0.));
#717=IFCAXIS2PLACEMENT3D(#714,#715,#716);
#718=IFCLOCALPLACEMENT($,#717);
#719=IFCBUILDINGELEMENTPROXY('2mGKOcXGvEhvWKDu6QWK23',$,'Dmb_s2_k1',$,$,#738,#733,$,$);
#725=IFCCARTESIANPOINT((0.,0.));
#726=IFCAXIS2PLACEMENT2D(#725,$);
#727=IFCRECTANGLEPROFILEDEF(.AREA.,$,#726,0.22,0.22);
#728=IFCCARTESIANPOINT((0.,0.,-0.34999999999999998));
#729=IFCAXIS2PLACEMENT3D(#728,$,$);
#730=IFCDIRECTION((0.,0.,1.));
#731=IFCEXTRUDEDAREASOLID(#727,#729,#730,0.69999999999999996);
#732=IFCSHAPEREPRESENTATION(#11,'Body','SweptSolid',(#731));
#733=IFCPRODUCTDEFINITIONSHAPE($,$,(#732));
#734=IFCCARTESIANPOINT((4.2999999999999998,-0.099999999999999978,1.03));
#735=IFCDIRECTION((0.,0.,1.));
#736=IFCDIRECTION((1.,0.,0.));
#737=IFCAXIS2PLACEMENT3D(#734,#735,#736);
#738=IFCLOCALPLACEMENT($,#737);
#739=IFCBUILDINGELEMENTPROXY('03PtQ7MF9AyxDWP3CMmXSC',$,'Dmb_s2_k2',$,$,#758,#753,$,$);
#745=IFCCARTESIANPOINT((0.,0.));
#746=IFCAXIS2PLACEMENT2D(#745,$);
#747=IFCRECTANGLEPROFILEDEF(.AREA.,$,#746,0.22,0.22);
#748=IFCCARTESIANPOINT((0.,0.,-0.34999999999999998));
#749=IFCAXIS2PLACEMENT3D(#748,$,$);
#750=IFCDIRECTION((0.,0.,1.));
#751=IFCEXTRUDEDAREASOLID(#747,#749,#750,0.69999999999999996);
#752=IFCSHAPEREPRESENTATION(#11,'Body','SweptSolid',(#751));
#753=IFCPRODUCTDEFINITIONSHAPE($,$,(#752));
#754=IFCCARTESIANPOINT((4.2999999999999998,0.5,1.03));
#755=IFCDIRECTION((0.,0.,1.));
#756=IFCDIRECTION((1.,0.,0.));
#757=IFCAXIS2PLACEMENT3D(#754,#755,#756);
#758=IFCLOCALPLACEMENT($,#757);
#759=IFCBUILDINGELEMENTPROXY('32l2kJJhnBEvpW1vKQkeU0',$,'Dmb_s2_k3',$,$,#778,#773,$,$);
#765=IFCCARTESIANPOINT((0.,0.));
#766=IFCAXIS2PLACEMENT2D(#765,$);
#767=IFCRECTANGLEPROFILEDEF(.AREA.,$,#766,0.22,0.22);
#768=IFCCARTESIANPOINT((0.,0.,-0.34999999999999998));
#769=IFCAXIS2PLACEMENT3D(#768,$,$);
#770=IFCDIRECTION((0.,0.,1.));
#771=IFCEXTRUDEDAREASOLID(#767,#769,#770,0.69999999999999996);
#772=IFCSHAPEREPRESENTATION(#11,'Body','SweptSolid',(#771));
#773=IFCPRODUCTDEFINITIONSHAPE($,$,(#772));
#774=IFCCARTESIANPOINT((4.2999999999999998,1.0999999999999999,1.03));
#775=IFCDIRECTION((0.,0.,1.));
#776=IFCDIRECTION((1.,0.,0.));
#777=IFCAXIS2PLACEMENT3D(#774,#775,#776);
#778=IFCLOCALPLACEMENT($,#777);
#779=IFCBUILDINGELEMENTPROXY('38KZv6OsXBJAsDiLlf8AYL',$,'Dmb_s3_k0',$,$,#798,#793,$,$);
#785=IFCCARTESIANPOINT((0.,0.));
#786=IFCAXIS2PLACEMENT2D(#785,$);
#787=IFCRECTANGLEPROFILEDEF(.AREA.,$,#786,0.22,0.22);
#788=IFCCARTESIANPOINT((0.,0.,-0.34999999999999998));
#789=IFCAXIS2PLACEMENT3D(#788,$,$);
#790=IFCDIRECTION((0.,0.,1.));
#791=IFCEXTRUDEDAREASOLID(#787,#789,#790,0.69999999999999996);
#792=IFCSHAPEREPRESENTATION(#11,'Body','SweptSolid',(#791));
#793=IFCPRODUCTDEFINITIONSHAPE($,$,(#792));
#794=IFCCARTESIANPOINT((4.2999999999999998,-0.69999999999999996,1.48));
#795=IFCDIRECTION((0.,0.,1.));
#796=IFCDIRECTION((1.,0.,0.));
#797=IFCAXIS2PLACEMENT3D(#794,#795,#796);
#798=IFCLOCALPLACEMENT($,#797);
#799=IFCBUILDINGELEMENTPROXY('1Ql9_dvvP5WgdXBg59TGgZ',$,'Dmb_s3_k1',$,$,#818,#813,$,$);
#805=IFCCARTESIANPOINT((0.,0.));
#806=IFCAXIS2PLACEMENT2D(#805,$);
#807=IFCRECTANGLEPROFILEDEF(.AREA.,$,#806,0.22,0.22);
#808=IFCCARTESIANPOINT((0.,0.,-0.34999999999999998));
#809=IFCAXIS2PLACEMENT3D(#808,$,$);
#810=IFCDIRECTION((0.,0.,1.));
#811=IFCEXTRUDEDAREASOLID(#807,#809,#810,0.69999999999999996);
#812=IFCSHAPEREPRESENTATION(#11,'Body','SweptSolid',(#811));
#813=IFCPRODUCTDEFINITIONSHAPE($,$,(#812));
#814=IFCCARTESIANPOINT((4.2999999999999998,-0.099999999999999978,1.48));
#815=IFCDIRECTION((0.,0.,1.));
#816=IFCDIRECTION((1.,0.,0.));
#817=IFCAXIS2PLACEMENT3D(#814,#815,#816);
#818=IFCLOCALPLACEMENT($,#817);
#819=IFCBUILDINGELEMENTPROXY('17jDA7g4n5_A8LfqCxETmc',$,'Dmb_s3_k2',$,$,#838,#833,$,$);
#825=IFCCARTESIANPOINT((0.,0.));
#826=IFCAXIS2PLACEMENT2D(#825,$);
#827=IFCRECTANGLEPROFILEDEF(.AREA.,$,#826,0.22,0.22);
#828=IFCCARTESIANPOINT((0.,0.,-0.34999999999999998));
#829=IFCAXIS2PLACEMENT3D(#828,$,$);
#830=IFCDIRECTION((0.,0.,1.));
#831=IFCEXTRUDEDAREASOLID(#827,#829,#830,0.69999999999999996);
#832=IFCSHAPEREPRESENTATION(#11,'Body','SweptSolid',(#831));
#833=IFCPRODUCTDEFINITIONSHAPE($,$,(#832));
#834=IFCCARTESIANPOINT((4.2999999999999998,0.5,1.48));
#835=IFCDIRECTION((0.,0.,1.));
#836=IFCDIRECTION((1.,0.,0.));
#837=IFCAXIS2PLACEMENT3D(#834,#835,#836);
#838=IFCLOCALPLACEMENT($,#837);
#839=IFCBUILDINGELEMENTPROXY('0JRguofJ55LOWXt5Ve4uvP',$,'Dmb_s3_k3',$,$,#858,#853,$,$);
#845=IFCCARTESIANPOINT((0.,0.));
#846=IFCAXIS2PLACEMENT2D(#845,$);
#847=IFCRECTANGLEPROFILEDEF(.AREA.,$,#846,0.22,0.22);
#848=IFCCARTESIANPOINT((0.,0.,-0.34999999999999998));
#849=IFCAXIS2PLACEMENT3D(#848,$,$);
#850=IFCDIRECTION((0.,0.,1.));
#851=IFCEXTRUDEDAREASOLID(#847,#849,#850,0.69999999999999996);
#852=IFCSHAPEREPRESENTATION(#11,'Body','SweptSolid',(#851));
#853=IFCPRODUCTDEFINITIONSHAPE($,$,(#852));
#854=IFCCARTESIANPOINT((4.2999999999999998,1.0999999999999999,1.48));
#855=IFCDIRECTION((0.,0.,1.));
#856=IFCDIRECTION((1.,0.,0.));
#857=IFCAXIS2PLACEMENT3D(#854,#855,#856);
#858=IFCLOCALPLACEMENT($,#857);
#859=IFCBUILDINGELEMENTPROXY('0DT1IjHGD9sxasfk8beVCm',$,'Barbell0',$,$,#878,#873,$,$);
#865=IFCCARTESIANPOINT((0.,0.));
#866=IFCAXIS2PLACEMENT2D(#865,$);
#867=IFCRECTANGLEPROFILEDEF(.AREA.,$,#866,4.,0.059999999999999998);
#868=IFCCARTESIANPOINT((0.,0.,-0.029999999999999999));
#869=IFCAXIS2PLACEMENT3D(#868,$,$);
#870=IFCDIRECTION((0.,0.,1.));
#871=IFCEXTRUDEDAREASOLID(#867,#869,#870,0.059999999999999998);
#872=IFCSHAPEREPRESENTATION(#11,'Body','SweptSolid',(#871));
#873=IFCPRODUCTDEFINITIONSHAPE($,$,(#872));
#874=IFCCARTESIANPOINT((1.3,-4.,0.22));
#875=IFCDIRECTION((0.,0.,1.));
#876=IFCDIRECTION((1.,0.,0.));
#877=IFCAXIS2PLACEMENT3D(#874,#875,#876);
#878=IFCLOCALPLACEMENT($,#877);
#879=IFCBUILDINGELEMENTPROXY('3kMHBR8V14DRlYIXn5BQSV',$,'Barbell1',$,$,#898,#893,$,$);
#885=IFCCARTESIANPOINT((0.,0.));
#886=IFCAXIS2PLACEMENT2D(#885,$);
#887=IFCRECTANGLEPROFILEDEF(.AREA.,$,#886,4.,0.059999999999999998);
#888=IFCCARTESIANPOINT((0.,0.,-0.029999999999999999));
#889=IFCAXIS2PLACEMENT3D(#888,$,$);
#890=IFCDIRECTION((0.,0.,1.));
#891=IFCEXTRUDEDAREASOLID(#887,#889,#890,0.059999999999999998);
#892=IFCSHAPEREPRESENTATION(#11,'Body','SweptSolid',(#891));
#893=IFCPRODUCTDEFINITIONSHAPE($,$,(#892));
#894=IFCCARTESIANPOINT((1.3,-3.6499999999999999,0.22));
#895=IFCDIRECTION((0.,0.,1.));
#896=IFCDIRECTION((1.,0.,0.));
#897=IFCAXIS2PLACEMENT3D(#894,#895,#896);
#898=IFCLOCALPLACEMENT($,#897);
#899=IFCBUILDINGELEMENTPROXY('0hI9h_vRX1x8KiEKwBRsCC',$,'Barbell2',$,$,#918,#913,$,$);
#905=IFCCARTESIANPOINT((0.,0.));
#906=IFCAXIS2PLACEMENT2D(#905,$);
#907=IFCRECTANGLEPROFILEDEF(.AREA.,$,#906,4.,0.059999999999999998);
#908=IFCCARTESIANPOINT((0.,0.,-0.029999999999999999));
#909=IFCAXIS2PLACEMENT3D(#908,$,$);
#910=IFCDIRECTION((0.,0.,1.));
#911=IFCEXTRUDEDAREASOLID(#907,#909,#910,0.059999999999999998);
#912=IFCSHAPEREPRESENTATION(#11,'Body','SweptSolid',(#911));
#913=IFCPRODUCTDEFINITIONSHAPE($,$,(#912));
#914=IFCCARTESIANPOINT((1.3,-3.2999999999999998,0.22));
#915=IFCDIRECTION((0.,0.,1.));
#916=IFCDIRECTION((1.,0.,0.));
#917=IFCAXIS2PLACEMENT3D(#914,#915,#916);
#918=IFCLOCALPLACEMENT($,#917);
#919=IFCBUILDINGELEMENTPROXY('1v3bvE6azAahQ4LuGnw4eS',$,'Barbell3',$,$,#938,#933,$,$);
#925=IFCCARTESIANPOINT((0.,0.));
#926=IFCAXIS2PLACEMENT2D(#925,$);
#927=IFCRECTANGLEPROFILEDEF(.AREA.,$,#926,4.,0.059999999999999998);
#928=IFCCARTESIANPOINT((0.,0.,-0.029999999999999999));
#929=IFCAXIS2PLACEMENT3D(#928,$,$);
#930=IFCDIRECTION((0.,0.,1.));
#931=IFCEXTRUDEDAREASOLID(#927,#929,#930,0.059999999999999998);
#932=IFCSHAPEREPRESENTATION(#11,'Body','SweptSolid',(#931));
#933=IFCPRODUCTDEFINITIONSHAPE($,$,(#932));
#934=IFCCARTESIANPOINT((1.3,-2.9500000000000002,0.22));
#935=IFCDIRECTION((0.,0.,1.));
#936=IFCDIRECTION((1.,0.,0.));
#937=IFCAXIS2PLACEMENT3D(#934,#935,#936);
#938=IFCLOCALPLACEMENT($,#937);
#939=IFCBUILDINGELEMENTPROXY('04f9twlf9CpxzOJG4WCl9n',$,'Barbell4',$,$,#958,#953,$,$);
#945=IFCCARTESIANPOINT((0.,0.));
#946=IFCAXIS2PLACEMENT2D(#945,$);
#947=IFCRECTANGLEPROFILEDEF(.AREA.,$,#946,4.,0.059999999999999998);
#948=IFCCARTESIANPOINT((0.,0.,-0.029999999999999999));
#949=IFCAXIS2PLACEMENT3D(#948,$,$);
#950=IFCDIRECTION((0.,0.,1.));
#951=IFCEXTRUDEDAREASOLID(#947,#949,#950,0.059999999999999998);
#952=IFCSHAPEREPRESENTATION(#11,'Body','SweptSolid',(#951));
#953=IFCPRODUCTDEFINITIONSHAPE($,$,(#952));
#954=IFCCARTESIANPOINT((1.3,-2.6000000000000001,0.22));
#955=IFCDIRECTION((0.,0.,1.));
#956=IFCDIRECTION((1.,0.,0.));
#957=IFCAXIS2PLACEMENT3D(#954,#955,#956);
#958=IFCLOCALPLACEMENT($,#957);
#959=IFCBUILDINGELEMENTPROXY('0GxOBIfAb0y88lUJjH4Lb3',$,'Barbell5',$,$,#978,#973,$,$);
#965=IFCCARTESIANPOINT((0.,0.));
#966=IFCAXIS2PLACEMENT2D(#965,$);
#967=IFCRECTANGLEPROFILEDEF(.AREA.,$,#966,4.,0.059999999999999998);
#968=IFCCARTESIANPOINT((0.,0.,-0.029999999999999999));
#969=IFCAXIS2PLACEMENT3D(#968,$,$);
#970=IFCDIRECTION((0.,0.,1.));
#971=IFCEXTRUDEDAREASOLID(#967,#969,#970,0.059999999999999998);
#972=IFCSHAPEREPRESENTATION(#11,'Body','SweptSolid',(#971));
#973=IFCPRODUCTDEFINITIONSHAPE($,$,(#972));
#974=IFCCARTESIANPOINT((1.3,-2.25,0.22));
#975=IFCDIRECTION((0.,0.,1.));
#976=IFCDIRECTION((1.,0.,0.));
#977=IFCAXIS2PLACEMENT3D(#974,#975,#976);
#978=IFCLOCALPLACEMENT($,#977);
#979=IFCBUILDINGELEMENTPROXY('2LvE_$iSb3q8$6Ssplgewb',$,'WeightStack1',$,$,#998,#993,$,$);
#985=IFCCARTESIANPOINT((0.,0.));
#986=IFCAXIS2PLACEMENT2D(#985,$);
#987=IFCRECTANGLEPROFILEDEF(.AREA.,$,#986,0.5,0.5);
#988=IFCCARTESIANPOINT((0.,0.,-0.29999999999999999));
#989=IFCAXIS2PLACEMENT3D(#988,$,$);
#990=IFCDIRECTION((0.,0.,1.));
#991=IFCEXTRUDEDAREASOLID(#987,#989,#990,0.59999999999999998);
#992=IFCSHAPEREPRESENTATION(#11,'Body','SweptSolid',(#991));
#993=IFCPRODUCTDEFINITIONSHAPE($,$,(#992));
#994=IFCCARTESIANPOINT((1.8,-3.,0.29999999999999999));
#995=IFCDIRECTION((0.,0.,1.));
#996=IFCDIRECTION((1.,0.,0.));
#997=IFCAXIS2PLACEMENT3D(#994,#995,#996);
#998=IFCLOCALPLACEMENT($,#997);
#999=IFCBUILDINGELEMENTPROXY('2sT5fkMGv9ugTix90qZKmq',$,'WeightStack2',$,$,#1018,#1013,$,$);
#1005=IFCCARTESIANPOINT((0.,0.));
#1006=IFCAXIS2PLACEMENT2D(#1005,$);
#1007=IFCRECTANGLEPROFILEDEF(.AREA.,$,#1006,0.5,0.5);
#1008=IFCCARTESIANPOINT((0.,0.,-0.29999999999999999));
#1009=IFCAXIS2PLACEMENT3D(#1008,$,$);
#1010=IFCDIRECTION((0.,0.,1.));
#1011=IFCEXTRUDEDAREASOLID(#1007,#1009,#1010,0.59999999999999998);
#1012=IFCSHAPEREPRESENTATION(#11,'Body','SweptSolid',(#1011));
#1013=IFCPRODUCTDEFINITIONSHAPE($,$,(#1012));
#1014=IFCCARTESIANPOINT((3.2000000000000002,-3.,0.29999999999999999));
#1015=IFCDIRECTION((0.,0.,1.));
#1016=IFCDIRECTION((1.,0.,0.));
#1017=IFCAXIS2PLACEMENT3D(#1014,#1015,#1016);
#1018=IFCLOCALPLACEMENT($,#1017);
#1019=IFCBUILDINGELEMENTPROXY('3D4hfrf0D9FOI4u3fQB93g',$,'WeightStack3',$,$,#1038,#1033,$,$);
#1025=IFCCARTESIANPOINT((0.,0.));
#1026=IFCAXIS2PLACEMENT2D(#1025,$);
#1027=IFCRECTANGLEPROFILEDEF(.AREA.,$,#1026,0.5,0.5);
#1028=IFCCARTESIANPOINT((0.,0.,-0.29999999999999999));
#1029=IFCAXIS2PLACEMENT3D(#1028,$,$);
#1030=IFCDIRECTION((0.,0.,1.));
#1031=IFCEXTRUDEDAREASOLID(#1027,#1029,#1030,0.59999999999999998);
#1032=IFCSHAPEREPRESENTATION(#11,'Body','SweptSolid',(#1031));
#1033=IFCPRODUCTDEFINITIONSHAPE($,$,(#1032));
#1034=IFCCARTESIANPOINT((1.8,-1.,0.29999999999999999));
#1035=IFCDIRECTION((0.,0.,1.));
#1036=IFCDIRECTION((1.,0.,0.));
#1037=IFCAXIS2PLACEMENT3D(#1034,#1035,#1036);
#1038=IFCLOCALPLACEMENT($,#1037);
#1039=IFCBUILDINGELEMENTPROXY('34OZFUuWD4CRUhXHLK0p2L',$,'WeightStack4',$,$,#1058,#1053,$,$);
#1045=IFCCARTESIANPOINT((0.,0.));
#1046=IFCAXIS2PLACEMENT2D(#1045,$);
#1047=IFCRECTANGLEPROFILEDEF(.AREA.,$,#1046,0.5,0.5);
#1048=IFCCARTESIANPOINT((0.,0.,-0.29999999999999999));
#1049=IFCAXIS2PLACEMENT3D(#1048,$,$);
#1050=IFCDIRECTION((0.,0.,1.));
#1051=IFCEXTRUDEDAREASOLID(#1047,#1049,#1050,0.59999999999999998);
#1052=IFCSHAPEREPRESENTATION(#11,'Body','SweptSolid',(#1051));
#1053=IFCPRODUCTDEFINITIONSHAPE($,$,(#1052));
#1054=IFCCARTESIANPOINT((3.2000000000000002,-1.,0.29999999999999999));
#1055=IFCDIRECTION((0.,0.,1.));
#1056=IFCDIRECTION((1.,0.,0.));
#1057=IFCAXIS2PLACEMENT3D(#1054,#1055,#1056);
#1058=IFCLOCALPLACEMENT($,#1057);
#1059=IFCBUILDINGELEMENTPROXY('2gmFK8WhLCIeV5BAc9P8k9',$,'YogaMat_c0_r0',$,$,#1078,#1073,$,$);
#1065=IFCCARTESIANPOINT((0.,0.));
#1066=IFCAXIS2PLACEMENT2D(#1065,$);
#1067=IFCRECTANGLEPROFILEDEF(.AREA.,$,#1066,1.6000000000000001,1.);
#1068=IFCCARTESIANPOINT((0.,0.,-0.02));
#1069=IFCAXIS2PLACEMENT3D(#1068,$,$);
#1070=IFCDIRECTION((0.,0.,1.));
#1071=IFCEXTRUDEDAREASOLID(#1067,#1069,#1070,0.040000000000000001);
#1072=IFCSHAPEREPRESENTATION(#11,'Body','SweptSolid',(#1071));
#1073=IFCPRODUCTDEFINITIONSHAPE($,$,(#1072));
#1074=IFCCARTESIANPOINT((-4.2999999999999998,-4.2999999999999998,0.059999999999999998));
#1075=IFCDIRECTION((0.,0.,1.));
#1076=IFCDIRECTION((1.,0.,0.));
#1077=IFCAXIS2PLACEMENT3D(#1074,#1075,#1076);
#1078=IFCLOCALPLACEMENT($,#1077);
#1079=IFCBUILDINGELEMENTPROXY('0NS3Ht7Dv6Pxoq_DCo8H73',$,'YogaMat_c0_r1',$,$,#1098,#1093,$,$);
#1085=IFCCARTESIANPOINT((0.,0.));
#1086=IFCAXIS2PLACEMENT2D(#1085,$);
#1087=IFCRECTANGLEPROFILEDEF(.AREA.,$,#1086,1.6000000000000001,1.);
#1088=IFCCARTESIANPOINT((0.,0.,-0.02));
#1089=IFCAXIS2PLACEMENT3D(#1088,$,$);
#1090=IFCDIRECTION((0.,0.,1.));
#1091=IFCEXTRUDEDAREASOLID(#1087,#1089,#1090,0.040000000000000001);
#1092=IFCSHAPEREPRESENTATION(#11,'Body','SweptSolid',(#1091));
#1093=IFCPRODUCTDEFINITIONSHAPE($,$,(#1092));
#1094=IFCCARTESIANPOINT((-4.2999999999999998,-3.1999999999999997,0.059999999999999998));
#1095=IFCDIRECTION((0.,0.,1.));
#1096=IFCDIRECTION((1.,0.,0.));
#1097=IFCAXIS2PLACEMENT3D(#1094,#1095,#1096);
#1098=IFCLOCALPLACEMENT($,#1097);
#1099=IFCBUILDINGELEMENTPROXY('1pJ6LPgS9DcxZeB$CnKpe2',$,'YogaMat_c0_r2',$,$,#1118,#1113,$,$);
#1105=IFCCARTESIANPOINT((0.,0.));
#1106=IFCAXIS2PLACEMENT2D(#1105,$);
#1107=IFCRECTANGLEPROFILEDEF(.AREA.,$,#1106,1.6000000000000001,1.);
#1108=IFCCARTESIANPOINT((0.,0.,-0.02));
#1109=IFCAXIS2PLACEMENT3D(#1108,$,$);
#1110=IFCDIRECTION((0.,0.,1.));
#1111=IFCEXTRUDEDAREASOLID(#1107,#1109,#1110,0.040000000000000001);
#1112=IFCSHAPEREPRESENTATION(#11,'Body','SweptSolid',(#1111));
#1113=IFCPRODUCTDEFINITIONSHAPE($,$,(#1112));
#1114=IFCCARTESIANPOINT((-4.2999999999999998,-2.0999999999999996,0.059999999999999998));
#1115=IFCDIRECTION((0.,0.,1.));
#1116=IFCDIRECTION((1.,0.,0.));
#1117=IFCAXIS2PLACEMENT3D(#1114,#1115,#1116);
#1118=IFCLOCALPLACEMENT($,#1117);
#1119=IFCBUILDINGELEMENTPROXY('0XUBHhBn1Duv2tCJ7glSXz',$,'YogaMat_c1_r0',$,$,#1138,#1133,$,$);
#1125=IFCCARTESIANPOINT((0.,0.));
#1126=IFCAXIS2PLACEMENT2D(#1125,$);
#1127=IFCRECTANGLEPROFILEDEF(.AREA.,$,#1126,1.6000000000000001,1.);
#1128=IFCCARTESIANPOINT((0.,0.,-0.02));
#1129=IFCAXIS2PLACEMENT3D(#1128,$,$);
#1130=IFCDIRECTION((0.,0.,1.));
#1131=IFCEXTRUDEDAREASOLID(#1127,#1129,#1130,0.040000000000000001);
#1132=IFCSHAPEREPRESENTATION(#11,'Body','SweptSolid',(#1131));
#1133=IFCPRODUCTDEFINITIONSHAPE($,$,(#1132));
#1134=IFCCARTESIANPOINT((-2.0999999999999996,-4.2999999999999998,0.059999999999999998));
#1135=IFCDIRECTION((0.,0.,1.));
#1136=IFCDIRECTION((1.,0.,0.));
#1137=IFCAXIS2PLACEMENT3D(#1134,#1135,#1136);
#1138=IFCLOCALPLACEMENT($,#1137);
#1139=IFCBUILDINGELEMENTPROXY('0_NL3mCPb0WP6Hx5P5wVxt',$,'YogaMat_c1_r1',$,$,#1158,#1153,$,$);
#1145=IFCCARTESIANPOINT((0.,0.));
#1146=IFCAXIS2PLACEMENT2D(#1145,$);
#1147=IFCRECTANGLEPROFILEDEF(.AREA.,$,#1146,1.6000000000000001,1.);
#1148=IFCCARTESIANPOINT((0.,0.,-0.02));
#1149=IFCAXIS2PLACEMENT3D(#1148,$,$);
#1150=IFCDIRECTION((0.,0.,1.));
#1151=IFCEXTRUDEDAREASOLID(#1147,#1149,#1150,0.040000000000000001);
#1152=IFCSHAPEREPRESENTATION(#11,'Body','SweptSolid',(#1151));
#1153=IFCPRODUCTDEFINITIONSHAPE($,$,(#1152));
#1154=IFCCARTESIANPOINT((-2.0999999999999996,-3.1999999999999997,0.059999999999999998));
#1155=IFCDIRECTION((0.,0.,1.));
#1156=IFCDIRECTION((1.,0.,0.));
#1157=IFCAXIS2PLACEMENT3D(#1154,#1155,#1156);
#1158=IFCLOCALPLACEMENT($,#1157);
#1159=IFCBUILDINGELEMENTPROXY('26UyzYODDFRxUsP_IVi$Qu',$,'YogaMat_c1_r2',$,$,#1178,#1173,$,$);
#1165=IFCCARTESIANPOINT((0.,0.));
#1166=IFCAXIS2PLACEMENT2D(#1165,$);
#1167=IFCRECTANGLEPROFILEDEF(.AREA.,$,#1166,1.6000000000000001,1.);
#1168=IFCCARTESIANPOINT((0.,0.,-0.02));
#1169=IFCAXIS2PLACEMENT3D(#1168,$,$);
#1170=IFCDIRECTION((0.,0.,1.));
#1171=IFCEXTRUDEDAREASOLID(#1167,#1169,#1170,0.040000000000000001);
#1172=IFCSHAPEREPRESENTATION(#11,'Body','SweptSolid',(#1171));
#1173=IFCPRODUCTDEFINITIONSHAPE($,$,(#1172));
#1174=IFCCARTESIANPOINT((-2.0999999999999996,-2.0999999999999996,0.059999999999999998));
#1175=IFCDIRECTION((0.,0.,1.));
#1176=IFCDIRECTION((1.,0.,0.));
#1177=IFCAXIS2PLACEMENT3D(#1174,#1175,#1176);
#1178=IFCLOCALPLACEMENT($,#1177);
#1179=IFCBUILDINGELEMENTPROXY('1VMQbMc6j1MwwLHoAQMxi6',$,'PilatesReformer',$,$,#1198,#1193,$,$);
#1185=IFCCARTESIANPOINT((0.,0.));
#1186=IFCAXIS2PLACEMENT2D(#1185,$);
#1187=IFCRECTANGLEPROFILEDEF(.AREA.,$,#1186,3.6000000000000001,0.80000000000000004);
#1188=IFCCARTESIANPOINT((0.,0.,-0.29999999999999999));
#1189=IFCAXIS2PLACEMENT3D(#1188,$,$);
#1190=IFCDIRECTION((0.,0.,1.));
#1191=IFCEXTRUDEDAREASOLID(#1187,#1189,#1190,0.59999999999999998);
#1192=IFCSHAPEREPRESENTATION(#11,'Body','SweptSolid',(#1191));
#1193=IFCPRODUCTDEFINITIONSHAPE($,$,(#1192));
#1194=IFCCARTESIANPOINT((-1.,-4.,0.25));
#1195=IFCDIRECTION((0.,0.,1.));
#1196=IFCDIRECTION((1.,0.,0.));
#1197=IFCAXIS2PLACEMENT3D(#1194,#1195,#1196);
#1198=IFCLOCALPLACEMENT($,#1197);
#1199=IFCBUILDINGELEMENTPROXY('1V0a1588v6IvkqH0P62ZSw',$,'YogaBlocks',$,$,#1218,#1213,$,$);
#1205=IFCCARTESIANPOINT((0.,0.));
#1206=IFCAXIS2PLACEMENT2D(#1205,$);
#1207=IFCRECTANGLEPROFILEDEF(.AREA.,$,#1206,0.5,0.29999999999999999);
#1208=IFCCARTESIANPOINT((0.,0.,-0.14999999999999999));
#1209=IFCAXIS2PLACEMENT3D(#1208,$,$);
#1210=IFCDIRECTION((0.,0.,1.));
#1211=IFCEXTRUDEDAREASOLID(#1207,#1209,#1210,0.29999999999999999);
#1212=IFCSHAPEREPRESENTATION(#11,'Body','SweptSolid',(#1211));
#1213=IFCPRODUCTDEFINITIONSHAPE($,$,(#1212));
#1214=IFCCARTESIANPOINT((-0.80000000000000004,-2.7999999999999998,0.14999999999999999));
#1215=IFCDIRECTION((0.,0.,1.));
#1216=IFCDIRECTION((1.,0.,0.));
#1217=IFCAXIS2PLACEMENT3D(#1214,#1215,#1216);
#1218=IFCLOCALPLACEMENT($,#1217);
#1219=IFCFURNITURE('2wkvOS5br30On8p3I6N5D7',$,'ConsultTable',$,$,#1238,#1233,$,$);
#1225=IFCCARTESIANPOINT((0.,0.));
#1226=IFCAXIS2PLACEMENT2D(#1225,$);
#1227=IFCRECTANGLEPROFILEDEF(.AREA.,$,#1226,2.3999999999999999,1.6000000000000001);
#1228=IFCCARTESIANPOINT((0.,0.,-0.040000000000000001));
#1229=IFCAXIS2PLACEMENT3D(#1228,$,$);
#1230=IFCDIRECTION((0.,0.,1.));
#1231=IFCEXTRUDEDAREASOLID(#1227,#1229,#1230,0.080000000000000002);
#1232=IFCSHAPEREPRESENTATION(#11,'Body','SweptSolid',(#1231));
#1233=IFCPRODUCTDEFINITIONSHAPE($,$,(#1232));
#1234=IFCCARTESIANPOINT((-3.,3.5,0.38));
#1235=IFCDIRECTION((0.,0.,1.));
#1236=IFCDIRECTION((1.,0.,0.));
#1237=IFCAXIS2PLACEMENT3D(#1234,#1235,#1236);
#1238=IFCLOCALPLACEMENT($,#1237);
#1239=IFCBUILDINGELEMENTPROXY('2wamUgk_j1mQB1ZjN3Axp_',$,'ConsultLeg1',$,$,#1258,#1253,$,$);
#1245=IFCCARTESIANPOINT((0.,0.));
#1246=IFCAXIS2PLACEMENT2D(#1245,$);
#1247=IFCRECTANGLEPROFILEDEF(.AREA.,$,#1246,0.10000000000000001,0.10000000000000001);
#1248=IFCCARTESIANPOINT((0.,0.,-0.40000000000000002));
#1249=IFCAXIS2PLACEMENT3D(#1248,$,$);
#1250=IFCDIRECTION((0.,0.,1.));
#1251=IFCEXTRUDEDAREASOLID(#1247,#1249,#1250,0.80000000000000004);
#1252=IFCSHAPEREPRESENTATION(#11,'Body','SweptSolid',(#1251));
#1253=IFCPRODUCTDEFINITIONSHAPE($,$,(#1252));
#1254=IFCCARTESIANPOINT((-3.5,3.1000000000000001,0.20000000000000001));
#1255=IFCDIRECTION((0.,0.,1.));
#1256=IFCDIRECTION((1.,0.,0.));
#1257=IFCAXIS2PLACEMENT3D(#1254,#1255,#1256);
#1258=IFCLOCALPLACEMENT($,#1257);
#1259=IFCBUILDINGELEMENTPROXY('33FW8iFPvCNuTwQJyJSb2L',$,'ConsultLeg2',$,$,#1278,#1273,$,$);
#1265=IFCCARTESIANPOINT((0.,0.));
#1266=IFCAXIS2PLACEMENT2D(#1265,$);
#1267=IFCRECTANGLEPROFILEDEF(.AREA.,$,#1266,0.10000000000000001,0.10000000000000001);
#1268=IFCCARTESIANPOINT((0.,0.,-0.40000000000000002));
#1269=IFCAXIS2PLACEMENT3D(#1268,$,$);
#1270=IFCDIRECTION((0.,0.,1.));
#1271=IFCEXTRUDEDAREASOLID(#1267,#1269,#1270,0.80000000000000004);
#1272=IFCSHAPEREPRESENTATION(#11,'Body','SweptSolid',(#1271));
#1273=IFCPRODUCTDEFINITIONSHAPE($,$,(#1272));
#1274=IFCCARTESIANPOINT((-2.5,3.1000000000000001,0.20000000000000001));
#1275=IFCDIRECTION((0.,0.,1.));
#1276=IFCDIRECTION((1.,0.,0.));
#1277=IFCAXIS2PLACEMENT3D(#1274,#1275,#1276);
#1278=IFCLOCALPLACEMENT($,#1277);
#1279=IFCBUILDINGELEMENTPROXY('1LlSTktqLCa8PH7mM5lkkB',$,'ConsultLeg3',$,$,#1298,#1293,$,$);
#1285=IFCCARTESIANPOINT((0.,0.));
#1286=IFCAXIS2PLACEMENT2D(#1285,$);
#1287=IFCRECTANGLEPROFILEDEF(.AREA.,$,#1286,0.10000000000000001,0.10000000000000001);
#1288=IFCCARTESIANPOINT((0.,0.,-0.40000000000000002));
#1289=IFCAXIS2PLACEMENT3D(#1288,$,$);
#1290=IFCDIRECTION((0.,0.,1.));
#1291=IFCEXTRUDEDAREASOLID(#1287,#1289,#1290,0.80000000000000004);
#1292=IFCSHAPEREPRESENTATION(#11,'Body','SweptSolid',(#1291));
#1293=IFCPRODUCTDEFINITIONSHAPE($,$,(#1292));
#1294=IFCCARTESIANPOINT((-3.5,3.8999999999999999,0.20000000000000001));
#1295=IFCDIRECTION((0.,0.,1.));
#1296=IFCDIRECTION((1.,0.,0.));
#1297=IFCAXIS2PLACEMENT3D(#1294,#1295,#1296);
#1298=IFCLOCALPLACEMENT($,#1297);
#1299=IFCBUILDINGELEMENTPROXY('1Xdd5g7Qf3Kv0xcXtAzfqN',$,'ConsultLeg4',$,$,#1318,#1313,$,$);
#1305=IFCCARTESIANPOINT((0.,0.));
#1306=IFCAXIS2PLACEMENT2D(#1305,$);
#1307=IFCRECTANGLEPROFILEDEF(.AREA.,$,#1306,0.10000000000000001,0.10000000000000001);
#1308=IFCCARTESIANPOINT((0.,0.,-0.40000000000000002));
#1309=IFCAXIS2PLACEMENT3D(#1308,$,$);
#1310=IFCDIRECTION((0.,0.,1.));
#1311=IFCEXTRUDEDAREASOLID(#1307,#1309,#1310,0.80000000000000004);
#1312=IFCSHAPEREPRESENTATION(#11,'Body','SweptSolid',(#1311));
#1313=IFCPRODUCTDEFINITIONSHAPE($,$,(#1312));
#1314=IFCCARTESIANPOINT((-2.5,3.8999999999999999,0.20000000000000001));
#1315=IFCDIRECTION((0.,0.,1.));
#1316=IFCDIRECTION((1.,0.,0.));
#1317=IFCAXIS2PLACEMENT3D(#1314,#1315,#1316);
#1318=IFCLOCALPLACEMENT($,#1317);
#1319=IFCFURNITURE('2MQphktSf42RSaRaEPt1cG',$,'ConsultChair1',$,$,#1338,#1333,$,$);
#1325=IFCCARTESIANPOINT((0.,0.));
#1326=IFCAXIS2PLACEMENT2D(#1325,$);
#1327=IFCRECTANGLEPROFILEDEF(.AREA.,$,#1326,1.,1.);
#1328=IFCCARTESIANPOINT((0.,0.,-0.90000000000000002));
#1329=IFCAXIS2PLACEMENT3D(#1328,$,$);
#1330=IFCDIRECTION((0.,0.,1.));
#1331=IFCEXTRUDEDAREASOLID(#1327,#1329,#1330,1.8);
#1332=IFCSHAPEREPRESENTATION(#11,'Body','SweptSolid',(#1331));
#1333=IFCPRODUCTDEFINITIONSHAPE($,$,(#1332));
#1334=IFCCARTESIANPOINT((-3.7000000000000002,4.2999999999999998,0.45000000000000001));
#1335=IFCDIRECTION((0.,0.,1.));
#1336=IFCDIRECTION((1.,0.,0.));
#1337=IFCAXIS2PLACEMENT3D(#1334,#1335,#1336);
#1338=IFCLOCALPLACEMENT($,#1337);
#1339=IFCFURNITURE('1NHYIvR5f2bOsYywVTZ$CR',$,'ConsultChair2',$,$,#1358,#1353,$,$);
#1345=IFCCARTESIANPOINT((0.,0.));
#1346=IFCAXIS2PLACEMENT2D(#1345,$);
#1347=IFCRECTANGLEPROFILEDEF(.AREA.,$,#1346,1.,1.);
#1348=IFCCARTESIANPOINT((0.,0.,-0.90000000000000002));
#1349=IFCAXIS2PLACEMENT3D(#1348,$,$);
#1350=IFCDIRECTION((0.,0.,1.));
#1351=IFCEXTRUDEDAREASOLID(#1347,#1349,#1350,1.8);
#1352=IFCSHAPEREPRESENTATION(#11,'Body','SweptSolid',(#1351));
#1353=IFCPRODUCTDEFINITIONSHAPE($,$,(#1352));
#1354=IFCCARTESIANPOINT((-2.2999999999999998,4.2999999999999998,0.45000000000000001));
#1355=IFCDIRECTION((0.,0.,1.));
#1356=IFCDIRECTION((1.,0.,0.));
#1357=IFCAXIS2PLACEMENT3D(#1354,#1355,#1356);
#1358=IFCLOCALPLACEMENT($,#1357);
#1359=IFCWALL('0CV2Qj81D20hapBsZe5ba5',$,'ShowerWall1',$,$,#1378,#1373,$,$);
#1365=IFCCARTESIANPOINT((0.,0.));
#1366=IFCAXIS2PLACEMENT2D(#1365,$);
#1367=IFCRECTANGLEPROFILEDEF(.AREA.,$,#1366,0.10000000000000001,4.);
#1368=IFCCARTESIANPOINT((0.,0.,-2.5));
#1369=IFCAXIS2PLACEMENT3D(#1368,$,$);
#1370=IFCDIRECTION((0.,0.,1.));
#1371=IFCEXTRUDEDAREASOLID(#1367,#1369,#1370,5.);
#1372=IFCSHAPEREPRESENTATION(#11,'Body','SweptSolid',(#1371));
#1373=IFCPRODUCTDEFINITIONSHAPE($,$,(#1372));
#1374=IFCCARTESIANPOINT((2.,4.,1.25));
#1375=IFCDIRECTION((0.,0.,1.));
#1376=IFCDIRECTION((1.,0.,0.));
#1377=IFCAXIS2PLACEMENT3D(#1374,#1375,#1376);
#1378=IFCLOCALPLACEMENT($,#1377);
#1379=IFCWALL('2sP8OjflL6HODiat6CmkJP',$,'ShowerWall2',$,$,#1398,#1393,$,$);
#1385=IFCCARTESIANPOINT((0.,0.));
#1386=IFCAXIS2PLACEMENT2D(#1385,$);
#1387=IFCRECTANGLEPROFILEDEF(.AREA.,$,#1386,3.,0.10000000000000001);
#1388=IFCCARTESIANPOINT((0.,0.,-2.5));
#1389=IFCAXIS2PLACEMENT3D(#1388,$,$);
#1390=IFCDIRECTION((0.,0.,1.));
#1391=IFCEXTRUDEDAREASOLID(#1387,#1389,#1390,5.);
#1392=IFCSHAPEREPRESENTATION(#11,'Body','SweptSolid',(#1391));
#1393=IFCPRODUCTDEFINITIONSHAPE($,$,(#1392));
#1394=IFCCARTESIANPOINT((3.5,3.,1.25));
#1395=IFCDIRECTION((0.,0.,1.));
#1396=IFCDIRECTION((1.,0.,0.));
#1397=IFCAXIS2PLACEMENT3D(#1394,#1395,#1396);
#1398=IFCLOCALPLACEMENT($,#1397);
#1399=IFCSLAB('0TATD61_zCnPgktWcEzcmt',$,'ShowerFloor1',$,$,#1418,#1413,$,.FLOOR.);
#1405=IFCCARTESIANPOINT((0.,0.));
#1406=IFCAXIS2PLACEMENT2D(#1405,$);
#1407=IFCRECTANGLEPROFILEDEF(.AREA.,$,#1406,1.3999999999999999,1.3999999999999999);
#1408=IFCCARTESIANPOINT((0.,0.,-0.050000000000000003));
#1409=IFCAXIS2PLACEMENT3D(#1408,$,$);
#1410=IFCDIRECTION((0.,0.,1.));
#1411=IFCEXTRUDEDAREASOLID(#1407,#1409,#1410,0.10000000000000001);
#1412=IFCSHAPEREPRESENTATION(#11,'Body','SweptSolid',(#1411));
#1413=IFCPRODUCTDEFINITIONSHAPE($,$,(#1412));
#1414=IFCCARTESIANPOINT((2.7999999999999998,4.2000000000000002,0.040000000000000001));
#1415=IFCDIRECTION((0.,0.,1.));
#1416=IFCDIRECTION((1.,0.,0.));
#1417=IFCAXIS2PLACEMENT3D(#1414,#1415,#1416);
#1418=IFCLOCALPLACEMENT($,#1417);
#1419=IFCSLAB('2jLse2ouD33AhwFBglsyL9',$,'ShowerFloor2',$,$,#1438,#1433,$,.FLOOR.);
#1425=IFCCARTESIANPOINT((0.,0.));
#1426=IFCAXIS2PLACEMENT2D(#1425,$);
#1427=IFCRECTANGLEPROFILEDEF(.AREA.,$,#1426,1.3999999999999999,1.3999999999999999);
#1428=IFCCARTESIANPOINT((0.,0.,-0.050000000000000003));
#1429=IFCAXIS2PLACEMENT3D(#1428,$,$);
#1430=IFCDIRECTION((0.,0.,1.));
#1431=IFCEXTRUDEDAREASOLID(#1427,#1429,#1430,0.10000000000000001);
#1432=IFCSHAPEREPRESENTATION(#11,'Body','SweptSolid',(#1431));
#1433=IFCPRODUCTDEFINITIONSHAPE($,$,(#1432));
#1434=IFCCARTESIANPOINT((3.7999999999999998,4.2000000000000002,0.040000000000000001));
#1435=IFCDIRECTION((0.,0.,1.));
#1436=IFCDIRECTION((1.,0.,0.));
#1437=IFCAXIS2PLACEMENT3D(#1434,#1435,#1436);
#1438=IFCLOCALPLACEMENT($,#1437);
#1439=IFCBUILDINGELEMENTPROXY('0_AwE$vd14JhK0R5$UBgmD',$,'ShowerHead1',$,$,#1458,#1453,$,$);
#1445=IFCCARTESIANPOINT((0.,0.));
#1446=IFCAXIS2PLACEMENT2D(#1445,$);
#1447=IFCRECTANGLEPROFILEDEF(.AREA.,$,#1446,0.16,0.16);
#1448=IFCCARTESIANPOINT((0.,0.,-0.10000000000000001));
#1449=IFCAXIS2PLACEMENT3D(#1448,$,$);
#1450=IFCDIRECTION((0.,0.,1.));
#1451=IFCEXTRUDEDAREASOLID(#1447,#1449,#1450,0.20000000000000001);
#1452=IFCSHAPEREPRESENTATION(#11,'Body','SweptSolid',(#1451));
#1453=IFCPRODUCTDEFINITIONSHAPE($,$,(#1452));
#1454=IFCCARTESIANPOINT((2.7999999999999998,4.5,2.2000000000000002));
#1455=IFCDIRECTION((0.,0.,1.));
#1456=IFCDIRECTION((1.,0.,0.));
#1457=IFCAXIS2PLACEMENT3D(#1454,#1455,#1456);
#1458=IFCLOCALPLACEMENT($,#1457);
#1459=IFCBUILDINGELEMENTPROXY('2rUah4PijD6QDxcjJR1vRw',$,'ShowerHead2',$,$,#1478,#1473,$,$);
#1465=IFCCARTESIANPOINT((0.,0.));
#1466=IFCAXIS2PLACEMENT2D(#1465,$);
#1467=IFCRECTANGLEPROFILEDEF(.AREA.,$,#1466,0.16,0.16);
#1468=IFCCARTESIANPOINT((0.,0.,-0.10000000000000001));
#1469=IFCAXIS2PLACEMENT3D(#1468,$,$);
#1470=IFCDIRECTION((0.,0.,1.));
#1471=IFCEXTRUDEDAREASOLID(#1467,#1469,#1470,0.20000000000000001);
#1472=IFCSHAPEREPRESENTATION(#11,'Body','SweptSolid',(#1471));
#1473=IFCPRODUCTDEFINITIONSHAPE($,$,(#1472));
#1474=IFCCARTESIANPOINT((3.7999999999999998,4.5,2.2000000000000002));
#1475=IFCDIRECTION((0.,0.,1.));
#1476=IFCDIRECTION((1.,0.,0.));
#1477=IFCAXIS2PLACEMENT3D(#1474,#1475,#1476);
#1478=IFCLOCALPLACEMENT($,#1477);
#1479=IFCBUILDINGELEMENTPROXY('0HJCjaCgrETu0UP6X2G95I',$,'Sink',$,$,#1498,#1493,$,$);
#1485=IFCCARTESIANPOINT((0.,0.));
#1486=IFCAXIS2PLACEMENT2D(#1485,$);
#1487=IFCRECTANGLEPROFILEDEF(.AREA.,$,#1486,1.,0.80000000000000004);
#1488=IFCCARTESIANPOINT((0.,0.,-0.10000000000000001));
#1489=IFCAXIS2PLACEMENT3D(#1488,$,$);
#1490=IFCDIRECTION((0.,0.,1.));
#1491=IFCEXTRUDEDAREASOLID(#1487,#1489,#1490,0.20000000000000001);
#1492=IFCSHAPEREPRESENTATION(#11,'Body','SweptSolid',(#1491));
#1493=IFCPRODUCTDEFINITIONSHAPE($,$,(#1492));
#1494=IFCCARTESIANPOINT((4.2999999999999998,3.5,0.80000000000000004));
#1495=IFCDIRECTION((0.,0.,1.));
#1496=IFCDIRECTION((1.,0.,0.));
#1497=IFCAXIS2PLACEMENT3D(#1494,#1495,#1496);
#1498=IFCLOCALPLACEMENT($,#1497);
#1499=IFCBUILDINGELEMENTPROXY('0h1gsqibbAX9wiaD0G4CvT',$,'SinkMirror',$,$,#1518,#1513,$,$);
#1505=IFCCARTESIANPOINT((0.,0.));
#1506=IFCAXIS2PLACEMENT2D(#1505,$);
#1507=IFCRECTANGLEPROFILEDEF(.AREA.,$,#1506,0.10000000000000001,0.80000000000000004);
#1508=IFCCARTESIANPOINT((0.,0.,-0.59999999999999998));
#1509=IFCAXIS2PLACEMENT3D(#1508,$,$);
#1510=IFCDIRECTION((0.,0.,1.));
#1511=IFCEXTRUDEDAREASOLID(#1507,#1509,#1510,1.2);
#1512=IFCSHAPEREPRESENTATION(#11,'Body','SweptSolid',(#1511));
#1513=IFCPRODUCTDEFINITIONSHAPE($,$,(#1512));
#1514=IFCCARTESIANPOINT((4.5999999999999996,3.5,1.5));
#1515=IFCDIRECTION((0.,0.,1.));
#1516=IFCDIRECTION((1.,0.,0.));
#1517=IFCAXIS2PLACEMENT3D(#1514,#1515,#1516);
#1518=IFCLOCALPLACEMENT($,#1517);
#1519=IFCBUILDINGELEMENTPROXY('2gIfjY75HA$878sxO1UNDS',$,'StorageCabinet',$,$,#1538,#1533,$,$);
#1525=IFCCARTESIANPOINT((0.,0.));
#1526=IFCAXIS2PLACEMENT2D(#1525,$);
#1527=IFCRECTANGLEPROFILEDEF(.AREA.,$,#1526,1.2,1.6000000000000001);
#1528=IFCCARTESIANPOINT((0.,0.,-2.));
#1529=IFCAXIS2PLACEMENT3D(#1528,$,$);
#1530=IFCDIRECTION((0.,0.,1.));
#1531=IFCEXTRUDEDAREASOLID(#1527,#1529,#1530,4.);
#1532=IFCSHAPEREPRESENTATION(#11,'Body','SweptSolid',(#1531));
#1533=IFCPRODUCTDEFINITIONSHAPE($,$,(#1532));
#1534=IFCCARTESIANPOINT((-4.2000000000000002,4.5,1.));
#1535=IFCDIRECTION((0.,0.,1.));
#1536=IFCDIRECTION((1.,0.,0.));
#1537=IFCAXIS2PLACEMENT3D(#1534,#1535,#1536);
#1538=IFCLOCALPLACEMENT($,#1537);
#1539=IFCBUILDINGELEMENTPROXY('2B02$I$hfCYethWoI2EEMV',$,'YogaBall1',$,$,#1558,#1553,$,$);
#1545=IFCCARTESIANPOINT((0.,0.));
#1546=IFCAXIS2PLACEMENT2D(#1545,$);
#1547=IFCRECTANGLEPROFILEDEF(.AREA.,$,#1546,0.80000000000000004,0.80000000000000004);
#1548=IFCCARTESIANPOINT((0.,0.,-0.40000000000000002));
#1549=IFCAXIS2PLACEMENT3D(#1548,$,$);
#1550=IFCDIRECTION((0.,0.,1.));
#1551=IFCEXTRUDEDAREASOLID(#1547,#1549,#1550,0.80000000000000004);
#1552=IFCSHAPEREPRESENTATION(#11,'Body','SweptSolid',(#1551));
#1553=IFCPRODUCTDEFINITIONSHAPE($,$,(#1552));
#1554=IFCCARTESIANPOINT((-0.5,3.7999999999999998,0.40000000000000002));
#1555=IFCDIRECTION((0.,0.,1.));
#1556=IFCDIRECTION((1.,0.,0.));
#1557=IFCAXIS2PLACEMENT3D(#1554,#1555,#1556);
#1558=IFCLOCALPLACEMENT($,#1557);
#1559=IFCBUILDINGELEMENTPROXY('27yqk_hhX0kR5uxgGM0aed',$,'YogaBall2',$,$,#1578,#1573,$,$);
#1565=IFCCARTESIANPOINT((0.,0.));
#1566=IFCAXIS2PLACEMENT2D(#1565,$);
#1567=IFCRECTANGLEPROFILEDEF(.AREA.,$,#1566,0.80000000000000004,0.80000000000000004);
#1568=IFCCARTESIANPOINT((0.,0.,-0.40000000000000002));
#1569=IFCAXIS2PLACEMENT3D(#1568,$,$);
#1570=IFCDIRECTION((0.,0.,1.));
#1571=IFCEXTRUDEDAREASOLID(#1567,#1569,#1570,0.80000000000000004);
#1572=IFCSHAPEREPRESENTATION(#11,'Body','SweptSolid',(#1571));
#1573=IFCPRODUCTDEFINITIONSHAPE($,$,(#1572));
#1574=IFCCARTESIANPOINT((0.,3.7999999999999998,0.40000000000000002));
#1575=IFCDIRECTION((0.,0.,1.));
#1576=IFCDIRECTION((1.,0.,0.));
#1577=IFCAXIS2PLACEMENT3D(#1574,#1575,#1576);
#1578=IFCLOCALPLACEMENT($,#1577);
#1579=IFCBUILDINGELEMENTPROXY('1HlHBJhvb6BgfV3JXhwgDi',$,'FoamRoller1',$,$,#1598,#1593,$,$);
#1585=IFCCARTESIANPOINT((0.,0.));
#1586=IFCAXIS2PLACEMENT2D(#1585,$);
#1587=IFCRECTANGLEPROFILEDEF(.AREA.,$,#1586,0.29999999999999999,0.29999999999999999);
#1588=IFCCARTESIANPOINT((0.,0.,-0.45000000000000001));
#1589=IFCAXIS2PLACEMENT3D(#1588,$,$);
#1590=IFCDIRECTION((0.,0.,1.));
#1591=IFCEXTRUDEDAREASOLID(#1587,#1589,#1590,0.90000000000000002);
#1592=IFCSHAPEREPRESENTATION(#11,'Body','SweptSolid',(#1591));
#1593=IFCPRODUCTDEFINITIONSHAPE($,$,(#1592));
#1594=IFCCARTESIANPOINT((0.5,3.7999999999999998,0.14999999999999999));
#1595=IFCDIRECTION((0.,0.,1.));
#1596=IFCDIRECTION((1.,0.,0.));
#1597=IFCAXIS2PLACEMENT3D(#1594,#1595,#1596);
#1598=IFCLOCALPLACEMENT($,#1597);
#1599=IFCBUILDINGELEMENTPROXY('3obX2pKwr0dvtKCdKIxyRF',$,'FoamRoller2',$,$,#1618,#1613,$,$);
#1605=IFCCARTESIANPOINT((0.,0.));
#1606=IFCAXIS2PLACEMENT2D(#1605,$);
#1607=IFCRECTANGLEPROFILEDEF(.AREA.,$,#1606,0.29999999999999999,0.29999999999999999);
#1608=IFCCARTESIANPOINT((0.,0.,-0.45000000000000001));
#1609=IFCAXIS2PLACEMENT3D(#1608,$,$);
#1610=IFCDIRECTION((0.,0.,1.));
#1611=IFCEXTRUDEDAREASOLID(#1607,#1609,#1610,0.90000000000000002);
#1612=IFCSHAPEREPRESENTATION(#11,'Body','SweptSolid',(#1611));
#1613=IFCPRODUCTDEFINITIONSHAPE($,$,(#1612));
#1614=IFCCARTESIANPOINT((1.,3.7999999999999998,0.14999999999999999));
#1615=IFCDIRECTION((0.,0.,1.));
#1616=IFCDIRECTION((1.,0.,0.));
#1617=IFCAXIS2PLACEMENT3D(#1614,#1615,#1616);
#1618=IFCLOCALPLACEMENT($,#1617);
#1619=IFCFURNITURE('1ABPcHH$z1FRsphsY_LLlB',$,'TrackLight_A0',$,$,#1638,#1633,$,$);
#1625=IFCCARTESIANPOINT((0.,0.));
#1626=IFCAXIS2PLACEMENT2D(#1625,$);
#1627=IFCRECTANGLEPROFILEDEF(.AREA.,$,#1626,0.20000000000000001,0.20000000000000001);
#1628=IFCCARTESIANPOINT((0.,0.,-0.10000000000000001));
#1629=IFCAXIS2PLACEMENT3D(#1628,$,$);
#1630=IFCDIRECTION((0.,0.,1.));
#1631=IFCEXTRUDEDAREASOLID(#1627,#1629,#1630,0.20000000000000001);
#1632=IFCSHAPEREPRESENTATION(#11,'Body','SweptSolid',(#1631));
#1633=IFCPRODUCTDEFINITIONSHAPE($,$,(#1632));
#1634=IFCCARTESIANPOINT((-3.5,-1.5,3.3999999999999999));
#1635=IFCDIRECTION((0.,0.,1.));
#1636=IFCDIRECTION((1.,0.,0.));
#1637=IFCAXIS2PLACEMENT3D(#1634,#1635,#1636);
#1638=IFCLOCALPLACEMENT($,#1637);
#1639=IFCFURNITURE('1PZFUwHI95aPNd6LFt6hpV',$,'TrackLight_B0',$,$,#1658,#1653,$,$);
#1645=IFCCARTESIANPOINT((0.,0.));
#1646=IFCAXIS2PLACEMENT2D(#1645,$);
#1647=IFCRECTANGLEPROFILEDEF(.AREA.,$,#1646,0.20000000000000001,0.20000000000000001);
#1648=IFCCARTESIANPOINT((0.,0.,-0.10000000000000001));
#1649=IFCAXIS2PLACEMENT3D(#1648,$,$);
#1650=IFCDIRECTION((0.,0.,1.));
#1651=IFCEXTRUDEDAREASOLID(#1647,#1649,#1650,0.20000000000000001);
#1652=IFCSHAPEREPRESENTATION(#11,'Body','SweptSolid',(#1651));
#1653=IFCPRODUCTDEFINITIONSHAPE($,$,(#1652));
#1654=IFCCARTESIANPOINT((-3.5,1.5,3.3999999999999999));
#1655=IFCDIRECTION((0.,0.,1.));
#1656=IFCDIRECTION((1.,0.,0.));
#1657=IFCAXIS2PLACEMENT3D(#1654,#1655,#1656);
#1658=IFCLOCALPLACEMENT($,#1657);
#1659=IFCFURNITURE('0pQz0clIrAOwZQQd4YntSm',$,'TrackLight_A1',$,$,#1678,#1673,$,$);
#1665=IFCCARTESIANPOINT((0.,0.));
#1666=IFCAXIS2PLACEMENT2D(#1665,$);
#1667=IFCRECTANGLEPROFILEDEF(.AREA.,$,#1666,0.20000000000000001,0.20000000000000001);
#1668=IFCCARTESIANPOINT((0.,0.,-0.10000000000000001));
#1669=IFCAXIS2PLACEMENT3D(#1668,$,$);
#1670=IFCDIRECTION((0.,0.,1.));
#1671=IFCEXTRUDEDAREASOLID(#1667,#1669,#1670,0.20000000000000001);
#1672=IFCSHAPEREPRESENTATION(#11,'Body','SweptSolid',(#1671));
#1673=IFCPRODUCTDEFINITIONSHAPE($,$,(#1672));
#1674=IFCCARTESIANPOINT((-1.,-1.5,3.3999999999999999));
#1675=IFCDIRECTION((0.,0.,1.));
#1676=IFCDIRECTION((1.,0.,0.));
#1677=IFCAXIS2PLACEMENT3D(#1674,#1675,#1676);
#1678=IFCLOCALPLACEMENT($,#1677);
#1679=IFCFURNITURE('1w3OtTFx575PpMN7V1Uq7c',$,'TrackLight_B1',$,$,#1698,#1693,$,$);
#1685=IFCCARTESIANPOINT((0.,0.));
#1686=IFCAXIS2PLACEMENT2D(#1685,$);
#1687=IFCRECTANGLEPROFILEDEF(.AREA.,$,#1686,0.20000000000000001,0.20000000000000001);
#1688=IFCCARTESIANPOINT((0.,0.,-0.10000000000000001));
#1689=IFCAXIS2PLACEMENT3D(#1688,$,$);
#1690=IFCDIRECTION((0.,0.,1.));
#1691=IFCEXTRUDEDAREASOLID(#1687,#1689,#1690,0.20000000000000001);
#1692=IFCSHAPEREPRESENTATION(#11,'Body','SweptSolid',(#1691));
#1693=IFCPRODUCTDEFINITIONSHAPE($,$,(#1692));
#1694=IFCCARTESIANPOINT((-1.,1.5,3.3999999999999999));
#1695=IFCDIRECTION((0.,0.,1.));
#1696=IFCDIRECTION((1.,0.,0.));
#1697=IFCAXIS2PLACEMENT3D(#1694,#1695,#1696);
#1698=IFCLOCALPLACEMENT($,#1697);
#1699=IFCFURNITURE('0TSDVONijBuvqVXu0bxBWG',$,'TrackLight_A2',$,$,#1718,#1713,$,$);
#1705=IFCCARTESIANPOINT((0.,0.));
#1706=IFCAXIS2PLACEMENT2D(#1705,$);
#1707=IFCRECTANGLEPROFILEDEF(.AREA.,$,#1706,0.20000000000000001,0.20000000000000001);
#1708=IFCCARTESIANPOINT((0.,0.,-0.10000000000000001));
#1709=IFCAXIS2PLACEMENT3D(#1708,$,$);
#1710=IFCDIRECTION((0.,0.,1.));
#1711=IFCEXTRUDEDAREASOLID(#1707,#1709,#1710,0.20000000000000001);
#1712=IFCSHAPEREPRESENTATION(#11,'Body','SweptSolid',(#1711));
#1713=IFCPRODUCTDEFINITIONSHAPE($,$,(#1712));
#1714=IFCCARTESIANPOINT((1.5,-1.5,3.3999999999999999));
#1715=IFCDIRECTION((0.,0.,1.));
#1716=IFCDIRECTION((1.,0.,0.));
#1717=IFCAXIS2PLACEMENT3D(#1714,#1715,#1716);
#1718=IFCLOCALPLACEMENT($,#1717);
#1719=IFCFURNITURE('0nUqPX2VbFUAxL9BiiD5ps',$,'TrackLight_B2',$,$,#1738,#1733,$,$);
#1725=IFCCARTESIANPOINT((0.,0.));
#1726=IFCAXIS2PLACEMENT2D(#1725,$);
#1727=IFCRECTANGLEPROFILEDEF(.AREA.,$,#1726,0.20000000000000001,0.20000000000000001);
#1728=IFCCARTESIANPOINT((0.,0.,-0.10000000000000001));
#1729=IFCAXIS2PLACEMENT3D(#1728,$,$);
#1730=IFCDIRECTION((0.,0.,1.));
#1731=IFCEXTRUDEDAREASOLID(#1727,#1729,#1730,0.20000000000000001);
#1732=IFCSHAPEREPRESENTATION(#11,'Body','SweptSolid',(#1731));
#1733=IFCPRODUCTDEFINITIONSHAPE($,$,(#1732));
#1734=IFCCARTESIANPOINT((1.5,1.5,3.3999999999999999));
#1735=IFCDIRECTION((0.,0.,1.));
#1736=IFCDIRECTION((1.,0.,0.));
#1737=IFCAXIS2PLACEMENT3D(#1734,#1735,#1736);
#1738=IFCLOCALPLACEMENT($,#1737);
#1739=IFCFURNITURE('2i0HdCv4P8IhETTqmDgbwZ',$,'TrackLight_A3',$,$,#1758,#1753,$,$);
#1745=IFCCARTESIANPOINT((0.,0.));
#1746=IFCAXIS2PLACEMENT2D(#1745,$);
#1747=IFCRECTANGLEPROFILEDEF(.AREA.,$,#1746,0.20000000000000001,0.20000000000000001);
#1748=IFCCARTESIANPOINT((0.,0.,-0.10000000000000001));
#1749=IFCAXIS2PLACEMENT3D(#1748,$,$);
#1750=IFCDIRECTION((0.,0.,1.));
#1751=IFCEXTRUDEDAREASOLID(#1747,#1749,#1750,0.20000000000000001);
#1752=IFCSHAPEREPRESENTATION(#11,'Body','SweptSolid',(#1751));
#1753=IFCPRODUCTDEFINITIONSHAPE($,$,(#1752));
#1754=IFCCARTESIANPOINT((4.,-1.5,3.3999999999999999));
#1755=IFCDIRECTION((0.,0.,1.));
#1756=IFCDIRECTION((1.,0.,0.));
#1757=IFCAXIS2PLACEMENT3D(#1754,#1755,#1756);
#1758=IFCLOCALPLACEMENT($,#1757);
#1759=IFCFURNITURE('1WsYl26GH2femDw6U9s7j0',$,'TrackLight_B3',$,$,#1778,#1773,$,$);
#1765=IFCCARTESIANPOINT((0.,0.));
#1766=IFCAXIS2PLACEMENT2D(#1765,$);
#1767=IFCRECTANGLEPROFILEDEF(.AREA.,$,#1766,0.20000000000000001,0.20000000000000001);
#1768=IFCCARTESIANPOINT((0.,0.,-0.10000000000000001));
#1769=IFCAXIS2PLACEMENT3D(#1768,$,$);
#1770=IFCDIRECTION((0.,0.,1.));
#1771=IFCEXTRUDEDAREASOLID(#1767,#1769,#1770,0.20000000000000001);
#1772=IFCSHAPEREPRESENTATION(#11,'Body','SweptSolid',(#1771));
#1773=IFCPRODUCTDEFINITIONSHAPE($,$,(#1772));
#1774=IFCCARTESIANPOINT((4.,1.5,3.3999999999999999));
#1775=IFCDIRECTION((0.,0.,1.));
#1776=IFCDIRECTION((1.,0.,0.));
#1777=IFCAXIS2PLACEMENT3D(#1774,#1775,#1776);
#1778=IFCLOCALPLACEMENT($,#1777);
#1779=IFCBUILDINGELEMENTPROXY('2YBdhttr5ADeu9TCvqDgSU',$,'AccentStripe',$,$,#1798,#1793,$,$);
#1785=IFCCARTESIANPOINT((0.,0.));
#1786=IFCAXIS2PLACEMENT2D(#1785,$);
#1787=IFCRECTANGLEPROFILEDEF(.AREA.,$,#1786,6.,0.10000000000000001);
#1788=IFCCARTESIANPOINT((0.,0.,-0.14999999999999999));
#1789=IFCAXIS2PLACEMENT3D(#1788,$,$);
#1790=IFCDIRECTION((0.,0.,1.));
#1791=IFCEXTRUDEDAREASOLID(#1787,#1789,#1790,0.29999999999999999);
#1792=IFCSHAPEREPRESENTATION(#11,'Body','SweptSolid',(#1791));
#1793=IFCPRODUCTDEFINITIONSHAPE($,$,(#1792));
#1794=IFCCARTESIANPOINT((0.,4.9199999999999999,2.7999999999999998));
#1795=IFCDIRECTION((0.,0.,1.));
#1796=IFCDIRECTION((1.,0.,0.));
#1797=IFCAXIS2PLACEMENT3D(#1794,#1795,#1796);
#1798=IFCLOCALPLACEMENT($,#1797);
#1799=IFCBUILDINGELEMENTPROXY('0MQpb_r8L8dg4tgbQ5ollP',$,'RedAccent',$,$,#1818,#1813,$,$);
#1805=IFCCARTESIANPOINT((0.,0.));
#1806=IFCAXIS2PLACEMENT2D(#1805,$);
#1807=IFCRECTANGLEPROFILEDEF(.AREA.,$,#1806,0.040000000000000001,2.3999999999999999);
#1808=IFCCARTESIANPOINT((0.,0.,-0.25));
#1809=IFCAXIS2PLACEMENT3D(#1808,$,$);
#1810=IFCDIRECTION((0.,0.,1.));
#1811=IFCEXTRUDEDAREASOLID(#1807,#1809,#1810,0.5);
#1812=IFCSHAPEREPRESENTATION(#11,'Body','SweptSolid',(#1811));
#1813=IFCPRODUCTDEFINITIONSHAPE($,$,(#1812));
#1814=IFCCARTESIANPOINT((4.8799999999999999,-4.,2.5));
#1815=IFCDIRECTION((0.,0.,1.));
#1816=IFCDIRECTION((1.,0.,0.));
#1817=IFCAXIS2PLACEMENT3D(#1814,#1815,#1816);
#1818=IFCLOCALPLACEMENT($,#1817);
#1819=IFCPROPERTYSINGLEVALUE('IsExternal',$,IFCBOOLEAN(.T.),$);
#1820=IFCPROPERTYSINGLEVALUE('LoadBearing',$,IFCBOOLEAN(.F.),$);
#1821=IFCPROPERTYSINGLEVALUE('ThermalTransmittance',$,IFCREAL(1.8),$);
#1822=IFCPROPERTYSINGLEVALUE('FireRating',$,IFCLABEL('60min'),$);
#1823=IFCPROPERTYSET('0JpgVnwQP1wuB5kmwX0k0X',$,'Pset_WallCommon',$,(#1819,#1820,#1821,#1822));
#1824=IFCRELDEFINESBYPROPERTIES('3xL96xGpH2tfwDhQGoRhUt',$,$,$,(#79),#1823);
#1825=IFCMATERIAL('Brick_Common',$,$);
#1826=IFCPROPERTYSINGLEVALUE('ThermalConductivity',$,IFCREAL(0.71999999999999997),$);
#1827=IFCPROPERTYSINGLEVALUE('SpecificHeatCapacity',$,IFCREAL(840.),$);
#1828=IFCPROPERTYSINGLEVALUE('MassDensity',$,IFCREAL(1920.),$);
#1829=IFCMATERIALPROPERTIES('Pset_MaterialThermal',$,(#1826,#1827,#1828),#1825);
#1830=IFCRELASSOCIATESMATERIAL('1pUQci7xr6DR7cpR8hrc0H',$,$,$,(#79),#1825);
#1831=IFCQUANTITYLENGTH('Length',$,$,20.,$);
#1832=IFCQUANTITYLENGTH('Height',$,$,7.,$);
#1833=IFCQUANTITYAREA('GrossArea',$,$,140.,$);
#1834=IFCQUANTITYAREA('NetArea',$,$,126.,$);
#1835=IFCQUANTITYVOLUME('GrossVolume',$,$,42.,$);
#1836=IFCELEMENTQUANTITY('2uU3Ik4FvCUhUfXMYTQGzy',$,'Qto_WallBaseQuantities',$,$,(#1831,#1832,#1833,#1834,#1835));
#1837=IFCRELDEFINESBYPROPERTIES('0ImnzSUC5FyfOACetRx5UO',$,$,$,(#79),#1836);
#1838=IFCPROPERTYSINGLEVALUE('IsExternal',$,IFCBOOLEAN(.T.),$);
#1839=IFCPROPERTYSINGLEVALUE('LoadBearing',$,IFCBOOLEAN(.F.),$);
#1840=IFCPROPERTYSINGLEVALUE('ThermalTransmittance',$,IFCREAL(1.8),$);
#1841=IFCPROPERTYSINGLEVALUE('FireRating',$,IFCLABEL('60min'),$);
#1842=IFCPROPERTYSET('2jzm36gCb2jf8BkA4Bw_Zx',$,'Pset_WallCommon',$,(#1838,#1839,#1840,#1841));
#1843=IFCRELDEFINESBYPROPERTIES('1Qn8zEWln6dBiojAmtwUVX',$,$,$,(#99),#1842);
#1844=IFCRELASSOCIATESMATERIAL('2pPkhQ$cjFkRnQvSD9tnP2',$,$,$,(#99),#1825);
#1845=IFCQUANTITYLENGTH('Length',$,$,20.,$);
#1846=IFCQUANTITYLENGTH('Height',$,$,7.,$);
#1847=IFCQUANTITYAREA('GrossArea',$,$,140.,$);
#1848=IFCQUANTITYAREA('NetArea',$,$,126.,$);
#1849=IFCQUANTITYVOLUME('GrossVolume',$,$,42.,$);
#1850=IFCELEMENTQUANTITY('0U$Z5SKsr3Lv6jbdtFbfcx',$,'Qto_WallBaseQuantities',$,$,(#1845,#1846,#1847,#1848,#1849));
#1851=IFCRELDEFINESBYPROPERTIES('3QW$X8REj5Z9EXYAItnRyf',$,$,$,(#99),#1850);
#1852=IFCPROPERTYSINGLEVALUE('IsExternal',$,IFCBOOLEAN(.T.),$);
#1853=IFCPROPERTYSINGLEVALUE('LoadBearing',$,IFCBOOLEAN(.F.),$);
#1854=IFCPROPERTYSINGLEVALUE('ThermalTransmittance',$,IFCREAL(1.8),$);
#1855=IFCPROPERTYSINGLEVALUE('FireRating',$,IFCLABEL('60min'),$);
#1856=IFCPROPERTYSET('2WAC7sXsL6MwqS79SxG2Js',$,'Pset_WallCommon',$,(#1852,#1853,#1854,#1855));
#1857=IFCRELDEFINESBYPROPERTIES('2MP3t7vTLCP8d6qdNOcUnH',$,$,$,(#119),#1856);
#1858=IFCRELASSOCIATESMATERIAL('0IHvXxrQj4q80AF3EXSC$1',$,$,$,(#119),#1825);
#1859=IFCQUANTITYLENGTH('Length',$,$,20.,$);
#1860=IFCQUANTITYLENGTH('Height',$,$,7.,$);
#1861=IFCQUANTITYAREA('GrossArea',$,$,1.3999999999999999,$);
#1862=IFCQUANTITYAREA('NetArea',$,$,1.26,$);
#1863=IFCQUANTITYVOLUME('GrossVolume',$,$,0.28000000000000003,$);
#1864=IFCELEMENTQUANTITY('0TQE2zebr2lwcjpZ9NQLph',$,'Qto_WallBaseQuantities',$,$,(#1859,#1860,#1861,#1862,#1863));
#1865=IFCRELDEFINESBYPROPERTIES('3zOCwDCZrDGxsJ2iAb3NNb',$,$,$,(#119),#1864);
#1866=IFCPROPERTYSINGLEVALUE('IsExternal',$,IFCBOOLEAN(.T.),$);
#1867=IFCPROPERTYSINGLEVALUE('LoadBearing',$,IFCBOOLEAN(.F.),$);
#1868=IFCPROPERTYSINGLEVALUE('ThermalTransmittance',$,IFCREAL(1.8),$);
#1869=IFCPROPERTYSINGLEVALUE('FireRating',$,IFCLABEL('60min'),$);
#1870=IFCPROPERTYSET('2JwUozQyrBgu$nRp23nOzI',$,'Pset_WallCommon',$,(#1866,#1867,#1868,#1869));
#1871=IFCRELDEFINESBYPROPERTIES('35utS3EZ55Uf1lx0lN$jLi',$,$,$,(#139),#1870);
#1872=IFCRELASSOCIATESMATERIAL('3YZiu6i8r9qvunbdijWcw$',$,$,$,(#139),#1825);
#1873=IFCQUANTITYLENGTH('Length',$,$,20.,$);
#1874=IFCQUANTITYLENGTH('Height',$,$,7.,$);
#1875=IFCQUANTITYAREA('GrossArea',$,$,2.1000000000000001,$);
#1876=IFCQUANTITYAREA('NetArea',$,$,1.8899999999999999,$);
#1877=IFCQUANTITYVOLUME('GrossVolume',$,$,0.63,$);
#1878=IFCELEMENTQUANTITY('0MiUZXCFfBZw24EHfbqaZR',$,'Qto_WallBaseQuantities',$,$,(#1873,#1874,#1875,#1876,#1877));
#1879=IFCRELDEFINESBYPROPERTIES('0xuOt9dXnAz9z6QmovEdzi',$,$,$,(#139),#1878);
#1880=IFCPROPERTYSINGLEVALUE('IsExternal',$,IFCBOOLEAN(.T.),$);
#1881=IFCPROPERTYSINGLEVALUE('LoadBearing',$,IFCBOOLEAN(.F.),$);
#1882=IFCPROPERTYSINGLEVALUE('ThermalTransmittance',$,IFCREAL(1.8),$);
#1883=IFCPROPERTYSINGLEVALUE('FireRating',$,IFCLABEL('60min'),$);
#1884=IFCPROPERTYSET('2JF1k4hfL6QQmpQIxbUz98',$,'Pset_WallCommon',$,(#1880,#1881,#1882,#1883));
#1885=IFCRELDEFINESBYPROPERTIES('2ECyC587vF5vyYNlWEbh_b',$,$,$,(#1359),#1884);
#1886=IFCRELASSOCIATESMATERIAL('0h5Ja9SvbFcvFLAX_LCsvJ',$,$,$,(#1359),#1825);
#1887=IFCQUANTITYLENGTH('Length',$,$,4.,$);
#1888=IFCQUANTITYLENGTH('Height',$,$,5.,$);
#1889=IFCQUANTITYAREA('GrossArea',$,$,0.5,$);
#1890=IFCQUANTITYAREA('NetArea',$,$,0.45000000000000001,$);
#1891=IFCQUANTITYVOLUME('GrossVolume',$,$,0.050000000000000003,$);
#1892=IFCELEMENTQUANTITY('2ySbc3m4z29Pj$Hz80OsUx',$,'Qto_WallBaseQuantities',$,$,(#1887,#1888,#1889,#1890,#1891));
#1893=IFCRELDEFINESBYPROPERTIES('1UoaRsOYr4Jgv0rPlFdzdL',$,$,$,(#1359),#1892);
#1894=IFCPROPERTYSINGLEVALUE('IsExternal',$,IFCBOOLEAN(.F.),$);
#1895=IFCPROPERTYSINGLEVALUE('LoadBearing',$,IFCBOOLEAN(.F.),$);
#1896=IFCPROPERTYSINGLEVALUE('ThermalTransmittance',$,IFCREAL(2.5),$);
#1897=IFCPROPERTYSINGLEVALUE('FireRating',$,IFCLABEL('30min'),$);
#1898=IFCPROPERTYSET('1AlrhPyRjDsuwD3QM6IytU',$,'Pset_WallCommon',$,(#1894,#1895,#1896,#1897));
#1899=IFCRELDEFINESBYPROPERTIES('2EH7AUxEXFkfD4psnmVBeb',$,$,$,(#1379),#1898);
#1900=IFCRELASSOCIATESMATERIAL('30ap$HTybB8QiLzkkaXb8l',$,$,$,(#1379),#1825);
#1901=IFCQUANTITYLENGTH('Length',$,$,3.,$);
#1902=IFCQUANTITYLENGTH('Height',$,$,5.,$);
#1903=IFCQUANTITYAREA('GrossArea',$,$,15.,$);
#1904=IFCQUANTITYAREA('NetArea',$,$,13.5,$);
#1905=IFCQUANTITYVOLUME('GrossVolume',$,$,1.5,$);
#1906=IFCELEMENTQUANTITY('2WL4LN$iH8R80y6jWkWwxQ',$,'Qto_WallBaseQuantities',$,$,(#1901,#1902,#1903,#1904,#1905));
#1907=IFCRELDEFINESBYPROPERTIES('2duyCUmNHCdBKoGayt_tJm',$,$,$,(#1379),#1906);
#1908=IFCPROPERTYSINGLEVALUE('IsExternal',$,IFCBOOLEAN(.F.),$);
#1909=IFCPROPERTYSINGLEVALUE('LoadBearing',$,IFCBOOLEAN(.T.),$);
#1910=IFCPROPERTYSINGLEVALUE('ThermalTransmittance',$,IFCREAL(1.5),$);
#1911=IFCPROPERTYSET('3Yp0lTwBn1MPSaUPWFBW2y',$,'Pset_SlabCommon',$,(#1908,#1909,#1910));
#1912=IFCRELDEFINESBYPROPERTIES('3$39RAElP0FwEr8nN28EM2',$,$,$,(#18),#1911);
#1913=IFCMATERIAL('Concrete_C30',$,$);
#1914=IFCPROPERTYSINGLEVALUE('ThermalConductivity',$,IFCREAL(1.74),$);
#1915=IFCPROPERTYSINGLEVALUE('SpecificHeatCapacity',$,IFCREAL(920.),$);
#1916=IFCPROPERTYSINGLEVALUE('MassDensity',$,IFCREAL(2400.),$);
#1917=IFCMATERIALPROPERTIES('Pset_MaterialThermal',$,(#1914,#1915,#1916),#1913);
#1918=IFCRELASSOCIATESMATERIAL('39qJP7IGH7TBdxpRcvVIlU',$,$,$,(#18),#1913);
#1919=IFCQUANTITYAREA('GrossArea',$,$,400.,$);
#1920=IFCQUANTITYVOLUME('GrossVolume',$,$,80.,$);
#1921=IFCELEMENTQUANTITY('0nv8Wh_GL228almD_428oM',$,'Qto_SlabBaseQuantities',$,$,(#1919,#1920));
#1922=IFCRELDEFINESBYPROPERTIES('1sTxZDiln1cvi1HhC7HIW5',$,$,$,(#18),#1921);
#1923=IFCPROPERTYSINGLEVALUE('IsExternal',$,IFCBOOLEAN(.F.),$);
#1924=IFCPROPERTYSINGLEVALUE('LoadBearing',$,IFCBOOLEAN(.T.),$);
#1925=IFCPROPERTYSINGLEVALUE('ThermalTransmittance',$,IFCREAL(1.5),$);
#1926=IFCPROPERTYSET('15TDZiMwDEMgAji_UUZS19',$,'Pset_SlabCommon',$,(#1923,#1924,#1925));
#1927=IFCRELDEFINESBYPROPERTIES('3Epw6fruH8u8c_ayXnaye6',$,$,$,(#39),#1926);
#1928=IFCRELASSOCIATESMATERIAL('0Xwe9nn2T2mfVcGLwFwxtQ',$,$,$,(#39),#1913);
#1929=IFCQUANTITYAREA('GrossArea',$,$,100.,$);
#1930=IFCQUANTITYVOLUME('GrossVolume',$,$,15.,$);
#1931=IFCELEMENTQUANTITY('3flry3Hej9BvgktVDewmES',$,'Qto_SlabBaseQuantities',$,$,(#1929,#1930));
#1932=IFCRELDEFINESBYPROPERTIES('0$WaCQaFDBhBft$8DnaD2w',$,$,$,(#39),#1931);
#1933=IFCPROPERTYSINGLEVALUE('IsExternal',$,IFCBOOLEAN(.T.),$);
#1934=IFCPROPERTYSINGLEVALUE('LoadBearing',$,IFCBOOLEAN(.T.),$);
#1935=IFCPROPERTYSINGLEVALUE('ThermalTransmittance',$,IFCREAL(0.80000000000000004),$);
#1936=IFCPROPERTYSET('2FaFsbM799ZgNGO2Opf8I0',$,'Pset_SlabCommon',$,(#1933,#1934,#1935));
#1937=IFCRELDEFINESBYPROPERTIES('2u2ROWgs58EvotQwnNQGWa',$,$,$,(#59),#1936);
#1938=IFCRELASSOCIATESMATERIAL('3piTxBPPvE_wQ_hBNcyA9g',$,$,$,(#59),#1913);
#1939=IFCQUANTITYAREA('GrossArea',$,$,400.,$);
#1940=IFCQUANTITYVOLUME('GrossVolume',$,$,80.,$);
#1941=IFCELEMENTQUANTITY('2LZVTJYKfDjvAWhfz58lFv',$,'Qto_SlabBaseQuantities',$,$,(#1939,#1940));
#1942=IFCRELDEFINESBYPROPERTIES('2yPKZyBmXC4gX3fVNCXr4_',$,$,$,(#59),#1941);
#1943=IFCPROPERTYSINGLEVALUE('IsExternal',$,IFCBOOLEAN(.F.),$);
#1944=IFCPROPERTYSINGLEVALUE('LoadBearing',$,IFCBOOLEAN(.T.),$);
#1945=IFCPROPERTYSINGLEVALUE('ThermalTransmittance',$,IFCREAL(1.5),$);
#1946=IFCPROPERTYSET('1m31DFZlL0sgfG_dHh$fU0',$,'Pset_SlabCommon',$,(#1943,#1944,#1945));
#1947=IFCRELDEFINESBYPROPERTIES('14KQi9ycH1beAWjcvnDI2j',$,$,$,(#1399),#1946);
#1948=IFCRELASSOCIATESMATERIAL('07J9T5tbz2Cg3IMw_KdBLP',$,$,$,(#1399),#1913);
#1949=IFCQUANTITYAREA('GrossArea',$,$,1.96,$);
#1950=IFCQUANTITYVOLUME('GrossVolume',$,$,0.29399999999999998,$);
#1951=IFCELEMENTQUANTITY('1k9x4sQo59seXo9l3pujjt',$,'Qto_SlabBaseQuantities',$,$,(#1949,#1950));
#1952=IFCRELDEFINESBYPROPERTIES('38E49BZZH0ggkqu3PeTZQe',$,$,$,(#1399),#1951);
#1953=IFCPROPERTYSINGLEVALUE('IsExternal',$,IFCBOOLEAN(.F.),$);
#1954=IFCPROPERTYSINGLEVALUE('LoadBearing',$,IFCBOOLEAN(.T.),$);
#1955=IFCPROPERTYSINGLEVALUE('ThermalTransmittance',$,IFCREAL(1.5),$);
#1956=IFCPROPERTYSET('2qj$ubHZD9K9RBbWPeefbN',$,'Pset_SlabCommon',$,(#1953,#1954,#1955));
#1957=IFCRELDEFINESBYPROPERTIES('05kCkpDgL6fATy56GYyS$R',$,$,$,(#1419),#1956);
#1958=IFCRELASSOCIATESMATERIAL('2j46UPlRX46wDZClhCM5XZ',$,$,$,(#1419),#1913);
#1959=IFCQUANTITYAREA('GrossArea',$,$,1.96,$);
#1960=IFCQUANTITYVOLUME('GrossVolume',$,$,0.29399999999999998,$);
#1961=IFCELEMENTQUANTITY('3hUGXpn0X9z8h8hWb5eXbV',$,'Qto_SlabBaseQuantities',$,$,(#1959,#1960));
#1962=IFCRELDEFINESBYPROPERTIES('0N8Zuon1bFPuvjt5AFF4Ui',$,$,$,(#1419),#1961);
#1963=IFCSPACE('1_yhCkQ3rCnBM8MKAduapG',$,'Room_Ground Floor',$,$,$,$,'Main space \X2\2014\X0\ Ground Floor',$,$,$);
#1964=IFCRELCONTAINEDINSPATIALSTRUCTURE('0is_nb50v1gPc5LdGi29lk',$,$,$,(#1963),#14);
#1965=IFCPROPERTYSINGLEVALUE('IsExternal',$,IFCBOOLEAN(.F.),$);
#1966=IFCPROPERTYSINGLEVALUE('GrossPlannedArea',$,IFCREAL(400.),$);
#1967=IFCPROPERTYSINGLEVALUE('NetPlannedArea',$,IFCREAL(340.),$);
#1968=IFCPROPERTYSET('1UBORnyHfEKgsVNak8H3NH',$,'Pset_SpaceCommon',$,(#1965,#1966,#1967));
#1969=IFCRELDEFINESBYPROPERTIES('1pt2EzauH9$xbAtF21kYVD',$,$,$,(#1963),#1968);
ENDSEC;
END-ISO-10303-21;
